<?xml version="1.0" encoding="utf-8"?>
<!-- Generator: Adobe Illustrator 17.1.0, SVG Export Plug-In . SVG Version: 6.00 Build 0)  -->
<!DOCTYPE svg PUBLIC "-//W3C//DTD SVG 1.1//EN" "http://www.w3.org/Graphics/SVG/1.1/DTD/svg11.dtd">
<svg version="1.1" xmlns="http://www.w3.org/2000/svg" xmlns:xlink="http://www.w3.org/1999/xlink" x="0px" y="0px"
	 viewBox="0 0 583.4 648" enable-background="new 0 0 583.4 648" xml:space="preserve">
<g id="_x34_">
	<g>
		<path d="M583.4,462c0.1-1.2-0.2-2.1-1-2.7c-0.7-0.6-1.5-0.8-2.3-0.6c-1.1,0.2-1.8,0.9-2,2.2c-0.9,5-2,9.8-3.5,13.9
			c-1.5,4.1-4.7,10.8-5.1,10.8c0,0-4.3-9.9-6.9-15c-2.6-5.2-5.1-10.2-7.5-15.1c-2.4-4.9-4.5-9.4-6.3-13.5c-1.8-4.1-2.9-7.6-3.4-10.5
			c-0.5-2.7-0.4-4.7,0.3-6c0.6-1.3,1.4-2,2.3-2.2c1.2-0.2,2,0,2.5,0.5c0.5,0.5,0.9,1.1,1.3,1.9c0.4,0.7,0.8,1.4,1.2,2
			c0.4,0.6,1.2,0.8,2.2,0.7c0.6-0.1,0.9-0.7,1-1.9c0-1.1-0.2-2.3-0.8-3.5c-0.6-1.2-1.6-2.2-3-3.1c-1.4-0.9-3.2-1.1-5.5-0.8
			c-1.8,0.3-3.8,0.9-6.1,1.8c-2.3,0.9-4.3,2.1-6.1,3.7c-1.8,1.6-3.3,3.5-4.4,5.8c-1.1,2.2-1.4,5-0.9,8.2c0.3,2,1,4.5,2,7.3
			c1,2.9,3.4,6.7,3.7,9.1c0.2,1.4-0.6,3.7-0.9,5.3c-0.3,1.6-0.6,3.1-0.9,4.3c-0.3,1.4-0.5,2.8-0.8,4c0,0,0,0,0,0
			c-1.6,7.9-2.8,15.6-4.3,22.1c-1.2,5.5-2.7,10.7-4.2,15.4c-1.6,4.7-3,7.2-4.3,7.4c-0.5,0.1-1.2-1.6-2.3-5c-1.1-3.4-2.1-7.9-3-13.5
			c-1-5.6-1.7-12.1-2.3-19.3c-0.6-7.2-0.5-14.8-0.1-22.4c0.1-1.7-1.4-3.1-4.3-4c-2.9-1-5.8-1.3-8.6-0.9c-1.2,0.2-2.3,0.5-3.4,1.1
			c-1,0.6-1.8,1.4-2,2.5c-0.2,1-0.5,2.6-0.6,2.7c-0.2,0.1-3.6-2-6.2-2.6c-2.6-0.5-5.8-0.5-9.8-0.1c-5.4,0.7-10.1,2.6-14.2,5.9
			c-4.1,3.3-7.4,7.3-10.1,11.9c-2.6,4.7-4.5,9.8-5.7,15.4c-0.1,0.7-0.3,1.4-0.4,2.1c-1.8,6.4-3.5,12.3-5.2,17.5
			c-1.1,3.2-2.3,6.3-3.5,9.3c-1.2,3-2.4,5.8-3.6,8.2c-1.1,2.4-2.3,4.4-3.4,6c-1.2,1.6-2.2,2.4-3.2,2.5c-0.5,0-0.8-1.6-0.8-4.9
			c-0.1-3.3-0.1-7.6-0.2-12.8c-0.1-5.2-0.1-10.9,0-17c0.1-6.1,0.1-11.9-0.1-17.5c-0.1-5.6-0.3-10.4-0.4-14.6c-0.2-4.2-0.6-6.9-1.1-8
			c-0.8-1.7-2.6-3.1-5.5-3.9c-2.9-0.8-5.5-1.1-8-0.9c-2.3,0.2-3.8,0.7-4.5,1.7c-0.4,0.6-1.3,3.1-2.8,7.5c-1.4,4.5-3.1,9.8-5,15.8
			c-1.9,6-3.8,12.4-5.8,19c-2,6.6-5.1,17.1-5.1,17c0,0-0.3-8.4-0.7-13c-0.3-4.6-0.7-8.9-1.1-12.9c-0.4-4-0.8-7.4-1.2-10.2
			c-0.3-2.8-0.7-4.4-1-4.9c-0.7-1-2-1.7-3.9-2.2c-1.9-0.5-3.8-0.7-5.6-0.6c-2.8,0.2-4.6,0.8-5.5,1.9c-0.4,0.5-1.2,2.1-2.3,4.6
			c-1.1,2.5-2.4,5.7-3.8,9.4c-1.4,3.8-3,7.9-4.7,12.4c-1.7,4.5-4.7,13.6-4.8,13.6c0,0,0.1-11.8,0.1-19.6c0-7.8,0.1-17.2,0.4-28.1
			c0-1.9-1.3-3.3-4.2-4.4c-2.8-1.1-5.5-1.6-8.2-1.4c-2.9,0.1-5.2,1-6.1,2.6c-0.5,0.7-0.8,4.3-1.2,10.3c-0.4,5.4-0.5,11.5-0.5,18.4
			c-2.1,6.4-3.9,12.6-5.7,17.6c-1.7,4.6-3.6,8.9-5.4,12.7c-1.9,3.8-3.6,5.7-5,5.8c-0.8,0-1.5-1.5-2-4.6c-0.6-3.1-1.1-7-1.5-11.7
			c-0.4-4.8-0.8-10-1-15.7c-0.2-5.7-0.4-11.2-0.5-16.5c-0.2-7.8-0.2-15.8,0-23.8c0.1-5.3,0.3-10.6,0.5-15.9
			c6.2,1.8,12.4,3.2,18.8,3.9c13.3,1.4,24.1-0.4,36.2-6.2c7.3-3.6,13.4-10.7,14.2-19c0.1-1.3,0.1-3.9-0.6-5.9
			c-0.7-1.8-1.9-3-4.3-1.9c-2.6,1.2-2.7,6.8-4.1,9.1c-1.8,3-4.3,5.6-7.3,7.2c-6.8,3.6-14.9,4.4-22.5,4.4
			c-10.1-0.1-20.1-2.7-29.9-5.5c0.2-4.7,0.5-9.5,0.8-14.3c0.3-3.9,0.4-6.3,0.4-7.2c-0.1-2-1.1-3.5-3-4.4c-1.9-0.9-3.9-1.3-5.8-1.3
			c-1.6,0-3.3,0.3-4.9,0.7c-1.6,0.5-2.8,1.3-3.5,2.5c-0.3,0.5-0.7,3.1-1.2,7.8c-0.4,3.7-0.8,7.4-1.1,11.1c0.1-0.8-14.4-2.2-15.8-2.3
			c-5.4-0.3-11-0.2-16.3,1c-4.9,1.1-9.7,3.2-13.4,6.7c-1.9,1.7-9.1,10.3-5.3,11.9c2.2,0.9,4.1-2.2,5.3-3.6c2-2.3,3.7-3.8,6.6-4.8
			c9.9-3.5,21.5-0.2,31.3,2.3c2.3,0.6,4.5,1.2,6.8,1.9c-0.4,6.7-0.6,13.5-0.9,20.2c-0.2,6.7-0.3,13.3-0.2,20
			c0.1,6.6,0.4,12.9,0.8,19c-1.6,4.4-3.3,8.6-5.4,12c-2.2,3.8-6.4,9.9-6.8,9.8c0,0-2.6-10.4-4.2-16c-1.7-5.5-3.3-10.9-4.9-16.1
			c-1.6-5.2-2.9-10-4-14.3c-1.1-4.4-1.6-8-1.6-10.9c0-2.7,0.4-4.7,1.3-5.9c0.8-1.2,1.7-1.8,2.6-1.8c1.2,0,2,0.3,2.4,0.9
			c0.4,0.6,0.7,1.3,0.9,2c0.2,0.8,0.5,1.5,0.8,2.2c0.3,0.7,1,1,2.1,1c0.6,0,1-0.6,1.3-1.7c0.2-1.1,0.1-2.3-0.2-3.6
			c-0.4-1.3-1.2-2.5-2.4-3.6c-1.2-1.1-3-1.7-5.3-1.7c-1.8,0-3.9,0.2-6.3,0.7c-2.4,0.5-4.6,1.4-6.7,2.6c-2.1,1.3-3.9,2.9-5.3,4.9
			c-1.5,2-2.2,4.7-2.3,7.9c0,2,0.2,4.6,0.7,7.6c0.5,3,2.2,7.2,2.1,9.6c-0.1,1.4-1.2,3.6-1.8,5.1c-0.6,1.5-1.1,2.9-1.6,4.1
			c-0.4,1-0.8,2.1-1.2,3.1c-0.1,0.2-0.2,0.5-0.3,0.7c0,0,0,0,0,0c-0.1,0.4-0.2,0.7-0.3,1c-1.7,6.1-4.7,12.5-6.9,17.6
			c-2.1,4.7-4.3,9.1-6.3,12.9c-2.1,3.9-3.9,5.8-5.3,5.8c-0.5,0-1.1-0.4-1.9-1.1c-0.8-0.7-1.5-2-2.2-3.8c-0.7-1.8-1.2-4.4-1.6-7.6
			c-0.4-3.3-0.5-7.5-0.4-12.8c0.1-3.9,0.3-7.8,0.7-11.6c0.3-3.8,0.7-7.3,1.1-10.5c0.4-3.1,0.7-5.8,1-7.9c0.3-2.1,0.4-3.4,0.5-4
			c0-0.9-0.8-1.8-2.5-2.8c-1.7-1-3.7-1.5-6-1.6c-1.7-0.1-3.5,0.3-5.4,1c-1.9,0.7-3,1.9-3.4,3.3c-0.3,1-0.9,3.6-1.6,7.9
			c-0.6,3.5-1,7.9-1.3,12.9c0,0,0,0.1,0,0.1c-2.4,8.3-7.4,17.2-11,24.1c-1.5,3-3.2,5.9-4.8,8.7c-1.7,2.8-3.2,5.4-4.7,7.6
			c-1.5,2.2-2.9,4-4.3,5.4c-1.4,1.4-2.5,2.1-3.5,2c-1-0.1-1.5-1.4-1.7-4.1c-0.2-2.7,0-6,0.4-10c0.5-4,1.1-8.4,1.8-13.2
			c0.7-4.8,1.5-9.5,2.2-14c0.7-4.5,1.4-8.5,1.9-11.9c0.6-3.5,0.9-5.9,1-7.3c0.2-3.4-0.2-6.1-1.1-8c-0.9-1.9-2.1-3.5-3.7-4.6
			c-1.6-1.1-3.5-1.9-5.7-2.3c-2.2-0.4-6.7-0.3-7-0.8c-0.3-0.5,1.4-7.5,0.6-9.3c-0.8-1.8-2.2-2.8-4.2-3c-1.8-0.1-3.5,0.6-5,2.2
			c-1.5,1.6-2.5,3.4-3,5.4c-0.5,2-0.5,3.9,0.2,5.7c0.7,1.8,4.4,2.4,4.7,2.9c0.5,0.8-4.1,13.7-7.1,21.3c0,0,0,0,0,0
			c-4.4,9.5-8.5,18.5-12.4,26c-1.7,3.3-3.4,6.5-5.2,9.6c-1.8,3.1-3.5,5.9-5.1,8.3c-1.7,2.4-3.2,4.4-4.6,5.8c-1.4,1.4-2.6,2.1-3.6,2
			c-1.1-0.1-2-0.9-2.6-2.3c-0.6-1.4-0.6-4.7,0.2-9.5c1.2-7.4,2.7-14.3,4.3-20.7c1.6-6.4,3.1-12.2,4.6-17.5c1.5-5.3,2.8-9.9,3.9-13.9
			c1.1-4,1.8-7.4,2-10.1c0.4-4.8-0.5-9.2-2.7-13.2c-2.2-4-5.1-6.2-8.6-6.6c-3.2-0.3-6.4,0.7-9.7,2.9c-3.2,2.3-6.3,5.4-9.3,9.4
			c-3,4-5.9,8.6-8.7,13.9c-2.8,5.3-8,16.5-8.1,16.5c0,0,2.3-13.9,3.9-22.4c1.5-8.5,3.5-18.6,5.6-30.2c0.8-4.7,1.7-9.3,2.6-13.6
			c0.9-4.4,1.8-8.3,2.5-11.8c0.8-3.5,1.4-6.5,1.9-8.9c0.5-2.4,0.7-3.9,0.8-4.4c0.2-1.6-0.1-3.3-1.4-4.8c-1.3-1.5-3.6-2.8-6.7-3.3
			c-1.5-0.3-3.5-0.2-5.5,0c-2,0.2-3.7,1.2-4.5,2.9c-1.2,2.6-2.4,7.7-3.8,14.1c-1.4,6.4-2.9,13.8-4.4,22.2
			c-1.5,8.3-2.8,17.2-4.1,26.6c-1.2,8.7-2.2,17.2-3,25.5c-2.7,5.3-5.7,11.3-9.2,17.8c-3.5,6.6-7.2,12.7-10.9,18.2
			c-3.7,5.5-7.5,10.1-11.2,13.6c-3.8,3.5-7.3,5.1-10.5,4.6c-2.3-0.3-3.8-2.7-4.7-7.1c-0.8-4.4-1.2-9.8-1.1-16.1
			c0.1-6.3,0.6-13.1,1.4-20.4c0.8-7.3,1.7-14,2.6-20.1c1.4-9.3,3.5-18.8,6.3-28.6c2.8-9.8,5.9-18.6,9.3-26.5
			c3.3-7.9,6.7-14.3,10.1-19.3c3.4-5,6.5-7.3,9.3-6.9c1.5,0.2,2.2,1,2,2.5c-0.1,1.5-0.4,3-0.7,4.8c-0.4,1.8-0.6,3.4-0.5,5
			c0,1.5,0.8,2.4,2.3,2.6c1.6,0.2,3.2-1.1,4.7-4c1.5-2.9,2.3-6.2,2.3-9.9c0-3.7-1.1-7.2-3.3-10.6c-2.2-3.4-6.1-5.4-11.8-6.2
			c-3.8-0.5-8.2,0.7-13.3,3.5c-5.1,2.9-10.2,7.9-15.3,14.9c-5.1,7.1-10,16.4-14.6,27.9C9.5,428,5.8,442.2,3.1,459
			c-2.7,16.9-3.6,30.3-2.7,40.3c0.9,10,2.9,17.7,6,23c3.1,5.3,6.8,8.9,11.3,10.6c4.4,1.8,8.9,3,13.3,3.6c3.6,0.5,7.5-1.2,11.7-5.1
			c4.2-3.9,8.4-8.9,12.5-14.9c4.1-6,8-12.5,11.6-19.3c1.1-2.1,2.2-4.1,3.2-6.1c-0.3,4.4-0.4,8.6-0.5,12.7
			c-0.1,7.7,0.2,14.1,0.9,18.9c0.3,1.9,1,3.4,2.3,4.3c1.3,0.9,2.6,1.5,3.9,1.6c1.4,0.2,2.7,0,3.9-0.6c1.1-0.6,1.7-1.6,1.7-2.9
			c0-0.8-0.1-1.8-0.1-2.8c0-1,0-2.6,0.4-4.3c1.5-7.8,4.9-16.4,8-24.2c3.1-7.8,6.3-14.8,9.6-20.9c3.2-6.1,6.2-10.9,9-14.5
			c2.8-3.6,4.9-5.1,6.2-4.9c0.4,0.1,0.3,1.7-0.6,5c-0.9,3.3-2,7.3-3.4,12.1c-1.4,4.8-2.9,10.1-4.5,15.7c-1.6,5.6-2.9,10.9-3.8,15.7
			c-3,16.3-3.1,28.8-0.3,36.8c2.7,8,7,12.3,12.7,12.8c1.8,0.2,3.8-0.6,5.9-2.3c2.1-1.7,4.3-4,6.5-6.8c2.2-2.8,4.4-5.9,6.5-9.2
			c2.1-3.3,4.7-7.9,7.7-13.6c5.1-9.7,11.2-21,15.7-33c0.1-0.2,0.1-0.4,0.2-0.6c0.1-0.2,0.3-0.5,0.4-0.8c1.1-2.2,2.1-4.8,3.1-7.8
			c1-2.9,1.9-5.7,2.7-8.4c0.8-2.7,1.4-5.2,1.5-5.3c0.1,0,1.1,0.9,1.4,1.5c0.3,0.6,0.5,1.7,0.4,3.2c-0.2,2.6-0.6,5.9-1.5,10.2
			c-0.8,4.2-1.7,8.8-2.5,13.7c-0.9,4.9-1.8,10-2.7,15.3c-0.9,5.3-1.5,10.5-1.8,15.4c-0.5,7.3,0.6,13.2,3.4,17.6
			c2.7,4.4,6.7,6.7,11.9,7c1.8,0.1,3.7-0.6,5.6-2.3c2-1.6,3.9-3.6,5.9-6.1c2-2.5,3.9-5.2,5.8-8.2c1.9-3,4.2-7.1,6.8-12.2
			c2.7-5.1,5.7-10.9,8.5-17.1c0.1,2.6,0.2,5.1,0.4,7.4c0.5,5.8,1.5,10.9,3,15.2c1.5,4.3,3.7,7.7,6.4,10.2c2.7,2.5,6.2,3.8,10.2,3.9
			c1.3,0,2.6-0.6,4-1.9c1.4-1.3,2.8-3,4.2-5c1.4-2,2.8-4.3,4.1-6.8c1.3-2.5,2.9-6,4.7-10.2c3.2-7.1,6.9-15.4,9.6-24.2c0,0,0,0,0,0
			c0.3-0.8,0.7-1.8,1.1-2.8c0.4-1,1.3-3.3,1.3-3.3c0,0,4,14.4,6.2,21.7c2.2,7.3,5.8,16.9,5,19.1c-0.6,1.6-6.4,4.7-8.7,7
			c-2.3,2.3-3.4,5.2-3.5,8.8c0,2.4,0.4,4.4,1.2,5.9c0.8,1.5,1.8,2.8,2.9,3.9c1.1,1,2.3,1.8,3.5,2.2c1.2,0.4,2.2,0.7,3.1,0.7
			c6.8,0,11.7-2.5,14.5-7.4c2.8-5,4.2-11.7,4.1-20.2c0-1,0-2.1,0-3.2c0-1.1-0.7-3-0.5-3.7c0.6-2.3,6.2-7.4,9.2-12
			c1-1.6,2-3.3,2.9-5.2c0.8,6.3,1.9,11.9,3.2,16.9c1.7,6.2,3.9,11.1,6.5,14.7c2.6,3.6,5.9,5.4,9.8,5.3c1.3,0,2.6-0.7,3.9-2.1
			c1.3-1.4,2.7-3.2,4.1-5.2c1.4-2.1,2.7-4.4,3.9-7c1.2-2.6,2.6-6.1,4.2-10.4c1.1-2.9,2.2-5.9,3.3-9.1c0.2,3.3,0.4,6.7,0.8,10.1
			c0.8,8.3,2.5,15.2,4.4,20.5c0.4,1.1,1.6,2,3.6,2.5c2,0.5,4.1,0.7,6.2,0.6c1.8-0.1,3.2-0.4,4.3-0.8c1.1-0.5,1.7-1.3,1.6-2
			c-0.1-0.4-0.5-1.6-0.4-2.8c0.3-4.3,2.2-10.1,3.8-15.9c1.6-5.8,3.2-11.3,4.9-16.4c1.6-5.1,3-9.4,4.3-12.8c1.2-3.4,1.9-5.1,2.1-5.1
			c0.3,0,0.6,1.9,0.8,5.9s0.5,8.4,0.9,13.4c0.4,5,0.7,9.9,1.1,14.7c0.4,4.8,0.8,8.1,1.2,9.9c0.5,2.2,1.9,3.6,4.2,4.2
			c2.4,0.6,4.5,0.9,6.5,0.8c1.6-0.1,2.8-0.6,3.3-0.7c0.6-0.2,1.8-1.6,3.1-4.7c1.2-3.1,2.6-6.9,4-11.4c1.4-4.6,2.9-9.4,4.3-14.7
			c1.4-5.2,2.8-10.1,4.1-14.7c1.3-4.5,2.4-8.4,3.3-11.4c0.9-3.1,1.5-4.6,1.9-4.6c0.2,0,0.1,2.1-0.1,6.3c-0.2,4.2-0.5,9.3-0.8,15.2
			c-0.3,5.9-0.5,12.1-0.7,18.5c-0.1,6.4,0,11.9,0.4,16.5c0.5,6.1,2.2,11.3,5.3,15.6c3,4.3,6.7,6.3,10.9,5.9c1.8-0.2,3.5-1.2,5.2-3.2
			c1.7-1.9,3.4-4.4,5.1-7.3c1.7-2.9,3.3-6.1,4.8-9.5c1.5-3.4,3.3-8.1,5.3-13.9c0.8-2.2,1.6-4.6,2.4-7c1.2,6.6,3.2,11.8,6.1,15.6
			c3.7,4.8,8.8,6.8,15.4,6.1c2.6-0.3,5-1.9,7.3-5c2.3-3,4.5-6.8,6.7-11.2c2.1-4.5,4-9.4,5.7-14.9c1.7-5.5,4.4-15.7,4.4-15.7
			c0,0,0.2,4,0.4,5.9c0.2,1.9,0.4,3.7,0.6,5.6c0.5,3.6,1.3,7.5,2.5,11.7c1.2,4.2,2.8,8.1,4.9,11.5c2.1,3.4,4.6,6.2,7.5,8.3
			c2.9,2.1,6.3,2.9,10.1,2.3c1.3-0.2,2.5-1.1,3.8-2.9c1.2-1.7,2.4-3.8,3.5-6.2c1.1-2.4,2.1-5.1,3.1-8.1c0.9-3,2-7,3.2-12
			c1.9-8,4.2-17.6,5.5-27.8c0,0,0,0,0,0c0.2-0.9,0.4-1.9,0.6-2.9c0.2-1.1,0.7-3.5,0.8-3.5c0,0,6.4,13.5,9.8,20.3
			c3.4,6.8,8.6,15.7,8.1,18c-0.4,1.7-5.6,5.7-7.4,8.3c-1.9,2.6-2.5,5.7-1.9,9.3c0.4,2.4,1.1,4.2,2.1,5.6c1,1.4,2.2,2.5,3.5,3.3
			c1.3,0.8,2.6,1.4,3.9,1.6c1.3,0.2,2.3,0.3,3.1,0.1c6.8-1.1,11.1-4.4,13.1-9.7c1.9-5.4,2.1-12.2,0.6-20.6c-0.2-1-0.4-2.1-0.6-3.2
			c-0.2-1.1-1.2-2.9-1.1-3.6c0.2-2.3,4.9-8.4,7.1-13.4C581.3,474.6,582.8,468.7,583.4,462z M266.8,542.5c-0.6,1.9-1.3,2.8-2.1,2.8
			c-2.1,0-3.2-1.3-3.1-3.9c0-1.5,0.6-3,1.7-4.5c1.1-1.4,4.2-4.6,4.4-4.5C267.7,532.5,267.4,540.6,266.8,542.5z M483.6,490.8
			c-1.2,4.2-2.6,8-4,11.4c-1.4,3.4-2.9,6.3-4.4,8.5c-1.5,2.2-3,3.4-4.4,3.6c-0.8,0.1-1.6-0.4-2.5-1.4c-0.8-1-1.4-3-1.8-5.9
			c-0.7-6.3-0.7-12.1,0.2-17.4c0.8-5.3,1.9-10,3.4-14.1c1.4-4,3-7.2,4.9-9.6c1.8-2.4,3.4-3.6,4.8-3.8c1.1-0.1,2.1,0.4,2.9,1.6
			c0.9,1.2,1.6,2.6,2.1,4.4c0.5,1.7,1,3.5,1.4,5.4c0.4,1.8,0.9,3.7,0.9,4.8C486.8,481.7,484.8,486.6,483.6,490.8z M559.5,519
			c-0.2,1.9-0.8,3-1.6,3.1c-2.1,0.3-3.3-0.8-3.8-3.3c-0.3-1.5,0.1-3.1,0.9-4.7c0.9-1.6,3.3-5.2,3.6-5.1
			C558.7,509,559.8,517,559.5,519z"/>
		<path d="M147.9,386.6c0,4.5,2.7,5.1,6.9,4.6c21.4-2.4,27.2-24.5,28.3-47.8c0.8-16.4-1.8-37.1-15.7-48.6c-3.9-3.2-9.3-4.3-14.5-4.3
			h-1.2c-2.7,1.1-3.8,3.8-3.8,6.5v0.5c0.1,10.2,0.1,58.4,0,68.7V386.6z M155.3,342.9c0-6.6,0.6-38,0.9-44.8h0.9
			c18,0,18.7,37.2,18.7,46.7c0,13.2-4.4,37.1-20.5,39.3C155.1,371.9,155.3,353.6,155.3,342.9z"/>
		<path d="M246.7,391.1c0.4,1.4,1.8,1.6,3,1.7h0.3c2.1,0.1,4.3-0.2,4.4-2.2l2.3-45.8c3.9-13.7,13.6-26.6,18.9-40.2v-0.8
			c0-1.9-1.8-2.2-3.9-2.3c-4.5,0-4.5,4.2-5.7,7c0.4,0.1-12.1,27-13.4,27.9c-4.9-10.2-7.8-22.5-11.8-33.2c-1-1.9-3.2-2.5-5.4-2.5
			c-1.7,0-3,0.7-3.1,2c0,1,0.3,1.6,0.9,2.9c0.4,1.1,4,9.9,4.5,10.9l11,27.8c0,4.8-1.6,36-1.9,45
			C246.9,390.2,246.7,390.6,246.7,391.1z"/>
		<path d="M295.1,382.9h-0.8c-6.5-3.5-1.6-14.1-6.7-15.5c-2.1-0.6-5.1,1.4-5.1,3.5c0,7.2,3,18.3,12.6,18.3c7.9,0,13.7-8.5,15.8-14.8
			c3.1-9.1,0.4-22.6-4.9-31.9c-5.8-10.1-16.9-18.6-16.9-30.8c0-4.2,0.5-12.8,7.1-12.8c7.1,0,5.6,7.2,10.6,7.2c2.6,0,3.4-1.3,3.4-3.6
			c0-6.3-9.5-10.5-15.2-10.5c-8.9,0-13.4,11.2-13.4,17.9c0,14.9,13.1,25.7,19.2,38.7c3,6.3,3.5,13.4,3.5,20
			C304.4,373.7,302.4,382.9,295.1,382.9z"/>
		<path d="M382,300.1c0-3.5-5.1-3.9-8.2-4h-11.7c-14.5-0.7-14.5,0.7-14.8,4.8c0.3,2,4.2,2.2,12.8,1.7l2.8,76.2
			c0,1.1,2.8,1.7,3.6,1.7c0.8,0,3.6-0.6,3.6-1.7l-2.6-76.4h11.7C380.5,302.4,382,301.2,382,300.1z"/>
		<path d="M395.4,300.7l-3.8,89.3c0,3.5,7.8,3,8.1-2.3l4.2-82.3c0-0.2,0.1-1.8,0.1-2.2c0-3.5,0-5.1-4-5.1
			C397.1,298.2,396.4,298.3,395.4,300.7z"/>
		<path d="M426,297.1c-0.8-2.6-1.9-2.5-4.5-2.5c-0.6,0-2.2,0.1-2.6,0.2c-1,0.8-1,1.2-1,2.2v0.8c0.1,2.3,1.8,20.7,1.8,23
			c0,8.2,1.7,70.3,1.8,70.3l28.3-3.6c1.9-0.2,2.8-1.3,2.8-2.6c0-2.4-2.5-2.9-4.7-2.9c-6,0-11.6,1.7-17.4,1.7h-1
			c-1.7-24.8-1.9-49.7-2.6-74.2C426.7,304.7,427.3,301.8,426,297.1z"/>
		<path d="M66.2,325.5c1,13.6,15.6,15.7,29.1,15.7c3.4,0,6.6-0.1,9.6-0.3c3.6-0.1,6.9-0.3,9.4-0.2c2.9,0.1,5.2-2.1,5.4-4.9
			c0.1-2.8-2.1-5.2-4.9-5.4c-2.9-0.1-6.5,0-10.2,0.2c-11,0.4-27.5,1.1-28-5.9c-0.9-12.3,12.2-24.6,22.6-34.5
			c2.9-2.7,5.6-5.3,7.9-7.7c4.4-4.6,8.9-9.4,13.7-13.7c5-4.6,9.9-9.4,14.7-14c7.1-6.9,13.9-13.6,21.2-19.7c0,0,0.1,0,0.1,0
			c2.1,0.1,4,0.2,5.5,0.3c1.3,0.1,2.6,0.2,4,0.3c-0.8,0.9-1.3,1.8-1.5,2.8c-0.5,3.8,4.5,6.3,11,7.1c6.5,0.8,12-0.4,12.4-4.1
			c0.3-2.4-1.8-5.5-4.8-8.1c5.4-2.2,8.7-6.3,8.6-10.8c-0.1-5.3-4.8-9.9-11.1-10.7c-10.7-1.3-19.4,5.8-25.7,11
			c-0.7,0.6-1.4,1.1-2,1.7c-10.9-0.6-29.8-2.2-31-8.9c-0.7-4.2,4.8-9.2,8.8-12.9c0.8-0.8,1.7-1.5,2.4-2.2
			c7.7-7.4,15.3-14.7,22.7-21.6c4.9-4.6,9.8-9.1,14.7-13.6c2.1,2.1,6.8,2,11.9,0.4c6.2-1.9,10.7-5.3,9.6-8.8
			c-0.6-2.1-3.4-3.9-6.8-5.1c4-3.6,8-7.2,12-10.7c5,0,10.3-0.4,16.1-1.1c8-1,17.8-3.8,19.3-11.1c0.7-3.3-0.3-6.4-2.7-8.6
			c-3.9-3.7-10.8-3.9-15.5-2.6c-9,2.5-15.7,8.4-21.2,13.1c-7.2-0.3-13-1.6-17.4-3.9c-2.3-1.2-3.7-2.5-3.8-3.5
			c-0.3-4.5,11.5-13,15.9-16.2l1.3-0.9c12.3-8.9,25-18.5,38-28.5c-0.3,2.2-0.1,4,0.9,5.2c2.3,2.9,7.4,1.1,12.3-2.8
			c4.9-3.9,7.7-8.6,5.5-11.3c-0.9-1.1-2.6-1.8-4.7-2c2.8-2.3,5.7-4.7,8.5-7c11.7-9.7,23.9-19.8,37.1-25.9c11.4-5.3,17.2-1,26.7,6.1
			c1.3,0.9,2.5,1.9,3.9,2.9c0.3,0.2,0.5,0.4,0.8,0.6c-2.6,0.4-4.6,1.2-5.6,2.6c-2.4,3.3,1.1,8.1,6.8,12.1c5.6,4,11.4,5.5,13.6,2.3
			c0.9-1.3,1.1-3.5,0.6-5.9c0.4,0.3,0.8,0.5,1.2,0.8c22.8,16.2,46.4,32.9,67.3,52.4c4.6,4.3,6.8,8.8,6.4,10.8
			c-0.3,1.3-2.5,2.2-3.8,2.6c-5.6,1.7-12.6,2.5-19.4,2.6c-1.6-1.6-3.1-3.2-4.7-4.8c-3.2-3.3-7.2-7.5-13.2-9
			c-4.4-1.1-9.5-0.1-12.9,2.5c-2.6,2-4,4.7-4,7.6c-0.1,6.2,5.4,10.9,14.8,12.5c4.6,0.8,10,1.3,15.7,1.4c5.2,5.1,10.4,10.1,15.8,15
			c-4.7,1.7-8.4,4.2-8.9,7c-0.8,4,4.3,6.9,11.1,8.3c5.8,1.1,11,0.6,12.8-2c11.6,9.9,23.1,19.3,33.9,27.8
			c18.5,14.6,24.1,24.4,23.2,28.7c-0.6,2.8-4.9,4.6-8.3,5.5c-5.6,1.5-11.4,1.4-17.5,1.3c-2.9-0.1-5.9-0.1-8.9,0c-1,0-2,0.1-2.9,0.1
			c-0.7-0.6-1.4-1.2-2-1.8c-1.7-1.5-3.7-3.1-6.1-4.5c-4.8-2.7-17.9-4.6-24.1,0.3c-3.1,2.5-4.2,6.2-3,10.3c0.8,2.6,3.2,5.9,10.1,6.7
			c6.7,0.7,13.3,0.2,19.6-0.3c0.7-0.1,1.4-0.1,2-0.2c1.4,1.2,2.8,2.4,4.1,3.6c-0.5,0.1-0.9,0.3-1.3,0.6c-3,2.2-1.3,7.3,2.4,12.2
			c3.7,5,8.3,7.9,11.1,5.8c1.3-1,2.1-3.1,2.3-5.7c7.8,7.2,15.6,14.4,23.2,21.5c4.4,4.1,8.7,8.2,13.1,12.2c0.8,0.8,1.9,1.7,3.2,2.9
			c6.4,5.7,23.6,20.8,22.7,28.8c-0.1,0.6-0.2,2.1-3,3.6c-9.5,5.4-25.7,4.8-35.4,4.5c-2.8-0.1-5.2,2.1-5.3,5c-0.1,2.8,2.1,5.2,5,5.3
			c7.8,0.3,16.1,0.4,23.9-0.7c-1.2,3.1-1.6,5.9-0.6,7.7c2,3.7,8.1,2.6,14.3-0.8c6.3-3.4,10.3-8.1,8.4-11.7c-0.5-0.9-1.3-1.6-2.5-2.2
			c4-3.2,5.2-7,5.5-9.8c1.3-12.3-12.8-25.9-26.2-37.6c-1.2-1.1-2.2-2-3-2.7c-4.4-4.1-8.7-8.1-13.1-12.2c-11-10.3-22.2-20.8-33.7-31
			c0,0,0,0,0,0c6.6,0.1,13.5,0.3,20.5-1.6c1.9-0.5,3.6-1.1,5.1-1.8c2,2.4,6.7,1.4,11.6-1.3c5.2-2.9,8.6-6.8,7-9.7
			c-1-1.9-4.1-3-7.7-3.3c0.2-9.7-8.8-21.5-27.2-36.1c-17.9-14.2-38-30.6-56.8-48.4c4.4-0.5,8.7-1.3,12.5-2.5
			c7.6-2.3,10.1-6.8,10.8-10.1c2.1-9.1-6.7-18.1-9.4-20.7c-4.8-4.5-9.8-8.8-14.8-13c1.4-2,2.2-5.3,2.3-9.1c0.2-6.3-1.5-11.4-5-11.5
			c-2.9-0.1-6.7,3.7-9.1,8.1c-0.4,0.6-0.6,1.5-0.6,2.5c-13.5-10.6-27.5-20.5-41.1-30.2c-5.8-4.1-11.6-8.2-17.3-12.4
			c-1.3-0.9-2.5-1.9-3.7-2.8c-9.9-7.4-20.2-15.1-37.2-7.2c-4.3,2-8.5,4.4-12.6,7c-1.8-1.4-4.4-2.6-7.5-3.4
			c-6.1-1.6-11.5-1.1-12.4,2.4c-0.8,2.8,2.2,7.3,5.9,10.6c0.1,0.1,0.2,0.1,0.2,0.2c-4.4,3.5-8.8,7.1-13.1,10.6
			c-3.7,3.1-7.2,6-10.8,8.8c-16.8,13.2-33.3,25.8-49.1,37.2l-1.3,0.9c-8.3,6-20.9,15.1-20.2,25.3c0.4,4.9,3.5,8.9,9.3,11.9
			c3.4,1.7,7.3,3,11.8,3.9c-11.3,10.1-22.8,20.6-34.3,31.4c-4.9,4.6-9.9,9.4-15,14.2c-0.1-0.2-0.1-0.4-0.2-0.5
			c-2.4-4.5-5.5-8.1-8.4-8.1c-3.6,0-5.2,4.8-5.2,10.8c0,3.7,0.7,7,2,9c-5.3,5-11.8,12-10.2,20.7c2,11.4,16.4,15.1,30.1,16.6
			c-4.8,4.4-9.4,8.9-13.9,13.3c-4.7,4.6-9.5,9.3-14.4,13.7c-5,4.6-9.7,9.5-14.2,14.3c-0.5,0.5-1,1.1-1.6,1.6
			c-1.3-3.7-3.1-6.6-5.3-7.2c-3.6-0.9-6.5,3.5-8.1,9.5c-1.1,4.3-1.2,8.3,0.1,10.5C74.7,300,65.2,311.8,66.2,325.5z M179.6,222.2
			c0.7,0.1,1.4,0.4,1.7,0.6c-0.5,0.4-1.4,1-2.8,1.4c-3,1-6.4,1.3-9.7,1.2C172.3,223.3,175.9,221.8,179.6,222.2z M217.6,127.8
			c0.8-0.2,1.7-0.3,2.6-0.3c0.5,0,1,0,1.5,0.1c-1.7,0.9-5,1.9-9.4,2.4c-0.1,0-0.1,0-0.2,0C213.8,129.1,215.6,128.3,217.6,127.8z
			 M367.1,122.6c-2.9-0.5-4.9-1.4-5.8-2.1c0.9-0.4,2.4-0.8,3.7-0.4c1.8,0.5,3.5,1.6,5,2.9C369.1,122.9,368.1,122.8,367.1,122.6z"/>
		<path d="M216,401.7v-37.4h3.1l3.2,22.9c0.1,0.8,1.4,0.8,2.2,0.8h0.4c2.5,0,3-1,3.9-3.2c0-0.1,0.1-0.1,0.1-0.2l-0.8-7.8
			c-3.5-28.4-7-56.7-14.5-84.2l-1-2.5c-0.8-1.2-2.6-1.8-4-1.8c-3.2,0-4.1,3.4-4.8,5.7c0,0-0.1,0.2-13.6,87.5c0,1.2,1.2,4.3,2.9,4.3
			c3.8,0,3.6-5.2,3.9-7l2.2-13.6l0.8-0.7h10.7v37.4H216z M209.4,301l8.7,56.2l-16.2-0.4L209.4,301z"/>
		<path d="M480.6,548.4c-0.3-0.1-0.6-0.1-0.9-0.1c-0.9,0-1.7,0.5-2,1.3c-0.3,0.7-0.1,1.5,0.6,2.1c7.4,6.9,10.9,14.5,10,22
			c-0.9,7.9-6.7,15.3-16.3,20.8c-8.7,5-19.8,8.1-34.3,9.3c-1.4-5.1-4.6-9.6-9.5-12c-0.3-0.2-0.7-0.2-1-0.2c-0.7,0-1.4,0.4-1.7,1
			c-0.3,0.6-0.2,1.4,0.3,2c2.5,3.2,4.2,6.5,5.2,9.7c-3.3,0.2-6.8,0.2-10.4,0.2c-1.9,0-3.8,0-5.7-0.1c-32.8-0.6-64.3-10.7-94.7-20.5
			c-4.5-1.4-9-2.9-13.5-4.3c-34.5-10.8-68.4-20.5-105.1-21.1c-0.5,0-1,0-1.4,0c-25.2,0-66.3,10-68.8,36.7c0,0.3,0,0.5,0.1,0.8
			c-0.4,1.1-0.7,2.2-1,3.4c-0.2,0.7,0,1.5,0.5,2.1c0.5,0.6,1.2,1,2,1c0.8,0,1.5-0.4,1.9-1c9-12.4,23.1-18.7,42-18.7
			c12.8,0,28,2.9,45.2,8.6c19.4,6.5,38.1,15.6,56.1,24.3c12,5.8,24.4,11.9,36.9,17.1c24.7,10.3,46.2,15.3,65.8,15.3
			c8.9,0,17.4-1,25.5-3.1c14.4-3.7,25.1-12,30.1-23.6c1-2.4,1.7-5,2-7.7c8.5-1.3,16.5-3.2,24.1-5.9c16.4-5.8,27.8-16.1,32-29
			c2.1-6.3,1.5-13.9-1.6-19.9C490.3,553.7,486,550.1,480.6,548.4z M431.6,616.1c-1.7,7.2-7.2,13.2-15.9,17.3
			c-7.3,3.5-16.1,5.2-27.1,5.2c-6.3,0-13.4-0.6-21.7-1.8c-27.4-3.9-52.6-16.5-76.9-28.6c-3.6-1.8-7.2-3.6-10.8-5.4
			c-27.6-13.5-55-26-85.6-30.2c-3.8-0.5-7.8-0.8-11.9-0.8c-0.6,0-1.2,0-1.8,0c5.7-0.8,11.8-1.3,18.3-1.3c11.8,0,25.2,1.4,40,4.1
			c23.8,4.4,47.1,11.6,69.5,18.6c15,4.6,30.4,9.4,45.9,13.4c23,5.8,43.2,8.7,61.7,8.7c0,0,0,0,0,0c5.7,0,11.3-0.3,16.7-0.8
			C431.8,615,431.7,615.6,431.6,616.1z"/>
	</g>
</g>
<g id="_x33_">
	<path fill="#49B649" d="M184.5,166.8c-0.5,0.2-0.9,0.3-1.4,0.5c-3.7,1.1-6.9,1.5-9.3,1.1c-0.6,2.4-0.5,5.3,0.6,8.5
		c2.3,6.6,9.1,13.3,15.2,16.8c2,1.2,4.9,0.2,5.6-2c2.6-7.3,3.6-16,1.3-22.7c-1.1-3.1-2.6-5.3-4.4-6.7
		C190.5,164,187.9,165.6,184.5,166.8z"/>
	<path fill="#49B649" d="M432.8,254.8c-0.3-0.4-0.6-0.7-0.9-1.1c-2.2-3-3.6-5.7-4-8c-2.4,0.2-4.9,1.3-7.4,3.3
		c-5.2,4.3-9,12.5-10.2,19.2c-0.4,2.2,1.4,4.4,3.6,4.4c7.4-0.1,15.6-2,20.8-6.3c2.4-2,3.9-4.1,4.6-6.2
		C437.2,259.3,435,257.5,432.8,254.8z"/>
	<path fill="#49B649" d="M398.2,76.8c0,0.5,0,1,0,1.5c-0.1,3.7-0.8,6.7-1.9,8.8c2,1.4,4.7,2.2,7.9,2.1c6.8-0.1,15-4.1,20.2-8.6
		c1.7-1.5,1.7-4.4,0-5.8c-5.9-4.6-13.5-8.4-20.3-8.3c-3.1,0-5.6,0.7-7.5,1.9C397.6,70.5,398.2,73.3,398.2,76.8z"/>
	<path fill="#49B649" d="M261.6,26.7c0.5,0.1,0.9,0.2,1.4,0.3c3.6,1,6.4,2.3,8.2,3.8c1.8-1.7,3.1-4.1,3.8-7.3
		c1.4-6.6-0.7-15.5-4-21.6c-1.1-2-3.9-2.6-5.6-1.2c-5.8,4.7-11.1,11.4-12.5,18c-0.7,3.1-0.5,5.6,0.2,7.8
		C255.3,25.9,258.2,25.9,261.6,26.7z"/>
</g>
<g id="_x32_">
	<path fill="#EE3C39" d="M82.9,280.5c0.1-0.5,0.2-0.9,0.3-1.4c1-3.6,2.3-6.3,3.8-8.1c-1.7-1.8-4.1-3.1-7.2-3.8
		c-6.6-1.4-15.4,0.7-21.4,4c-2,1.1-2.6,3.8-1.2,5.6c4.7,5.7,11.2,11,17.8,12.4c3,0.7,5.6,0.5,7.7-0.2
		C82.1,286.8,82.1,283.9,82.9,280.5z"/>
	<path fill="#EE3C39" d="M481.8,231.7c-0.4,0.2-0.8,0.5-1.2,0.7c-3.1,1.7-5.9,2.6-8.2,2.8c-0.1,2.3,0.5,4.9,2.2,7.5
		c3.4,5.5,10.7,10.2,16.9,12.2c2.1,0.7,4.4-0.7,4.7-2.9c0.9-7.1,0.2-15.1-3.2-20.7c-1.6-2.5-3.4-4.2-5.3-5.2
		C486.7,228,484.7,229.9,481.8,231.7z"/>
	<path fill="#EE3C39" d="M320.1,60.4c-0.4-0.3-0.9-0.6-1.3-0.9c-3.4-2.4-5.7-4.8-7-7.1c-2.5,1.1-4.8,3-6.7,6
		c-4,6.3-5.2,16.3-4.1,23.8c0.4,2.5,3,4.2,5.4,3.4c7.8-2.7,15.8-7.5,19.8-13.8c1.8-2.9,2.7-5.6,2.8-8.1
		C326.4,63.6,323.4,62.5,320.1,60.4z"/>
	<path fill="#EE3C39" d="M218.2,408.4v-5.2h-9.5v5c-8,2-14,9.2-14,17.8c0,10.2,8.2,18.4,18.4,18.4s18.4-8.2,18.4-18.4
		C231.6,417.6,225.9,410.6,218.2,408.4z"/>
</g>
<g id="_x31_">
	<path fill="#FFF100" d="M177,247.3c-0.5,0-1-0.1-1.5-0.2c-3.9-0.5-6.9-1.5-9-2.9c-1.6,2-2.7,4.7-3,8c-0.6,7.1,2.8,15.9,7,21.7
		c1.4,1.9,4.4,2.2,6,0.5c5.4-5.7,9.9-13.2,10.5-20.3c0.3-3.2-0.2-5.9-1.3-8C183.7,247.2,180.7,247.6,177,247.3z"/>
	<path fill="#FFF100" d="M118.9,189.4c0-0.5,0-0.9,0-1.4c0-3.6,0.5-6.4,1.5-8.5c-2-1.2-4.5-1.9-7.6-1.7c-6.5,0.3-14.2,4.4-18.9,9
		c-1.6,1.5-1.5,4.2,0.3,5.5c5.8,4.2,13.2,7.5,19.7,7.2c3-0.1,5.3-0.9,7.1-2.1C119.7,195.4,119,192.7,118.9,189.4z"/>
	<path fill="#FFF100" d="M509.6,343.6c-0.5,0.3-0.9,0.6-1.4,0.8c-3.7,2.1-7.1,3.1-9.8,3.3c-0.1,2.8,0.6,5.8,2.6,9
		c4,6.6,12.8,12.3,20.3,14.7c2.5,0.8,5.3-0.9,5.6-3.4c1.1-8.5,0.2-18.1-3.8-24.7c-1.9-3-4-5.1-6.3-6.3
		C515.4,339.2,513,341.5,509.6,343.6z"/>
	<path fill="#FFF100" d="M400.3,166.1c-0.5-0.1-1-0.2-1.6-0.3c-4-0.8-7.2-2-9.3-3.6c-1.8,2-3.1,4.7-3.7,8.2
		c-1.1,7.4,1.9,17,5.9,23.4c1.3,2.1,4.4,2.6,6.3,0.9c6-5.6,11.4-13.3,12.5-20.6c0.5-3.4,0.2-6.2-0.8-8.5
		C407.4,166.5,404.2,166.7,400.3,166.1z"/>
	<path fill="#FFF100" d="M242.7,80.5c-0.4,0.3-0.7,0.6-1.1,0.9c-2.9,2.3-5.6,3.8-8,4.3c0.3,2.4,1.4,4.9,3.6,7.4
		c4.5,5.1,12.9,8.7,19.7,9.6c2.3,0.3,4.4-1.5,4.3-3.8c-0.3-7.5-2.5-15.7-7-20.8c-2.1-2.3-4.2-3.8-6.4-4.5
		C247.1,75.8,245.3,78.1,242.7,80.5z"/>
	<polygon fill="#FFF100" points="59.3,537.4 74.3,556.8 98.8,555.5 85,575.8 93.8,598.7 70.3,591.7 51.2,607.2 50.5,582.7 
		29.9,569.4 53,561.1 	"/>
	<polygon fill="#FFF100" points="476,382.5 482.6,401.4 501.9,406.6 486,418.8 487,438.7 470.6,427.3 451.9,434.4 457.6,415.3 
		445.1,399.7 465.1,399.2 	"/>
</g>
</svg>
