<svg id="svg" xmlns="http://www.w3.org/2000/svg" xmlns:xlink="http://www.w3.org/1999/xlink" width="400" height="400" viewBox="0, 0, 400,400" version="1.1"><g id="svgg"><path id="path0" d="M344.147 59.156 C 340.182 59.992,334.022 64.564,331.494 68.547 C 331.164 69.067,330.703 69.614,330.469 69.762 C 330.236 69.910,329.655 71.528,329.178 73.357 C 328.701 75.186,328.183 76.682,328.026 76.682 C 327.870 76.682,327.742 77.926,327.742 79.447 C 327.742 80.968,327.887 82.212,328.063 82.212 C 328.240 82.212,328.493 82.917,328.624 83.779 C 329.899 92.135,338.096 99.390,347.124 100.153 C 353.857 100.722,361.154 97.504,365.070 92.238 C 365.929 91.083,366.741 90.055,366.875 89.954 C 367.009 89.852,367.450 88.774,367.855 87.557 C 370.978 78.167,369.012 69.652,362.379 63.846 C 360.602 62.290,355.766 59.493,355.755 60.014 C 355.752 60.158,355.623 60.079,355.470 59.837 C 354.779 58.750,348.005 58.343,344.147 59.156 M224.793 94.610 C 224.438 94.715,224.147 94.954,224.147 95.142 C 224.147 95.330,223.849 95.484,223.485 95.484 C 221.559 95.484,216.774 100.738,216.774 102.853 C 216.774 103.098,216.542 103.821,216.258 104.460 C 211.847 114.394,213.589 123.965,220.127 125.717 C 221.020 125.956,222.048 126.308,222.411 126.499 C 222.774 126.689,223.216 126.756,223.394 126.646 C 223.571 126.537,223.771 126.585,223.839 126.754 C 223.907 126.923,226.452 127.697,229.493 128.473 C 232.535 129.250,235.106 130.004,235.207 130.149 C 235.309 130.294,236.221 130.599,237.235 130.826 C 240.525 131.563,246.808 133.286,247.281 133.581 C 247.535 133.739,247.894 133.775,248.079 133.660 C 248.265 133.545,248.472 133.605,248.540 133.792 C 248.608 133.979,251.060 134.728,253.990 135.457 C 256.919 136.185,259.407 136.922,259.520 137.093 C 259.632 137.265,260.380 137.526,261.182 137.674 C 261.985 137.821,264.722 138.521,267.265 139.229 C 269.809 139.937,272.055 140.550,272.258 140.591 C 272.461 140.632,272.794 140.771,272.999 140.899 C 273.203 141.027,275.766 141.729,278.693 142.459 C 281.621 143.189,284.108 143.922,284.220 144.089 C 284.332 144.256,285.917 144.754,287.742 145.196 C 289.567 145.638,292.304 146.345,293.825 146.767 C 295.346 147.190,296.797 147.547,297.051 147.562 C 297.304 147.576,297.512 147.693,297.512 147.822 C 297.512 147.950,298.797 148.360,300.369 148.732 C 303.932 149.575,307.785 150.680,308.756 151.136 C 309.670 151.565,318.280 153.791,319.894 154.014 C 324.588 154.666,328.563 150.972,330.532 144.130 C 331.082 142.218,331.660 140.404,331.817 140.097 C 333.461 136.883,333.887 130.630,332.630 128.145 C 331.673 126.255,329.060 123.502,328.223 123.502 C 327.958 123.502,327.742 123.357,327.742 123.178 C 327.742 122.666,325.839 122.027,324.424 122.063 C 323.714 122.082,318.903 120.852,313.733 119.330 C 308.562 117.809,303.253 116.287,301.935 115.949 C 300.618 115.610,294.728 113.950,288.848 112.259 C 282.968 110.568,272.516 107.579,265.622 105.615 C 239.744 98.246,233.023 96.251,231.464 95.477 C 229.901 94.701,226.141 94.213,224.793 94.610 " stroke="none" fill="#d3ebf3" fill-rule="evenodd"></path><path id="path1" d="M286.100 34.705 C 284.994 34.889,283.999 35.160,283.888 35.307 C 283.777 35.455,283.305 35.629,282.839 35.694 C 282.373 35.760,280.879 36.230,279.521 36.741 C 278.162 37.251,276.512 37.847,275.853 38.066 C 275.194 38.285,274.654 38.612,274.654 38.792 C 274.654 38.972,273.866 39.468,272.903 39.894 C 271.190 40.652,269.486 41.722,268.433 42.703 C 268.143 42.973,267.005 43.885,265.905 44.730 C 261.801 47.882,261.030 48.510,259.714 49.770 C 258.973 50.479,257.926 51.537,257.386 52.119 C 256.847 52.702,255.835 53.780,255.138 54.516 C 253.150 56.611,250.206 60.117,248.906 61.935 C 248.254 62.848,247.315 64.092,246.819 64.700 C 244.744 67.245,243.380 69.280,242.243 71.530 C 241.579 72.843,240.821 74.166,240.559 74.470 C 240.297 74.774,239.462 76.267,238.704 77.788 C 237.946 79.309,237.222 80.636,237.096 80.737 C 236.970 80.839,236.135 83.078,235.241 85.714 C 234.347 88.350,233.494 90.673,233.347 90.876 C 232.806 91.616,232.132 95.505,232.483 95.856 C 232.824 96.197,240.813 98.550,265.438 105.563 C 272.230 107.497,283.014 110.573,289.401 112.397 C 295.788 114.221,302.258 116.048,303.779 116.457 C 305.300 116.866,310.478 118.349,315.287 119.753 L 324.030 122.305 324.526 121.521 C 327.668 116.553,328.506 94.628,326.071 81.106 C 325.797 79.585,325.461 77.594,325.325 76.682 C 325.189 75.770,324.939 74.851,324.770 74.640 C 324.601 74.429,324.308 73.600,324.118 72.797 C 323.402 69.763,322.165 65.486,321.814 64.829 C 321.613 64.454,321.501 64.147,321.564 64.147 C 322.001 64.147,326.257 66.576,327.005 67.252 C 329.484 69.494,331.388 70.037,331.423 68.512 C 331.426 68.378,332.689 67.016,334.228 65.486 L 337.028 62.704 336.409 60.840 C 336.069 59.815,335.591 58.771,335.347 58.520 C 335.103 58.270,334.375 57.120,333.728 55.966 C 330.501 50.206,323.036 42.880,317.818 40.352 C 316.686 39.804,315.541 39.180,315.273 38.965 C 313.919 37.881,306.171 35.248,302.664 34.679 C 299.816 34.217,288.942 34.234,286.100 34.705 " stroke="none" fill="#84141c" fill-rule="evenodd"></path><path id="path2" d="M67.650 65.991 C 61.564 66.907,55.418 70.373,54.682 73.306 C 53.137 79.460,58.489 133.416,61.755 144.612 C 63.721 151.353,69.028 150.694,74.834 142.988 C 84.455 130.220,90.847 110.841,90.229 96.314 C 89.782 85.808,84.119 72.799,78.252 68.799 C 74.158 66.008,71.761 65.373,67.650 65.991 M156.346 71.060 C 155.812 71.497,155.447 72.404,155.210 73.875 C 154.768 76.623,154.876 76.559,152.539 75.453 C 145.840 72.284,139.314 73.382,134.435 78.497 C 129.683 83.479,128.259 89.286,127.943 104.977 C 127.929 105.692,127.729 105.806,126.495 105.806 C 124.175 105.806,121.629 109.065,118.035 116.634 C 115.861 121.213,112.780 126.381,111.245 128.024 L 110.198 129.145 108.903 127.891 C 105.890 124.970,103.641 119.977,102.278 113.180 C 101.282 108.213,101.081 108.573,105.159 108.042 C 118.307 106.332,124.898 100.293,125.784 89.145 C 126.323 82.372,125.786 80.722,121.763 76.784 C 111.794 67.023,96.057 79.456,92.385 99.993 C 90.883 108.392,92.142 118.765,95.491 125.593 C 98.712 132.159,106.547 134.968,112.929 131.846 C 118.405 129.167,127.716 114.830,127.978 108.675 C 128.006 108.010,128.159 108.927,128.317 110.714 C 129.281 121.578,135.677 127.868,143.541 125.684 C 147.712 124.526,151.122 118.148,154.464 105.253 C 155.673 100.586,155.669 100.579,156.513 108.203 C 158.583 126.888,159.608 130.048,164.161 131.787 C 168.570 133.471,169.537 129.496,168.133 115.453 C 167.909 113.209,167.575 108.254,167.391 104.442 C 167.208 100.630,166.726 94.608,166.321 91.060 C 165.916 87.512,165.409 82.399,165.195 79.699 C 164.724 73.754,164.012 71.773,162.055 70.955 C 160.249 70.201,157.328 70.255,156.346 71.060 M69.793 73.021 C 71.416 73.472,72.235 74.605,75.374 80.737 C 80.526 90.805,82.572 98.969,81.669 105.850 C 80.139 117.511,76.897 127.290,71.088 137.777 C 68.873 141.775,68.573 141.930,68.568 139.078 C 68.565 136.807,67.655 128.187,66.187 116.523 C 65.218 108.817,64.829 105.115,63.976 95.484 C 63.247 87.242,62.017 75.845,61.736 74.726 C 61.325 73.089,66.270 72.043,69.793 73.021 M150.012 80.750 C 151.450 82.379,152.627 83.879,152.627 84.084 C 152.627 86.756,147.491 107.538,145.654 112.301 C 143.847 116.984,140.461 121.639,140.461 119.439 C 140.461 118.995,140.049 117.281,139.546 115.629 C 135.611 102.722,135.939 91.683,140.520 82.879 C 143.730 76.709,145.997 76.201,150.012 80.750 M176.237 78.257 C 174.862 78.953,174.823 79.431,174.783 95.955 C 174.745 111.971,174.987 116.122,176.600 127.189 C 177.990 136.718,179.582 138.966,184.952 138.980 C 187.769 138.988,187.905 138.715,187.258 134.367 C 186.076 126.418,187.600 106.977,190.097 98.176 C 191.112 94.596,196.574 87.483,198.383 87.386 C 198.630 87.372,200.246 92.869,201.337 97.433 C 202.513 102.353,204.843 105.218,207.490 104.998 L 208.848 104.885 208.737 101.198 C 208.417 90.497,203.426 83.278,195.917 82.655 C 192.022 82.332,184.700 89.254,184.700 93.260 C 184.700 96.421,183.461 92.350,182.291 85.346 C 181.224 78.959,179.300 76.707,176.237 78.257 M113.787 80.624 C 117.177 82.839,119.414 91.192,117.495 94.467 C 110.810 105.874,98.299 98.641,104.151 86.752 C 106.684 81.604,111.045 78.831,113.787 80.624 M251.233 141.475 C 250.033 142.738,245.986 150.961,244.383 155.392 C 242.793 159.790,243.229 159.519,236.682 160.169 C 228.318 161.000,227.397 161.428,226.590 164.862 C 226.265 166.244,226.377 166.260,231.336 165.534 C 239.954 164.271,241.221 164.219,240.929 165.137 C 238.520 172.729,236.126 182.739,234.872 190.464 C 234.246 194.321,233.949 195.261,232.719 197.285 C 231.934 198.575,230.072 201.954,228.581 204.793 C 223.794 213.908,219.067 220.829,217.629 220.829 C 215.939 220.829,217.870 210.802,221.748 199.447 C 227.688 182.053,227.547 177.651,220.940 174.248 C 217.299 172.373,214.085 174.730,207.968 183.761 C 203.307 190.643,196.129 203.635,196.129 205.190 C 196.129 205.454,195.938 205.789,195.705 205.933 C 195.004 206.366,195.629 202.851,197.621 195.171 C 199.692 187.185,199.867 185.224,198.616 184.049 C 197.440 182.943,193.971 181.426,192.004 181.157 L 190.334 180.928 189.563 183.828 C 189.139 185.423,188.548 188.138,188.251 189.862 C 187.954 191.585,187.390 193.742,186.998 194.654 C 186.606 195.567,184.330 201.373,181.941 207.558 C 177.482 219.098,173.853 227.282,172.818 228.128 C 170.860 229.728,172.311 218.247,176.302 200.553 C 177.332 195.991,178.248 191.820,178.339 191.285 C 178.808 188.533,172.244 184.553,169.269 185.785 C 168.273 186.197,167.005 188.173,167.005 189.312 C 167.005 189.610,166.308 189.146,165.415 188.252 C 161.327 184.165,154.510 182.507,150.948 184.735 C 139.350 191.987,132.320 215.528,139.692 222.424 C 145.147 227.526,148.806 225.538,156.530 213.272 C 163.348 202.445,163.943 202.096,162.232 209.923 C 158.663 226.251,159.659 231.114,167.369 235.021 C 174.205 238.485,176.514 235.722,183.077 216.221 C 185.099 210.214,185.743 208.636,185.563 210.138 C 185.428 211.253,185.304 214.263,185.286 216.827 L 185.253 221.489 186.399 222.909 C 187.830 224.683,190.431 226.047,192.819 226.277 C 195.342 226.519,195.733 226.112,195.502 223.487 C 194.795 215.445,211.174 182.584,215.133 184.103 C 216.032 184.448,215.675 185.856,212.562 194.239 C 204.694 215.422,204.856 224.065,213.195 227.851 C 218.352 230.192,221.533 226.930,229.887 210.730 L 233.289 204.132 233.326 212.455 C 233.413 232.362,236.760 241.106,244.293 241.106 C 248.165 241.106,252.457 234.848,257.346 222.073 L 258.210 219.814 259.228 221.219 C 261.030 223.707,264.671 225.274,267.305 224.695 C 269.720 224.165,272.823 220.512,278.311 211.739 C 281.145 207.209,283.784 203.662,284.092 203.969 C 284.166 204.043,283.539 207.327,282.700 211.268 C 279.563 225.996,280.813 231.469,288.134 235.050 C 293.057 237.459,295.225 236.567,298.139 230.936 C 301.896 223.672,311.350 194.137,310.190 193.289 C 308.608 192.132,308.911 191.555,302.822 207.301 C 298.418 218.691,294.049 228.329,293.272 228.368 C 291.799 228.443,293.367 217.224,297.301 199.533 C 299.451 189.867,299.449 189.800,296.911 187.704 C 292.739 184.259,289.170 184.882,287.721 189.309 C 287.488 190.021,287.466 190.017,287.089 189.206 C 286.111 187.104,279.760 183.969,275.897 183.682 C 268.997 183.169,260.154 195.270,258.070 208.079 C 257.227 213.255,246.743 234.860,245.849 233.262 C 244.530 230.906,244.139 206.047,245.276 196.866 C 247.067 182.402,250.240 164.740,251.228 163.737 C 251.539 163.421,254.667 162.849,259.631 162.199 C 263.980 161.630,268.507 160.985,269.690 160.766 C 270.873 160.548,271.893 160.369,271.957 160.369 C 272.420 160.369,271.921 158.780,271.267 158.171 C 270.263 157.236,269.047 157.219,259.794 158.012 C 251.866 158.691,252.124 158.762,253.237 156.213 C 258.392 144.416,258.454 142.589,253.760 140.805 C 252.458 140.310,252.299 140.352,251.233 141.475 M121.290 145.471 C 120.783 145.552,119.207 145.806,117.788 146.036 C 100.138 148.896,70.845 171.035,62.431 187.875 C 58.645 195.453,60.460 201.253,67.753 204.883 C 72.450 207.221,72.163 207.232,87.926 204.101 C 114.212 198.880,118.332 198.834,118.949 203.750 C 119.382 207.198,112.081 218.584,105.012 225.483 C 99.094 231.259,91.421 235.244,91.432 232.535 C 91.450 228.201,103.382 218.447,111.797 215.888 C 112.580 215.650,112.660 214.096,111.922 213.484 C 108.161 210.362,92.220 219.045,86.868 227.130 C 81.823 234.752,82.901 240.765,89.889 243.977 C 97.448 247.451,110.775 239.325,121.832 224.500 C 132.843 209.736,133.628 200.276,124.424 193.277 C 117.822 188.258,116.111 188.146,91.811 191.150 C 78.189 192.835,75.942 193.031,75.948 192.535 C 75.975 190.457,89.443 177.159,99.484 169.296 C 116.166 156.234,130.791 151.197,134.003 157.407 C 135.935 161.144,130.491 170.040,124.047 173.677 C 121.510 175.109,122.136 176.704,126.549 180.055 C 134.668 186.222,145.502 158.927,138.220 150.653 C 135.083 147.091,126.881 144.579,121.290 145.471 M161.340 191.797 C 162.435 193.906,162.156 195.584,160.014 199.754 C 157.403 204.836,152.033 212.843,149.735 215.080 L 147.877 216.889 147.623 215.879 C 146.477 211.311,151.676 196.586,156.086 191.909 C 157.853 190.037,160.398 189.982,161.340 191.797 M281.840 191.333 C 283.331 192.980,283.042 195.279,280.788 199.684 C 276.974 207.142,270.363 216.406,268.856 216.406 C 267.715 216.406,268.430 210.246,270.174 205.043 C 273.964 193.740,278.836 188.014,281.840 191.333 M114.286 245.542 C 104.752 248.038,98.314 250.936,98.133 252.811 C 97.981 254.386,98.490 254.376,103.089 252.711 C 105.728 251.756,106.747 251.530,106.948 251.855 C 107.243 252.333,107.023 278.392,106.681 283.434 C 106.486 286.321,106.417 286.522,105.495 286.894 C 99.560 289.289,97.401 290.784,97.921 292.139 C 98.324 293.190,99.999 292.757,107.835 289.577 C 112.092 287.849,116.737 286.090,118.157 285.667 C 121.198 284.763,121.659 284.446,121.659 283.261 C 121.659 281.943,121.040 281.897,116.637 282.889 C 114.432 283.386,112.593 283.763,112.553 283.727 C 112.223 283.435,111.708 269.484,111.707 260.781 L 111.705 250.041 114.791 249.079 C 118.149 248.032,118.708 247.608,118.820 246.023 C 118.916 244.661,118.013 244.565,114.286 245.542 M241.952 249.390 C 225.867 253.922,211.454 278.591,208.966 305.852 L 208.524 310.690 204.078 312.047 C 201.632 312.794,199.382 313.477,199.078 313.565 C 198.603 313.703,198.543 313.068,198.649 309.038 C 198.888 300.033,196.725 295.086,191.986 293.797 C 182.864 291.314,172.064 304.928,165.861 326.728 C 164.771 330.557,164.527 330.327,164.877 325.806 C 165.772 314.267,167.329 306.247,168.938 304.889 C 178.509 296.813,180.831 289.754,174.931 286.676 C 167.369 282.731,161.398 290.250,157.755 308.307 C 155.219 320.880,139.895 346.975,135.933 345.469 C 133.143 344.408,128.568 333.817,128.508 328.278 C 128.453 323.297,136.822 308.776,144.258 300.948 C 146.996 298.066,147.571 297.830,149.041 298.986 C 150.492 300.127,151.152 299.951,151.152 298.421 C 151.152 296.305,150.242 294.606,148.781 293.996 C 144.194 292.079,140.393 295.440,130.523 310.140 C 125.757 317.238,125.873 317.118,125.553 315.296 C 124.342 308.414,120.709 302.597,116.250 300.402 C 111.867 298.244,105.577 298.909,105.876 301.498 C 105.977 302.373,106.184 302.512,107.650 302.690 C 112.802 303.315,115.946 309.324,117.963 322.396 C 119.125 329.932,118.951 330.497,112.423 340.461 C 106.593 349.359,102.177 354.418,101.344 353.151 C 100.859 352.412,99.908 353.702,99.908 355.099 C 99.908 356.779,103.361 358.447,105.459 357.781 C 107.639 357.089,111.973 351.898,116.935 344.035 C 118.559 341.461,120.139 338.958,120.447 338.473 C 120.995 337.611,121.028 337.659,122.005 340.695 C 123.925 346.666,126.745 350.801,130.280 352.829 C 136.814 356.576,142.362 351.430,152.289 332.415 C 153.683 329.743,154.826 327.724,154.828 327.926 C 154.831 328.129,154.672 330.120,154.477 332.350 C 152.964 349.607,153.174 368.002,154.906 369.974 C 157.311 372.713,163.132 374.461,164.471 372.846 C 164.881 372.351,164.955 370.128,164.864 361.141 C 164.720 347.089,165.238 343.824,169.824 329.838 C 174.497 315.587,179.206 306.273,184.059 301.683 C 191.378 294.761,192.675 302.234,186.346 314.859 C 184.550 318.443,184.491 318.505,181.455 320.022 C 167.255 327.118,166.256 350.002,180.431 343.465 C 186.652 340.596,197.235 325.605,197.235 319.663 C 197.235 318.136,198.440 317.430,203.502 315.992 L 208.479 314.578 208.717 318.535 C 210.513 348.351,225.972 359.557,234.503 337.225 L 235.317 335.096 235.943 336.488 C 237.407 339.747,240.267 341.751,243.453 341.751 C 247.069 341.751,249.112 339.643,255.777 329.032 C 258.901 324.058,261.751 320.297,261.751 321.148 C 261.751 321.418,261.064 324.961,260.224 329.022 C 257.219 343.548,258.389 348.309,265.881 352.053 C 272.351 355.286,275.088 352.231,280.723 335.484 C 282.053 331.530,283.238 328.046,283.355 327.742 C 283.473 327.436,283.872 328.370,284.249 329.834 C 285.847 336.044,289.575 339.661,294.422 339.704 C 298.664 339.741,302.107 335.711,306.216 325.899 C 307.209 323.529,307.228 323.711,306.684 330.388 C 305.928 339.680,308.420 343.530,314.950 343.152 L 316.866 343.041 316.743 340.784 C 316.416 334.818,322.929 319.076,330.391 307.799 C 336.481 298.594,338.481 298.412,335.259 307.356 C 327.077 330.066,326.185 336.548,330.532 341.713 C 332.997 344.643,337.059 346.345,339.084 345.298 C 344.980 342.249,361.335 311.051,357.336 310.482 C 356.299 310.335,354.677 312.804,349.873 321.843 C 337.475 345.173,334.697 342.413,343.411 315.422 C 348.576 299.426,348.735 296.601,344.679 292.954 C 342.759 291.228,340.206 290.260,338.623 290.657 C 334.992 291.568,323.667 307.851,318.656 319.365 C 316.011 325.444,316.091 323.338,318.924 312.380 C 320.879 304.816,321.202 302.387,320.384 301.401 C 319.014 299.751,312.650 297.341,311.829 298.162 C 311.351 298.640,310.545 301.756,309.692 306.425 C 308.831 311.137,301.421 328.557,298.546 332.627 C 297.106 334.665,295.187 333.618,294.590 330.469 C 294.233 328.587,294.286 327.972,296.049 313.479 C 297.116 304.710,296.615 302.817,292.698 300.819 C 288.415 298.634,286.626 300.779,285.159 309.862 C 284.154 316.081,272.466 345.438,270.995 345.438 C 270.397 345.438,270.170 344.034,270.412 341.840 C 271.268 334.075,272.811 325.683,275.591 313.668 C 277.198 306.725,276.905 305.690,272.731 303.560 C 269.061 301.687,266.197 302.615,265.585 305.874 L 265.344 307.157 264.671 306.130 C 263.099 303.734,256.162 300.461,252.657 300.461 C 249.916 300.461,245.034 304.524,241.635 309.636 C 240.676 311.078,239.674 312.258,239.409 312.258 C 239.117 312.258,238.465 313.757,237.765 316.037 C 234.553 326.499,229.627 338.196,227.306 340.878 L 226.072 342.304 225.255 341.567 C 222.574 339.148,220.092 327.481,220.092 317.298 C 220.092 311.900,220.179 311.727,223.881 309.784 C 234.900 303.999,248.829 287.974,254.795 274.219 C 261.816 258.031,255.389 245.604,241.952 249.390 M139.478 249.954 C 130.652 253.512,131.724 278.838,140.803 281.283 C 145.947 282.668,149.230 279.844,152.752 271.002 C 154.624 266.302,154.756 265.438,153.606 265.438 C 152.789 265.438,152.408 265.997,150.279 270.323 C 148.121 274.707,144.974 279.447,144.220 279.447 C 143.685 279.447,141.505 275.441,140.790 273.143 C 138.471 265.693,138.384 255.239,140.620 252.640 L 141.446 251.679 143.073 252.810 C 143.968 253.432,145.356 254.620,146.158 255.450 C 148.915 258.304,152.329 257.180,149.979 254.192 C 147.468 251.000,142.178 248.865,139.478 249.954 M171.134 252.608 C 170.890 252.852,170.691 253.405,170.691 253.837 C 170.691 255.035,170.395 255.113,168.726 254.355 C 164.260 252.327,160.116 254.588,158.491 259.938 C 157.376 263.608,157.566 273.647,158.793 275.980 C 161.324 280.788,165.869 281.260,168.071 276.944 C 168.837 275.442,170.664 269.694,170.738 268.552 C 170.764 268.157,170.919 268.912,171.084 270.230 C 172.447 281.158,173.133 283.134,175.566 283.134 C 177.869 283.134,177.870 282.340,175.615 256.611 C 175.288 252.884,172.948 250.794,171.134 252.608 M250.338 254.101 C 258.813 259.813,251.859 277.580,233.956 295.957 C 225.430 304.708,219.619 308.211,220.291 304.194 C 220.380 303.662,220.707 301.650,221.019 299.724 C 222.926 287.924,228.247 272.505,233.053 264.853 C 238.635 255.964,246.158 251.284,250.338 254.101 M167.943 257.235 C 169.431 258.854,169.448 259.067,168.472 263.830 C 167.051 270.776,165.055 276.498,164.055 276.498 C 163.782 276.498,162.384 270.358,162.031 267.608 C 161.466 263.201,164.051 255.853,166.166 255.853 C 166.445 255.853,167.245 256.475,167.943 257.235 M179.284 256.682 C 178.786 257.452,179.102 265.729,179.903 272.880 C 181.114 283.707,181.541 284.977,183.963 284.977 C 185.266 284.977,185.190 285.390,185.088 278.894 C 184.971 271.440,186.212 266.160,188.973 262.378 C 192.000 258.230,192.575 259.951,193.366 275.541 C 193.959 287.218,194.146 288.080,196.036 287.856 C 197.504 287.682,197.638 286.631,197.717 274.654 C 197.803 261.459,197.387 259.868,193.364 258.021 C 189.502 256.247,188.045 257.138,185.208 263.009 C 183.441 266.665,183.232 266.956,183.229 265.763 C 183.214 259.901,180.799 254.342,179.284 256.682 M292.621 276.762 C 290.176 277.132,288.147 286.747,290.046 288.968 C 291.302 290.436,296.646 291.409,297.996 290.415 C 298.818 289.810,301.198 283.110,301.198 281.403 C 301.198 279.006,297.055 276.182,294.083 276.553 C 293.840 276.583,293.182 276.678,292.621 276.762 M173.840 290.900 C 174.763 292.394,173.447 295.862,171.045 298.264 C 169.093 300.216,168.699 300.159,169.026 297.972 C 169.763 293.054,172.597 288.889,173.840 290.900 M87.835 295.838 C 79.169 298.545,71.562 313.347,72.369 325.931 C 72.804 332.711,78.198 338.260,85.603 339.548 C 93.414 340.905,101.450 334.301,112.209 317.680 C 115.206 313.051,115.435 312.438,114.305 312.080 C 112.804 311.604,109.918 313.321,108.357 315.620 C 95.547 334.483,83.303 339.580,83.324 326.039 C 83.336 318.946,84.302 315.953,86.589 315.932 C 89.892 315.902,97.321 312.110,99.523 309.330 C 105.056 302.343,96.953 292.990,87.835 295.838 M95.337 302.218 C 98.369 304.243,94.762 309.325,89.259 310.780 C 85.959 311.652,85.296 310.842,86.833 307.809 C 88.832 303.864,93.352 300.892,95.337 302.218 M259.319 308.035 C 261.776 310.492,260.032 315.371,252.867 326.086 C 246.857 335.073,244.643 335.385,246.422 326.993 C 248.987 314.893,255.947 304.663,259.319 308.035 M181.544 325.253 C 180.833 327.555,177.385 333.139,175.700 334.719 L 174.747 335.612 174.747 334.676 C 174.747 333.198,177.109 328.865,179.181 326.544 C 181.180 324.304,181.972 323.872,181.544 325.253 " stroke="none" fill="#040404" fill-rule="evenodd"></path></g></svg>