<?xml version="1.0" encoding="utf-8"?>
<!-- Generator: Adobe Illustrator 25.1.0, SVG Export Plug-In . SVG Version: 6.00 Build 0)  -->
<svg version="1.1" id="Layer_1" xmlns="http://www.w3.org/2000/svg" xmlns:xlink="http://www.w3.org/1999/xlink" x="0px" y="0px"
	 viewBox="0 0 864 864" style="enable-background:new 0 0 864 864;" xml:space="preserve">
<style type="text/css">
	.st0{fill:#F27DAC;}
	.st1{fill:#89D2D7;}
	.st2{fill:#99CC5F;}
	.st3{fill:#F2EB6A;}
	.st4{fill:#7372B5;}
	.st5{fill:#222137;}
</style>
<g>
	<path class="st0" d="M178.9,532.19c0-16.08-6.16-30.73-16.24-41.71c6.32-3.56,11.42-11.8,14.63-28.87
		c6.07-32.28,3.1-83.89-11.99-86.73c-15.09-2.84-36.6,44.18-42.67,76.45c-1.49,7.95-1.91,14.25-1.47,19.3
		c-1.25-0.08-2.5-0.13-3.77-0.14c0.66-5.66-0.14-13.11-2.94-23.06c-8.88-31.62-34.44-76.56-49.23-72.4
		c-14.79,4.15-13.2,55.83-4.32,87.45c3.83,13.62,8.38,21.28,13.51,25.28c-11.66,11.22-18.92,26.98-18.92,44.44
		c0,17.98,7.7,34.16,19.97,45.44c-18.39,24.26-30.4,79.64-30.4,115.33c0,58.55,32.29,71.26,72.13,71.26
		c39.84,0,72.13-12.71,72.13-71.26c0-35.69-12.01-91.07-30.4-115.33C171.2,566.35,178.9,550.17,178.9,532.19z M139.07,692.29
		c-4.89,7.22-10.72,13.98-17.48,19.34c-2.1,1.63-2.56,3.03-1.86,5.36c1.86,6.06,2.8,12.35,2.56,18.64
		c-0.7,10.02-12.35,16.31-18.17,6.06c-1.86-3.03-2.33-6.76-2.8-10.25c-6.99-44.04-14.45-92.97-1.63-136.54
		c0.23-1.4,0.7-2.8,1.17-3.96c1.16-3.5,3.49-5.36,7.46-6.29c6.99-1.4,12.82,1.17,18.64,3.73c10.95,4.89,17.24,13.98,21.9,24.7
		c3.73,8.85,5.13,17.94,5.59,25.86C153.98,659.2,149.55,676.68,139.07,692.29z"/>
	<path class="st0" d="M119.5,593.73c-0.7-0.23-1.4-0.47-1.63,0c-0.47,0.23-0.47,0.7-0.47,1.17c-1.16,17.71-1.86,35.65-1.63,53.59
		c0.23,9.09,0.47,17.94,0.93,27.03c0,1.86,0.23,3.96,0.23,6.06c0,6.99-0.23,15.15,2.1,20.97c0.7,0,1.17-0.47,1.63-0.93
		c11.42-10.72,19.11-25.4,21.67-41.01c2.8-15.38,0.7-31.69-5.13-46.14C133.71,605.61,128.35,596.99,119.5,593.73z"/>
</g>
<path class="st1" d="M338.29,532.19c0-16.08-6.16-30.73-16.24-41.71c6.32-3.56,11.42-11.8,14.63-28.87
	c6.07-32.28,3.1-83.89-11.99-86.73c-15.09-2.84-36.6,44.18-42.67,76.45c-1.49,7.95-1.91,14.25-1.47,19.3
	c-1.25-0.08-2.5-0.13-3.77-0.14c0.66-5.66-0.14-13.11-2.94-23.06c-8.88-31.62-34.44-76.56-49.23-72.4
	c-14.79,4.15-13.2,55.83-4.32,87.45c3.83,13.62,8.38,21.28,13.51,25.28c-11.66,11.22-18.92,26.98-18.92,44.44
	c0,17.98,7.7,34.16,19.97,45.44c-18.39,24.26-30.4,79.64-30.4,115.33c0,58.55,32.29,71.26,72.13,71.26
	c39.84,0,72.13-12.71,72.13-71.26c0-35.69-12.01-91.07-30.4-115.33C330.59,566.35,338.29,550.17,338.29,532.19z M303.59,592.41
	c0,1.4-1.17,1.86-2.33,2.33c-1.86,0.7-3.73,0.7-5.59,0.7c-5.36-0.23-10.72-0.23-16.08-0.7c-1.63,0-2.8,3.73-3.49,9.79
	c-3.26,25.4-1.17,90.87-0.93,100.42c0,2.1,0.93,3.26,3.26,2.8c3.03-0.7,5.83-0.23,8.39,0.7c1.4,0.47,2.56,1.17,2.8,2.56
	c0,1.4-1.4,2.1-2.56,2.56c-2.56,0.93-5.36,1.17-8.39,1.17c-1.86,0-2.56,0.47-2.56,2.56c0,5.59-0.47,16.08,4.19,19.11
	c5.83,3.5,14.21-2.1,20.27,2.56c0.7,0.47,1.17,0.93,1.4,1.87c0.47,2.1-2.33,3.26-4.66,3.49c-8.85,1.17-17.71,1.63-26.56,1.4
	c-2.1-0.23-4.19-0.23-6.06-1.17c-3.26-1.86-4.66-6.06-5.59-9.79c-5.83-23.53-9.32-47.53-10.25-71.76c-0.93-22.6-2.8-51.03,7.46-72
	c1.63-3.03,3.96-4.43,7.69-5.13c10.02-1.17,20.04,0,30.06,0.93c2.8,0.23,5.36,1.4,7.69,2.56
	C302.89,590.08,303.83,591.01,303.59,592.41z"/>
<path class="st2" d="M497.69,532.19c0-16.08-6.16-30.73-16.24-41.71c6.32-3.56,11.42-11.8,14.63-28.87
	c6.07-32.28,3.1-83.89-11.99-86.73c-15.09-2.84-36.6,44.18-42.67,76.45c-1.49,7.95-1.91,14.25-1.47,19.3
	c-1.25-0.08-2.5-0.13-3.77-0.14c0.66-5.66-0.14-13.11-2.94-23.06c-8.88-31.62-34.44-76.56-49.23-72.4s-13.2,55.83-4.32,87.45
	c3.83,13.62,8.38,21.28,13.51,25.28c-11.66,11.22-18.92,26.98-18.92,44.44c0,17.98,7.7,34.16,19.97,45.44
	c-18.39,24.26-30.4,79.64-30.4,115.33c0,58.55,32.29,71.26,72.13,71.26c39.84,0,72.13-12.71,72.13-71.26
	c0-35.69-12.01-91.07-30.4-115.33C489.99,566.35,497.69,550.17,497.69,532.19z M463.28,592.41c0,1.4-1.17,1.86-2.33,2.33
	c-1.86,0.7-3.73,0.7-5.59,0.7c-5.36-0.23-10.72-0.23-16.08-0.7c-1.63,0-2.8,3.73-3.49,9.79c-3.26,25.4-1.17,90.87-0.93,100.42
	c0,2.1,0.93,3.26,3.26,2.8c3.03-0.7,5.83-0.23,8.39,0.7c1.4,0.47,2.56,1.17,2.8,2.56c0,1.4-1.4,2.1-2.56,2.56
	c-2.56,0.93-5.36,1.17-8.39,1.17c-1.86,0-2.56,0.47-2.56,2.56c0,5.59-0.47,16.08,4.19,19.11c5.83,3.5,14.21-2.1,20.27,2.56
	c0.7,0.47,1.17,0.93,1.4,1.87c0.47,2.1-2.33,3.26-4.66,3.49c-8.85,1.17-17.71,1.63-26.56,1.4c-2.1-0.23-4.19-0.23-6.06-1.17
	c-3.26-1.86-4.66-6.06-5.59-9.79c-5.83-23.53-9.32-47.53-10.25-71.76c-0.93-22.6-2.8-51.03,7.46-72c1.63-3.03,3.96-4.43,7.69-5.13
	c10.02-1.17,20.04,0,30.06,0.93c2.8,0.23,5.36,1.4,7.69,2.56C462.58,590.08,463.51,591.01,463.28,592.41z"/>
<g>
	<path class="st3" d="M657.08,532.19c0-16.08-6.16-30.73-16.24-41.71c6.32-3.56,11.42-11.8,14.63-28.87
		c6.07-32.28,3.1-83.89-11.99-86.73c-15.09-2.84-36.6,44.18-42.67,76.45c-1.49,7.95-1.91,14.25-1.47,19.3
		c-1.25-0.08-2.5-0.13-3.77-0.14c0.66-5.66-0.14-13.11-2.94-23.06c-8.88-31.62-34.44-76.56-49.23-72.4
		c-14.79,4.15-13.2,55.83-4.32,87.45c3.83,13.62,8.38,21.28,13.51,25.28c-11.66,11.22-18.92,26.98-18.92,44.44
		c0,17.98,7.7,34.16,19.97,45.44c-18.39,24.26-30.4,79.64-30.4,115.33c0,58.55,32.29,71.26,72.13,71.26
		c39.84,0,72.13-12.71,72.13-71.26c0-35.69-12.01-91.07-30.4-115.33C649.38,566.35,657.08,550.17,657.08,532.19z M615.12,692.29
		c-4.89,7.22-10.72,13.98-17.48,19.34c-2.1,1.63-2.56,3.03-1.86,5.36c1.86,6.06,2.8,12.35,2.56,18.64
		c-0.7,10.02-12.35,16.31-18.17,6.06c-1.86-3.03-2.33-6.76-2.8-10.25c-6.99-44.04-14.45-92.97-1.63-136.54
		c0.23-1.4,0.7-2.8,1.17-3.96c1.16-3.5,3.49-5.36,7.46-6.29c6.99-1.4,12.82,1.17,18.64,3.73c10.95,4.89,17.24,13.98,21.9,24.7
		c3.73,8.85,5.13,17.94,5.59,25.86C630.04,659.2,625.61,676.68,615.12,692.29z"/>
	<path class="st3" d="M595.55,593.73c-0.7-0.23-1.4-0.47-1.63,0c-0.47,0.23-0.47,0.7-0.47,1.17c-1.16,17.71-1.86,35.65-1.63,53.59
		c0.23,9.09,0.47,17.94,0.93,27.03c0,1.86,0.23,3.96,0.23,6.06c0,6.99-0.23,15.15,2.1,20.97c0.7,0,1.17-0.47,1.63-0.93
		c11.42-10.72,19.11-25.4,21.67-41.01c2.8-15.38,0.7-31.69-5.13-46.14C609.76,605.61,604.4,596.99,595.55,593.73z"/>
</g>
<path class="st4" d="M796.5,577.63c12.27-11.28,19.97-27.46,19.97-45.44c0-16.08-6.16-30.73-16.24-41.71
	c6.32-3.56,11.42-11.8,14.63-28.87c6.07-32.28,3.1-83.89-11.99-86.73c-15.09-2.84-36.6,44.18-42.67,76.45
	c-1.49,7.95-1.91,14.25-1.47,19.3c-1.25-0.08-2.5-0.13-3.77-0.14c0.66-5.66-0.14-13.11-2.94-23.06
	c-8.88-31.62-34.44-76.56-49.23-72.4s-13.2,55.83-4.32,87.45c3.83,13.62,8.38,21.28,13.51,25.28
	c-11.66,11.22-18.92,26.98-18.92,44.44c0,17.98,7.7,34.16,19.97,45.44c-18.39,24.26-30.4,79.64-30.4,115.33
	c0,58.55,32.29,71.26,72.13,71.26c39.84,0,72.13-12.71,72.13-71.26C826.9,657.27,814.89,601.89,796.5,577.63z M767.3,742.6
	c-3.03,2.33-6.76,2.8-10.48,3.03c-4.19,0.46-6.99-2.33-9.79-4.89c-1.63-1.4-1.4-6.29,0-7.92c1.17-1.17,2.1-0.7,3.26,0
	c1.63,0.93,3.26,2.33,5.13,3.03c6.06,2.1,12.58-3.26,11.65-9.79c-1.17-8.15-4.19-15.84-7.46-23.53
	c-5.36-11.65-11.65-22.84-17.48-34.02c-5.13-10.02-10.25-19.8-12.12-30.99c-1.63-10.48-2.1-21.2,2.33-31.22
	c2.33-5.36,5.83-10.02,10.72-13.51c5.83-3.96,12.58-6.99,20.04-7.22c2.8-0.23,5.59,0.23,7.92,2.1c1.63,1.17,3.03,2.56,2.56,4.66
	c-0.47,2.1-2.1,3.26-3.96,3.73c-1.4,0.47-3.03,0.47-4.43,0.47c-7.22-0.47-11.18,4.19-14.45,9.78c-3.96,6.76-2.56,14.21-1.63,21.44
	c0.7,5.83,2.56,11.19,4.43,16.54c1.4,3.73,2.8,7.46,4.43,10.95c4.43,9.32,8.39,18.64,11.42,28.43c3.73,11.65,7.69,23.3,7.92,35.65
	C777.78,728.62,774.99,736.77,767.3,742.6z"/>
<g>
	<g>
		<path class="st5" d="M298.25,292.26c-3.54,0.1-6.05,3.04-5.73-2.48c-0.21-5.65-0.17-11.34-1.61-16.88
			c-1.18-5.8-3.63-7.32-8.16-10.51c-16.22-18.06-45.98,11.07-40.94,30.02c-4.36,0.71-8.18-2.97-11.48-5.39
			c-8.08-6.18-10.77-16.63-18.35-23.1c-17.1-9.54-17.99,26.75-19.21,36.8c-2.94-16.2-1.79-32.78-2.48-49.16
			c-0.09-3.94-2.56-5.52-6.43-4.76c-6.73-0.18-3.16,20.82-3.9,26.05c-5.25,13.7-10.53,27.39-17.8,40.18
			c-1.68,2.6-7.64,14.5-10.88,9.47c-8.47-21.11-0.86-47.36,2.47-68.94c0.48-2.41-0.43-4.12-2.78-4.76
			c-4.04-1.76-5.8,12.55-7.45,15.47c-12.84-1.59-25.81-1.36-38.72-1.73c-1.85-0.03-2.85-0.41-2.79-2.58
			c0.46-15.66,2.32-31.21,4.36-46.72c1.12-5.17-6.47-7.29-6.86-1.54c-3.89,15.61-6.36,31.45-7.53,47.48c-0.18,2.48-0.9,3.4-3.41,3.5
			c-8.53,0.33-17.08,0.46-25.56,1.62c-2.82,0.39-3.94-0.7-4.02-3.42c-0.86-17.19-1.09-34.4,0.21-51.57c0.21-3.14-1.37-5.25-4.1-5.55
			c-5.79-2.17-4.97,22.97-5.84,27.02c-3.62,41.75,9.49,31.33-16.37,39.75c-0.82,0.33-2.39,0.4-1.85,1.88
			c0.48,1.32,1.69,0.66,2.68,0.46c3.12,0.08,16.6-5.59,16.17-0.54c0.72,12.22,2.09,24.39,3.73,36.52
			c1.52,7.11,0.97,22.51,11.59,20.69c1.63-0.36,2.73-1.09,1.78-3.01c-2.82-5.68-2.98-11.94-3.71-18.03
			c-1.46-12.15-2.5-24.35-3.46-36.55c-0.19-2.39,0.36-3.18,2.57-3.27c7.3-0.29,14.6-0.7,21.91-0.9c6.79-0.18,6.66-0.08,6.49,6.53
			c-0.74,21.91-1.68,44.26-1.32,67.96c-0.21,4.28,1.7,7.49,7.16,6.51c2.61-0.37,2.52-2.16,2.5-4.12c0.35-24.7,1.88-49.38,2.38-74.08
			c0.06-2.05,0.53-2.97,2.78-2.91c6.1,0.17,12.21-0.01,18.32,0.16c-25.43,23.23,2.43,54.28,16.33,24.8
			c-0.78,11.07-2.17,21.42,3.49,31.11c4.45,6.9,13.39,7.74,19.06,1.82c9.09-11.75,13.84-26.36,19.04-40.09
			c0.76,11.77,2.28,23.48,4.98,35.1c1.62,6.96,1.81,7.27,8.1,7.8c3.97,0.34,4.71-0.34,4.7-4.36c-0.04-13.15-0.35-26.31,1.87-39.35
			c0.36-2.98,4.65-23.05,9.1-16.25c7.23,12.87,19.12,31.39,36.19,28.09c7.29,4.83,12.57-0.45,17.09-6.2
			c5.38-6.24,10.21-12.94,16.15-18.69c0.85-0.83,1.67-2.26,2.97-1.9c3.5,4.38,1.81,18.74,1.86,24.77c-0.11,2.16-1.11,3.22-2.99,4.1
			c-10.59,4.95-20.48,11.08-29.4,18.64c-15.67,10.52-28.12,46.94,0.29,47.52c25.54-2.54,37.77-35.55,40.01-57.72
			c0.51-5.57,1.72-9.4,7.73-10.39C303.23,296.25,301.83,292.13,298.25,292.26z M139.51,275.09c-0.54,2.56-12.51,28.65-14.56,21.18
			c-1.14-7.58,4.14-30.97,14.77-25.01C141.42,272.63,139.96,273.91,139.51,275.09z M277.13,264.08
			c-9.07,6.34-15.38,15.44-23.14,23.09c-0.48,0.47-0.84,1.22-2.09,1.05c2.79-11.59,10.82-26.95,24.57-25.91
			C277.27,262.53,278.65,263.01,277.13,264.08z M282.28,306.03c-2.28,15.74-7.5,30.27-17.62,42.78
			c-4.43,5.44-15.51,16.91-20.33,6.12c-4.7-11.16,1.84-23.19,9.66-31.16C254.95,321.65,284.8,298.91,282.28,306.03z"/>
		<path class="st5" d="M309.15,257.94c5.25-0.09,5.48-8.71-0.35-8.59C302.82,249.25,303.5,258.02,309.15,257.94z"/>
		<path class="st5" d="M453.74,292.26c-3.54,0.1-6.05,3.04-5.73-2.48c-0.21-5.65-0.17-11.34-1.61-16.88
			c-1.18-5.8-3.63-7.32-8.16-10.51c-16.22-18.06-45.98,11.07-40.94,30.02c-4.36,0.71-8.18-2.97-11.48-5.39
			c-8.08-6.18-10.77-16.63-18.35-23.1c-17.1-9.54-17.99,26.75-19.21,36.8c-2.94-16.2-1.79-32.78-2.48-49.16
			c-0.09-3.94-2.56-5.52-6.43-4.76c-2.98,0.58-3.75,2.33-3.82,5.01c-0.26,9.96-0.26,19.89,0.24,29.78
			c-4.25,9.47-8.44,18.97-15.36,26.9c-9.72,13.89-9.02-20.22-8.96-25.04c-1.03-5.04,3.15-17.96-4.47-18.04
			c-2.37-0.01-3,1.57-3.31,3.64c-1.41,14.29-4.95,30.4,2.25,43.63c13.56,16.66,26.25-9.42,30.56-20.93
			c0.86,9.66,2.28,19.27,4.49,28.82c1.62,6.96,1.81,7.27,8.1,7.8c3.97,0.34,4.71-0.34,4.7-4.36c-0.04-13.15-0.35-26.31,1.87-39.35
			c0.36-2.98,4.65-23.05,9.1-16.25c7.23,12.87,19.12,31.39,36.19,28.09c7.29,4.83,12.57-0.45,17.09-6.2
			c5.38-6.24,10.21-12.94,16.15-18.69c0.85-0.83,1.67-2.26,2.97-1.9c3.5,4.38,1.81,18.74,1.86,24.77c-0.11,2.16-1.11,3.22-2.99,4.1
			c-10.59,4.95-20.48,11.08-29.4,18.64c-15.67,10.52-28.12,46.94,0.29,47.52c25.54-2.54,37.77-35.55,40.01-57.72
			c0.51-5.57,1.72-9.4,7.73-10.39C458.72,296.25,457.32,292.13,453.74,292.26z M432.62,264.08c-9.07,6.34-15.38,15.44-23.14,23.09
			c-0.48,0.47-0.84,1.22-2.09,1.05c2.79-11.59,10.82-26.95,24.57-25.91C432.76,262.53,434.14,263.01,432.62,264.08z M437.77,306.03
			c-2.28,15.74-7.5,30.27-17.62,42.78c-4.43,5.44-15.51,16.91-20.33,6.12c-4.7-11.16,1.84-23.19,9.66-31.16
			C410.44,321.65,440.29,298.91,437.77,306.03z"/>
		<path class="st5" d="M543.88,270.94c-0.98-2.47-4.51-5.59-6.95-3.27c-0.6,0.78,0.15,1.32,0.55,1.87
			c6.87,15.01,8.9,32.24,5.81,48.55c-3.65,18-9.18,2.3-10.78-6.3c-3.12-14.41-1.49-29.15-3.56-43.63c-0.32-2.03-1.74-3.25-3.82-3.48
			c-3.27-0.09-3.28,4.08-4.65,6.2c-6.59,14.24-10.54,29.51-19.2,42.72c-4.69-17.75,0.48-35.52,2.58-53.22
			c0.67-4.17-1.17-5.94-5.19-4.75c-8.33,7.68-12.04,36.09-10.31,47.6c-0.24,9.13,9.58,26.72,18.62,14.69
			c5.03-8.49,7.94-18.03,11.85-27.06c-0.47,14.97,0.25,31.49,10.15,43.58c5.44,6.21,13.98,5.25,17.58-2.09
			C556.03,313.25,551.45,289.97,543.88,270.94z"/>
		<path class="st5" d="M563.43,257.94c5.25-0.09,5.48-8.71-0.35-8.59C557.11,249.25,557.78,258.02,563.43,257.94z"/>
		<path class="st5" d="M671.23,270.04c-2.5-1.42-3.81,7.91-5.56,9.74c-6.49,9.75-19.28-48.44-35.44,2.9
			c-1.38-13.48,0.62-26.75,2.05-40.08c2.62,0.05,12.2,4.85,13.04,2.37c0.9-4.69-9.32-5.24-12.49-6.86c-0.38-4.3,4.26-13.5-1.3-15.13
			c-5.8-1.38-5.02,9.35-6.66,12.99c-5.92-1.44-11.93-2.55-18.03-3.23c-2-0.22-2.64-0.97-2.53-2.91c-0.7-4.79,3.59-18.07-2.86-18.8
			c-2.82-0.4-3.81,1.57-4.29,3.84c-0.96,4.53-2.02,9.05-2.64,13.62c-0.4,2.96-1.74,3.8-4.57,3.86c-15.06,0-29.83,5.01-42.39,13.26
			c-0.83,0.59-2.16,1.3-1.37,2.71c1.87,2.94,5.3-0.66,7.69-1.2c11.4-4.9,23.22-8.16,35.59-9.44c2.82-0.29,3.64,0.68,3.29,3.45
			c-1.53,11.94-2.42,23.94-2.42,34.77c0.27,10.48-9.28,24.27-15.65,32.61c-9.72,13.91-9.02-20.24-8.96-25.04
			c-1.02-5.02,3.14-17.97-4.47-18.04c-2.37-0.01-3,1.57-3.31,3.64c-1.41,14.29-4.95,30.4,2.25,43.63c4.04,6.23,11.56,7.11,16.99,2.1
			c6.58-6.33,10.06-15.06,13.66-23.26c0.66,7.26,4.31,61.72,15.97,53.96c1.73-1.24,4.75-2.22,3.43-5.32
			c-3.4-8.03-3.71-16.6-4.65-25.05c-2.15-24.19-2.11-48.55-1.64-72.81c0.08-4.9,0.3-4.83,5.29-4.21c4.92,0.61,9.78,1.47,14.61,2.51
			c-2.76,10.35-12.75,77.27,5.8,73.59c2.87-0.21,3.62-1.85,3.97-4.46c1.87-13.54,2.75-27.72,8.95-40.16
			c2.22-4.17,2.78-4.19,5.36-0.38c7.61,12.58,19.53,27.1,24.4,3.53C672.77,271.42,672.57,270.51,671.23,270.04z"/>
		<path class="st5" d="M780.81,312.18c4.26-0.87,2.28-5.59-1.23-3.97c-4.17,2.32-6.29-0.59-8.57-3.04
			c-9.11-14.37-13.46-21.72-25.42-3.74c-1.01-15.79,0.59-31.5-5.54-45.96c-11.26-16.44-25.64,5.32-29.19,17.09
			c-0.26-4.32-0.62-7.87-0.29-11.45c-0.39-4.54,3.24-11.68-1.84-14.3c-3.43-1.45-6.23,1.86-6.5,5.02
			c-3.53,18.24-4.47,36.54-0.83,54.88c1.21,6.06,3.29,11.89,5.52,17.65c1.45,3.75,4.71,3.39,8.5,2.23c3.16-0.98,2.3-3.47,1.47-5.61
			c-7.11-20.52-4.9-45.56,9.51-62.42c1.55-1.73,3.36-4.24,5.71-3.58c6.55,6.64,4.34,39.97,4.83,50.55
			c-0.03,6.29-0.21,12.57-0.28,18.85c-0.03,2.98,1.81,4.19,4.49,4.46c5.3,0.66,3.7-6.25,4.99-9.57c1.36-7.45,3.41-14.63,8.1-20.77
			c3.33-4.35,3.77-4.33,6.24,0.42C764.2,306.16,771.63,315.51,780.81,312.18z"/>
		<path class="st5" d="M856.98,305.58c-2.56-5.43-14.06,5.43-13.52-2.5c0.1-13.35-3.61-51.22-24.47-39.27
			c-12.18,10.07-18.08,24.9-27.84,37.11c-2.54-12.23,0.87-24.69,1.87-36.96c1.44-5.11-6.76-7.69-8.03-2.2
			c-2.59,11.78-13.82,44.18,3.55,47.91c10.36,1.69,13.06-11.64,17.86-18.22c4.07-6.08,20.5-39.91,24.78-18.66
			c3.16,11.17,3.33,22.54,2.02,33.99c-0.9,4.07-6.91,3.04-10.02,4.6c-11.04,3.03-22.03,6.18-31.74,12.56
			c-58.94,40.95,45.94,72.01,51.28-10.19c0.81-5.95,8.53-4.27,12.73-6.53C856.23,307,857.16,306.58,856.98,305.58z M831.48,315.44
			c-10.74,62.59-63.15,47.86-47.02,22.34c10.58-14.59,28.97-19.46,45.46-24.01C831.7,313.27,831.82,313.94,831.48,315.44z"/>
	</g>
</g>
</svg>
