<?xml version="1.0" encoding="utf-8"?>
<!-- Generator: Adobe Illustrator 17.1.0, SVG Export Plug-In . SVG Version: 6.00 Build 0)  -->
<!DOCTYPE svg PUBLIC "-//W3C//DTD SVG 1.1//EN" "http://www.w3.org/Graphics/SVG/1.1/DTD/svg11.dtd">
<svg version="1.1" xmlns="http://www.w3.org/2000/svg" xmlns:xlink="http://www.w3.org/1999/xlink" x="0px" y="0px"
	 viewBox="0 0 608.2 648" enable-background="new 0 0 608.2 648" xml:space="preserve">
<g id="_x33_">
	<g>
		<path d="M158.2,61c0.3,0.1,0.9,2.1,1.5,3.7c0.6,1.6,1.2,3.2,1.9,4.9c0.6,1.7,1.2,3.2,1.8,4.7c0.6,1.5,1.3,3,1.2,3.1
			c-0.1,0.2-4.1,1.2-4.2,1.6c-0.5,1.2,3.8,8.4,5.4,11.9c1.6,3.5,2.6,6,3.2,7.7c-6,2.7-9,4.2-15,7.2c-0.6-1.4-1.8-3.9-3.4-7.5
			c-1.6-3.6-4.5-12-5.6-12.5c-0.8-0.3-5,2.3-7.6,3.7c-2.6,1.3-7.1,3.2-7.4,3.9c-0.2,0.5,1.6,3.4,2.7,5.5c1.1,2,2.1,4,3,5.9
			c0.9,1.9,1.8,3.6,2.6,5.2c0.8,1.6,1.4,2.7,1.6,3.3c-5.2,3-7.8,4.5-12.8,7.7c-0.6-1.2-1.9-3.2-3.7-6c-1.8-2.9-3.9-6.2-6.2-9.9
			c-2.4-3.7-4.9-7.7-7.6-12c-2.7-4.3-5.3-8.3-7.8-12.2c-2.5-3.9-4.8-7.4-6.8-10.6c-2.1-3.2-3.6-5.6-4.7-7.1
			c7.9-5,11.8-7.3,19.9-11.8c0.4,0.7,1,2,1.8,3.8c0.8,1.9,1.9,4.1,3.1,6.6c1.2,2.5,2.5,5.3,3.9,8.4c1.4,3.1,3.7,9.2,4.4,9.4
			c0.7,0.2,4.8-3,7.4-4.4c2.5-1.5,7.3-3.5,7.5-4.3c0.3-1-2.6-5.8-3.9-8.6c-1.3-2.8-2.5-5.4-3.6-7.8c-1.1-2.4-2.1-4.6-3-6.5
			c-0.9-1.9-1.7-3.4-2.3-4.5c6-3,9-4.5,15.1-7.2c0.3,0.7,0.8,1.9,1.6,3.6c0.8,1.7,1.7,3.8,2.8,6.3c1.1,2.4,2.3,5.1,3.7,8.1
			c1.4,3,3.5,8.9,4.3,9.2c0.3,0.1,2.1-0.9,3-1.3C156.8,61.5,158,61,158.2,61z"/>
	</g>
	<g>
		<path d="M231.7,82.8c-0.2-0.4-0.6-1.3-1.2-2.7c-0.6-1.4-1.3-3-2.1-4.8c-0.8-1.8-1.6-3.7-2.5-5.7c-0.9-2-2.1-5.4-2.5-5.6
			c-0.7-0.3-4.8,1.7-7.7,2.7c-2.9,1.1-7.2,2.1-7.7,2.8c-0.2,0.3,0.2,2,0.4,3.5c0.2,1.4,0.4,2.8,0.6,4.2c0.2,1.4,0.4,2.7,0.5,3.8
			c0.2,1.2,0.3,1.9,0.3,2.3c-6.8,2.1-10.1,3.2-16.8,5.6c-0.3-1.8-0.8-4.5-1.3-8.3c-0.5-3.8-1-8-1.5-12.8c-0.5-4.8-0.9-9.8-1.3-15
			c-0.4-5.3-0.6-10.2-0.8-14.9c-0.2-4.7-0.3-8.8-0.3-12.4c0-3.6-0.3-7,0.1-7.5c0.2-0.3,2.7-0.8,5.5-1.7c2.8-0.8,5.8-1.7,9-2.5
			c3.2-0.8,6.2-1.6,9-2.3c2.8-0.7,5.1-1.4,5.4-1.3c0.3,0.2,1.3,2.4,2.6,4.7c1.2,2.3,2.7,5.1,4.4,8.3c1.7,3.2,3.5,6.7,5.4,10.5
			c1.9,3.8,3.9,7.7,5.8,11.7c1.9,4,3.7,7.8,5.5,11.6c1.7,3.8,3.3,7.2,4.6,10.3c1.3,3.1,2.4,5.7,3.3,7.7c0.9,2.1,1.4,3.4,1.5,3.9
			C242.5,80.3,238.9,81.1,231.7,82.8z M207.3,56.7c0.3,0.3,3.7-0.9,5.6-1.4c1.9-0.5,5.4-1.1,5.5-1.3c0.2-0.4-2.2-4.2-3.2-6.2
			c-1.1-2-2.1-4-3.1-5.8c-1-1.8-2-3.5-2.8-5c-0.9-1.5-2.2-3.8-2.2-3.8c0,0,0,2.7,0,4.5c0,1.7,0,3.7,0.1,5.7c0,2.1,0,4.3,0.1,6.5
			C207.1,52.2,207,56.5,207.3,56.7z"/>
	</g>
	<g>
		<path d="M265.4,6.2c-0.1-0.7,0.8-1.4,2.7-2.2c1.9-0.8,4.4-1.6,7.4-2.3c3.1-0.7,6.6-1.2,10.6-1.5c4-0.3,8.1-0.3,12.2,0.1
			c4.1,0.4,8,1.1,11.8,2.3c3.8,1.2,7,2.8,9.8,4.9c2.7,2.1,4.8,4.7,6.1,7.8c1.3,3.1,1.6,6.8,0.8,10.9c-0.8,4.4-2.4,8.4-4.5,12.1
			c-2.2,3.7-5,6.8-8.3,9.4c-3.4,2.6-7.3,4.6-11.7,6.1c-4.5,1.5-13.9,1.1-14.9,2.1c-0.7,0.6-0.2,5.6-0.2,7.9c0,2.3,0,4.1-0.1,5.4
			c-6,0.4-9.1,0.6-15.1,1.3c-0.1-0.7-0.2-2.2-0.4-4.3c-0.2-2.2-0.5-4.8-0.8-7.8c-0.3-3.1-0.7-6.4-1.1-10.1
			c-0.4-3.7-0.8-7.4-1.2-11.2c-0.4-3.8-0.8-7.5-1.1-11.1c-0.4-3.6-0.7-6.8-1-9.6c-0.3-2.8-0.5-5.2-0.7-7
			C265.5,7.5,265.4,6.4,265.4,6.2z M306.1,27.7c0.1-1.6-0.3-3-1.2-4.1c-0.9-1.2-2.1-2.2-3.7-3c-1.6-0.8-3.5-1.4-5.6-1.7
			c-2.1-0.4-6.3-0.9-6.8-0.5c-0.7,0.7-0.3,6.5-0.4,10.1c-0.1,3.5-1,10.2-0.4,10.8c0.5,0.5,4.8-0.3,6.9-0.8c2.1-0.5,4-1.3,5.6-2.2
			c1.6-1,2.9-2.2,3.9-3.6C305.4,31.2,306,29.5,306.1,27.7z"/>
	</g>
	<g>
		<path d="M358,6.8c0.1-0.7,1.1-1.2,3.1-1.5c2-0.4,4.6-0.6,7.8-0.5c3.2,0,6.7,0.4,10.7,1c4,0.6,8,1.6,11.9,2.9
			c3.9,1.3,7.6,2.9,11.1,4.9c3.4,2,6.3,4.3,8.5,7c2.2,2.7,3.6,5.7,4.2,9c0.6,3.3,0,7-1.7,10.8c-1.8,4.1-4.2,7.6-7.2,10.7
			c-3,3.1-6.4,5.5-10.3,7.3c-3.9,1.8-8.2,2.9-12.9,3.3c-4.7,0.4-13.9-2.1-15.1-1.4c-0.8,0.5-1.4,5.4-2,7.7c-0.5,2.3-1,4-1.3,5.2
			c-6-1-9-1.4-15-2.2c0.1-0.7,0.3-2.2,0.6-4.3c0.3-2.2,0.6-4.8,1-7.8c0.4-3,0.8-6.4,1.2-10.1c0.4-3.7,0.9-7.4,1.4-11.2
			c0.5-3.8,1-7.4,1.4-11c0.4-3.6,0.8-6.8,1.2-9.6c0.3-2.8,0.6-5.1,0.9-7C357.8,8.1,358,7,358,6.8z M392.9,37c0.4-1.5,0.3-3-0.2-4.3
			c-0.6-1.3-1.6-2.6-3-3.7c-1.4-1.1-3.1-2.1-5.1-3c-2-0.8-6-2.3-6.5-2c-0.9,0.5-1.8,6.3-2.7,9.7c-0.9,3.4-3.3,9.7-2.9,10.4
			c0.4,0.6,4.8,0.8,7,0.8c2.2,0,4.2-0.3,6-0.9c1.8-0.6,3.4-1.5,4.6-2.6C391.4,40.2,392.4,38.7,392.9,37z"/>
	</g>
	<g>
		<path d="M504.3,49.1c1.5,3.1-4.1,15.1-7.1,20.3c-2.9,5.2-6.2,9.1-9.7,11.8c-3.5,2.7-7.1,4.5-10.8,5.2c-3.7,0.8-9.9-0.3-10.8,0.2
			c-0.4,0.2-0.8,2.7-1.2,4.2c-0.4,1.5-0.9,3-1.4,4.6c-0.5,1.6-1,3.1-1.5,4.5c-0.5,1.5-1.1,3.9-1.3,4c-0.3,0.1-2.5-1.2-4.2-2.1
			c-1.7-0.9-3.5-1.7-5.4-2.6c-1.9-0.9-3.7-1.6-5.4-2.4c-1.7-0.7-4-1.5-4.1-1.7c-0.2-0.6,2.6-4.6,4.2-7.2c1.5-2.6,5.3-7.3,5.1-8.2
			c-0.2-1.1-5.1-4.9-6.9-8.2c-1.8-3.3-2.9-7.1-3.1-11.6c-0.2-4.5,0.5-9.6,2.3-15.3c1.8-5.7,5-12.1,9.8-19.2c8.7,3.3,13.1,5,21.7,8.8
			c-0.1,0.1-0.7,0.9-2,2.4c-1.3,1.5-2.7,3.3-4.3,5.6c-1.6,2.2-3.2,4.7-4.8,7.5c-1.6,2.7-2.7,5.4-3.4,8.1c-0.7,2.6-0.8,5-0.3,7.2
			c0.5,2.2,2.1,3.9,4.7,5.1c2.7,1.3,5,1.4,6.9,0.4c2-1,3.7-2.7,5-5c1.4-2.3,2.5-5,3.3-8.1c0.8-3.1,1.5-6,1.9-8.9
			c0.5-2.8,0.8-5.2,0.9-7.3c0.2-2,0.3-3.2,0.3-3.2c0.4-0.2,3.1,1.5,5,2.4c1.9,1,3.9,2,5.9,3c2,1,4,2,5.9,3
			C501.4,47.6,504.1,48.6,504.3,49.1z"/>
	</g>
	<g>
		<path d="M196.7,327.7c-1-0.5-2.3-0.7-3.9-0.6c-1.6,0.1-3.2-0.1-4.8-0.6c-1.6-0.5-3-1.8-4.3-3.7c-1.3-1.9-2.1-5.3-2.3-10
			c-0.1-1.1-0.1-4.2-0.1-9.1c0-5,0-11.1-0.1-18.4c0-7.3-0.1-15.4-0.3-24.4c-0.2-9-0.6-18-1.1-27.1c-0.5-9.1-1.3-17.9-2.4-26.5
			c-1.1-8.6-2.6-16.1-4.5-22.7c-2-6.6-4.4-11.8-7.4-15.6c-3-3.8-6.6-5.5-11-5c-4.8,0.5-9.2,2.5-13.2,5.8c-3.9,3.3-7.5,7.6-10.7,12.8
			c-3.2,5.2-5.9,11.2-8.3,17.8c-2.4,6.7-4.4,13.6-6.1,20.8c-1.7,7.2-3,14.5-4,21.9c-1,7.4-2.3,21-2.3,21c0,0-1.3-18.7-2.5-28.3
			c-1.1-9.5-2.7-18.6-4.8-27.2c-2.1-8.6-4.7-16.5-8-23.7c-3.3-7.2-7.3-13.1-12-17.9c-4.7-4.7-10.3-7.9-16.7-9.6
			c-6.4-1.7-13.8-1.2-22,1.4c-5.3,1.7-10.1,4-14.5,6.9c-4.4,2.9-8.3,6.2-11.7,9.7c-3.4,3.5-6.4,7.2-8.9,10.9
			c-2.5,3.8-4.5,7.3-6,10.7c-1.4,3.4-2.4,6.4-2.8,9.1c-0.4,2.7-0.3,4.8,0.2,6.1c0.8,1.9,2,2.9,3.4,3.2c1.4,0.3,2.4-1,2.9-3.6
			c0.1-0.9,0.6-2.5,1.4-4.7c0.8-2.2,2-4.8,3.6-7.8c1.6-2.9,3.5-6.1,5.8-9.4c2.3-3.3,5.1-6.5,8.4-9.5c3.3-3,6.9-5.8,10.9-8.2
			c4-2.4,8.5-4.2,13.5-5.3c4.6-1,8.7-0.4,12.3,1.9c3.6,2.3,6.8,5.9,9.5,10.7c2.7,4.8,5.1,10.6,7.1,17.4c2,6.8,3.7,14.1,5.1,22
			c1.4,7.8,2.5,16,3.4,24.4c0.9,8.4,1.7,16.7,2.4,24.9s1.3,16,1.7,23.4c0.4,7.4,0.8,14.1,1.1,19.9c0.3,5.8,0.5,10.6,0.6,14.3
			c0.1,3.7,0.3,6,0.4,6.8c0.3,2.4,1.2,4,2.8,4.9c1.6,0.9,3.3,1.4,5.1,1.3c1.8-0.1,3.5-0.5,5.1-1.3c1.5-0.8,2.4-1.9,2.6-3
			c0.5-4.5,0.8-10.5,1-17.5c0.2-7-0.2-15.4,0.3-23.5c0.3-5.9,1.7-13.5,2.9-21.9c1.2-8.4,2.7-17,4.5-25.8c1.8-8.8,3.9-17.5,6.3-26
			c2.3-8.5,4.9-16,7.7-22.5c2.7-6.5,5.7-11.6,8.7-15.3c3.1-3.7,6.1-5.2,9-4.6c1.7,0.4,3.2,2.7,4.6,6.8c1.3,4.2,2.5,9.5,3.5,16
			c1,6.5,1.9,13.9,2.7,22.1c0.8,8.2,1.4,16.7,2,25.3c0.6,8.6,1.1,17.1,1.5,25.4c0.4,8.3,0.8,15.8,1.1,22.5
			c0.3,6.6,0.6,12.2,0.9,16.5c0.3,4.4,0.4,6.9,0.6,7.6c0.6,3.9,1.7,7.2,3.1,9.7c1.4,2.5,2.9,4.4,4.5,5.7c1.7,1.3,3.4,2.2,5.2,2.7
			c1.8,0.5,3.6,0.7,5.3,0.6c1.7-0.1,3.2-0.3,4.5-0.6c1.3-0.4,2.3-0.7,2.9-1c1-0.4,2-1.1,2.9-1.9c0.9-0.8,1.7-1.7,2.3-2.7
			c0.6-0.9,0.8-1.8,0.8-2.6C198.2,328.9,197.7,328.2,196.7,327.7z"/>
	</g>
	<g>
		<path d="M481.5,138.9c0-4.9-3.5-8.9-8.3-9.5c-4.1-0.6-11.5-1.6-24.7-3.1c-12.8-1.5-20.3-2.3-24.4-2.7c-4.9-0.5-9.2,2.7-10.3,7.3
			c-3.4,13.7-14.9,61-19.1,96c-1,8.1-2.3,15.2-7.7,21.6c-1.8,2.2-3.8,4.1-5.9,5.9c-2.1,1.8-4.4,3.2-6.8,4.3c-2.4,1.1-4.6,1-7.2,0.8
			c-0.3-0.4-0.4-0.6-0.7-1c0.6-2.1,0.9-3.6,1.3-5.4c0.5-2,0.8-3.3,1-4.1c2.1-8.4,3-15.8,2.9-21.7c-0.1-6-0.8-10.9-2.2-14.6
			c-1.4-3.8-3.1-6.5-5.3-8.3c-2.1-1.7-4.2-2.6-6.1-2.7c-2.5-0.1-4.7,0.4-6.6,1.7c-1.9,1.3-3.5,3-4.9,5c-1.4,2-2.5,4.3-3.4,6.8
			c-0.9,2.5-1.6,5-2.1,7.3c-0.5,2.4-0.9,4.5-1.1,6.4c-0.2,1.9-0.4,3.3-0.4,4c-0.2,3.7,0.5,7.3,1.6,10.4c1,3.1,2.4,5.9,4,8.3
			c1.6,2.4,3.4,4.5,5.4,6.2c2,1.7,5.2,4,5.6,4.8c0.6,1.3-1.6,7.1-2.7,10.8c-1.1,3.7-2.3,7.1-3.5,10c-1.2,3-2.5,5.3-3.8,7.1
			c-1.3,1.8-2.6,2.6-3.7,2.5c-3.1-0.2-5.6-1.7-7.4-4.5c-1.8-2.8-3.2-6.5-4-11c-0.8-4.5-1.3-9.5-1.4-15.2c-0.1-5.7,0.1-11.4,0.6-17.2
			c0.5-5.8,1.2-11.4,2.1-16.9c0.9-5.4,1.9-10.2,2.8-14.2c0.2-0.8-0.4-1.7-1.7-2.6c-1.3-0.9-2.9-1.6-4.6-2.1c-1.7-0.5-3.4-0.8-5-0.9
			c-1.6-0.1-2.5,0.4-2.7,1.3c-1.1,5.3-2.7,11.3-4.2,17.4c-1.5,6.1-3,12.3-4.5,18.4c-1.5,6.1-3.1,11.9-4.6,17.5
			c-1.5,5.6-2.9,10.5-4.3,14.7c-1.4,4.3-2.7,7.6-4,10.1c-1.2,2.5-2.4,3.7-3.4,3.7c-1.3,0-2.4-1.5-3.4-4.3c-1-2.8-1.8-6.4-2.3-10.8
			c-0.6-4.4-1-9.3-1.3-14.7c-0.3-5.4-0.4-10.8-0.2-16.1c0.2-5.3,0.5-10.4,0.9-15c0.5-4.7,1.1-8.6,2.1-11.3c0.1-0.3-0.4-0.7-1.5-1.4
			c-1.1-0.6-2.5-1.2-4.1-1.7c-1.6-0.5-3.1-0.8-4.6-1c-1.5-0.2-2.6,0-3.2,0.6c-0.8,0.7-1.5,2.5-2.2,5.2c-0.7,2.7-1.2,6-1.6,10
			c-0.2,1.7-0.3,3.4-0.4,5.3c0,0.1,0,0.2,0,0.2c-1.3,3.4-2.9,7.1-4.7,11.2c-2,4.7-4.3,9.5-6.8,14.4c-2.5,5-5,9.6-7.6,13.8
			c-2.6,4.2-5.3,7.8-8.1,10.6c-2.8,2.8-5.5,4.4-8.2,4.7c-2.7,0.3-5.2-0.2-7.4-1.5c-2.2-1.4-4.3-3.3-6.1-5.8
			c-1.8-2.5-3.3-5.5-4.5-8.9c-1.2-3.4-3.4-10.1-2.7-10.9c0.2-0.2,3.3-0.3,5.6-0.5c2.3-0.2,4.7-0.7,7.3-1.4c2.6-0.7,5.2-1.6,7.9-2.8
			c2.7-1.2,5.1-2.7,7.4-4.6c2.2-1.9,4.2-4.3,5.8-7.1c1.6-2.8,2.7-6.3,3.1-10.1c0.1-1,0-2.8-0.2-5.3c-0.2-2.5-1-5-2.5-7.5
			c-1.4-2.5-3.6-4.6-6.6-6.3c-3-1.7-7.2-2.4-12.6-1.9c-5.3,0.5-9.9,2.1-13.8,4.9c-3.9,2.8-7.1,6.3-9.5,10.6c-2.4,4.2-4.2,8.9-5.2,14
			c-1,5.1-1.4,10.3-1.1,15.5c0.3,5.2,1.3,10.2,2.9,15.1c1.6,4.8,3.8,9.1,6.6,12.8c2.8,3.7,6.2,6.7,10.2,8.9c3.9,2.2,8.5,3.2,13.8,3
			c3.1-0.1,6-1.1,8.7-3.2c2.8-2.1,5.4-4.8,8.1-8.1c2.6-3.3,5.1-7,7.4-11.2c2.3-4.2,4.6-8.4,6.7-12.8c2.1-4.4,4.1-8.8,5.8-13.1
			c0.1-0.3,0.2-0.5,0.3-0.7c0.1,2.2,0.2,4.4,0.4,6.6c0.4,4.9,1.1,9.7,2,14.3c0.9,4.6,2.1,8.8,3.6,12.4c1.5,3.6,3.3,6.6,5.5,8.8
			c2.2,2.2,4.7,3.4,7.7,3.6c2,0.1,3.9-0.6,5.8-2.3c1.9-1.7,3.6-3.8,5.1-6.4c1.6-2.6,3-5.4,4.3-8.5c1.3-3.1,2.4-6,3.4-8.7
			c1-2.7,1.7-5.1,2.3-7c0.6-1.9,1-3.3,1-3.3c0,0,0.1,1.4,0.4,3.3c0.3,1.9,0.9,4.2,1.6,6.9c0.8,2.7,1.8,5.6,3,8.7
			c1.2,3.1,2.8,6,4.8,8.6c1.9,2.6,4.3,4.8,7,6.6c2.7,1.8,5.9,2.7,9.6,2.8c2.6,0,5-1,7.3-3c2.2-2.1,4.3-4.7,6.2-8
			c1.9-3.3,3.6-6.9,5.3-10.8c1.6-4,3-7.8,4.2-11.5c0.3,0,0.5,0.1,0.8,0.1c4.1,0.4,7.8,0.1,11-1c3.3-1.1,6.2-2.6,8.8-4.4
			c2.6-1.8,4.8-3.9,6.8-6.3c1.9-2.4,3.6-4.6,4.9-6.8c4.1-6.7,5.8-15,6.8-22.7c1.1-8.4,2.5-16.7,4-25c2.9-15.8,6.2-31.6,9.9-47.3
			c1.5-6.3,3-12.6,4.6-18.9c0.1-0.6,0.8-0.9,1.4-1c4.1,0.4,11.5,1.2,24.6,2.8c12.1,1.5,19.4,2.4,23.6,3c1,0.1,1.7,1,1.7,2
			c0.1,14.7,0,62.1-4.1,96.2c-2.5,21-12.2,29.4-21.5,37.6c-8.3,7.3-16.9,14.8-18.8,30.1c-3.6,30.3-4,33.8-4.7,47.7
			c-1.3,23.3,0.2,30.2,14,35.6c0.8,0.3,0.5,1.5-0.3,1.4l-40-4.8c-0.9-0.1-0.8-1.3,0-1.4c14.1-1.8,17.6-7.7,21.7-31.3l0.2-1
			c2.2-12.9,3-17.2,6.5-46.4c1.8-15.3-4.8-24.6-11.1-33.6c-3.3-4.6-5.7-9.3-9.2-14.5c-2.8-4-6.1-1.8-6.2,2.7c0,2.9,1.2,5.4,2.7,7.8
			c1.8,3,3.8,5.9,5.8,8.8c6.2,8.8,11.1,15.8,9.7,27.8c-3.5,28.9-4.2,33.2-6.4,45.9l-0.2,1c-4.2,24.5-4.6,24.5-25.3,25.2l-0.9,0.1
			c-9.5,2.5-10.7,6.7-10.5,9.1c0.1,2.1,1.5,5.7,8.7,6.5l66.9,8c0.9,0.1,1.6,0.1,2.3,0.1c5.9,0,7.4-3.3,7.8-4.8
			c0.7-2.7-0.2-6.7-8.2-11l-0.9-0.3c-19.7-5.5-20.1-5.6-18.7-30.5c0.7-13.6,1.1-17.1,4.7-47.1c1.4-12.1,7.8-17.7,16-24.8
			c10-8.8,21.4-18.7,24.3-42.9C481.6,201.6,481.6,153,481.5,138.9z M217.3,260.1c-0.9-0.7-0.6-8.7-0.2-13c0.4-4.3,1.2-8.2,2.6-11.8
			c1.3-3.6,3.2-6.6,5.5-9.1c2.4-2.4,5.3-4,8.6-4.6c0.8-0.1,1.7-0.1,2.8,0.2c1.1,0.2,2.1,0.9,3.1,2.1c0.9,1.2,1.7,2.9,2.3,5.1
			c0.6,2.3,0.8,5.4,0.5,9.3c-0.4,4.8-1.8,8.8-3.9,11.7c-2.2,2.9-4.6,5.1-7.2,6.5c-2.7,1.5-5.3,2.4-8,2.9
			C220.7,259.7,217.6,260.3,217.3,260.1z M363,224.9c-0.3,3.5-0.6,7.4-1,11.5c-0.1,0.7-0.5,2.8-1.2,6.3c-0.7,3.5-2.2,12.4-2.7,12.5
			c0,0-2.4-3.6-3.2-5.7c-0.8-2.1-1.4-4.2-1.9-6.2c-0.4-2.1-0.7-3.9-0.8-5.6c-0.1-1.6-0.1-2.8,0-3.6c0.1-0.6,0.1-1.6,0.2-3.2
			c0.1-1.6,0.3-3.3,0.5-5.2c0.2-1.9,0.5-3.9,0.8-6c0.3-2.1,0.7-4,1.2-5.7c0.5-1.7,1-3.2,1.6-4.3c0.6-1.1,1.4-1.7,2.3-1.7
			c1.5,0,2.6,0.7,3.3,2.1c0.7,1.4,1.1,3.4,1.2,5.9C363.5,218.4,363.4,221.4,363,224.9z"/>
	</g>
	<g>
		<path d="M553.2,433c-0.3-0.5-0.7-0.8-1.3-1s-1.1-0.1-1.8,0.1c-0.6,0.2-1.2,0.8-1.6,1.6c-0.3,0.6-1.1,2.4-2.4,5.5
			c-1.3,3.1-2.9,6.8-4.8,11.2c-1.9,4.4-3.9,9-6.1,14c-2.2,5-4.4,9.6-6.5,13.8c-2.2,4.2-4.2,7.7-6.1,10.6c-1.9,2.8-3.4,4.3-4.4,4.4
			c-2.4,0.2-4-1-4.7-3.6c-0.7-2.6-0.9-5.9-0.7-10c0.3-4.1,0.9-8.5,2-13.3c1.1-4.8,2.2-9.4,3.4-13.6c1.2-4.3,2.3-7.9,3.4-11
			c1.1-3.1,1.8-4.8,2-5.3c0.4-0.6,0.4-1.5,0.1-2.6c-0.3-1.1-0.8-2-1.4-2.9c-0.6-0.9-1.3-1.6-2.1-2c-0.8-0.5-1.4-0.4-2,0.1
			c-1.1,1.1-2.4,2-4,2.6c-1.6,0.6-3.4,1-5.3,1c-1.9,0.1-3.8-0.1-5.8-0.5c-2-0.4-2.9-0.9-4.6-1.9c0.5-1.2,1.1-3.4,1.8-5.2
			c0.8-1.8,0.7-3.3,1.4-5.5c0.7-2.2,1.4-4.6,2-7c0.6-2.5,0.9-4.9,1-7.4c0-1.1-0.2-2.3-0.7-3.7c-0.5-1.3-1.1-2.6-2-3.8
			c-0.9-1.2-1.9-2.1-3.1-2.8c-1.2-0.7-2.5-1.1-4-1c-0.9,0.1-2.2,0.7-3.8,1.8c-1.6,1.1-3.2,2.7-4.7,4.7c-1.5,2-2.9,4.4-4,7.2
			c-1.1,2.7-1.6,5.7-1.4,9c0.2,5,1.2,9.2,3.1,12.7c1.6,2.9,2.9,5.4,5.1,7.3c-0.3,0.9-0.7,1.8-1.1,3.1c-1.3,3.6-2.2,7.9-4,13
			c-1.8,5.2-3.8,10.7-5.9,16.6c-2.2,5.9-4.3,11.3-6.4,16.2c-2.1,4.9-4.1,8.9-6,12c-1.9,3.1-3.4,4.5-4.6,4.1
			c-0.8-0.3-1.4-1.5-1.9-3.6c-0.4-2.1-0.8-4.9-0.9-8.3c-0.2-3.4-0.2-7.2-0.1-11.5c0.1-4.3,0.2-8.6,0.3-13.1
			c0.1-4.4,0.3-8.8,0.6-13.1c0.3-4.3,0.5-8.1,0.7-11.5c0.2-3.4,0.4-6.3,0.6-8.5c0.2-2.2,0.3-3.5,0.3-3.8c0-0.6-0.4-1.2-1.1-1.8
			c-0.7-0.6-1.6-1.2-2.6-1.7c-1-0.5-2.1-0.9-3.3-1.1c-1.2-0.2-2.2-0.3-3.2-0.2c-0.5,0.1-1.1,2-1.6,5.8c-1.6-2.1-3.7-3.9-6.3-5.4
			c-2.6-1.4-5.8-2.1-9.7-1.9c-4.3,0.2-8,1.3-11.2,3.2c-3.1,1.9-5.8,4.4-8,7.3c-2.2,2.9-4,6.1-5.4,9.6c-1.4,3.5-2.5,6.8-3.2,9.9
			c-0.8,3.2-1.3,6-1.5,8.5c-0.3,2.5-0.4,4.3-0.4,5.3c0,0.1,0,0.3,0,0.4c-0.1,0.2-0.1,0.3-0.2,0.5c-2.2,4.8-4.5,9.2-6.9,13.2
			c-2.4,4-4.8,7.4-7.4,10c-2.6,2.6-5,4.1-7.5,4.2c-2.4,0.2-4.6-0.4-6.5-1.9c-1.9-1.4-3.6-3.4-5-6c-1.4-2.5-2.6-5.5-3.4-8.9
			c-0.9-3.4-1.4-7-1.7-10.8c1.3,0,2.9,0,4.8-0.1c2-0.1,4.1-0.4,6.3-0.9c2.2-0.5,4.5-1.3,6.9-2.3c2.3-1,4.5-2.4,6.5-4.2
			c2-1.8,3.7-4,5.1-6.7c1.4-2.7,2.4-5.9,2.8-9.7c0.1-1,0.1-2.7-0.1-5.1c-0.1-2.4-0.8-4.8-1.9-7.3c-1.1-2.5-2.9-4.6-5.3-6.3
			c-2.4-1.8-5.8-2.5-10.2-2.4c-4.3,0.2-8.1,1.5-11.4,4c-3.3,2.5-6.1,5.6-8.4,9.5c-2.3,3.9-4.1,8.3-5.3,13.1c-1.3,4.9-2,9.8-2.1,14.9
			c-0.1,5.1,0.3,10,1.3,14.8c1,4.8,2.6,9.1,4.8,13c2.2,3.8,5.1,6.9,8.5,9.3c3.4,2.4,7.5,3.6,12.3,3.7c2.8,0.1,5.5-0.8,8-2.8
			c2.6-1.9,5.1-4.5,7.5-7.6c2.4-3.1,4.7-6.7,6.8-10.7c1-1.9,1.9-3.8,2.8-5.8c0.5,2.2,1.1,4.3,1.9,6.1c2,4.5,4.4,8,7.2,10.4
			c2.8,2.5,5.8,4.1,8.9,4.9c3.1,0.8,5.8,1,8.1,0.8c1.9-0.2,3.7-0.9,5.5-2.1c1.8-1.2,3.4-2.7,4.9-4.4c1.5-1.8,2.9-3.6,4.1-5.6
			c1.2-1.9,2.2-3.8,3-5.6c0.4,4.2,0.9,8.1,1.5,11.7c0.7,3.6,1.5,6.7,2.5,9.4c1,2.6,2.2,4.7,3.6,6.3c1.4,1.5,3,2.2,4.9,2
			c1.9-0.1,3.8-1.2,5.7-3.3c1.9-2.1,3.8-4.9,5.7-8.3c1.9-3.4,3.7-7.3,5.5-11.7c1.8-4.4,3.5-8.9,5.2-13.6c1.7-4.6,3.9-9.2,5.3-13.7
			c1.4-4.5,2.4-7.9,3.4-11.5c1-3.6,1.9-6.6,2.6-8.9c0-0.1,0.1-0.3,0.1-0.4c2.2,1.2,4,1.6,6.4,2c3.3,0.6,6.5,0.4,9.6-0.4
			c-3.9,10-6.3,19.1-7.4,27.4c-0.4,3.5-0.7,7-0.6,10.5c0,3.5,0.5,6.7,1.5,9.6c0.9,2.9,2.4,5.4,4.5,7.5c2.1,2.1,4.8,3.5,8.3,4.1
			c2.4,0.5,5-0.8,7.7-3.7c2.7-2.9,5.5-6.7,8.1-11.4c2.7-4.7,5.3-9.9,7.9-15.6c2.6-5.7,4.8-11.1,6.7-16.1c1.9-5,3.5-9.3,4.6-12.8
			c1.2-3.5,1.8-5.5,1.9-6C553.7,434.1,553.5,433.5,553.2,433z M365.3,449.9c0.6-4,1.5-7.7,2.8-11c1.3-3.3,3-6.1,5-8.2
			c2.1-2.2,4.5-3.5,7.3-3.9c0.6-0.1,1.4,0,2.3,0.3c0.9,0.3,1.7,1,2.4,2.1c0.7,1.1,1.3,2.8,1.7,5c0.4,2.2,0.4,5.1,0.1,8.8
			c-0.5,4.6-1.8,8.3-3.7,10.9c-1.9,2.6-4.1,4.6-6.4,5.8c-2.3,1.3-4.6,2-6.9,2.2c-2.3,0.2-4,0.3-5.2,0.3
			C364.5,458,364.7,453.9,365.3,449.9z M447.6,451.7c0.2,4.5-0.2,9.2-0.1,14c-0.5,1.6-1.3,4-2.2,7c-0.9,3.1-2.1,6.1-3.5,9
			c-1.4,3-3.2,5.5-5.2,7.7c-2,2.2-4.4,3.3-7.1,3.3c-2.1,0-3.8-0.6-5.3-1.8c-1.5-1.2-2.7-2.7-3.7-4.5c-1-1.8-1.8-3.9-2.3-6.1
			c-0.5-2.2-1-4.3-1.3-6.4c-0.3-2.1-0.5-3.9-0.6-5.6c-0.1-1.7-0.1-2.9-0.1-3.6c-0.1-3.5,0.3-7.4,1.3-11.7c0.9-4.3,2.2-8.2,3.9-11.9
			c1.7-3.7,3.5-6.8,5.7-9.4c2.1-2.6,4.3-4,6.7-4.2c4.6-0.4,8,0.6,10.4,3c2.3,2.3,3.7,5.2,4.2,8.6
			C447.9,442.9,447.4,446.7,447.6,451.7z M493.9,426.1c-1-1-1.7-2.1-2.2-3.4c-0.5-1.3-0.8-2.7-0.9-4.3c-0.2-2.3,0-4.5,0.5-6.6
			c0.5-2.1,1.1-3.9,1.8-5.4c0.7-1.6,1.4-2.8,2.2-3.8c0.8-0.9,1.4-1.4,2-1.4c1,0,1.4,0.9,1.4,2.8c0,1.9-0.3,4.1-0.8,6.7
			c-0.5,2.6-1.2,5.3-2,8.2C495,421.9,494.4,424.2,493.9,426.1z"/>
	</g>
	<g>
		<path d="M332.1,512.3c-3.9-2.4-8.1-4.6-12.4-6.3c4.8-10.1,9.1-20.6,12.9-31.5c3.9-10.9,7.1-21.7,9.6-32.5
			c2.6-10.8,4.5-21.3,5.7-31.5c1.3-10.2,1.7-19.8,1.2-28.7c-0.5-8.9-1.8-16.9-4-24c-2.2-7.1-5.5-12.9-9.8-17.5
			c-2.4-2.2-4.8-3.5-7.1-3.8c-2.3-0.3-4.3-0.1-5.8,0.5c-1.5,0.6-2.5,1.5-2.9,2.6c-0.4,1.2,0,2.1,1.3,2.9c2.2,1.9,4,4.5,5.5,7.6
			c1.5,3.1,2.8,6.7,3.7,10.7c0.9,4,1.6,8.5,2.1,13.3c1.6,17.2-1.3,31.4-7.1,47.7c-2.4,6.7-5.2,13.4-8.5,20.1
			c-3.3,6.8-7.2,12.9-11.6,18.5c-4.5,5.6-9.6,10.2-15.3,13.8c-5.8,3.6-12.2,5.7-19.4,6.1c-1.9,0.2-3.5,0-5-0.6
			c-1.5-0.6-2.8-1.3-3.8-2.2c-1-0.9-1.8-1.9-2.4-3c-0.6-1.1-0.8-2.2-0.7-3.2c0-2.2,0.7-5.4,2-9.6c1.3-4.2,2.9-9,4.9-14.4
			c1.9-5.4,4-11.1,6.1-17.3c2.1-6.1,4.1-12.2,5.9-18.3c1.8-6.1,3.3-12,4.4-17.6c1.1-5.7,1.5-10.7,1.3-15c-0.2-2.9-0.7-6.2-1.4-10.1
			c-0.7-3.9-2.2-7.6-4.5-11c-2.3-3.4-5.6-6.2-10-8.3c-4.3-2.1-10.1-2.8-17.4-2c-7,0.8-13,2.6-18,5.6c-4.9,3-9,6.2-12.2,9.6
			c-3.2,3.4-5.6,6.5-7.2,9.5c-1.6,2.9-2.4,4.8-2.6,5.4c-0.4,1.2-0.4,2.4,0.1,3.4c0.5,1,1.2,1.7,2.1,2.1c0.9,0.4,1.8,0.5,2.6,0.2
			c0.9-0.3,1.5-1.1,1.8-2.4c0.4-1.5,1.7-3.8,3.8-6.8c2.1-3,4.7-5.9,7.8-8.8c3.1-2.9,6.7-5.4,10.7-7.6c4-2.1,8.2-3.1,12.6-2.8
			c5.4,0.3,9.4,1.8,12,4.4c2.6,2.7,4.1,6.1,4.6,10.3c0.5,4.2,0.1,9.1-1.1,14.7c-1.2,5.6-2.8,11.4-4.9,17.6c-2,6.2-4.3,12.5-6.7,18.9
			c-2.4,6.4-4.7,12.6-6.8,18.6c-2.1,6-3.7,11.6-4.9,16.8c-1.2,5.2-1.7,9.8-1.3,13.6c0.3,3.5,1.3,6.7,2.8,9.4c1.5,2.8,3.7,5,6.4,6.8
			c2.7,1.8,6,3,9.9,3.6c3.8,0.6,8.2,0.5,13-0.2c7.3-1,13.8-3.6,19.6-7.7c5.8-4.1,10.9-9,15.4-14.8c4.5-5.8,8.4-12.1,11.7-18.8
			c2.3-4.8,4.8-9.5,7.1-14.3c-2.1,10.9-4.7,21.7-7.4,31.9c-3.5,12.6-7.6,24.8-12.5,36.6c-7.7-1.7-16.7-2.3-26.9-1.9
			c-4,0.2-8.8,0.9-14.1,2c-5.4,1.2-11,2.8-16.7,5.1c-5.7,2.2-11.4,5-17,8.2c-5.6,3.2-10.6,7-15,11.3c-4.4,4.3-7.9,9.2-10.6,14.6
			c-2.7,5.4-4,11.4-3.9,17.9c0,0.8,0.2,2.1,0.5,3.7c0.4,1.6,1,3.4,2,5.4c0.9,2,2.2,4,3.9,6c1.7,2,3.8,3.9,6.5,5.5
			c2.7,1.6,6,2.9,9.8,4c3.9,1,8.4,1.4,13.7,1.3c6.9-0.3,13.8-2.3,20.6-6.1c6.8-3.8,13.4-8.8,19.9-15.2c6.4-6.4,12.6-13.9,18.5-22.6
			c5.9-8.7,11.4-18,16.6-28c13,4.5,26.6,14.4,30.5,28.2c2.8,9.9,0.9,20.5-3.5,29.7c-8.7,18.2-31.3,29.7-49.2,36.4
			c-3.6,1.3-7.2,2.5-10.9,3.5c-12.8,3.5-26.1,5-39.3,5.4c-6.7,0.2-13.3,0-20-0.3c-6-0.3-12.3-0.3-18.2-1.1
			c-5.4-0.8-11.5-0.8-16.4-3.6c-1.6-0.9-2.8-2.3-3.8-3.9c-3.1-5.6-3.7-12.9-4.9-19.1c-2.5-13.4-2.9-16.9-6.5-46.9
			c-1.4-12.1,3.5-19,9.7-27.8c7.7-10.9,16.4-23.2,13.6-47.4c-4-33.6-14.4-77.7-18.7-95.1c-1.3-5.2-6.2-8.8-11.7-8.2
			c-4.3,0.4-11.5,1.2-23.7,2.6c-11.8,1.4-19,2.3-23.3,2.9c-5.4,0.7-9.4,5.2-9.4,10.7c-0.1,17.9,0,63.2,4,96.8
			c2.9,24.1,14.2,34.1,24.2,42.9c8.1,7.1,14.5,12.7,15.9,24.8c3.4,28.9,3.7,33.2,4.6,46.1l0.1,1.1c0.2,3.6,0.5,7.2,0.6,10.8
			c0.1,4.2,0.3,9.3-2.6,12.7c-2.1,2.4-5.6,3.8-8.5,4.8c-2.2,0.8-4.4,1.6-6.6,2.4c-4.5,1.7-12.2,4.8-10.7,11c0.4,1.4,1.8,4.8,7.8,4.8
			c0.7,0,1.5,0,2.3-0.1c0.2,0,0.4,0,0.6-0.1c6.9-0.8,13.9-1.6,20.8-2.5c6.5-0.8,12.8-1.7,19.2-2.7c2.2-0.4,4.7-0.5,6.4-2.3
			c1.7-1.9,0.9-4.8-1.7-5.5c-1-0.3-2.1-0.2-3.1-0.2c-6.9,0.5-13.8,1.5-20.6,2.3c-1.7,0.2-9.5,2.2-9-0.5c0.1-0.5,4-1.7,4.7-2.1
			c1.2-0.7,2.3-1.4,3.3-2.3c2-1.7,3.4-3.9,4.3-6.4c2.8-7.6,1.7-16.7,1.2-24.6l-0.1-1.1c-0.9-13-1.2-17.4-4.6-46.6
			c-1.8-15.3-10.4-22.8-18.7-30.1c-9.3-8.2-19-16.6-21.4-37.6c-3.9-33.2-4.1-78-3.9-95.8c0-1.3,0.9-2.3,2.2-2.5
			c4.3-0.6,11.4-1.5,23.5-2.9c11.7-1.4,18.9-2.2,23.5-2.6c1.2,0,2.2,0.8,2.4,1.9c4.3,17.2,14.6,60.9,18.5,94
			c2.5,21-4.9,31.4-12.1,41.6c-6.4,9-13,18.4-11.2,33.6c3.6,30.3,4.1,33.8,6.6,47.5c1.5,8,2.6,17.8,7.8,24.5c3.2,4.2,8.4,6,13.4,6.9
			c5.1,0.9,10.4,1.5,15.6,2c12,1.1,24.2,1.6,36.2,1.1c23.8-1,47.8-5.9,69-17.1c5.6-3,11-6.4,16.2-10.1
			c14.3-10.5,24.9-27.5,25.6-45.5C356.4,534.2,346.1,521,332.1,512.3z M291.3,537c-4.8,8.1-9.9,15.2-15.3,21.2
			c-5.3,6-10.9,10.8-16.8,14.3c-5.8,3.5-11.9,5.3-18,5.5c-6.6,0.2-11.7-0.3-15.1-1.5c-3.5-1.2-5.9-2.8-7.4-4.7
			c-1.5-1.9-2.3-4-2.4-6.3c-0.1-2.3-0.1-4.4-0.1-6.3c0-1.3,0.5-3.3,1.4-6.1c0.9-2.8,2.5-5.9,4.6-9.4c2.1-3.5,4.8-7.1,8.1-10.8
			c3.3-3.8,7.2-7.2,11.8-10.4c4.6-3.2,10-6,16.1-8.3c6.1-2.3,13-3.8,20.6-4.3c5-0.5,9.7-0.6,13.9-0.4c4.3,0.2,8.3,0.6,12,1.4
			C300.6,520.2,296.1,528.9,291.3,537z"/>
	</g>
</g>
<g id="_x32_">
	<g>
		<path fill="#A6A8AB" d="M422.7,179.8l4.5-37.2c0.3-2.3,2.4-3.8,4.6-3.4l0.1,0c2.3,0.5,3.7,2.9,2.9,5.1L422.7,179.8z"/>
	</g>
	<g>
		<path fill="#A6A8AB" d="M133.5,426.3l-7.3-36.7c-0.4-2.2,1.1-4.4,3.4-4.6l0.1,0c2.4-0.3,4.4,1.6,4.4,3.9L133.5,426.3z"/>
	</g>
	<g>
		<path fill="#A6A8AB" d="M502,353.6c-2.1,1.3-3.2-1.9-3.1-3.5c0.3-2.7,1.8-5.2,2.5-7.8c1.2-4,2.5-8.1,3.9-12
			c2.9-8,6.2-15.8,9.9-23.4c10.8-21.9,25.4-42.3,43.8-58.5c1.7-1.5,4.4-1.4,5.9,0.4c1.5,1.7,1.4,4.4-0.4,5.9
			c-14,12.3-26.2,26.6-36.3,42.2c-6.8,10.5-12.6,21.6-17.3,33.2c-2.2,5.4-3.7,11-5.8,16.4c-0.7,1.7-1.6,5.9-3,7
			C502.2,353.5,502.1,353.6,502,353.6z"/>
	</g>
	<g>
		<path fill="#A6A8AB" d="M521.8,380c-0.9,0.2-1.7,0.2-2.5-0.3c-4.1-3,7.9-9.1,9.7-10.2c5.6-3.5,11.3-6.8,17.1-9.9
			c11.7-6.1,23.9-11.2,36.5-14.9c5.3-1.5,10.7-2.8,16.1-3.8c2.3-0.4,4.5,1.1,4.9,3.4c0.4,2.3-1.1,4.5-3.4,4.9
			c-6.9,1.2-13.7,2.8-20.4,4.6c-12.7,3.5-25.1,8-36.9,13.9c-5.8,2.9-11.5,6.2-17,9.8C525,378.2,523.4,379.5,521.8,380z"/>
	</g>
	<g>
		<path fill="#A6A8AB" d="M75.8,470.9c-0.5,0-1.1-0.2-1.7-0.4c-15.9-7-33.5-10.3-51.1-12.1c-2.3-0.2-4-2.3-3.7-4.6
			c0.2-2.3,2.3-3.9,4.6-3.7c18.5,1.9,36.5,8,53.2,15.3C81.1,467.1,79.2,471.1,75.8,470.9z"/>
	</g>
	<g>
		<path fill="#A6A8AB" d="M50.6,544.2c-1.1,0-2.3-0.5-3.1-1.4c-1.6-1.7-1.5-4.4,0.3-5.9C60.1,525.7,72.9,518,85.1,511
			c1.5-0.9,3.8-1.5,4.8,0.3c1.2,2,0.4,3.4-1.6,4.6c-11.7,6.7-23,16.4-34.9,27.3C52.6,543.8,51.6,544.2,50.6,544.2z"/>
	</g>
	<g>
		<path fill="#A6A8AB" d="M267.5,190.7c-1.4,0.3-3.1-0.5-3.9-2.7c-4.7-12.7-16.3-23.3-32.6-34.4c-1.9-1.3-2.4-3.9-1.1-5.8
			c1.3-1.9,3.9-2.4,5.8-1.1c17.8,12,27.9,25.1,33.2,39.6C269.8,188.8,268.9,190.3,267.5,190.7z"/>
	</g>
	<g>
		<path fill="#A6A8AB" d="M311.2,175.1c-0.4-0.1-0.9-0.3-1.5-0.7c-1-0.7-1.5-2-1.5-3.1c-1.7-25,1.5-48.6,11.3-68.2
			c1-2.1,3.5-2.9,5.6-1.9c2.1,1,2.9,3.5,1.9,5.6c-5.6,11.3-9.6,23.3-11.7,35.8c-1.1,6.6-1.7,13.3-1.7,19.9
			C313.4,164.5,315.2,175.9,311.2,175.1z"/>
	</g>
	<g>
		<path fill="#A6A8AB" d="M525.9,584.1c-0.6,0-1.1-0.1-1.7-0.3c-12.7-5.5-24.6-13.4-35.6-21.7c-10.2-7.7-21.6-16.6-28-27.9
			c-0.8-1.4-2.1-4-1.8-5.6c0.6-3,3.1-1.9,4.4,0.3c2.5,4.2,6.1,7.2,9.4,10.6c3.6,3.7,7.3,7.1,11.3,10.4c8,6.4,16.7,12,25.6,17.1
			c5.8,3.4,11.8,6.6,18,9.2c2.1,0.9,3.1,3.4,2.2,5.5C529.1,583.1,527.6,584.1,525.9,584.1z"/>
	</g>
	<g>
		<path fill="#A6A8AB" d="M418.4,621.8c-2.3,0-4.1-1.8-4.2-4.1c-0.6-24.3-1.3-62.7-3.4-84c-0.5-4.7,5.2-3.9,5.6,0.3
			c2.3,23.7,5.6,62.9,6.1,83.6c0.1,2.3-1.8,4.2-4.1,4.3C418.5,621.8,418.4,621.8,418.4,621.8z"/>
	</g>
	<g>
		<path fill="#A6A8AB" d="M91.9,421.8c-1.3,0.2-2.8-0.4-3.7-2.3c-6.9-13.8-18.2-27.2-32.5-41.3c-1.7-1.6-1.7-4.3-0.1-5.9
			c1.6-1.7,4.3-1.7,5.9-0.1c15.1,14.7,26.3,29,32.7,44.5C95.3,419.4,93.8,421.5,91.9,421.8z"/>
	</g>
</g>
<g id="_x31_">
	<path fill="#FAAF40" d="M411.4,182.1c-3.2,15-6.3,31.1-8.2,45.3c-1.1,8-0.7,16.3,2.3,23.9c2.1,5.2,5,10.7,8.9,15
		c-3.4-5.5-5.4-13.7-3.9-26.4c0,0,3.2,24.5,19.1,33.4c3-0.3,5.8-1.5,8.5-3.2c12.4-7.5,20.9-20.8,22.7-35.1
		c1.7-12.9,2.5-39.3,3.2-53.4C447,178,426.2,185.2,411.4,182.1z M418.4,225.9c-2.3,0-4.2-1.9-4.2-4.2c0-2.3,1.9-4.2,4.2-4.2
		c2.3,0,4.2,1.9,4.2,4.2C422.6,224,420.7,225.9,418.4,225.9z M431.7,239.5c-2.9,0-5.2-2.3-5.2-5.2c0-2.9,2.3-5.2,5.2-5.2
		c2.9,0,5.2,2.3,5.2,5.2C436.9,237.2,434.6,239.5,431.7,239.5z M447,206.2c-2.3,0-4.2-1.9-4.2-4.2c0-2.3,1.9-4.2,4.2-4.2
		c2.3,0,4.2,1.9,4.2,4.2C451.2,204.3,449.4,206.2,447,206.2z"/>
	<path fill="#FAAF40" d="M182.6,469.6c-1.5-12.9-3.6-20.2-6.3-34.1c-22,2.1-32.5-8.4-54.6-5c0.5,15.4,1.5,31.7,3.2,45.9
		c1,8.1,3.3,15.9,8.1,22.6c3.3,4.5,7.4,9.1,12.3,12.3c-4.6-4.4-8.6-12-10.3-24.6c0,0,9.1,23,26.7,27.6c2.8-1,5.3-2.9,7.5-5.2
		C179.3,498.9,184.3,483.9,182.6,469.6z M139.5,456.2c-1.5,1.8-4.1,2-5.9,0.5c-1.8-1.5-2-4.1-0.5-5.9c1.5-1.8,4.1-2,5.9-0.5
		C140.8,451.8,141,454.5,139.5,456.2z M156.6,485.6c-2.3,0-4.2-1.9-4.2-4.2c0-2.3,1.9-4.2,4.2-4.2c2.3,0,4.2,1.9,4.2,4.2
		C160.8,483.8,158.9,485.6,156.6,485.6z M168.2,468.8c-1.9,2.2-5.2,2.5-7.4,0.6c-2.2-1.9-2.5-5.2-0.6-7.4c1.9-2.2,5.2-2.5,7.4-0.6
		C169.9,463.3,170.1,466.6,168.2,468.8z"/>
	<g>
		<path fill="#FAAF40" d="M478.6,356.9c-0.5,0.1-1.2-0.1-1.9-0.7c-1-0.8-1-2.3-1-3.4c0.3-27.3,4.3-55.3,14.1-80.6
			c0.8-2.2,3.3-3.2,5.4-2.4c2.2,0.8,3.2,3.3,2.4,5.4c-9.5,24.3-16.3,51.2-16.6,77.5C481,354.3,480.2,356.7,478.6,356.9z"/>
	</g>
	<g>
		<path fill="#FAAF40" d="M524.3,354.9c-0.1,0-0.2,0-0.3,0c-2.8,0.2-3.4-2.6-1.8-4.6c22-27.2,49.2-49.6,80.4-61.9
			c2.2-0.9,4.6,0.2,5.4,2.4c0.8,2.2-0.2,4.6-2.4,5.4c-11.8,4.6-23.2,10.4-33.8,17.3c-10.5,6.7-20.3,14.4-29.3,23
			c-4.5,4.3-8.8,8.9-12.9,13.7C528.1,352,526.7,354.6,524.3,354.9z"/>
	</g>
	<g>
		<path fill="#FAAF40" d="M534.2,395.2c-2.1,0-5-1.4-3-3.9c1.2-1.5,3.9-2.2,5.7-2.5c3.8-0.7,7.7-1.3,11.5-1.8
			c8.1-1.2,16.4-1.9,24.6-1.9c2.3,0,4.2,1.9,4.1,4.2c0,2.3-1.9,4.1-4.2,4.1c0,0,0,0,0,0c-6.7,0-13.4-0.1-20.1,0.1
			C546.6,393.9,540.5,395.1,534.2,395.2C534.3,395.2,534.2,395.2,534.2,395.2z"/>
	</g>
	<g>
		<path fill="#FAAF40" d="M91.5,457c-0.9,0.1-2-0.3-3.1-1.4c-17.7-18.9-47-36.2-67.3-45.4c-2.1-1-3-3.4-2.1-5.5c1-2.1,3.4-3,5.5-2.1
			c21.1,9.5,49.5,29.1,67.9,48.8C94.9,453.9,93.6,456.7,91.5,457z"/>
	</g>
	<g>
		<path fill="#FAAF40" d="M53.6,501.2c-1.7,0-3.2-1.1-3.8-2.7c-0.7-2.1,0.5-4.3,2.6-4.9c9.5-3,20.3-4.4,32.6-6.1
			c5-0.7,5.2,4.4,0.7,5.4c-12.1,2.5-21.9,5.4-31,8.2C54.4,501.2,54,501.2,53.6,501.2z"/>
	</g>
	<g>
		<path fill="#FAAF40" d="M96.2,552.7c-0.4,0-0.8,0-1.1-0.2c-2.2-0.6-3.5-2.9-2.9-5.2c3.1-11.1,8.7-21.3,13.6-30.8
			c0.8-1.5,2.4-3,4.2-2.1c1.8,0.9,1.2,3.5,0.5,4.9c-4.7,9-7.2,19.7-10.2,30.2C99.7,551.5,98,552.7,96.2,552.7z"/>
	</g>
	<g>
		<path fill="#FAAF40" d="M233.6,194.5c-1.3,0-2.6-0.7-3.3-1.6c-6.2-7.8-18.4-12.2-31.8-13.6c-2.3-0.2-4-2.3-3.7-4.6
			c0.2-2.3,2.3-3.9,4.6-3.7c8.3,0.8,16.5,3.5,23.6,7.7c4.5,2.7,8.4,6,11.8,9.9c1.5,1.7,3.3,4,0.4,5.6
			C234.7,194.4,234.1,194.5,233.6,194.5z"/>
	</g>
	<g>
		<path fill="#FAAF40" d="M284.3,171.6c-3.2-0.2-2.9-5.1-3.4-7.4c-5-23.8-16.9-45.9-33.2-63.9c-1.6-1.7-1.4-4.4,0.3-5.9
			c1.7-1.6,4.4-1.4,5.9,0.3c3.4,3.7,6.5,7.7,9.4,11.8c6.9,9.8,12.2,20.6,16.3,31.9c2.1,5.8,3.9,11.8,5.3,17.8
			c0.7,3.1,5.3,15.3-0.4,15.5C284.5,171.6,284.4,171.6,284.3,171.6z"/>
	</g>
	<g>
		<path fill="#FAAF40" d="M333.6,184.8c-0.2,0-0.5,0-0.7,0c-1.8-0.4-1.8-3-1.7-4.4c0.1-3.7,1.4-7.5,2.6-11c1.7-5.1,4.3-10,7.5-14.4
			c6-8.2,14-15.1,23-19.9c1.8-0.9,3.9-0.3,4.9,1.5c0.9,1.7,0.3,3.9-1.5,4.9c-5.4,2.9-10.6,6.5-15.2,10.7
			c-8.1,7.3-14.5,16.3-16.4,27.2C335.8,180.8,335.4,184.4,333.6,184.8z"/>
	</g>
	<g>
		<path fill="#FAAF40" d="M534.7,542.1c-14.6,1-34-5.6-41.3-15.4c-0.7-1-1.2-3.1-0.2-4.1c1.2-1.3,2.3-0.2,3.7,0.6
			c2.6,1.6,4.7,3.9,7.4,5.5c3.7,2.2,7.9,3.6,12.1,4.7c7.6,1.9,17.2,3.1,24.6-0.1c1.9-0.8,4.1,0.1,4.9,2c0.8,1.9-0.1,4.1-2,4.9
			C541.2,541.2,538.1,541.8,534.7,542.1z"/>
	</g>
	<g>
		<path fill="#FAAF40" d="M457.5,575.7c-1.1,0-2.2-0.4-3.1-1.3c-7.3-7.8-13.7-16.4-18-26.2c-2-4.6-3.5-9.3-4.8-14.1
			c-0.5-1.8-6-18.8,1.1-16.1c2,0.8,2.6,7.8,3.2,9.7c0.9,3.2,1.9,6.4,3.1,9.6c4.7,12.1,12.7,22,21.5,31.5c1.6,1.7,1.5,4.3-0.2,5.9
			C459.6,575.3,458.5,575.7,457.5,575.7z"/>
	</g>
	<g>
		<path fill="#FAAF40" d="M375.6,576c-0.7,0-1.3-0.2-2-0.5c-2-1.1-2.8-3.6-1.7-5.7c7.7-14.3,14.3-30,16.4-47.7
			c0.6-5.1,6.3-5.1,5.6,0.5c-2.2,18.7-6.5,35.8-14.7,51.1C378.6,575.2,377.1,576,375.6,576z"/>
	</g>
	<g>
		<path fill="#FAAF40" d="M209.5,119.2l5.1,5.3l7.3-1.2c1.9-0.3,3.4,1.7,2.5,3.5l-3.4,6.5l3.4,6.5c0.9,1.7-0.6,3.8-2.5,3.4l-7.2-1.3
			l-5.2,5.2c-1.4,1.4-3.8,0.6-4.1-1.3l-1-7.3l-6.6-3.3c-1.8-0.9-1.8-3.4,0-4.3l6.6-3.2l1.1-7.3C205.8,118.5,208.2,117.8,209.5,119.2
			z"/>
	</g>
	<g>
		<path fill="#FAAF40" d="M478.8,581.2l3.6,6.4l7.3,0.7c2,0.2,2.9,2.6,1.5,4l-5,5.4l1.6,7.2c0.4,1.9-1.5,3.5-3.3,2.7l-6.7-3.1
			l-6.3,3.7c-1.7,1-3.8-0.4-3.6-2.3l0.9-7.3l-5.5-4.9c-1.5-1.3-0.8-3.7,1.1-4.1l7.2-1.4l2.9-6.7
			C475.4,579.6,477.9,579.5,478.8,581.2z"/>
	</g>
	<g>
		<path fill="#FAAF40" d="M23.8,492.9l5.1,5.3l7.3-1.2c1.9-0.3,3.4,1.7,2.5,3.5l-3.4,6.5l3.4,6.5c0.9,1.7-0.6,3.8-2.5,3.4l-7.2-1.3
			l-5.2,5.2c-1.4,1.4-3.8,0.6-4.1-1.3l-1-7.3L12,509c-1.8-0.9-1.8-3.4,0-4.3l6.6-3.2l1.1-7.3C20,492.3,22.4,491.5,23.8,492.9z"/>
	</g>
	<g>
		<path fill="#FAAF40" d="M38.7,323.9l7.5,7.8l10.7-1.8c2.9-0.5,5,2.5,3.7,5.1l-5.1,9.5l5,9.6c1.3,2.6-0.9,5.6-3.7,5.1l-10.6-1.9
			l-7.6,7.7c-2,2.1-5.6,0.9-6-2L31,352.4l-9.7-4.8c-2.6-1.3-2.6-5,0-6.3l9.7-4.7l1.6-10.7C33.1,323,36.6,321.9,38.7,323.9z"/>
	</g>
	<g>
		<path fill="#FAAF40" d="M510.2,222.3l6,6.2l8.5-1.4c2.3-0.4,4,2,2.9,4.1l-4,7.6l4,7.7c1.1,2.1-0.7,4.4-3,4l-8.5-1.5l-6,6.2
			c-1.6,1.7-4.4,0.7-4.8-1.6l-1.2-8.5l-7.7-3.9c-2.1-1-2.1-4,0-5l7.8-3.8l1.3-8.5C505.8,221.5,508.6,220.6,510.2,222.3z"/>
	</g>
	<g>
		<path fill="#FAAF40" d="M383.1,299.9l3.8,9.1l9.6,2c2.6,0.5,3.4,3.8,1.4,5.5l-7.4,6.4l1.1,9.8c0.3,2.6-2.6,4.4-4.8,3.1l-8.4-5.1
			l-9,4c-2.4,1.1-5-1.1-4.4-3.6l2.3-9.6l-6.6-7.3c-1.8-2-0.5-5.1,2.1-5.3l9.8-0.8l4.9-8.5C378.7,297.3,382.1,297.5,383.1,299.9z"/>
	</g>
	<g>
		<path fill="#FAAF40" d="M342.9,608.6l4.1,9.8l10.4,2.2c2.8,0.6,3.7,4.1,1.5,6l-8.1,7l1.2,10.6c0.3,2.8-2.8,4.8-5.2,3.3l-9.1-5.5
			l-9.7,4.4c-2.6,1.2-5.4-1.2-4.8-3.9l2.4-10.4l-7.2-7.9c-1.9-2.1-0.6-5.5,2.3-5.8l10.6-0.9l5.3-9.3
			C338.1,605.7,341.8,606,342.9,608.6z"/>
	</g>
	<g>
		<path fill="#FAAF40" d="M387.3,98l2.6,7.7l7.9,2.2c2.1,0.6,2.6,3.4,0.9,4.7l-6.5,4.9l0.3,8.2c0.1,2.2-2.4,3.5-4.2,2.3l-6.7-4.7
			l-7.7,2.8c-2.1,0.8-4.1-1.2-3.4-3.3l2.4-7.8l-5.1-6.4c-1.4-1.7-0.2-4.3,2-4.3l8.2-0.1l4.5-6.8C383.8,95.5,386.6,95.9,387.3,98z"/>
	</g>
</g>
</svg>
