<?xml version="1.0" encoding="utf-8"?>
<!-- Generator: Adobe Illustrator 17.1.0, SVG Export Plug-In . SVG Version: 6.00 Build 0)  -->
<!DOCTYPE svg PUBLIC "-//W3C//DTD SVG 1.1//EN" "http://www.w3.org/Graphics/SVG/1.1/DTD/svg11.dtd">
<svg version="1.1" id="Слой_1" xmlns="http://www.w3.org/2000/svg" xmlns:xlink="http://www.w3.org/1999/xlink" x="0px" y="0px"
	 viewBox="0 0 546.2 579.8" enable-background="new 0 0 546.2 579.8" xml:space="preserve">
<g>
	<path fill="#231F20" d="M163.9,541.3c-2.2-0.4-5.1,0.2-8.8,1.7c-5.3,2.1-10.3,3.8-15,5.1c-4.7,1.4-8.6,2-11.8,2.1
		c-3.5,0.1-7-0.6-10.5-1.9c-3.5-1.3-6.3-3.7-8.5-7.2c-2.2-3.5-3.5-8.2-3.9-14.1c-0.4-5.9,0.6-13.3,3.1-22.3
		c2.5-9,6.7-19.7,12.7-32.1c7.2-15,15.7-29.5,24.6-43.6c6.3-9.9,12-18.8,17-26.5c5.1-7.7,9.7-14.6,13.8-20.5
		c4.1-5.9,7.8-11,11.1-15.1c3.3-4.1,6.8-9.3,9.1-10.4c7.1-3.3,23.2-1.5,32.7-1.8c9.6-0.3,18.2-0.5,25.7-0.5c7.6,0,14.3,0,20.2,0.2
		c5.9,0.2,11.4,0.1,15.8,0.5c1.1,0.1,2,0,2.7-0.5c0.6-0.5,1.1-1.1,1.4-1.6c0.4-0.6,0.7-1.3,0.7-2.1c0-0.5,0-1.5-0.1-2.9
		c-0.1-1.4-0.7-2.8-1.9-4.3c-1.2-1.5-3.1-2.9-5.8-4.2c-2.7-1.3-6.6-2.2-11.7-2.7c-3.7-0.4-9.7-0.7-18.1-0.7
		c-8.4-0.1-18.2,0.2-29.5,0.8c-11.3,0.6-23.7,1.6-37.2,2.9c-13.9,1.3-27.8,3.1-41.7,5.2c-14.3,2.2-28.4,4.8-42.5,8
		c-13.4,3-26.7,6.6-39.7,11c-12.4,4.2-23.6,9.2-33.6,15c-10,5.8-18.2,12.6-23.9,20.4c-3.6,4.8-6.2,10.2-8,15.6
		c-1.5,4.6-2.4,9.9-2.4,15.8c0,5.9,2,11.9,6,17.6c2.2,3.1,5.5,6.5,9.8,10.1c4.3,3.6,10.3,6.4,18,8.4c4.3,1.1,8.4,1.7,12.2,1.9
		c3.8,0.2,7.2,0,10-0.4c3.3-0.4,6.5-0.9,9.4-1.7c5.6-1.6,10.9-3.9,15.7-7.2c4.8-3.2,9.4-7.2,13.5-11.9c3.9-4.4,6.5-8.5,7.9-12.4
		c1.4-3.9,2.1-7.3,2.3-10.1c0.2-3.4-0.3-6.5-1.4-9.3c-1.8-4.5-4.5-8.3-8.2-11.4c-3.7-3.1-7.4-5.8-11.1-7.8c-4.3-2.3-9.1-4.3-14-5.8
		c-2.7-0.8-5-1.1-6.9-0.9c-1.9,0.2-3.4,0.6-4.7,1.2c-1.4,0.6-2.6,1.5-3.4,2.6c-1.3,2-1.9,4-1.9,5.6c0,1.5,0.6,3,1.9,4.4
		c1.3,1.4,3.9,2.6,7.7,3.5c5.3,1.2,10.1,2.5,14.4,3.9c4.3,1.4,7.8,3,10.3,4.7c2.1,1.4,3.8,3.3,5.1,5.4c1.1,1.8,1.9,4,2.3,6.6
		c0.4,2.6-0.1,5.7-1.8,9c-1,2-2.2,3.7-3.3,5c-1,1.3-1.5,2.1-1.6,2.2c-1.5,3.8-9.5,8.5-14.7,11.5c-4.7,2.6-10.1,4.7-16.4,6.1
		c-6.3,1.4-13.2,1.1-20.8-1.1c-5-1.5-9.5-3.4-13.4-5.7c-3.9-2.3-7-5.4-9.3-9.4c-2.3-3.9-3.6-7.8-4.1-11.5c-0.5-3.8-0.6-7.3-0.2-10.4
		c0.4-3.5,1.3-7.2,2.7-10.5c2.5-6.1,7.1-11.7,13-16.4c17.3-13.8,39.4-19.6,60.4-24.7c7.6-1.9,16.5-3.7,26.1-5.4
		c8.1-1.5,18-2.9,29.5-4.6c11.4-1.7,37.6-5.2,37.9-4.5c0,0-11.8,11.7-18.6,19.4c-6.8,7.6-13.4,16.1-19.8,25.3
		c-3.2,4.7-6.2,9.1-8.8,13.3c-2.7,4.2-4.9,7.9-6.6,11c-2.2,3.7-4.2,7.2-5.8,10.2c0,0.1,0,0.1,0,0.2c-5.6,10.8-10.5,21.3-14.5,31.6
		c-4,10.3-7,20.3-9.2,29.5c-3.6,15.3-5.6,34,2.4,48.2c1.7,3,4,5.6,6.6,7.7c2.7,2.1,5.6,3.8,8.8,5c6.1,2.3,12,3.7,17.8,4
		c5.7,0.3,10.7,0.3,15.1-0.2c5.2-0.5,10.1-1.7,14.5-3.2c2.8-0.9,5.1-1.9,6.5-3.1c1.4-1.2,2.5-2.4,3.1-3.5c0.7-1.3,1.1-2.7,1-3.8
		c-0.2-1.9-1.1-3.8-2.4-5.1C167.8,542.4,166.1,541.7,163.9,541.3z"/>
	<path fill="#231F20" d="M214,451.6c1-1.2,2-2.6,3-4.2c1-1.6,1.9-3.3,2.5-5c0.6-1.7,1.1-3.4,1.3-5c0.2-1.6,0-3-0.4-4.2
		c-0.5-1.5-1.9-2.8-4.1-3.6c-2.3-0.8-5.2-0.7-8.7,0.2c-3,0.8-6.2,2.3-9.4,4.7c-3.2,2.4-6.4,5.1-9.5,8.2c-3.1,3.1-6.2,6.5-9.3,10.2
		c-3.1,3.7-8.4,10.9-8.5,10.9c0,0,7.7-12.4,11.1-18.1c0.7-1.1,1.5-2.7,2.5-4.5c1-1.8,1.8-3.6,2.2-5.4c0.4-1.8,0.4-3.4-0.1-4.9
		c-0.5-1.5-1.8-2.5-3.9-2.9c-2.2-0.4-4.4-0.3-6.3,0.5c-1.9,0.8-3.8,1.9-5.6,3.3c-1.8,1.4-3.3,3-4.7,4.7c-1.4,1.7-2.6,3.3-3.5,4.8
		c-4.4,6.9-8.2,14.1-11.5,21.3c-3.3,7.2-5.9,14.6-7.6,22.1c-1,4.2-1.5,8.7-1.6,13.4c-0.1,4.7,1.1,8.9,3.5,12.3
		c0.9,1.3,2.6,2.3,4.8,3c2.2,0.6,4.6,0.3,7-0.7c1.6-0.7,2.5-1.7,2.5-3c0.1-1.3-0.1-2.5-0.4-3.5c-0.4-1.3-0.4-2.4-0.5-3
		c-0.1-0.5-0.3-1-0.2-1.4c0.2-4.5,1.9-9.5,4.1-14.4c2.3-4.9,5-9.7,8.3-14.3c3.3-4.7,6.8-9.1,10.6-13.2c3.8-4.1,7.4-7.7,10.8-10.9
		c3.4-3.1,6.4-5.6,8.9-7.5c2.6-1.9,4.3-2.9,5.1-2.9c0.3,0,0.6,0,1,0.1c0.6,0.2,1,0.6,1,1.1c0,0.8-1.3,2.3-3.7,4.3
		c-2.5,2.1-5,4.3-7.4,6.8c-2.4,2.5-4.2,4.9-5.4,7.3c-1.2,2.4-0.4,4.3,1.8,5.8c1.7,1.2,3.8,1.4,6,0.3c2.3-1.1,4.4-2.6,6.5-4.4
		C208.9,457.6,211.4,454.9,214,451.6z"/>
	<path fill="#231F20" d="M251,430.7c0.8,0.2,1.7,0.2,2.7-0.1c1.8-0.5,4-1.9,6-4.4c1.3-1.5,2.5-3.4,3.6-5.1c1.1-1.8,3.4-4.3,6.8-7.5
		c2.6-2.5,3.9-4.6,3.9-6.3c0-1.7-0.5-3.1-1.5-4c-1.1-1.2-2.9-2.2-5.3-2.9c-2.2-0.7-4.4-0.5-6.4,0.6c-2,1.1-3.9,2.5-5.4,4
		c-1.8,1.8-3.5,4-5.1,6.5c-2,3.1-3.2,6.2-3.9,8.6c-0.6,2.2-0.7,4.4-0.2,6.5C246.6,428.7,248.3,430.1,251,430.7z"/>
	<path fill="#231F20" d="M445.9,445c-8.4,3.6-16,8.9-22.8,14.9c-12.1,10.7-21.7,21.8-37.5,26.8c-5.5,1.7-20.7,4-23.3-3.5
		c-0.7-2.1-0.9-4.3-0.6-6.6c0.2-1.6,0.4-3.1,0.8-4.5c0.4-1.3,0.7-2.6,1.1-3.7c0.4-1.2,1-2.4,1.4-3.4v-0.2c1.4-3.1,3.2-8.1,5.1-9.6
		c5.5-4.3,19.1-6.3,25.5-9.5c6.4-3.2,11.2-6.2,14.6-9.1c3.4-2.9,5.6-5.6,6.8-7.9c1.1-2.4,1.8-4.2,1.9-5.6c0.2-2-0.2-3.9-1.2-5.5
		c-1-1.6-2.2-2.9-3.4-4c-1.4-1.2-3.2-2.5-5.1-3.3c-2.2-0.9-4.4-1.4-6.5-1.6c-2.1-0.2-4-0.2-5.8,0.1c-1.9,0.2-3.8,0.7-5.6,1.3
		c-2.5,0.8-5.2,2-8,3.5c-2.2,1.2-4.8,2.9-7.7,5c-2.9,2.1-5.8,4.7-8.7,7.7c-2.7,2.8-5.4,6.1-8,9.8c-1.5,2.2-3.1,4.7-4.8,7.5
		c-1.6,1.4-3.5,2.8-5.5,4.1c-3.8,2.5-12.2,7.6-12.4,7.4c0,0,3.7-9.5,4.7-14.3c1-4.9,1.3-9.3,0.8-13.2c-0.5-3.9-1.9-7.1-4.1-9.6
		c-2.3-2.5-5.6-3.8-9.9-3.7c-3.4,0-6.8,0.8-10.3,2.2c-3.5,1.4-6.8,3.3-10.1,5.5c-3.3,2.2-6.4,4.7-9.4,7.4c-3,2.7-7.8,7.5-7.9,7.5
		c0,0,7.4-12.9,11.1-18.7c3.7-5.8,7.2-10.8,10.4-15.1c3.7-5,7.7-12.1,10.9-14c5-2.9,16.2-3.8,22.1-7c5.9-3.1,10.7-6.4,14.4-9.8
		c4.2-3.9,7.6-8.1,9.9-12.6c2.1-4.2,3.1-8,3.1-10.9c0-2.9-0.4-5.2-1.2-6.9c-0.9-2-2.4-3.5-4.1-4.4c-1.4-0.7-3-1.1-4.7-1.2
		c-1.7-0.1-3.3,0-4.7,0.2c-1.8,0.3-3.5,0.8-5.1,1.4c-3.1,1.2-6.8,3.3-10.6,6.2c-3.9,2.9-8,6.5-12.3,10.7c-4.3,4.2-8.8,9-13.3,14.4
		c-4.5,5.4-9.4,14.5-13.3,16.9c-1.4,0.8-5.4,0.8-8.5,1.3c-2.7,0.4-5.8,0.9-9.3,1.3c-3.5,0.4-7.3,0.8-11.5,1.2
		c-8.4,0.7-15.4,1.4-21.1,2.1c-5.7,0.7-10.5,1.4-14.1,2.1c-4.1,0.8-7.7,1.7-10.4,2.4c-5.2,1.5-10,3.7-14,5.7c-1.7,0.9-3.4,1.9-5,3
		c-1.5,1.1-2.8,2.4-3.9,3.7c-1,1.3-1.8,2.8-2.2,4.3c-0.4,1.5-0.3,3,0.4,4.6c0.7,1.7,1.7,3,3.1,3.7c1.3,0.7,2.9,1,4.8,1
		c1.9,0,4.5-1,7.7-2.8c2.4-1.4,5.1-3.3,8.1-5.7c3-2.4,6.4-4.8,10.3-7.3c3.9-2.5,8.3-4.8,13.3-6.8c5-2,10.9-3.4,17.6-4
		c3-0.2,6.3-0.5,9.8-0.8c3.5-0.3,6.7-0.7,9.5-0.9c3.3-0.3,10-1.2,10.1-0.9c0,0-3.8,6.3-6,10.2c-2.3,3.9-4.5,7.8-6.8,11.9
		c-2.3,4.1-4.4,8.1-6.4,12.1c-2,4-3.6,7.7-5,10.7c-2.1,4.8-4.3,9.8-6.1,14.7c-0.5,0.8-1.1,1.7-1.7,2.7c-2.4,3.9-5.2,8.4-8.5,13.4
		c-1.6,2.5-3.3,5.1-5.1,7.7c-1.8,2.6-3.8,5.3-5.8,8.2c-3.4,4.7-6.6,9.1-9.7,12.8c-2.7,3.2-5.4,6.1-8.1,8.8c-2.7,2.7-5,4.3-6.6,4.4
		c-2.2,0.1-3.5-1.7-3.4-4.6c0.2-3,1.4-7.1,3.6-12.3c2.3-5.2,5.4-11.5,9.4-18.7c4-7.2,8.9-15.1,14-23.5c1-1.6,1.9-3.4,2.7-5.2
		c0.8-1.9,1.2-3.6,1.3-5.3c0.1-1.6-0.2-3.2-0.8-4.6c-0.6-1.4-1.9-2.5-3.6-3.3c-1.8-0.8-3.7-0.6-5.7,0.6c-2,1.1-3.9,2.5-5.7,4.3
		c-1.9,1.9-3.9,4.2-5.8,7c-3.2,4.6-6.5,9.8-9.9,15.6c-3.4,5.8-6.4,11.6-8.9,17.4c-2.6,5.8-4.5,11.5-5.8,16.9
		c-1.3,5.4-1.5,10.2-0.5,14.1c0.5,1.8,1.1,3.5,1.9,4.9c0.8,1.3,1.9,2.5,3.3,3.6c1.4,1.1,3.3,1.9,5.7,2.1c1.3,0.1,2.8-0.1,4.6-0.5
		c1.3-0.3,2.9-0.8,4.7-1.6c1.8-0.8,3.8-2,5.9-3.6c3.1-2.3,6.2-4.8,8.8-7.6c2.7-2.8,4.9-5.4,6.9-7.8c2.2-2.7,4.3-5.4,6.3-8.1
		c1.9-2.7,3.7-5.3,5.4-7.9c1.7-2.6,3.3-5.1,4.7-7.6c0.1-0.2,0.2-0.3,0.3-0.5c-0.3,1.4-0.5,2.9-0.8,4.4c-1.1,7-1.2,14,0.2,20
		c0.5,2.2,1.3,4.3,2.2,5.9c0.7,1.4,1.8,2.6,2.9,3.7c1.1,1,2.9,1.3,4.3,0.4c0.6-0.3,1.4-1,1.9-1.7c0.5-0.5,0.9-1.4,1.3-2.3
		c0.4-0.9,0.4-2.2,0.1-3.6c-1.4-6.7-1.2-13.9,0.2-21.4c1.4-7.4,3.1-16.6,6.5-22.7c1.4-2.5,4.6-5.7,7.5-8.9c2.9-3.2,5.9-6.3,8.9-9.2
		c3.1-2.9,6.1-5.4,9.2-7.5c3.1-2.1,6.1-3.5,8.7-3.7c2.6-0.3,4.6,0.9,5.6,3.2c0.8,1.8,0.7,5.1-0.2,9.7c-1,4.6-3.7,12-8.7,20.3
		c-0.4,0.7-1.1,1.5-1.7,2.4c-0.5,0.7-1.1,1.7-1.9,2.9c-0.8,1.2-1.6,2.8-2.4,3.5c-4.4,3.8-13,6.8-18.2,10c-5.2,3.2-8.4,6.6-9.8,9.8
		c-0.7,1.7-1,3.2-0.5,4.3c0.5,1.1,1.1,2,1.9,2.8c1,0.9,2.3,1.7,3.6,2.1c3.6,1,8,0.5,12-0.9c3.9-1.4,7.7-3.3,11.2-5.8
		c3.5-2.5,6.8-5.3,9.9-8.5c3.1-3.2,5.8-6.2,8-9c0.8-1,1.7-2.2,2.7-3.5c1-1.3,1.9-2.6,2.7-3.7c1-1.4,1.9-3.3,2.9-4.2
		c4.3-3.7,12-6.3,16.1-9c0.5-0.3,1-0.6,1.4-0.9c-1.2,2.8-2.3,5.8-3.3,8.9c-2.2,7.3-3.2,13.3-2.8,17.9c0.4,4.6,1.7,8.2,4,10.7
		c1.6,1.8,3.9,3.2,6.8,4.2c2.4,0.9,5.7,1.5,9.8,1.8c32.3,2.5,52.3-23.6,77.6-38.3c4.3-2.5,9.8-4.4,14.8-5c3.9-0.5,8.3-0.1,12.2-0.2
		c3,0,17,5.3,16.2-2.3c-1.4-12.2-16-11.9-25.2-10.3C454.6,441.8,450.1,443.2,445.9,445z M376.2,445.8c0.9-1.1,1.7-2.3,2.5-3.3
		c3.8-5,8.2-9.3,12-12.8c3.8-3.5,7.5-5.8,10.5-7.3c1.1-0.5,2.3-1,3.4-1.2c1-0.2,2-0.2,3,0c1,0.2,2.4,0.8,2.8,1.4
		c0.8,1.6-0.9,5.2-3.7,7.9c-2.8,2.7-6.2,5.3-10.3,7.7c-4,2.4-8.2,4.6-12.4,6.6c-4.3,2-10.2,4.5-10.3,4.4
		C373.7,449.3,375.4,446.9,376.2,445.8z M344,360.7c4.2-4.6,7.6-7.8,10.4-9.6c2.7-1.8,4.8-2.8,6-2.7c1.3,0,2.3,0.2,2.7,0.4
		c0.9,0.7,1.3,2.4,1,4c-0.3,1.5-1.1,3.5-2.4,5.9c-1.3,2.4-3.6,5.7-7,9.1c-1.8,1.8-4.2,3.6-6.8,5.2c-2.2,1.4-5,2.9-8.3,4.4
		c-3.3,1.5-11.1,3.7-11.2,3.5C328.3,380.9,339.8,365.3,344,360.7z M290.1,489.1c-2.6,2.6-4.6,3.7-5.8,3.1c-1.7-0.8-1.1-2.5,2.1-4.8
		c3.1-2.3,11.6-7.6,11.7-7.5C298.1,479.9,292.7,486.5,290.1,489.1z"/>
</g>
<path fill="#231F20" d="M302.5,199.1c-0.5,3.1-1,5.9-1.3,8.4c-0.3,2.5-0.8,5.2-1.3,8.2c-7.1-0.5-14-1-20.7-1.4
	c-6.7-0.5-13.5-1-20.3-1.4V99.4c9.2-0.8,18.2-1.6,27-2.3c8.8-0.7,17.7-1.5,26.6-2.3v20.6c-4.6-0.5-9.1-0.9-13.5-1.4
	c-4.4-0.4-9.2-0.9-14.3-1.4c-0.5,8.2-1.1,16.2-1.6,24c-0.5,7.8-1.1,15.9-1.8,24.2h18.9V181c-3.4-0.2-6.8-0.5-10.2-0.8
	c-3.4-0.3-6.9-0.6-10.8-0.8v20.9c3.7-0.2,7.3-0.5,11-0.6C294,199.5,298.1,199.3,302.5,199.1z"/>
<path fill="#231F20" d="M215.2,296.9l-11.5,2.2h-0.3l-5.3-17.2l-1,0.1l-1.7,35.5h-10.8l-0.5-72.7l14.6,0.8l11.2,40.9l10.6-47.2
	l13.4-1.5l-0.6,75.9l-11.6-0.1l-0.4-32.4l-1-0.1l-5,15.7H215.2z"/>
<path fill="#231F20" d="M263.8,255c0.2-3.3,0.5-6.5,0.8-9.7c0.3-3.2,0.6-5.8,0.8-7.6c2.8,0.4,5.5,0.7,8.2,0.9
	c2.6,0.2,5.4,0.5,8.4,0.9c-0.5,1.6-1.1,3.5-1.7,5.5c-0.6,2.1-1.3,4.2-1.9,6.5c-0.7,2.3-1.3,4.5-2,6.9c-0.7,2.3-1.3,4.6-1.9,6.8
	c-1.4,5.1-2.9,10.4-4.4,15.7l-2.6,38.5h-11.1l-1.2-35.1l-12.9-42.8l13.5-2.9c0.8,4.3,1.6,8.3,2.3,12c0.3,1.6,0.6,3.3,0.9,4.9
	c0.3,1.6,0.6,3.2,0.9,4.6c0.3,1.4,0.6,2.8,0.8,4c0.2,1.2,0.4,2.2,0.6,2.9h1.5C263.2,262.7,263.5,258.8,263.8,255z"/>
<path fill="#36C5F3" d="M167.9,254.6c-0.1-0.3-0.3-0.6-0.5-0.9c-1.4-1.8-2.7-3.6-4-5.6c-0.7-1-2.7-5.1-3.8-6
	c2.4,1.5,4.9,2.8,7.4,3.7c-2.5-4.6-4.3-9.6-6.5-14.4c-1.4-3.1-3.5-7.2-5.9-9.6c-1.1-6.9-1.2-11.2-1.4-18.6c0-1.5-0.1-3.2-0.1-5
	c11.3-9.9,18.4-24.3,18.4-40.4c0-29.6-24.1-53.8-53.8-53.8C88.2,104,64,128.2,64,157.8c0,15.3,6.4,29,16.6,38.8c0,1,0.1,2,0.1,2.9
	c0.5,9.8,0.5,10.5-2.8,21.9c-4.8,2.7-8.3,8.6-11.3,14.1c-0.9,1.6-8.9,19.3-8.2,19.5c2.9,1,5.2-0.2,8.9,0.7c-2,1.3-3.9,2.5-5.9,3.8
	c-1.6,1-3.8,2.8-5,4.4c0,0-1.7,13.3-1.8,18.2c-0.1,3.9,0.5,9.3,0.6,13.2c2.1-1.7,4.4-3.1,6.5-4.7c2-1.5,5.4-4.5,5.8-7.4
	c0.5-3.8,0.1-7.9-0.5-11.5c0.2,1.5,1.8,3.4,2.5,4.8c0.1,0.3,1.8,4.2,1.6,4.4c1.5-1.9,3.3-3.9,4.6-6.1c2.7-4.8,5.3-9.7,7.6-14.8
	c0.1-0.2,0.2-0.5,0.3-0.8c0.1-0.3,0-0.7,0-1c-0.4-2.3-0.7-4.5-1-6.9c-0.1-1.2-0.1-5.9-0.6-7.2c1.5,2.5,3.1,4.8,5,6.8
	c-0.1-5.3,0.6-10.7,0.8-16.1c0.1-3.7,0.2-8.9-1.2-12.2c2.7-9.5,3.2-12.2,3-18.9c7.2,4.5,15.6,7.2,24.5,7.8
	c0.9,8.3,1.1,11.5-0.1,26.1c-0.6,0.3-1.1,0.7-1.7,1c-6.8,4.5-10.2,13.9-12.9,22.4c-0.7,2.3-6.5,27.3-5.4,27.4
	c4.2,0.5,7-1.7,12.4-1.6c-2.3,2.2-4.7,4.4-7,6.5c-1.9,1.7-4.4,4.6-5.5,7.1c0,0,1.6,17.6,2.9,24c1,5,3.4,11.8,4.8,16.7
	c2.4-2.7,5-5.3,7.6-7.9c2.3-2.5,6.1-7.3,5.7-11.2c-0.5-5-2.2-10.2-4.1-14.6c0.8,1.9,3.6,3.9,4.8,5.5c0.3,0.3,3.7,4.8,3.5,5.2
	c1.5-2.9,3.4-6,4.5-9.2c2.3-6.9,4.3-14,6-21.2c0.1-0.3,0.2-0.7,0.1-1.1c0-0.5-0.2-0.9-0.4-1.3c-1.2-2.8-2.4-5.6-3.4-8.6
	c-0.5-1.6-1.8-7.6-3-9.1c2.8,2.8,5.7,5.3,8.9,7.4c-1.8-6.8-2.3-14-3.6-20.9c-0.9-5.1-2.5-12.1-5.6-15.9c1.3-14.8,1-18.8,0.2-26.9
	c7.8-0.7,15.2-3.2,21.7-7c0.2,7.3,0.3,12,1.6,19.6c-3.2,4.5-3.6,11.4-3.8,17.6c0,1.8,0.9,20.8,1.7,20.7c2.9-0.4,4.4-2.5,8.1-3.4
	c-1.2,2-2.3,4-3.5,6c-0.9,1.6-2,4.1-2.3,6.1c0,0,4.5,12.3,6.6,16.7c1.7,3.4,4.6,7.9,6.5,11.2c1.1-2.4,2.4-4.7,3.6-7.1
	c1.1-2.2,2.7-6.4,1.7-9.1c-1.3-3.5-3.5-6.9-5.6-9.8c0.9,1.2,3.2,2.2,4.3,3.1c0.2,0.2,3.4,2.8,3.4,3.1c0.5-2.4,1.1-4.9,1.3-7.4
	c0.3-5.4,0.2-10.9,0-16.3C168,255.1,168,254.9,167.9,254.6z M78.5,157.8c0-4.4,0.7-8.7,2.1-12.6c1.4,4.7,3,8.8,4.8,12.1
	c-1.9,3.5-3.5,7.7-5,12.6C79.2,166.1,78.5,162,78.5,157.8z M117.8,119.2c4.2,4,7.2,7.5,9.5,10.5c-3.9,0.6-7.1,2-9.5,4.1
	c-2.4-2.1-5.5-3.5-9.4-4.2C110.6,126.7,113.6,123.2,117.8,119.2z M105,135.1c4.8,0.3,7.6,1.8,9.3,3.4c-1.5,3.2-1.9,6.7-1.7,9.9
	c-2.7-1.7-5.9-3.2-9.3-3.5C102.6,142.7,102.8,139.5,105,135.1z M132.3,144.9c-3.5,0.3-6.7,1.7-9.4,3.5c0.2-3.2-0.2-6.7-1.7-9.8
	c1.7-1.7,4.5-3.1,9.4-3.4C132.7,139.5,132.9,142.6,132.3,144.9z M99.7,151c2,2.9,4.9,5,7.7,6.4c-2.8,1.5-5.7,3.5-7.7,6.4
	c-2.3-0.6-4.9-2.4-7.6-6.4C94.8,153.3,97.4,151.6,99.7,151z M103.2,169.8c3.5-0.3,6.7-1.7,9.4-3.5c-0.2,3.2,0.2,6.7,1.7,9.8
	c-1.7,1.7-4.5,3.1-9.4,3.4C102.8,175.2,102.6,172,103.2,169.8z M123,166.3c2.7,1.7,5.9,3.2,9.3,3.4c0.7,2.8,0.1,6.1-1.8,9.8
	c-4.8-0.3-7.6-1.8-9.3-3.4C122.8,173,123.1,169.5,123,166.3z M138.1,169.1c3-1,5.8-3,8.3-6.1c1.5,3.5,3,7.9,4.4,13.5
	c-5.5,1.6-10.1,2.5-13.9,2.9C138.3,175.7,138.7,172.2,138.1,169.1z M135.8,163.7c-2-2.9-4.9-5-7.7-6.4c2.8-1.5,5.7-3.5,7.7-6.4
	c2.3,0.6,4.9,2.4,7.6,6.4C140.7,161.4,138.1,163.1,135.8,163.7z M138.1,145.6c0.7-3.1,0.3-6.5-1.1-10.2c3.8,0.4,8.3,1.3,13.8,2.9
	c-1.4,5.6-2.9,10-4.4,13.5C143.9,148.7,141.1,146.6,138.1,145.6z M97.4,145.6c-3,1-5.8,3-8.3,6.1c-1.5-3.5-3-7.9-4.4-13.5
	c5.5-1.6,10.1-2.5,13.9-2.9C97.2,139,96.8,142.5,97.4,145.6z M89.1,162.9c2.5,3.1,5.3,5.2,8.3,6.2c-0.7,3.1-0.3,6.5,1.1,10.2
	c-3.8-0.4-8.3-1.3-13.8-2.9C86,170.8,87.5,166.4,89.1,162.9z M117.8,180.8c2.4,2.1,5.5,3.5,9.4,4.2c-2.4,3.3-5.5,6.8-9.5,10.5
	c-4.2-4-7.2-7.5-9.4-10.5C112.2,184.3,115.3,183,117.8,180.8z M133.9,185.4c4-0.1,8.6-0.8,13.8-2.1c-5.7,6.7-13.6,11.4-22.6,13.1
	C128.7,192.5,131.7,188.9,133.9,185.4z M155.1,170.2c-1.5-5-3.1-9.3-5-12.8c1.8-3.4,3.5-7.5,4.9-12.3c1.4,4,2.1,8.2,2.1,12.7
	C157.1,162.1,156.4,166.3,155.1,170.2z M146.7,131.3c-4.7-1.1-9-1.7-12.7-1.9c-1.9-3.1-4.5-6.5-7.8-9.9
	C134.2,121.2,141.3,125.4,146.7,131.3z M109.4,119.5c-3.2,3.5-5.8,6.7-7.8,9.9c-3.7,0.1-7.9,0.7-12.6,1.8
	C94.4,125.4,101.4,121.2,109.4,119.5z M87.9,183.2c5.1,1.2,9.6,1.9,13.6,2.1c2.2,3.5,5.1,7.2,8.8,11.1
	C101.4,194.6,93.6,189.9,87.9,183.2z"/>
<path fill="#EE4648" d="M49.9,309.5c-2.3-2.3-6.6-2.8-9.3-0.8c-4.1,3-5.2,9.5-5.3,14.2c-3.3-5.4-12.6-12.3-19.1-9
	c-7.8,3.9-7.4,12.4-3.4,18.9c1.5,2.5,3.5,4.7,5.5,6.9c7.7,8.3,18.4,13.8,28.4,18.9c0.2,0.1,0.4,0.2,0.6,0.1c0.1-0.1,0.1-0.2,0.2-0.3
	c1.1-4.7,2.5-9.3,3.7-14c1.3-5.1,1.5-10.9,2.1-16.1C53.9,323.2,54.2,313.8,49.9,309.5z"/>
<path fill="#EE4648" d="M318.3,320.8c0-0.1-0.1-0.1-0.1-0.2c-1.4-2.5-4.1-4-7-4c-2.9,0-5.5,1.5-7,4c0,0.1-0.1,0.1-0.1,0.2
	c-1.5,2.5-1.5,5.8,0,8.3c1.5,2.5,4.2,4.1,7.1,4.1c2.9,0,5.6-1.6,7.1-4.1C319.7,326.5,319.7,323.3,318.3,320.8z"/>
<path fill="#EE4648" d="M323.9,297.2c-8.8,0-8.8,13.6,0,13.6C332.7,310.8,332.7,297.2,323.9,297.2z"/>
<path fill="#EE4648" d="M335.8,278.3c-3.1,0-5.6,2.6-5.6,5.6c0,3.1,2.6,5.6,5.6,5.6s5.6-2.6,5.6-5.6
	C341.4,280.9,338.9,278.3,335.8,278.3z"/>
<path fill="#EE4648" d="M467,392c-5.4,0-9.9,4.5-9.9,9.9c0,5.4,4.5,9.9,9.9,9.9c5.4,0,9.9-4.5,9.9-9.9
	C476.9,396.5,472.4,392,467,392z"/>
<path fill="#EE4648" d="M451.9,366.8c-10.6,0-10.6,16.5,0,16.5C462.6,383.3,462.6,366.8,451.9,366.8z"/>
<path fill="#EE4648" d="M438.7,344.5c-9.4,0-9.4,14.5,0,14.5C448.1,359.1,448.1,344.5,438.7,344.5z"/>
<path fill="#36C5F3" d="M524.4,395.8c-0.8-1.3-1.6-2.6-2.3-3.8c-3.7-6.1-18.3-34.7-21.8-40.9c-3.4-6.1-6.6-12.4-9.6-18.7
	c-5.8-12.2-38-75.9-43.9-88.1C435.2,220.2,423.6,196,412,172c-1.4-2.9-2.8-5.7-4.2-8.6c-8.1-16.9-16.3-33.7-24.7-50.4
	c-3.2-6.5-5.8-13.2-4.3-20.5c1.5-7.2,5.5-13.6,8.4-20.3c5-11.7,5.1-13.1,9.9-24.9c1-2.4-0.4-4.6-3-4.9c-3.8-0.4-4.6,3.9-5.9,6.5
	c-4.3,8.7-8.7,17.4-12.8,26.2c0.8-13.1-0.1-19.8,0.3-30.6c0.4-9.3,0.1-18.7-0.5-28c-0.2-3.3-0.4-6.5-0.8-9.8c-0.3-2-0.1-5.6-2.4-6.4
	c-1.9-0.7-4,0.7-4.7,2.5c-0.3,0.8-0.4,1.7-0.5,2.6c-1.2,16.3-0.5,32.9-0.7,49.2c0,5.3,0,10.6,0.2,15.8c0.1,2.2,0.1,4.5,0.1,6.8
	c0,0.3-0.4,0.4-0.6,0.1c-0.9-1.8-2.4-4-3-5.2c-1.3-2.6-2.6-5.1-4-7.6c-3.1-5.9-1.5-1.9-4.2-7c-0.7-1.3-1.9-3.3-2.6-4.5
	c-1.6-2.5-3.1-5.1-4.7-7.6c-2.8-4.6-8.3-1.7-6.5,3.3c1.9,5.2,4.2,10.3,6.9,15.2c4.7,8.6,3.9,6.4,8.5,15.1c3.8,7.2,5.5,13.3,5.6,21.4
	c0,6.7-3,12.3-5.5,18.4c-7,17-13.8,34.1-20.9,51c-9.2,22-18.2,44-27.1,66.1c-4.9,12.2-9.9,24.2-14.9,36.4
	c-2.4,5.9-4.8,11.9-7.1,17.8c-1.6,4.2-6.6,11.5-6,16c0.3,2,2.1,3.9,4.1,3.5c4.1-0.8,5.4-6.1,6.9-9.3c8.4-18.4,15.2-37.6,22.9-56.4
	c4.6-11.1,13.2-12.3,24.1-12c10,0.3,20,0.4,30.1,0.5c9,0.1,18,0.3,27.1,0.4c18.7,0.2,25.2,18.7,33.2,31.7c1.4,2.3,5.4,0.8,4.4-1.9
	c-3-8.7-5.2-18-6.8-27.1c4.5,2.7,7.7,6.9,10,11.8c5.7,12.3,11.5,24.6,17.2,36.8c3,6.4,9.7,15.1,9.8,22.3c0,3.9-1.4,14.1-6.2,15.2
	c-4.6,1-13.1-12.1-15.7-15.2c-3.2-3.9-6.2-11.3-12.3-8.5c-7.4,3.5-10.7,14.7-14.6,21.2c-2,3.2-3.2,6.9-7.5,5.9
	c-4.4-1.1-12.4-8.6-14.3-12.7c-5-10.4-9.8-21-14.1-31.7c-0.4-0.9-0.7-1.8-1-2.8c2.9,3.3,6.3,6.3,10.1,6.4c1.3,0,2.5-1.1,2.4-2.4
	c-0.4-5.1-5.5-8.9-8.9-12.4c-1.9-2-3.7-4.1-5.5-6.2c-2.5-2.9-4.6-9.1-8.2-5.9c-1.4,1.3-2.4,3.9-4.1,5.4c-1.5,1.4-3.1,2.6-4.6,3.9
	c-3.3,2.9-7,5.3-10.5,7.8c-1.6,1.1-1.3,4.5,1.1,4.2c3.7-0.5,7.6-1.8,11.2-3.8c-0.9,2.4-1.8,4.8-2.8,7.1c-3.3,7.5-7.1,14.9-11.2,22
	c-8.2,14.3-17.7,27.7-27.4,41c-0.9,1.2,0.3,2.8,1.7,2.3c0.9-0.3,1.7-0.7,2.6-1.1c5.5-3.1,10.5-7.1,15.8-10.4
	c9.1-5.7,24.2-9.7,34.4-3.8c9.5,5.5,8.2,22.6,4.4,31c-4.6,10.4-14.1,18-24.4,22.7c-2.8,1.3-6.1,3.1-6,6.1c0,1.1,0.5,2,1,2.9
	c3.1,5.2,11,13,17.3,13.4c3.2,0.2,6.2-1.1,9.2-2.2c2.3-0.9,4.7-1.6,7.1-2.3c7.3-2,18.3-5.1,25.5-2.1c6.1,2.5,12.3,5.1,18.4,7.6
	c3.4,1.4,6.9,2.9,10.6,3.4c10.8,1.6,9.4-5.4,4.5-13.8c-7.8-13.5-16.8-25.6-24.3-39.5c-2.9-5.4-5.9-10.9-8.8-16.5
	c2.4,0.7,5-0.5,6.5-2.6c3.5-5,6.9-10.1,10.1-15.3c4.1-6.8,7.2-13.7,14-5.4c3.4,4.1,20.9,29.1,25.8,16.9c2.2-5.4,4.3-10.8,5.7-16.4
	c0.5,0.9,0.9,1.9,1.3,2.8c4.1,8.4,8.2,16.7,12.6,25c4.1,7.8,20.6,37.3,24.5,45.2c2.8,5.6,5.7,11,8.7,16.5c2.3,4.1,5.8,9.2,10.1,11.4
	c2.2,1.1,4.4-0.3,4.6-2.7C532.7,410.4,528.4,402.5,524.4,395.8z M371.1,109.2c3.9,8.1,7.7,16.2,11.6,24.4c-2.6-0.4-5.3-0.2-8.2-0.2
	c-4.6,0.1-9.5-0.1-14.3,0.4C363.8,125.6,367.4,117.4,371.1,109.2z M354.3,147c0.5-1.4,1.2-2.3,2-3c1.3-1,3-1.3,5.3-1.4
	c7.3-0.1,14.5-0.1,21.8-0.2c3,0,7.3,3.1,6.7,6.7c-0.3,2.1-11.9,1.5-13.7,1.5c-6.3,0.1-12.7-0.1-18.9,0.2
	C354.5,150.9,353.3,149.8,354.3,147z M341.4,220.8c-0.1,0-0.1,0-0.2,0.1c-3.4,1.1-6.9-1.8-6.9-5.3c0-3.5,3.5-6.4,6.9-5.3
	c0.1,0,0.1,0,0.2,0.1c2.3,0.7,4,2.8,4,5.2C345.4,218.1,343.7,220.1,341.4,220.8z M362.5,221.2c-0.1,0-0.1,0-0.2,0.1
	c-3.7,1.2-7.5-2-7.5-5.7s3.8-6.8,7.5-5.7c0.1,0,0.1,0,0.2,0.1c2.5,0.8,4.3,3,4.3,5.6S365,220.5,362.5,221.2z M384.3,220.6
	c-0.1,0-0.1,0-0.2,0.1c-3.3,1-6.6-1.7-6.6-5s3.4-6.1,6.6-5c0.1,0,0.1,0,0.2,0.1c2.2,0.7,3.8,2.6,3.8,5S386.5,219.9,384.3,220.6z
	 M385.7,182.1c-0.8,0.5-1.3,1.2-1.8,2c-2.8,4.2-5.7,12-10.6,14.2c-4.6,2-12.1-11.1-14.8-14.4c-0.8-1-1.8-2.1-3.1-2.2
	c-1.4-0.1-2.6,0.9-3.5,1.9c-4.2,4.1-8.4,8.2-12.6,12.4c-1.3,1.3-3.1,2.6-4.8,1.6c0.4-7.4,5.4-16.1,8.2-22.8
	c2.7-6.5,3.7-8.8,11.4-9.2c5.9-0.3,11.7,0.2,17.7-0.2c6.8-0.4,13.5-0.8,20.3-0.6c5.3,0.2,7.1,7.4,8.9,11.4c2,4.4,4,8.8,5.8,13.3
	c0.8,1.9,5.8,12,1.3,11.5c-1.2-0.1-2.1-0.9-3-1.7C401.7,196.1,390.3,179.1,385.7,182.1z M405.7,221.3c-0.1,0-0.1,0-0.2,0.1
	c-3.7,1.2-7.5-2-7.5-5.7c0-3.8,3.8-6.9,7.5-5.7c0.1,0,0.1,0,0.2,0.1c2.5,0.8,4.3,3,4.3,5.7S408.3,220.5,405.7,221.3z"/>
<g>
	<path fill="#231F20" d="M24.5,213.6V92.4c-1.4,0.1-2.7,0.2-4,0.3c-3.8,0.2-6.5,1.1-8.1,2.4c-1.6,1.4-2.4,3.5-2.4,6.3
		c0.5,18.8,1,37.4,1.4,55.9c0.4,18.5,0.9,37,1.4,55.7c0,1.2,0.1,2.5,0.4,3.7c0.3,1.2,0.6,2.8,0.9,4.6h47.1c0.9-1.7,1.7-3.7,2.6-5.9
		c0.2-0.4,0.3-1.1,0.5-1.8H24.5z"/>
	<path fill="#231F20" d="M28.6,209.5h36.5c0.5-2.9,1-6.1,1.7-7.7H38.5c0.9-19.9,2.1-33.8,3.1-53c1-19.2,2-38.6,2.9-58.1
		c-4.9,0.4-9.3,0.7-13.1,1.1c-1,0.1-1.9,0.2-2.9,0.3V209.5z"/>
</g>
<path fill="#231F20" d="M240.7,86.5c-3.9,0.3-8.1,0.6-12.6,0.8c-1,6.8-2.1,14.4-3.2,22.8c-1.1,8.4-2.2,16.9-3.2,25.5
	c-1,8.6-2.1,17.1-3.1,25.3c-1,8.2-2.1,15.7-3.1,22.4c-0.6,0-1.2,0-1.6,0.1c-0.5,0.1-0.9,0.1-1.4,0.1c-1-6.7-2-14.2-3-22.5
	c-1-8.3-1.9-16.8-2.9-25.4c-1-8.7-2-17.2-3-25.5c-1-8.4-2.1-16-3.1-22.9c-5.1,0.9-9.9,1.8-14.3,2.5c-4.4,0.7-8.8,1.5-13.3,2.3
	c4.5,21.8,9,43.1,13.4,64.1c4.4,20.9,8.9,42.2,13.4,63.7c4.1-0.5,8.1-0.9,12.1-1.1c3.9-0.3,8.1-0.7,12.4-1.1
	c4.9-22.4,9.7-44.3,14.6-65.9c4.8-21.6,9.7-43.5,14.6-65.7C248.8,85.9,244.6,86.2,240.7,86.5z M189.8,98.5c8.3,0,8.3,12.8,0,12.8
	C181.5,111.3,181.5,98.5,189.8,98.5z M188.4,127.5c0-2.6,2.2-4.8,4.8-4.8c2.6,0,4.8,2.2,4.8,4.8c0,2.6-2.2,4.8-4.8,4.8
	C190.6,132.3,188.4,130.1,188.4,127.5z M197.4,153.9c-5.5,0-5.5-8.5,0-8.5C202.9,145.3,202.9,153.9,197.4,153.9z"/>
<path fill="#36C5F3" d="M509.9,491.2c0.2-0.6,0.3-1.2,0.1-1.7c-1.1-2.4-8.6-1.7-10.8-1.9c-5.6-0.7-11.3-1.2-16.8-2.3
	c-3.7-0.7-7.4-1.3-11-2c-1.9-0.4-3.9-0.6-5.8-0.9c-1.7-0.3-3.5-1.3-5.1-1.5c-5.1-0.7-2.4,7.5-1.6,9.9c0.7,2.2,2.9,4.7,2,6.8
	c-0.3,0.9-7.5,1.9-8.4,2.1c-13.3,3.4-26.7,6.8-40,10.2c-2.1-2.1-5.3-3.2-8.4-2.4c-3.2,0.8-5.6,3.2-6.5,6.2c-0.8,0.2-1.6,0.4-2.3,0.6
	c0,0-0.1,0-0.1,0c-6,1.5-12,3.1-18,4.6c-2.6-3.9-7.5-5.9-12.3-4.8c-4.9,1.2-8.3,5.4-8.8,10.1c-7.8,2-15.5,4-23.3,6
	c-2.1-2.8-5.7-4.3-9.3-3.4c-3.7,0.9-6.3,3.9-6.7,7.5c-14.8,3.8-29.6,7.6-44.4,11.4c-1.4-1-2.9-2-4.1-3.2c-2.1-2-4.6-3.4-6.7-5.4
	c-2.1-2-4.2-4.3-7.1-4.9c-2-0.4-5.2,0.2-4.9,2.9c0.2,2.1,2.6,4.2,3.7,5.8c1.5,2,2.9,4.1,4.6,5.9c1.4,1.6,3,2.8-0.2,2.9
	c-2.4,0-4.2-1.6-5.9-3.1c-1.8-1.6-2.6-3.4-4.9-4.3c-2-0.8-4-1.6-5.5,0.5c-1.5,2.2,0.8,4.6,2,6.2c1.2,1.7,2,4-0.7,4.6
	c-2,0.5-4.2-2.3-5.7-3.4c-1.7-1.2-3.9-3.2-6.2-3.1c-2.1,0.1-5.8,2.6-5.6,5.1c0.2,2.2,4.4,3.7,5.9,4.8c2.4,1.5,2.5,2.3,1.9,5.2
	c-0.6,2.9-3.7,4.8-3.9,7.8c-0.1,2.4,1.4,6.6,4.4,5.6c1.7-0.6,2.8-3.5,3.8-5c1.9-2.8,3.9-5.6,6.4-8c1.8-1.7,4.2-2.3,2.5,1
	c-1.2,2.3-3.5,4-4.3,6.5c-0.4,1.2-0.5,2.4,0.2,3.6c2.4,4,5.2,0.7,6.6-1.8c1-1.7,2.4-3.2,3.7-4.7c1.9-2.2,3.6-4.5,5.4-6.8
	c0.7-0.9,3.6-4,4.1-1.2c0.2,1.3-2,3.2-2.8,4.2c-1.3,1.6-2.6,3.2-3.9,4.8c-0.8,0.9-1.5,1.8-2.1,2.9c-1.1,1.9-2.6,5.5-1.4,7.6
	c1.6,2.7,3.9-0.4,5.2-1.7c1.5-1.5,3.1-2.9,4.5-4.5c1.7-1.7,3.3-3.7,4.9-5.3c1.7-1.6,3.3-3.1,4.9-4.8c2-2,3.9-4.4,5.9-6.5
	c2.2-2.2,4.4-2.9,7.5-3.6c3.2-0.7,6.4-1.8,9.5-2.8c5.6-1.7,11.1-3.4,16.7-5.2c2.8-0.9,5.7-1.7,8.5-2.5c2.1,2,5.2,2.9,8.2,2.2
	c3.2-0.8,5.5-3.1,6.4-6c4.4-1.1,8.9-2.1,13.3-3.1c3.6-0.8,7-2.1,10.6-3.1c0,0,0,0,0,0c2.6,3.9,7.5,5.9,12.3,4.8
	c4.7-1.1,8.1-5,8.7-9.6c2-0.5,3.9-1,5.9-1.5c4.8-1.2,9.6-2.5,14.4-3.7c2.1,2.5,5.5,3.7,8.9,2.9c3.5-0.8,5.9-3.6,6.6-6.8
	c0.1,0,0.3-0.1,0.4-0.1c15.6-4,31.2-8,46.8-12c0,0,0,0,0.1,0c0.1,0.2,0.3,0.4,0.4,0.7c0.5,1.1,0.8,2.3,1.2,3.4
	c0.9,2.6,1.8,5.2,2.7,7.8c0.3,0.8,0.7,1.6,1.5,2c3.4,1.6,9.5-2.3,12.2-4c3.8-2.5,7.2-5.5,10.9-8.1c3.6-2.5,7-5.2,10.5-8
	c1.2-1,2.5-2.1,3.6-3.3C506.1,495.3,509.1,493.1,509.9,491.2z"/>
<g>
	<path fill="#F8CE19" d="M499.3,150c-8.5-14.3-23.4-22.9-39.8-24.5c-10.8-1-22.2,2-31.2,8c-10.7,7.1-10,19.8,4.8,12.8
		c8.6-4.1,18.5-6.7,28.1-6.1c19.9,1.3,32.7,24,29.9,42.3c-2.8,18.3-20.4,28.5-37.9,27.9c-6.3-0.2-5.8,8.7,0,9.5
		c17.3,2.3,36.4-6,47-19.9C511.1,185.5,508.2,164.8,499.3,150z"/>
	<path fill="#F8CE19" d="M422.8,118c-1.7-5.4-4.4-10.3-7-15.3c-2.5-4.7-4.1-12.3-9.2-14.6c-1.9-0.9-3.6-0.1-4.4,1.8
		c-2.1,5.1,2.1,11.4,4.4,16c2.8,5.8,6,11.1,10.8,15.4C419.6,123.2,423.8,121.3,422.8,118z"/>
	<path fill="#F8CE19" d="M451.3,68.7c-0.2-0.1-0.3-0.2-0.5-0.3c-6.8-1.9-4.6,20.8-4.4,24.3c0.2,3.8,0.1,18.3,6.1,18.8
		C460.5,112.2,456.2,72.7,451.3,68.7z"/>
	<path fill="#F8CE19" d="M504.9,83.6c-6,2.4-8.9,9-12.3,14.2c-2,3.2-13,17.9-9.8,21.4c6.8,7.3,25.8-28.1,25.8-32.7
		C508.7,84.7,506.8,82.9,504.9,83.6z"/>
	<path fill="#F8CE19" d="M537.2,128.8c-2.9-2.1-7.2,0.8-9.8,2.1c-3,1.5-17.6,7.3-14.8,12.2c0.9,1.5,3,1.5,4.7,1.1
		c5-1,9.7-3,14.1-5.4c3-1.7,10.4-5.9,6.1-9.7C537.4,128.9,537.3,128.8,537.2,128.8z"/>
	<path fill="#F8CE19" d="M544.6,186.9c-0.1,0-0.1-0.1-0.2-0.1c-4.1-3.3-15.1-4.3-21-3.9c-6.1,0.4-8.7,3.4-1.8,6.2
		c4.6,1.9,10.5,2.3,15.6,3.4c1.6,0.3,3.3,0.7,5,0.4c2.3-0.3,4.1-1.9,3.9-3.6C546,188.4,545.4,187.6,544.6,186.9z"/>
	<path fill="#F8CE19" d="M522.1,222.7c-4.8-4.1-13.1-10.9-15.5-10c-3.3,1.2-0.9,5.9,0.5,7.6c3.9,4.8,8.3,9.3,13,13.4
		c2.2,1.9,5,3.8,7.8,3c0.6-0.2,1.1-0.5,1.5-0.9c0.3-0.3,0.4-0.7,0.5-1.2c0.9-3.5-2-6.7-4.7-9.1C524.7,225,523.6,223.9,522.1,222.7z"
		/>
	<path fill="#F8CE19" d="M488.7,256.4c-0.4-0.8-0.8-1.5-1.2-2.1c-2-4-7.8-18.7-14-17.4c-4.5,1,6.8,24.3,8.4,27.8
		c1.8,3.7,7.1,8.6,9.7,2.7C493.1,264.1,490.6,259.7,488.7,256.4z"/>
</g>
</svg>
