<?xml version="1.0" encoding="UTF-8" standalone="no"?>
<svg
   xmlns:dc="http://purl.org/dc/elements/1.1/"
   xmlns:cc="http://creativecommons.org/ns#"
   xmlns:rdf="http://www.w3.org/1999/02/22-rdf-syntax-ns#"
   xmlns:svg="http://www.w3.org/2000/svg"
   xmlns="http://www.w3.org/2000/svg"
   id="svg614"
   version="1.1"
   viewBox="0 0 210 297"
   height="297mm"
   width="210mm">
  <defs
     id="defs608" />
  <metadata
     id="metadata611">
    <rdf:RDF>
      <cc:Work
         rdf:about="">
        <dc:format>image/svg+xml</dc:format>
        <dc:type
           rdf:resource="http://purl.org/dc/dcmitype/StillImage" />
        <dc:title></dc:title>
      </cc:Work>
    </rdf:RDF>
  </metadata>
  <g
     id="layer1">
    <g
       transform="matrix(0.80793084,0,0,0.80793084,126.49073,-93.916879)"
       id="g847">
      <path
         style="font-style:normal;font-variant:normal;font-weight:normal;font-stretch:normal;font-size:58.39530563px;line-height:1.25;font-family:'SS Comfy Cozy Sans';-inkscape-font-specification:'SS Comfy Cozy Sans, Normal';font-variant-ligatures:normal;font-variant-caps:normal;font-variant-numeric:normal;font-feature-settings:normal;text-align:center;letter-spacing:0px;word-spacing:0px;writing-mode:lr-tb;text-anchor:middle;fill:#008000;fill-opacity:1;stroke:none;stroke-width:1.45987737"
         d="m -63.272243,140.5224 c -1.051115,0 -2.16109,0.40926 -3.153812,1.22679 -2.861371,3.8541 -2.919682,5.89769 -5.197099,14.89057 -2.160625,-3.62051 -4.379548,-7.18244 -6.306593,-10.86135 -1.051113,-2.04383 -2.62772,-2.04382 -4.204393,-1.22629 -2.394206,1.75187 -0.642347,24.23411 0,28.61376 0,0.75914 0.467122,1.63505 2.569353,1.51826 2.919764,-0.17519 3.153294,-0.52554 3.153294,-1.51826 -0.525558,-3.27014 -1.693434,-16.70127 -1.86862,-18.92029 5.956321,9.05127 5.021876,9.10952 7.649662,9.10952 1.63507,0 2.102189,-0.7007 2.686143,-2.27738 0.0584,-0.29197 1.927005,-9.81021 2.510956,-12.49639 0.350372,6.24829 0.934824,21.95624 1.110009,24.17526 0,2.04384 1.05106,2.3947 3.620453,2.04432 1.109512,0 1.635043,-0.8759 1.635043,-1.28467 0.291976,-3.50372 0.525558,-26.62828 0,-31.35829 0,-1.2263 -2.102165,-1.63556 -4.204396,-1.63556 z m 35.836055,1.99574 c -3.375623,0.0599 -2.673895,4.61052 -2.947622,11.72745 -0.175189,5.022 0.233571,12.32113 0.583943,17.40152 0.23358,3.21174 0.70068,4.02974 3.854027,3.38739 2.277417,0 1.86862,-1.86913 1.86862,-2.45308 0.175186,-2.39421 -0.175189,-9.34306 0.116789,-11.62048 1.226302,0 1.343049,0 2.68614,-0.11679 4.146067,9.51844 6.423251,16.52619 14.4818036,12.78889 1.6350684,-0.75914 1.2846884,-1.51875 0.52555,-2.62827 -0.350372,-0.75913 -1.40145,-0.93432 -2.394169,-0.40876 -2.3942086,1.28469 -4.0291846,-2.4525 -5.7226486,-6.1898 -0.291977,-0.64234 -1.75182,-3.44525 -2.394169,-4.78834 2.686184,-0.70074 5.605859,-3.85397 5.664254,-6.77374 0.116791,-4.9052 -5.080181,-6.59858 -13.138734,-6.36499 -0.175186,-2.86137 -0.05836,-3.62044 -2.452563,-3.91242 -0.262779,-0.0365 -0.506179,-0.0526 -0.731221,-0.0486 z m 25.5477946,0 c -3.3756226,0.0599 -2.6738966,4.61052 -2.9476236,11.72745 -0.175186,5.022 0.233571,12.32113 0.583944,17.40152 0.233581,3.21174 0.700682,4.02974 3.8540278,3.38739 2.2774169,0 1.8686197,-1.86913 1.8686197,-2.45308 0.1751862,-2.39421 -0.1751877,-9.34306 0.1167887,-11.62048 1.2263014,0 1.3430491,0 2.686141,-0.11679 4.1460667,9.51844 6.4237678,16.52619 14.4823198,12.78889 1.635069,-0.75914 1.284688,-1.51875 0.525549,-2.62827 -0.350371,-0.75913 -1.401448,-0.93432 -2.394168,-0.40876 -2.394208,1.28469 -4.029702,-2.4525 -5.723165,-6.1898 -0.291977,-0.64234 -1.7518211,-3.44525 -2.3941694,-4.78834 2.6861834,-0.70074 5.6058584,-3.85397 5.6642544,-6.77374 0.11679,-4.9052 -5.0801814,-6.59858 -13.1387335,-6.36499 -0.1751859,-2.86137 -0.058356,-3.62044 -2.4525633,-3.91242 -0.2627789,-0.0365 -0.5061802,-0.0526 -0.7312216,-0.0486 z m 41.1974834,3.14348 c -2.452603,0 -3.0949,1.40144 -3.0949,2.80293 0.525558,8.52571 -0.817922,18.27745 -8.000545,17.05115 -2.569394,-1.40149 -3.445283,-3.56184 -2.510958,-16.5256 0,-0.70074 0.759178,-2.45256 -2.452564,-2.91972 -4.671624,-0.70074 -4.204394,1.57664 -4.204394,2.0438 0,2.5694 0.467155,12.02923 0.467155,12.72997 0,8.23374 11.737701,13.31404 16.934883,5.48907 -0.525558,2.91977 -1.518748,5.60634 -2.86184,8.05894 -6.365088,-0.81753 -8.350352,-0.0584 -11.036536,1.86862 -1.86865,1.34309 -2.277413,4.67153 -0.291972,6.2482 4.84681,3.85409 13.66474,2.45268 17.402038,-5.31389 1.051115,-0.17519 1.518245,0.1168 2.160592,0.29198 0.233582,0.0584 0.525548,0 0.700733,-0.70074 0.175186,-0.70074 0.05841,-1.34307 -0.875916,-1.45986 l -1.284676,-0.17518 c 2.686185,-7.76657 3.2117,-22.48228 2.68614,-26.62835 -0.23358,-1.92704 -1.518217,-2.86132 -3.73724,-2.86132 z m -83.926142,0.70073 c -8.992875,0 -11.854055,6.48164 -11.854055,14.5402 0,8.00015 5.372176,14.48232 11.854055,14.48232 2.627789,0 4.613132,-0.29196 6.189803,-0.99271 0.350374,-0.17518 0.467156,-0.29196 0.467156,-0.81752 0,-0.17519 3e-6,-0.58445 -0.11679,-1.05161 -0.291975,-1.45988 -0.759121,-1.92702 -1.109493,-1.92702 -0.233579,0 -0.467151,0.11679 -0.642337,0.29197 -0.817533,0.35038 -1.751814,0.52555 -2.861323,0.52555 -3.62051,0 -6.656951,-3.21161 -7.182509,-7.47447 l 16.292029,-1.86862 c 0.408768,-0.0584 0.934309,-0.70073 0.934309,-1.16789 0,-8.05856 -2.744385,-14.5402 -11.970845,-14.5402 z m 24.402645,3.31453 c 2.690462,0.0114 4.421884,0.77669 4.662765,3.22564 0.233581,2.56939 -1.86851,4.55476 -8.700762,4.55476 -0.116789,-2.56939 -0.175183,-3.21162 -0.175183,-7.41608 1.569376,-0.21899 2.990244,-0.36953 4.21318,-0.36432 z m 25.547795,0 c 2.6904609,0.0114 4.4218836,0.77669 4.6627643,3.22564 0.2335807,2.56939 -1.8685101,4.55476 -8.7007608,4.55476 -0.1167905,-2.56939 -0.175183,-3.21162 -0.175183,-7.41608 1.5693737,-0.21899 2.9902425,-0.36953 4.2131795,-0.36432 z m -49.082276,0.5271 c 4.624581,0.025 5.575282,4.71674 6.197555,7.54527 0.116793,0.52556 -0.116784,0.93431 -0.467153,0.99271 l -11.153325,0.9927 c -0.350372,0.0584 -0.700734,-0.35035 -0.642337,-0.87591 0.408765,-3.15336 0.934233,-8.40879 5.605859,-8.64237 0.156935,-0.009 0.310221,-0.0132 0.459401,-0.0124 z m 73.406372,26.2294 c 0.844752,0.006 1.718567,0.081 2.585372,0.23616 -3.795695,5.37237 -6.423355,5.48909 -8.000028,4.14601 -2.857721,-2.41429 0.852995,-4.41287 5.414656,-4.38217 z"
         id="path44" />
      <path
         style="font-style:normal;font-variant:normal;font-weight:normal;font-stretch:normal;font-size:58.39530563px;line-height:1.25;font-family:'SS Comfy Cozy Sans';-inkscape-font-specification:'SS Comfy Cozy Sans, Normal';font-variant-ligatures:normal;font-variant-caps:normal;font-variant-numeric:normal;font-feature-settings:normal;text-align:center;letter-spacing:0px;word-spacing:0px;writing-mode:lr-tb;text-anchor:middle;fill:#aa0000;fill-opacity:1;stroke:none;stroke-width:8.00035667"
         d="m -90.152344,677.79102 c -9.450021,0 -17.150386,7.31384 -17.150386,16.09179 0,8.77799 7.700365,16.0918 17.150386,16.0918 9.10001,0 16.798828,-7.31381 16.798828,-16.0918 0,-8.77795 -7.698818,-16.09179 -16.798828,-16.09179 z M 37.892578,720.9082 c -3.368754,0.008 -7.017571,0.0759 -10.955078,0.18555 -62.650097,1.75563 -80.149229,38.03963 -77.699219,78.71094 2.800007,40.67123 42.3475858,71.68616 87.847657,69.05273 24.15004,-1.46302 37.450002,-1.2e-4 36.75,-14.04492 -0.700003,-10.53354 -11.19959,-4.09694 -23.09961,-3.51172 -43.4000698,2.0482 -53.8988256,-20.48061 -55.298828,-45.35156 -1.7500082,-24.87088 2.0983714,-57.05607 46.898438,-59.68945 4.90001,-0.29254 9.100387,-0.29254 13.65039,0 11.550021,0.29253 15.400391,2.04619 15.400391,-10.82813 0,-11.77712 -9.912852,-14.59151 -33.494141,-14.52344 z m 114.281252,7.5 c -53.90009,0 -71.052736,32.48068 -71.052736,72.85938 0,40.08608 32.202666,72.5625 71.052736,72.5625 15.75002,0 27.64959,-1.46144 37.09961,-4.97266 2.1,-0.87779 2.79883,-1.46427 2.79883,-4.09765 0,-0.87776 7.8e-4,-2.92485 -0.69922,-5.26563 -1.75,-7.31501 -4.55039,-9.65625 -6.65039,-9.65625 -1.40001,0 -2.79961,0.58513 -3.84961,1.46289 -4.90001,1.75567 -10.50039,2.63281 -17.15039,2.63281 -21.70004,0 -39.89883,-16.09128 -43.04883,-37.45117 l 97.64844,-9.36328 c 2.45,-0.29253 5.59961,-3.51079 5.59961,-5.85156 0,-40.3787 -16.44797,-72.85938 -71.74805,-72.85938 z m -242.326174,1.46289 c -10.500016,0 -13.300396,4.68277 -13.650386,10.24219 -0.70001,11.70399 -1.7496,23.40933 -2.09961,35.11328 -0.69999,29.2599 -0.70118,58.22565 -0.70118,86.90039 0,7.90016 11.899986,9.65638 24.500004,8.19336 7.700013,-0.87775 11.550782,-2.92698 11.550782,-8.48633 0,-31.89331 -2.451172,-56.76261 -2.451172,-60.5664 0,-20.48194 -0.699219,-40.96341 -0.699219,-61.44531 0,-5.55942 -5.599208,-9.95118 -16.449219,-9.95118 z m -197.312496,4.63477 c -0.97327,-0.005 -1.91483,0.002 -2.82422,0.0176 v -0.002 c -27.28183,0.47698 -26.35744,10.16506 -26.35742,12.90821 0,75.49054 18.89833,125.81619 90.64843,122.59765 31.15006,-1.46298 42.34961,-29.25811 47.59961,-68.17382 0,54.1308 18.5488,64.95613 46.54883,61.15234 9.80002,-1.46298 9.80352,-4.3893 7.35352,-12.58203 -2.10001,-8.48538 -5.60273,-5.85273 -11.55274,-5.26758 -16.45003,1.46298 -14.70079,-55.29906 -11.55078,-84.85156 2.45002,-19.8968 7.35082,-18.4372 -12.94922,-22.82617 -25.55004,-5.26678 -26.94881,1.75838 -27.29883,5.26953 -4.54998,15.50774 -13.65034,96.26433 -38.15039,98.3125 -43.75007,4.0964 -44.79844,-56.76317 -43.39843,-90.41211 0.35006,-8.1927 6.29925,-15.51052 -15.05079,-16.09571 -1.03906,-0.0272 -2.04431,-0.0421 -3.01757,-0.0469 z m 444.83789,13.1543 c 27.71807,0.1251 33.42069,23.63379 37.15039,37.80664 0.7,2.63331 -0.70078,4.68196 -2.80078,4.97461 l -66.84961,4.97461 c -2.10001,0.29253 -4.19961,-1.75529 -3.84961,-4.38868 2.45,-15.80035 5.59957,-42.13424 33.59961,-43.30468 0.94062,-0.045 1.85587,-0.067 2.75,-0.0625 z"
         transform="scale(0.26458333)"
         id="path54" />
      <g
         id="g975"
         transform="matrix(0.70719824,0.07164193,-0.07164193,0.70719824,-181.3039,29.101673)">
        <path
           id="path141"
           d="m 135.60742,141.37891 c -2.1568,-0.043 -4.15292,0.99987 -5.26758,2.54101 -1.11465,1.54115 -1.5,3.38514 -1.5,5.23828 a 2.3835301,2.3835301 0 0 0 0,0.0332 c 0,0 0.75795,55.56137 0.39454,85.50976 -0.0376,3.10015 0.21563,8.56309 -0.10938,13.96485 -0.32501,5.40175 -1.49052,10.66642 -3.11523,12.5996 -1.65852,1.97341 -4.74794,3.13334 -8.16211,3.22071 -3.41418,0.0874 -7.00962,-0.93578 -9.21289,-2.5625 -1.17601,-0.86826 -2.34185,-3.93077 -2.76954,-7.12695 -0.42768,-3.19619 -0.33025,-6.03035 -0.37304,-7.25391 -0.23014,-6.58043 0.5039,-18.61719 0.5039,-18.61719 A 2.3835301,2.3835301 0 0 0 106,228.77734 c 0,-3.75679 -1.40579,-6.77332 -3.55469,-8.66211 -2.1489,-1.88878 -4.865156,-2.6581 -7.417966,-2.65625 -2.548211,0.002 -5.258812,0.77113 -7.402344,2.66016 -2.143532,1.88903 -3.542969,4.9036 -3.542969,8.6582 v 23.96289 l 0.002,-0.0918 c 0,0 -0.06192,1.56664 -0.02344,3.50195 0.03848,1.93531 0.127098,4.18368 0.630859,6.07422 1.420952,5.33262 3.066485,12.29043 8.234375,16.07617 16.731325,12.25657 37.506485,10.95129 49.429685,-3.125 2.44344,-2.88467 3.93002,-7.24282 5.06445,-11.42969 1.13443,-4.18686 1.79245,-7.86026 1.77539,-10.05664 a 2.3835301,2.3835301 0 0 0 0,-0.002 C 148.9186,220.63641 149.12115,149.164 149.12115,149.164 a 2.3835301,2.3835301 0 0 0 0,-0.006 c 0,-1.82614 -0.35291,-3.63273 -1.45898,-5.13867 -1.10607,-1.50593 -3.03877,-2.46055 -5.11328,-2.50195 z"
           style="opacity:1;fill:#aa0000;fill-opacity:1;stroke:none;stroke-width:1.16379488" />
        <path
           id="rect132"
           transform="scale(0.26458333)"
           d="m 496.06055,571.82422 c 0.0837,6.32212 0.2798,21.81374 0.58007,49.99414 l 57.79493,28.99609 c 0.0305,-19.22774 0.0472,-36.35833 0.0762,-49.66601 z m 1.12109,106.52734 c 0.13372,15.96255 0.25198,32.69241 0.35547,49.88282 l 56.80078,28.49609 c 0.002,-17.26293 0.006,-33.39965 0.0195,-49.69336 z m 0.61914,111.82422 c 0.034,17.0404 0.0339,33.77784 -0.0156,49.69531 l 56.0625,28.12696 c 0.20461,0.10265 0.41105,0.19521 0.61718,0.29101 -0.0412,-16.298 -0.0748,-32.64877 -0.0937,-49.73242 z m -138.63672,40.71875 c -14.33581,0.0104 -29.65919,8.08634 -32.03906,28.20899 l 63.08008,34.81054 c 0.61401,-16.09893 1.41992,-29.24414 1.41992,-29.24414 0,-24.22208 -16.84586,-33.78673 -32.46094,-33.77539 z m 138.37305,68.88672 c 0.19763,13.90708 0.46552,32.79606 -1.3125,50.65039 l 56.01172,28.09961 c 1.74205,-8.70534 2.67509,-15.95447 2.64648,-19.63867 -0.0781,-9.33166 -0.14409,-19.66931 -0.20312,-30.44336 z m -170.74023,31.32617 v 24.12891 c 0,0 -0.6109,15.87573 0.875,27.40429 l 154.79296,85.42388 c 16.227,-5.7589 31.10489,-15.2235 43.66211,-28.2891 l -62.01757,-34.2266 c -19.11012,6.3302 -43.87233,2.7243 -58.8711,-8.34958 -8.2165,-6.06636 -12.05899,-19.17683 -13.86914,-31.79297 l -57.66211,-31.82031 c -2.22346,-1.22704 -4.55491,-2.0418 -6.91015,-2.47852 z"
           style="opacity:1;fill:#ffffff;fill-opacity:1;stroke:none;stroke-width:1.16379488" />
      </g>
      <path
         style="opacity:1;fill:#aa0000;fill-opacity:1;stroke:none;stroke-width:0.05968693;stroke-linecap:round;stroke-linejoin:round;stroke-miterlimit:4;stroke-dasharray:none;stroke-dashoffset:0;stroke-opacity:1"
         d="m 77.959955,194.52291 c -0.53901,-3.73059 -6.78759,-4.98763 -10.4823,-4.24148 -3.68601,0.74439 -5.85946,3.56489 -7.99594,7.95815 6.8907,-3.28057 8.93401,-0.14374 14.16176,-0.2866 1.93593,-0.0529 4.57928,-1.61117 4.31648,-3.43007 z"
         id="path4433" />
      <path
         style="opacity:1;fill:#aa0000;fill-opacity:1;stroke:none;stroke-width:0.07313783;stroke-linecap:round;stroke-linejoin:round;stroke-miterlimit:4;stroke-dasharray:none;stroke-dashoffset:0;stroke-opacity:1"
         d="m 71.759349,182.22991 c -0.307815,-0.46018 -0.883592,-0.72843 -1.421682,-0.85872 -0.553978,-0.13415 -1.234791,-0.20434 -1.705965,0.11641 -1.569391,1.06839 -1.602042,3.66086 -2.444189,5.1445 1.365356,-0.67643 3.780609,-0.3397 5.137385,-1.49765 0.393876,-0.33612 0.588942,-0.89209 0.66371,-1.40445 0.07305,-0.50053 0.05197,-1.07963 -0.229259,-1.50009 z"
         id="path4437" />
      <path
         style="opacity:1;fill:#aa0000;fill-opacity:1;stroke:none;stroke-width:0.07313783;stroke-linecap:round;stroke-linejoin:round;stroke-miterlimit:4;stroke-dasharray:none;stroke-dashoffset:0;stroke-opacity:1"
         d="m -154.96374,229.25247 c -0.15537,-1.06749 0.37962,-2.34586 1.24799,-2.98588 1.15723,-0.85288 2.92422,-0.84986 4.29311,-0.4108 4.32054,1.38575 7.05044,3.88818 10.26808,8.93602 -6.79026,-5.00139 -9.44731,-0.20217 -13.33658,-2.51252 -1.12007,-0.66536 -2.28496,-1.73762 -2.4726,-3.02682 z"
         id="path4439" />
      <path
         id="path4441"
         d="m -79.41567,232.41232 c -0.858607,-3.67023 -7.192297,-4.38392 -10.808931,-3.32203 -3.608115,1.05937 -5.530314,4.05675 -7.280119,8.61783 6.582239,-3.86238 8.888363,-0.91338 14.084337,-1.50638 1.924158,-0.2196 4.423344,-1.99995 4.004713,-3.78942 z"
         style="opacity:1;fill:#aa0000;fill-opacity:1;stroke:none;stroke-width:0.05968693;stroke-linecap:round;stroke-linejoin:round;stroke-miterlimit:4;stroke-dasharray:none;stroke-dashoffset:0;stroke-opacity:1" />
      <path
         style="opacity:1;fill:#aa0000;fill-opacity:1;stroke:none;stroke-width:0.07313783;stroke-linecap:round;stroke-linejoin:round;stroke-miterlimit:4;stroke-dasharray:none;stroke-dashoffset:0;stroke-opacity:1"
         d="m 58.81584,175.31679 c 0.89542,-0.60157 2.27944,-0.6718 3.23196,-0.16546 1.26934,0.6748 2.03049,2.26945 2.22636,3.69363 0.61822,4.49501 -0.45815,8.03846 -3.61892,13.12208 1.57443,-8.28508 -3.90182,-8.60629 -3.49985,-13.11213 0.11576,-1.29763 0.57905,-2.81159 1.66045,-3.53812 z"
         id="path4445" />
      <path
         id="path1548"
         d="m -87.94713,219.32002 c -0.44215,-0.3332 -1.07414,-0.39695 -1.62513,-0.34284 -0.56726,0.0557 -1.23323,0.21355 -1.57255,0.67153 -1.1302,1.52548 -0.30759,3.98419 -0.61438,5.66237 1.06657,-1.0882 3.45805,-1.56534 4.358,-3.1054 0.26127,-0.44705 0.26244,-1.03624 0.16437,-1.54466 -0.0958,-0.49668 -0.30634,-1.03656 -0.71031,-1.341 z"
         style="opacity:1;fill:#aa0000;fill-opacity:1;stroke:none;stroke-width:0.07313783;stroke-linecap:round;stroke-linejoin:round;stroke-miterlimit:4;stroke-dasharray:none;stroke-dashoffset:0;stroke-opacity:1" />
      <path
         id="path1550"
         d="m -146.92814,217.59362 c -0.47292,0.28784 -0.76527,0.85187 -0.91868,1.38369 -0.1577,0.54773 -0.25691,1.22493 0.0434,1.70937 1.00034,1.61361 3.58905,1.75702 5.03535,2.66179 -0.61749,-1.393 -0.17784,-3.79167 -1.27677,-5.19668 -0.319,-0.40785 -0.8661,-0.62653 -1.37479,-0.72312 -0.49697,-0.0944 -1.07643,-0.0981 -1.50852,0.16495 z"
         style="opacity:1;fill:#aa0000;fill-opacity:1;stroke:none;stroke-width:0.07313783;stroke-linecap:round;stroke-linejoin:round;stroke-miterlimit:4;stroke-dasharray:none;stroke-dashoffset:0;stroke-opacity:1" />
      <path
         style="fill:#445500;stroke:#000000;stroke-width:0.01071809px;stroke-linecap:butt;stroke-linejoin:miter;stroke-opacity:1"
         d="m 83.329011,123.72368 c -0.583564,0.2267 -1.006841,0.72499 -1.536777,1.04607 -3.262018,2.36221 -6.828258,4.44929 -10.782652,5.36425 -2.816961,0.63982 -5.766737,0.56073 -8.581878,-0.0507 -0.262269,0.032 -0.224788,0.36166 -0.144524,0.53679 0.54377,3.0759 0.99564,6.21548 0.669637,9.33952 -0.0805,0.76308 -0.35037,1.55061 -0.952498,2.05468 -0.990768,0.91389 -2.289241,1.38337 -3.532793,1.82735 -1.434207,0.47773 -2.924789,0.75063 -4.404359,1.02386 -0.275432,0.1708 -0.126847,0.53433 0.0215,0.73851 0.993563,2.40359 2.236423,4.79431 2.373637,7.43903 7.89e-4,0.0215 9.11e-4,0.0421 0.0016,0.0631 1.052304,0.24784 2.031389,0.81151 2.760245,1.61148 0.967668,-0.0626 1.948521,0.15384 2.815046,0.59477 0.188479,-0.0469 0.377912,-0.0865 0.566392,-0.11944 2.081125,-0.40404 4.220967,-0.35225 6.33425,-0.35783 0.628399,0.007 1.255804,0.0248 1.883856,0.0413 -0.557367,-2.17437 -0.625187,-4.56312 0.324069,-6.64372 0.579904,-1.22678 1.644057,-2.20031 2.890406,-2.71149 2.392323,-1.11405 5.03745,-1.51841 7.636162,-1.84468 0.76932,-0.0846 1.539575,-0.14501 2.312149,-0.19612 -2.538733,-2.3983 -3.809184,-5.94726 -3.718761,-9.40051 0.04016,-3.52075 1.269036,-6.99017 3.271407,-9.87583 0.120156,-0.19493 0.07121,-0.48718 -0.207117,-0.48047 z"
         id="path481" />
      <path
         style="fill:#445500;stroke:#000000;stroke-width:0.00958547px;stroke-linecap:butt;stroke-linejoin:miter;stroke-opacity:1"
         d="m 82.97848,148.32315 c -0.491766,0.48748 -0.988311,0.96802 -1.50047,1.43363 -1.7573,1.54865 -3.594433,3.08226 -5.757564,4.02616 -1.080564,0.53273 -2.363244,0.66956 -3.528874,0.33192 -0.593557,-0.18058 -1.150726,-0.4409 -1.670412,-0.76213 0.06996,0.51498 0.171755,1.02505 0.299553,1.52379 -0.628043,-0.0167 -1.255448,-0.0332 -1.883872,-0.0413 -1.899769,0.005 -3.821033,-0.0361 -5.701784,0.24899 -0.212367,0.18776 -0.428914,0.37097 -0.65215,0.54652 0.341411,0.22574 0.657788,0.48894 0.939192,0.78626 1.790213,1.78859 1.91835,4.85711 0.43976,6.87274 -0.355338,0.51811 -0.807186,0.94965 -1.319805,1.28989 0.420172,0.83578 0.803602,1.69337 1.211257,2.526 0.04825,0.22097 0.204244,0.53586 0.481683,0.45242 1.059136,-0.82993 2.124482,-1.66746 3.293839,-2.34591 1.033862,-0.57064 2.117385,-1.16299 3.316531,-1.28595 0.694389,-0.10511 1.382062,0.18012 1.941168,0.578 2.286996,1.63117 4.12379,3.79294 5.863553,5.97858 0.06971,0.15742 0.268719,0.37779 0.445441,0.22096 1.25698,-2.24889 2.950377,-4.2728 5.047047,-5.78209 2.954607,-2.10884 6.465033,-3.26347 9.97972,-4.05134 0.528959,-0.16507 1.113629,-0.15384 1.611099,-0.41073 0.16937,-0.18251 0.002,-0.38833 -0.19947,-0.42331 -3.119714,-0.36639 -6.172706,-1.5969 -8.556425,-3.65447 -2.368146,-1.98398 -3.994725,-4.93681 -4.099116,-8.05844 z"
         id="path483" />
      <path
         style="fill:#668000;stroke:#000000;stroke-width:0.00958547px;stroke-linecap:butt;stroke-linejoin:miter;stroke-opacity:1"
         d="m 82.73754,148.96378 c 0.0017,-0.0119 -5.36498,5.46789 -8.95909,5.62474 -1.201199,0.0526 -2.285157,-0.32674 -3.200466,-0.86058 0.0645,0.38748 0.145964,0.77131 0.242729,1.14858 -0.628043,-0.0167 -1.255448,-0.0332 -1.883872,-0.0413 -1.729995,0.005 -3.477807,-0.0291 -5.196617,0.18012 -0.319746,0.29946 -0.621073,0.5631 -0.906276,0.79166 0.246193,0.18322 0.477074,0.38703 0.688151,0.61006 0.930044,0.92921 1.411226,2.20386 1.451836,3.49689 7.200821,0.99026 15.008067,0.63081 22.782111,0.34581 0,0 -10.35319,1.63477 -15.542259,1.31282 -1.974535,-0.12254 -5.017118,-0.81138 -7.238108,-1.37173 -0.0215,1.10105 -0.360165,2.19786 -1.01382,3.08894 -0.299154,0.43618 -0.666603,0.81111 -1.081185,1.12183 0.435365,0.85694 0.873571,1.81099 1.366626,2.87044 0,0 5.459482,-4.75735 8.091685,-3.43044 2.842376,1.43287 6.710652,6.54481 6.710652,6.54481 3.119888,-5.48791 7.812719,-8.37035 16.443805,-10.09396 -6.298726,-0.72788 -12.160606,-5.1518 -12.755902,-11.33847 z"
         id="path485" />
      <path
         style="fill:#668000;stroke:#000000;stroke-width:0.01071809px;stroke-linecap:butt;stroke-linejoin:miter;stroke-opacity:1"
         d="m 83.209261,124.12442 c -7.833641,5.95717 -13.723399,7.7572 -20.631968,6.30928 0,0 1.420637,7.02488 0.517325,10.46757 -0.83652,3.18813 -8.865188,4.24218 -8.865188,4.24218 1.432295,3.28027 2.514721,5.63917 2.552943,8.04928 5.97e-4,4.8e-4 0.0014,4.8e-4 0.0021,6.3e-4 6.21e-4,0 0.0011,4.7e-4 0.0017,6.2e-4 0.05686,0.0167 0.11323,0.0351 0.169607,0.0542 0.04252,0.0143 0.08456,0.0291 0.126846,0.0447 0.04133,0.0143 0.08266,0.0308 0.123742,0.0469 6.22e-4,4.8e-4 0.0012,4.8e-4 0.0019,7.9e-4 4.78e-4,4.5e-4 0.0011,4.5e-4 0.0016,6.2e-4 0.04108,0.0167 0.08218,0.0329 0.122786,0.0502 0.04108,0.0167 0.08218,0.0351 0.122786,0.0535 0,0 4.53e-4,0 4.53e-4,0 0.0024,0.002 0.0072,0.002 0.0096,0.005 0.0016,7.6e-4 0.0024,0.002 0.0048,0.002 0.05184,0.0239 0.103437,0.0478 0.154319,0.0729 6.21e-4,4.4e-4 0.0014,5.9e-4 0.0021,8.2e-4 4.54e-4,0 4.54e-4,4.8e-4 7.64e-4,4.8e-4 h 4.78e-4 c 0,3e-5 0,0 0,0 0.106064,0.0523 0.210217,0.10798 0.31253,0.16698 0.0072,0.005 0.01195,0.007 0.01911,0.0119 0.04563,0.0265 0.09078,0.0535 0.135685,0.0815 0.0048,0.002 0.0096,0.007 0.01673,0.01 0.0989,0.0618 0.196123,0.12684 0.290817,0.19493 0.0072,0.005 0.01194,0.01 0.01911,0.0143 9.11e-4,7.6e-4 0.002,0.002 0.0024,0.002 0.03798,0.0275 0.07549,0.0554 0.112514,0.0838 0,0 4.78e-4,4.6e-4 4.78e-4,4.6e-4 0.0021,0.002 0.0048,0.002 0.0072,0.005 0.0096,0.007 0.01673,0.0119 0.02556,0.0191 0.03751,0.0291 0.07453,0.0588 0.111081,0.0889 4.78e-4,4.8e-4 6.21e-4,4.8e-4 9.11e-4,7.9e-4 0.0024,0.002 0.0048,0.005 0.0096,0.007 0.0048,0.002 0.0072,0.005 0.01195,0.01 0.04372,0.0363 0.08671,0.0731 0.129235,0.11084 4.54e-4,0 4.54e-4,4.6e-4 6.21e-4,6.2e-4 0.0048,0.005 0.01195,0.01 0.01673,0.0143 4.78e-4,4.5e-4 9.11e-4,8.2e-4 0.0014,0.002 0.0356,0.0321 0.07095,0.0645 0.105825,0.0975 0.0096,0.01 0.0215,0.0191 0.03082,0.0294 0,0 0,0 0,0 0.03082,0.0297 0.06115,0.0597 0.09125,0.0901 0.0096,0.01 0.0215,0.0215 0.03106,0.0316 0.0387,0.0399 0.07716,0.0802 0.114664,0.12135 0.05017,-0.002 0.100092,-0.005 0.150258,-0.007 0.150018,-0.005 0.300323,-0.005 0.450246,0.005 0.04993,0.002 0.09985,0.005 0.14978,0.01 0,0 0,0 0,0 4.53e-4,3e-5 7.65e-4,0 0.0011,0 0.0048,4.8e-4 0.0072,7.9e-4 0.01194,8.3e-4 0.0024,4.5e-4 0.0072,7.6e-4 0.0096,8.3e-4 0.04205,0.002 0.08409,0.007 0.12613,0.0119 0.0072,7.9e-4 0.01433,0.002 0.02389,0.002 0.0021,4.8e-4 0.0048,4.8e-4 0.0072,7.9e-4 0.04061,0.005 0.08146,0.01 0.122069,0.0143 4.54e-4,0 6.21e-4,0 9.11e-4,0 9.1e-4,0 0.0019,4.4e-4 0.0024,4.4e-4 0.04801,0.007 0.09627,0.0143 0.144046,0.0215 4.54e-4,0 9.1e-4,0 0.0012,0 0.0018,4.8e-4 0.0024,6.2e-4 0.0048,8.3e-4 0.0018,4.7e-4 0.0048,7.9e-4 0.0048,8.3e-4 0.04586,0.007 0.09173,0.0167 0.137358,0.0248 0.04849,0.01 0.09675,0.0191 0.145002,0.0301 4.54e-4,0 4.54e-4,0 6.21e-4,0 5.98e-4,0 0.0012,4.6e-4 0.0018,4.6e-4 0.0024,7.9e-4 0.0072,0.002 0.0096,0.002 0.0011,4.8e-4 0.0021,4.8e-4 0.0024,7.9e-4 0.04419,0.01 0.08815,0.0191 0.132103,0.0313 6.21e-4,0 0.0011,4.5e-4 0.0017,4.5e-4 0,3e-5 0,0 0,0 0,3e-5 0,0 0,0 4.77e-4,0 6.21e-4,0 9.1e-4,4.8e-4 0.04825,0.0119 0.09651,0.0251 0.144525,0.0385 0.04777,0.0143 0.09531,0.0275 0.142852,0.0421 0,3e-5 4.78e-4,0 4.78e-4,0 4.53e-4,0 0.0011,4.6e-4 0.0016,4.6e-4 0.0024,8.3e-4 0.0072,0.002 0.0096,0.002 4.53e-4,0 7.64e-4,4.8e-4 0.0012,4.8e-4 0.04324,0.0143 0.08624,0.0275 0.128997,0.0418 6.21e-4,0 0.0011,4.5e-4 0.0017,6.2e-4 7.64e-4,4.5e-4 0.0014,4.5e-4 0.0021,7.6e-4 0.0024,8.3e-4 0.0072,0.002 0.0096,0.002 7.65e-4,4.8e-4 0.0014,6.2e-4 0.0022,7.9e-4 0.04204,0.0143 0.08409,0.0291 0.125652,0.0447 4.54e-4,0 6.21e-4,0 9.11e-4,4.6e-4 0.0024,8.2e-4 0.0048,0.002 0.0072,0.002 0.0048,0.002 0.0096,0.002 0.01194,0.005 0.04061,0.0143 0.08122,0.0308 0.121592,0.0469 0,0 4.53e-4,0 4.53e-4,0 6.21e-4,4.7e-4 0.0012,4.7e-4 0.0018,7.9e-4 1.710331,-0.52034 4.384292,-0.68586 8.826659,-0.56343 0,0 -1.337368,-5.02952 1.51626,-7.98926 2.792019,-2.89585 11.355974,-3.33738 11.346345,-3.34426 -4.74395,-5.07863 -4.112512,-13.2663 -0.0597,-19.08363 z m -5.298112,7.51532 c -6.454238,6.61356 -13.014158,13.19481 -17.386625,20.43559 0,0 3.152802,-6.45861 5.391326,-9.25788 3.400451,-4.2523 11.995299,-11.17771 11.995299,-11.17771 z"
         id="path487" />
      <path
         id="path489"
         d="m 55.203738,152.96502 c -2.376767,-0.027 -4.623055,1.74789 -5.192457,4.04752 -1.919091,1.08909 -2.954315,3.4875 -2.42065,5.62878 0.445469,2.10122 2.367952,3.7315 4.493366,3.9184 1.716948,0.20496 3.476608,-0.59867 4.530154,-1.9469 2.285992,1.5787 5.76807,0.97997 7.347708,-1.32322 1.478566,-2.01563 1.35043,-5.08417 -0.43976,-6.87276 -1.094801,-1.1567 -2.715789,-1.80171 -4.300922,-1.69923 -1.013795,-1.11271 -2.511735,-1.76823 -4.017439,-1.75259 z"
         style="opacity:1;fill:#800000;fill-opacity:1;stroke:none;stroke-width:0.00631077;stroke-linecap:round;stroke-linejoin:round;stroke-miterlimit:4;stroke-dasharray:none;stroke-dashoffset:0;stroke-opacity:1" />
      <path
         style="opacity:1;fill:#800000;fill-opacity:1;stroke:none;stroke-width:0.00631077;stroke-linecap:round;stroke-linejoin:round;stroke-miterlimit:4;stroke-dasharray:none;stroke-dashoffset:0;stroke-opacity:1"
         d="m 55.18489,153.50134 a 4.8576252,4.8576252 0 0 0 -4.698925,3.87899 4.5877571,4.5877571 0 0 1 2.038174,-0.50562 4.5877571,4.5877571 0 0 1 2.802074,0.92125 4.8576252,4.8576252 0 0 1 3.679803,-2.49901 4.8576252,4.8576252 0 0 0 -3.821126,-1.79561 z"
         id="path491" />
      <path
         style="opacity:1;fill:#aa0000;fill-opacity:1;stroke:none;stroke-width:0.00631077;stroke-linecap:round;stroke-linejoin:round;stroke-miterlimit:4;stroke-dasharray:none;stroke-dashoffset:0;stroke-opacity:1"
         d="m 59.537554,155.25551 a 4.8576252,4.8576252 0 0 0 -4.211341,2.54045 4.5877571,4.5877571 0 0 1 1.838659,3.59837 l 4.78e-4,0.0573 a 4.5877571,4.5877571 0 0 1 -0.676063,2.39665 4.8576252,4.8576252 0 0 0 3.131136,1.12213 4.8576252,4.8576252 0 0 0 4.831337,-4.86873 l -4.53e-4,-0.0607 a 4.8576252,4.8576252 0 0 0 -4.913753,-4.7855 z"
         id="path493" />
      <path
         style="opacity:1;fill:#d40000;fill-opacity:1;stroke:none;stroke-width:0.00596018;stroke-linecap:round;stroke-linejoin:round;stroke-miterlimit:4;stroke-dasharray:none;stroke-dashoffset:0;stroke-opacity:1"
         id="path495"
         d="m 57.16535,161.45168 a 4.5877573,4.5877573 0 0 1 -4.562905,4.59817 4.5877573,4.5877573 0 0 1 -4.612425,-4.54853 4.5877573,4.5877573 0 0 1 4.534119,-4.62661 4.5877573,4.5877573 0 0 1 4.640733,4.51964" />
    </g>
  </g>
</svg>
