<svg id="svg" xmlns="http://www.w3.org/2000/svg" xmlns:xlink="http://www.w3.org/1999/xlink" width="400" height="400" viewBox="0, 0, 400,400"><g id="svgg"><path id="path0" d="M332.371 95.935 C 331.916 96.584,331.797 97.855,331.797 102.065 L 331.797 107.376 329.957 105.477 C 325.781 101.166,324.662 100.680,323.713 102.762 C 323.323 103.619,323.404 103.837,324.561 105.035 C 325.265 105.763,327.176 107.745,328.808 109.438 L 331.775 112.516 331.694 120.585 L 331.613 128.654 328.762 125.780 L 325.910 122.906 326.221 120.347 C 326.849 115.182,326.622 113.381,325.325 113.254 C 323.920 113.116,323.437 113.962,323.190 116.987 C 322.959 119.817,322.946 119.820,320.762 117.541 L 318.880 115.576 319.083 111.152 C 319.194 108.719,319.366 105.968,319.463 105.038 C 319.660 103.159,318.947 102.114,317.614 102.330 C 316.272 102.547,315.945 103.546,315.939 107.444 C 315.931 112.599,315.907 112.607,312.065 108.747 C 308.535 105.201,308.229 105.043,307.097 106.175 C 305.989 107.283,306.090 107.474,309.745 111.202 L 313.131 114.654 310.759 114.689 C 309.455 114.707,307.694 114.696,306.847 114.662 C 304.998 114.590,303.710 115.603,304.042 116.870 C 304.353 118.061,305.174 118.202,311.086 118.075 L 316.501 117.959 318.643 120.178 L 320.785 122.396 319.194 122.427 C 315.570 122.496,313.769 122.976,313.392 123.974 C 312.545 126.216,312.943 126.290,321.843 125.556 L 323.871 125.389 326.005 127.715 L 328.140 130.042 319.725 129.976 C 311.639 129.914,310.152 129.755,310.615 129.007 C 310.731 128.818,310.685 128.664,310.512 128.664 C 310.339 128.664,309.590 127.876,308.848 126.912 C 305.111 122.064,303.686 121.241,302.716 123.370 C 302.240 124.416,302.510 125.096,303.929 126.424 C 304.455 126.915,304.885 127.518,304.885 127.764 C 304.885 128.009,305.314 128.491,305.838 128.835 C 307.243 129.755,306.862 129.846,301.831 129.794 C 297.051 129.745,296.401 129.944,296.169 131.529 C 295.948 133.028,296.741 133.272,301.843 133.272 C 304.530 133.272,306.728 133.371,306.728 133.493 C 306.728 133.615,306.189 134.431,305.530 135.308 C 301.759 140.323,301.350 141.234,302.581 141.879 C 303.625 142.426,304.596 141.781,306.359 139.370 C 307.272 138.122,308.660 136.274,309.444 135.264 L 310.870 133.426 320.320 133.484 L 329.770 133.543 326.820 136.271 L 323.871 138.999 321.843 138.808 C 320.728 138.702,318.960 138.520,317.913 138.402 C 315.800 138.164,314.662 138.580,314.370 139.699 C 314.013 141.062,315.161 141.802,317.787 141.903 C 320.903 142.023,320.892 141.938,318.136 144.737 L 315.760 147.149 310.070 147.007 C 304.951 146.880,304.312 146.933,303.710 147.534 C 301.811 149.433,303.406 150.415,308.391 150.415 L 312.391 150.415 309.191 153.685 C 305.990 156.957,305.604 157.623,306.433 158.452 C 307.349 159.368,308.378 158.815,311.568 155.694 L 314.839 152.493 314.859 154.495 C 314.920 160.542,315.192 161.475,316.899 161.475 C 318.539 161.475,318.818 158.649,317.975 150.556 C 317.871 149.555,318.196 149.070,320.500 146.781 L 323.144 144.154 323.246 146.639 C 323.384 150.032,323.539 150.415,324.772 150.415 C 326.550 150.415,326.767 149.753,326.496 145.143 L 326.253 140.993 328.841 138.676 L 331.429 136.359 331.429 144.039 L 331.429 151.718 327.532 155.583 C 322.104 160.965,321.292 163.045,324.793 162.597 C 325.097 162.558,326.674 161.214,328.297 159.609 L 331.249 156.692 331.174 162.111 C 331.095 167.866,331.250 168.474,332.751 168.310 C 334.453 168.123,334.722 167.250,334.735 161.873 L 334.747 156.926 337.490 159.586 C 340.006 162.026,340.297 162.206,341.006 161.768 C 341.810 161.271,342.394 159.783,341.957 159.345 C 341.818 159.207,340.139 157.475,338.226 155.496 L 334.747 151.898 334.747 144.254 L 334.747 136.610 337.340 139.180 L 339.933 141.751 339.684 145.706 C 339.498 148.658,339.553 149.803,339.901 150.222 C 341.066 151.625,342.854 150.277,342.863 147.989 C 342.873 145.457,343.325 145.311,345.123 147.258 L 346.728 148.997 346.728 154.910 C 346.728 161.604,347.170 162.762,349.123 161.182 C 349.994 160.476,349.960 160.717,350.188 153.740 L 350.230 152.457 353.707 155.919 L 357.184 159.381 358.131 158.760 C 359.746 157.702,359.355 156.790,355.726 153.145 L 352.374 149.779 355.081 149.695 C 361.438 149.497,361.386 149.506,362.135 148.502 C 363.982 146.028,362.810 145.830,350.199 146.491 C 349.506 146.527,348.717 146.014,347.302 144.607 L 345.358 142.673 347.333 142.667 C 349.512 142.661,349.926 142.489,350.530 141.341 C 351.499 139.498,349.298 138.932,343.226 139.465 C 342.504 139.529,341.671 138.887,339.383 136.505 L 336.462 133.465 344.823 133.588 L 353.184 133.711 357.076 137.713 C 361.237 141.992,361.695 142.269,362.793 141.170 C 364.018 139.945,363.668 138.988,361.024 136.323 L 358.545 133.825 362.406 133.782 C 364.530 133.759,366.572 133.772,366.944 133.811 C 368.396 133.963,369.791 131.388,368.642 130.678 C 368.427 130.545,366.001 130.377,363.251 130.304 C 357.158 130.141,357.379 130.397,360.497 127.114 C 363.500 123.953,363.996 122.785,362.642 122.061 C 361.448 121.421,361.306 121.525,357.059 126.175 L 353.438 130.138 345.486 130.138 L 337.535 130.138 339.706 127.944 C 340.901 126.737,341.980 125.812,342.105 125.889 C 343.203 126.568,350.101 126.473,350.735 125.770 C 351.654 124.752,351.293 123.151,350.131 123.091 C 349.679 123.068,349.143 123.010,348.940 122.963 C 348.737 122.916,347.747 122.852,346.740 122.821 L 344.908 122.765 347.108 120.523 L 349.309 118.280 354.710 118.473 C 359.474 118.642,360.173 118.592,360.644 118.042 C 362.137 116.300,361.351 115.100,358.710 115.090 C 357.797 115.086,356.150 115.070,355.048 115.053 L 353.046 115.023 356.277 111.722 C 359.633 108.292,359.920 107.621,358.451 106.647 C 357.677 106.134,357.478 106.264,354.207 109.429 L 350.775 112.749 350.664 109.186 C 350.539 105.125,349.924 103.878,348.440 104.672 C 347.154 105.360,347.019 106.150,347.363 110.944 L 347.691 115.528 345.274 117.945 L 342.857 120.362 342.816 119.075 C 342.794 118.367,342.802 117.446,342.834 117.028 C 342.986 115.028,342.105 114.204,340.244 114.607 C 339.505 114.767,339.187 116.818,339.391 120.111 L 339.612 123.687 337.272 125.982 L 334.931 128.277 335.037 120.188 L 335.142 112.099 338.908 108.697 C 343.525 104.525,344.644 102.598,342.538 102.445 C 341.234 102.350,340.742 102.653,338.069 105.193 L 335.300 107.824 335.198 101.957 C 335.136 98.395,334.937 95.898,334.692 95.602 C 334.080 94.865,333.013 95.018,332.371 95.935 M261.519 122.571 C 261.405 122.870,261.828 124.470,262.461 126.127 C 263.833 129.720,263.871 129.645,261.263 128.492 C 259.018 127.499,257.960 127.589,258.137 128.757 C 258.219 129.294,259.180 129.904,261.692 131.014 L 265.135 132.535 266.929 136.945 C 269.008 142.060,269.031 141.859,266.487 140.790 C 264.099 139.787,264.304 139.934,264.148 139.112 C 264.077 138.739,263.986 138.392,263.945 138.341 C 263.904 138.290,263.849 138.124,263.822 137.972 C 263.606 136.762,262.334 134.194,261.950 134.194 C 260.845 134.194,260.546 135.211,261.138 136.950 C 261.451 137.867,261.637 138.618,261.552 138.618 C 259.676 138.618,258.492 137.362,257.472 134.290 C 256.156 130.329,255.435 129.318,254.549 130.188 C 253.977 130.750,253.992 130.957,254.763 133.238 C 255.787 136.272,255.761 136.296,252.803 134.968 C 250.843 134.089,250.269 133.967,249.780 134.325 C 248.760 135.070,249.505 135.900,252.216 137.039 L 254.799 138.125 252.537 139.140 C 250.154 140.209,249.589 140.867,250.308 141.734 C 250.736 142.249,251.235 142.208,252.719 141.534 C 256.857 139.653,257.764 139.441,259.223 140.014 C 260.853 140.654,261.012 141.026,259.787 141.334 C 258.328 141.700,256.809 143.339,257.339 143.977 C 257.958 144.723,258.155 144.684,261.065 143.251 L 263.634 141.985 265.273 142.593 C 267.154 143.290,267.309 143.599,265.950 143.940 C 265.421 144.073,264.218 144.525,263.277 144.945 C 257.226 147.644,257.894 147.566,254.791 145.941 C 251.772 144.360,251.243 144.246,250.914 145.102 C 250.598 145.926,250.866 146.234,252.932 147.414 L 254.752 148.453 252.076 149.494 C 249.118 150.646,248.732 150.984,249.255 151.962 C 249.722 152.833,250.129 152.804,252.832 151.705 C 255.640 150.564,255.620 150.563,255.304 151.797 C 255.161 152.355,254.972 153.226,254.884 153.733 C 254.797 154.240,254.657 154.850,254.573 155.088 C 254.367 155.678,255.304 156.402,256.076 156.252 C 256.422 156.184,256.753 155.880,256.812 155.576 C 256.991 154.657,257.391 152.835,257.500 152.442 C 257.556 152.240,257.728 151.529,257.882 150.863 C 258.190 149.529,258.639 149.266,264.332 147.072 C 266.055 146.408,267.623 145.727,267.816 145.559 C 268.368 145.077,268.955 145.202,268.461 145.696 C 268.218 145.939,268.018 146.398,268.018 146.716 C 268.018 148.229,266.275 149.904,264.175 150.408 C 261.746 150.991,261.156 151.516,261.729 152.585 C 262.106 153.289,262.215 153.300,263.874 152.797 C 264.835 152.505,265.667 152.264,265.723 152.262 C 265.778 152.260,265.579 152.631,265.280 153.088 C 264.981 153.544,264.732 154.043,264.726 154.197 C 264.699 154.912,263.522 156.682,263.074 156.682 C 262.798 156.682,262.098 156.930,261.517 157.233 C 260.936 157.536,260.180 157.784,259.837 157.786 C 259.495 157.787,259.111 157.954,258.986 158.157 C 258.861 158.359,258.454 158.525,258.082 158.525 C 257.185 158.525,256.889 159.396,257.502 160.234 C 258.032 160.959,257.719 161.015,262.356 159.364 C 262.587 159.282,262.385 160.014,261.907 160.990 C 260.744 163.362,260.739 164.654,261.890 164.874 C 262.615 165.013,262.854 164.818,263.273 163.747 C 263.551 163.034,264.046 161.858,264.373 161.134 L 264.966 159.816 265.931 161.893 C 266.963 164.116,267.834 164.766,268.666 163.934 C 269.109 163.491,268.969 162.992,267.679 160.427 C 265.918 156.925,265.962 157.257,266.962 154.997 L 267.749 153.219 268.528 154.563 C 270.410 157.808,271.835 156.065,270.046 152.705 C 268.956 150.657,268.939 150.437,269.736 148.652 C 270.073 147.898,270.363 147.171,270.381 147.035 C 270.470 146.381,270.968 146.329,270.968 146.974 C 270.968 147.379,271.092 147.836,271.244 147.988 C 271.396 148.140,271.535 148.375,271.552 148.510 C 271.569 148.645,271.757 149.171,271.970 149.677 C 274.232 155.056,274.574 156.682,273.444 156.682 C 273.231 156.682,273.168 156.793,273.304 156.929 C 273.440 157.065,273.298 157.563,272.988 158.035 C 272.679 158.507,272.516 158.894,272.628 158.894 C 272.739 158.894,272.545 159.433,272.196 160.092 C 271.330 161.727,271.256 162.424,271.893 162.952 C 272.600 163.539,273.471 163.180,273.890 162.130 C 274.510 160.578,274.772 159.817,274.748 159.631 C 274.735 159.530,274.937 159.252,275.197 159.014 C 275.572 158.671,275.895 159.162,276.771 161.411 C 277.617 163.581,278.058 164.267,278.662 164.358 C 279.919 164.546,279.931 163.628,278.713 160.562 C 277.376 157.195,277.356 157.262,279.404 158.178 C 281.363 159.056,282.245 159.084,282.553 158.279 C 282.874 157.444,282.630 157.259,279.298 155.810 L 276.402 154.551 274.656 150.271 C 273.695 147.917,272.981 145.991,273.068 145.991 C 274.749 145.991,276.755 147.665,277.607 149.779 C 278.311 151.527,278.729 152.102,279.360 152.192 C 280.470 152.350,280.694 151.581,280.013 149.950 L 279.450 148.603 281.015 149.267 C 282.475 149.887,282.655 150.129,283.687 152.851 C 285.220 156.898,285.513 157.337,286.340 156.818 C 287.174 156.295,287.133 155.531,286.140 153.084 L 285.354 151.146 286.732 151.732 C 291.058 153.571,290.938 153.544,291.475 152.810 C 292.164 151.867,291.715 151.459,288.616 150.211 L 285.977 149.149 288.491 147.948 C 291.121 146.692,291.670 146.200,291.355 145.379 C 291.142 144.824,289.369 144.708,288.829 145.213 C 287.595 146.369,283.172 147.809,282.052 147.419 C 280.779 146.975,280.715 146.241,281.933 146.061 C 282.873 145.923,283.297 144.973,282.726 144.285 C 282.148 143.588,281.616 143.644,279.365 144.639 L 277.419 145.499 275.207 144.507 L 272.995 143.515 274.423 142.910 C 275.208 142.577,275.930 142.304,276.026 142.304 C 276.123 142.304,276.808 142.038,277.548 141.714 C 278.288 141.389,279.267 140.974,279.724 140.792 C 280.180 140.610,280.972 140.265,281.484 140.025 C 282.287 139.649,282.810 139.757,285.263 140.806 C 288.703 142.276,289.605 142.500,289.934 141.967 C 290.453 141.128,289.713 140.233,287.927 139.540 C 285.718 138.682,285.657 138.436,287.465 137.684 C 291.010 136.210,291.529 135.907,291.448 135.358 C 291.312 134.430,290.304 133.989,289.333 134.433 C 284.243 136.758,284.515 136.698,285.012 135.392 C 285.224 134.834,285.380 134.335,285.358 134.282 C 285.336 134.229,285.521 133.511,285.768 132.686 C 286.142 131.435,286.129 131.130,285.689 130.847 C 284.608 130.152,284.048 130.721,283.118 133.460 C 281.911 137.014,281.475 137.773,280.461 138.088 C 280.005 138.229,278.968 138.632,278.157 138.984 C 272.835 141.289,272.776 141.291,273.803 139.151 C 274.386 137.937,278.341 135.789,278.341 136.687 C 278.341 136.785,278.590 136.658,278.894 136.406 C 280.341 135.204,278.912 133.781,277.091 134.611 C 276.560 134.853,276.018 134.942,275.885 134.810 C 275.450 134.375,276.950 131.635,277.748 131.408 C 278.176 131.285,279.023 130.966,279.631 130.697 C 280.240 130.428,281.359 129.952,282.120 129.639 C 283.595 129.032,283.912 128.163,282.857 127.620 C 282.157 127.260,281.745 127.337,279.878 128.175 C 278.241 128.910,278.130 128.680,279.103 126.574 C 280.254 124.086,280.343 123.244,279.504 122.795 C 278.773 122.404,277.315 123.459,277.849 123.993 C 277.984 124.129,277.902 124.240,277.665 124.240 C 277.429 124.240,277.230 124.530,277.223 124.885 C 277.217 125.240,276.973 125.845,276.682 126.229 C 276.391 126.614,276.240 127.070,276.347 127.243 C 276.454 127.416,276.397 127.558,276.220 127.558 C 276.043 127.558,275.546 126.750,275.115 125.763 C 274.633 124.660,274.038 123.892,273.570 123.770 C 272.271 123.430,272.306 124.898,273.664 127.710 C 274.973 130.421,274.973 130.262,273.662 133.446 C 273.288 134.355,273.285 134.353,272.795 132.998 C 272.277 131.565,271.698 131.129,270.783 131.480 C 270.030 131.769,270.086 132.208,271.174 134.546 C 272.036 136.399,272.073 136.683,271.643 138.141 C 270.948 140.493,270.487 140.120,268.806 135.849 C 266.991 131.237,267.032 131.862,268.365 129.183 C 270.089 125.720,270.267 125.098,269.675 124.606 C 268.693 123.791,267.950 124.397,266.992 126.792 L 266.046 129.161 265.550 127.714 C 265.277 126.918,264.809 125.745,264.509 125.106 C 264.209 124.467,263.963 123.773,263.963 123.565 C 263.963 122.402,261.905 121.566,261.519 122.571 M58.986 128.433 C 58.986 129.769,59.727 130.138,62.405 130.138 L 63.520 130.138 63.286 135.207 C 63.158 137.995,62.942 144.051,62.807 148.664 L 62.561 157.051 60.589 157.051 L 58.618 157.051 58.618 158.525 L 58.618 160.000 64.147 160.000 L 69.677 160.000 69.677 158.525 L 69.677 157.051 67.477 157.051 L 65.277 157.051 65.449 154.194 C 65.544 152.622,65.724 147.377,65.849 142.537 L 66.076 133.738 71.482 146.961 C 78.865 165.017,77.166 165.461,86.219 143.110 L 89.850 134.147 90.082 137.949 C 90.210 140.040,90.424 145.194,90.557 149.401 L 90.800 157.051 88.902 157.051 L 87.005 157.051 87.005 158.525 L 87.005 160.000 92.719 160.000 L 98.433 160.000 98.433 158.525 L 98.433 157.051 96.647 157.051 L 94.862 157.051 94.624 150.876 C 94.494 147.479,94.276 141.424,94.140 137.419 L 93.893 130.138 95.149 130.133 C 97.519 130.124,98.065 129.806,98.065 128.436 L 98.065 127.189 93.884 127.189 L 89.704 127.189 84.416 140.468 C 81.508 147.771,79.019 153.619,78.886 153.463 C 78.753 153.307,76.258 147.332,73.341 140.184 L 68.039 127.189 63.512 127.189 L 58.986 127.189 58.986 128.433 M103.594 128.440 C 103.594 129.857,104.026 130.138,106.205 130.138 L 107.650 130.138 107.650 143.594 L 107.650 157.051 105.622 157.051 L 103.594 157.051 103.594 158.525 L 103.594 160.000 115.576 160.000 L 127.558 160.000 127.558 155.576 L 127.558 151.152 125.931 151.152 C 124.119 151.152,124.316 150.761,123.655 155.668 L 123.419 157.419 117.562 157.419 L 111.705 157.419 111.705 150.770 L 111.705 144.120 115.115 144.226 L 118.525 144.332 118.637 146.267 L 118.748 148.203 120.388 148.203 L 122.028 148.203 122.028 142.857 L 122.028 137.512 120.388 137.512 L 118.748 137.512 118.637 139.447 L 118.525 141.382 115.115 141.488 L 111.705 141.594 111.705 135.682 L 111.705 129.770 117.000 129.770 L 122.294 129.770 122.622 132.442 L 122.949 135.115 124.675 135.227 L 126.400 135.338 126.349 131.263 L 126.299 127.189 114.947 127.189 L 103.594 127.189 103.594 128.440 M133.456 128.440 C 133.456 129.830,133.897 130.138,135.883 130.138 L 137.143 130.138 137.143 143.594 L 137.143 157.051 135.300 157.051 L 133.456 157.051 133.456 158.525 L 133.456 160.000 139.355 160.000 L 145.253 160.000 145.253 158.525 L 145.253 157.051 143.410 157.051 L 141.567 157.051 141.567 150.783 L 141.567 144.516 142.436 144.516 C 143.148 144.516,144.291 145.914,148.764 152.258 L 154.224 160.000 157.296 160.000 L 160.369 160.000 160.369 158.757 C 160.369 157.600,160.270 157.498,158.954 157.287 C 157.613 157.073,157.308 156.734,153.078 150.749 L 148.617 144.437 150.898 143.278 C 154.869 141.261,156.510 137.157,155.233 132.438 C 154.037 128.016,151.843 127.189,141.317 127.189 L 133.456 127.189 133.456 128.440 M164.055 128.415 C 164.055 129.859,164.478 130.138,166.666 130.138 L 168.111 130.138 168.111 143.594 L 168.111 157.051 166.083 157.051 L 164.055 157.051 164.055 158.525 L 164.055 160.000 169.954 160.000 L 175.853 160.000 175.853 158.525 L 175.853 157.051 174.009 157.051 L 172.166 157.051 172.166 150.783 L 172.166 144.516 173.180 144.530 C 174.078 144.542,174.801 145.419,179.539 152.255 L 184.885 159.967 187.926 159.983 L 190.968 160.000 190.968 158.742 C 190.968 157.578,190.865 157.466,189.585 157.239 C 188.291 157.010,187.918 156.588,183.744 150.637 L 179.286 144.279 181.023 143.663 C 187.269 141.444,188.457 131.438,182.846 128.296 C 181.240 127.397,180.982 127.370,172.627 127.257 L 164.055 127.140 164.055 128.415 M193.917 128.456 C 193.917 129.611,194.021 129.733,195.094 129.838 C 196.172 129.944,196.703 130.578,201.362 137.320 L 206.452 144.686 206.452 150.868 L 206.452 157.051 204.240 157.051 L 202.028 157.051 202.028 158.525 L 202.028 160.000 208.664 160.000 L 215.300 160.000 215.300 158.525 L 215.300 157.051 213.088 157.051 L 210.876 157.051 210.876 150.802 L 210.876 144.554 215.827 137.004 C 220.138 130.431,220.913 129.439,221.818 129.336 C 222.641 129.241,222.881 129.006,222.974 128.203 L 223.090 127.189 218.089 127.189 L 213.088 127.189 213.088 128.445 C 213.088 129.670,213.132 129.706,214.908 129.951 L 216.729 130.201 215.149 132.658 C 214.280 134.010,212.619 136.584,211.459 138.379 L 209.348 141.642 207.788 139.485 C 206.930 138.298,205.107 135.713,203.737 133.741 L 201.246 130.154 202.743 129.915 C 204.150 129.690,204.240 129.601,204.240 128.432 L 204.240 127.189 199.078 127.189 L 193.917 127.189 193.917 128.456 M148.473 130.635 C 154.276 133.661,150.391 141.935,143.167 141.935 L 141.567 141.935 141.567 135.805 L 141.567 129.675 144.424 129.844 C 146.074 129.942,147.785 130.276,148.473 130.635 M178.953 130.534 C 184.713 133.359,181.724 141.351,174.719 141.852 L 172.166 142.035 172.166 135.855 L 172.166 129.675 175.023 129.841 C 176.594 129.933,178.363 130.244,178.953 130.534 M108.600 168.270 C 99.207 171.746,91.024 185.894,87.687 204.424 C 86.593 210.505,86.444 226.768,87.440 231.477 L 88.015 234.198 84.100 238.254 C 73.669 249.060,67.883 251.107,63.755 245.450 C 53.253 231.060,54.676 201.618,66.527 188.106 C 71.341 182.617,75.212 186.685,76.247 198.321 C 76.599 202.269,77.409 203.871,79.054 203.871 C 81.615 203.871,81.058 190.164,78.264 184.458 C 72.514 172.716,58.185 177.997,49.595 195.023 C 39.401 215.229,46.414 248.610,61.876 253.479 C 68.911 255.694,76.621 251.885,85.347 241.883 C 89.069 237.617,88.956 237.678,89.539 239.622 C 91.381 245.770,94.836 250.323,97.660 250.323 C 100.563 250.323,101.253 249.269,100.653 245.757 C 99.887 241.280,101.196 237.218,105.598 230.413 C 112.788 219.299,115.769 222.458,112.651 237.885 C 109.262 254.658,110.453 263.226,116.176 263.226 C 120.079 263.226,123.399 258.682,131.797 241.843 C 133.972 237.484,135.795 233.868,135.848 233.809 C 136.104 233.526,138.634 235.047,138.805 235.587 C 138.913 235.925,138.498 237.384,137.883 238.829 C 132.975 250.363,133.802 262.945,139.319 260.660 C 140.940 259.989,150.063 247.067,155.932 237.131 C 156.804 235.654,157.577 234.505,157.650 234.578 C 157.723 234.651,158.040 236.191,158.355 238.000 C 159.424 244.143,161.111 246.636,164.199 246.636 C 168.028 246.636,169.720 244.582,175.735 232.627 C 180.231 223.693,179.955 224.181,180.167 224.775 C 180.674 226.188,182.317 227.919,185.077 229.944 C 193.198 235.904,193.583 236.571,190.416 239.178 C 183.296 245.036,181.629 251.516,186.570 254.123 C 193.270 257.658,202.165 247.276,201.106 237.156 L 200.866 234.866 203.334 232.557 C 204.845 231.143,206.918 228.561,208.683 225.894 L 211.564 221.540 211.790 223.305 C 213.982 240.422,219.566 246.708,224.421 237.525 C 225.320 235.825,230.492 223.733,233.652 215.945 C 234.245 214.485,234.829 214.126,234.854 215.207 C 234.884 216.505,238.073 226.024,238.715 226.734 C 239.523 227.627,241.553 227.707,242.245 226.873 C 242.578 226.471,242.830 224.371,243.028 220.329 C 243.453 211.645,244.951 204.538,247.553 198.853 C 249.399 194.819,249.479 194.975,249.686 203.046 C 249.940 212.959,251.231 218.249,253.394 218.249 C 254.878 218.249,255.431 217.444,256.054 214.378 C 257.433 207.585,262.701 196.291,265.085 195.015 C 266.746 194.126,266.710 195.811,264.899 203.806 C 260.304 224.094,260.307 234.925,264.907 239.539 C 268.027 242.669,270.062 240.135,275.493 226.359 C 281.107 212.118,282.765 208.502,282.765 210.497 C 282.765 211.340,285.105 212.072,287.192 211.883 C 290.824 211.554,292.110 210.697,301.374 202.433 C 307.465 197.000,309.529 195.463,310.038 195.978 C 310.234 196.176,310.081 199.174,309.662 203.318 C 307.684 222.911,309.650 233.732,315.303 234.369 C 318.949 234.780,320.161 233.214,323.503 223.771 C 325.983 216.767,328.874 209.288,329.028 209.478 C 335.866 217.875,340.381 225.368,338.897 225.857 C 330.256 228.704,327.591 237.795,333.798 243.245 C 340.601 249.218,348.773 241.729,347.894 230.328 C 347.679 227.551,347.697 227.465,348.491 227.465 C 350.078 227.465,353.773 225.310,357.235 222.366 C 364.343 216.321,364.381 216.281,364.102 215.169 C 363.649 213.364,362.948 213.636,359.054 217.129 C 352.814 222.725,346.544 226.383,346.544 224.426 C 346.544 223.551,343.491 217.584,340.315 212.251 C 333.754 201.236,332.987 197.808,336.656 195.910 C 340.275 194.039,343.771 197.216,343.315 201.962 C 343.082 204.396,344.348 204.804,345.272 202.592 C 347.440 197.404,342.509 191.705,335.853 191.705 C 328.576 191.705,324.293 197.737,326.735 204.547 L 327.309 206.146 322.825 217.241 C 316.926 231.838,316.732 231.866,317.600 217.999 C 318.393 205.318,318.339 196.383,317.458 194.441 C 315.841 190.881,312.370 190.302,308.410 192.932 L 306.349 194.300 305.223 193.017 C 298.251 185.076,283.245 191.672,281.790 203.318 C 281.657 204.389,280.437 207.710,278.880 211.244 C 277.405 214.590,275.085 220.065,273.724 223.410 C 272.362 226.756,270.812 230.323,270.278 231.336 L 269.309 233.180 269.199 231.685 C 269.138 230.862,269.764 225.719,270.590 220.256 C 273.624 200.174,273.428 194.800,269.595 192.981 C 266.302 191.419,263.159 193.089,260.084 198.036 C 257.096 202.842,257.064 202.868,256.800 200.694 C 255.830 192.702,254.296 190.166,250.826 190.817 C 247.509 191.439,244.917 195.681,242.523 204.404 C 241.118 209.527,241.122 209.532,239.823 201.487 C 238.574 193.744,238.162 192.877,235.965 193.360 C 233.011 194.008,231.892 199.538,233.044 207.788 L 233.463 210.783 230.144 218.295 C 228.319 222.426,225.790 228.171,224.525 231.061 C 223.259 233.951,221.883 236.749,221.467 237.278 L 220.710 238.241 220.124 237.185 C 218.159 233.639,219.940 203.715,223.085 187.450 L 223.872 183.380 227.604 182.711 C 235.004 181.384,245.085 178.503,252.535 175.586 C 257.431 173.668,257.696 173.497,257.696 172.262 C 257.696 171.169,258.085 171.084,251.429 173.630 C 243.525 176.653,225.438 181.378,224.733 180.603 C 224.662 180.525,224.908 178.802,225.281 176.774 C 226.516 170.061,225.994 168.111,222.966 168.111 C 219.809 168.111,216.842 171.783,214.712 178.326 L 213.726 181.352 212.209 181.526 C 205.402 182.307,203.663 182.572,201.193 183.203 C 193.500 185.171,185.935 189.850,183.751 193.991 C 181.864 197.569,184.495 197.477,187.704 193.852 C 192.626 188.293,199.693 185.333,210.098 184.473 L 213.191 184.217 212.951 185.496 C 212.176 189.631,211.545 198.389,211.354 207.681 L 211.136 218.312 208.218 222.721 C 205.569 226.726,200.900 232.258,200.170 232.258 C 200.008 232.258,199.504 231.656,199.049 230.920 C 198.594 230.184,196.286 227.532,193.920 225.027 C 186.434 217.100,185.805 212.601,191.610 208.521 C 194.865 206.234,196.498 207.238,196.498 211.530 C 196.498 215.549,198.514 214.028,198.964 209.668 C 200.191 197.773,180.885 207.106,179.307 219.171 C 179.139 220.454,178.192 222.656,176.188 226.420 C 167.376 242.975,165.797 244.730,167.132 236.478 C 169.577 221.373,168.267 211.610,163.796 211.614 C 159.561 211.618,158.008 215.218,157.588 225.996 L 157.401 230.804 154.211 236.047 C 147.399 247.242,141.487 255.729,141.268 254.629 C 141.105 253.814,143.230 246.076,144.918 241.341 C 147.300 234.658,147.176 232.605,144.328 231.564 C 143.519 231.268,141.825 230.303,140.564 229.420 L 138.271 227.813 139.351 225.688 C 142.996 218.515,141.763 213.094,136.486 213.089 C 127.334 213.081,124.093 226.997,132.184 231.563 L 134.172 232.685 132.533 235.948 C 128.708 243.564,122.778 253.198,120.733 255.120 L 119.816 255.981 119.822 254.534 C 119.826 253.739,120.155 250.101,120.553 246.452 C 124.116 213.798,114.042 208.154,99.918 234.893 L 98.127 238.284 97.750 236.838 C 97.002 233.973,96.491 229.320,96.872 228.845 C 111.395 210.761,115.733 202.631,117.773 189.677 C 120.241 173.996,116.530 165.335,108.600 168.270 M114.037 172.894 C 120.883 181.030,110.776 211.312,96.500 225.438 C 95.435 226.492,96.887 207.919,98.589 198.710 C 101.917 180.711,109.688 167.725,114.037 172.894 M302.697 193.566 C 305.533 195.002,304.699 195.995,294.239 203.637 C 289.147 207.358,287.058 205.336,289.974 199.508 C 292.896 193.667,298.100 191.237,302.697 193.566 M162.367 196.824 C 158.540 199.158,159.622 205.790,163.741 205.238 C 167.489 204.735,169.545 199.719,167.033 197.207 C 165.748 195.922,164.072 195.785,162.367 196.824 M138.081 215.836 C 139.522 217.277,139.179 220.560,137.124 224.983 L 136.650 226.003 135.742 225.167 C 133.666 223.258,132.931 219.867,134.021 217.223 C 135.023 214.794,136.526 214.280,138.081 215.836 M340.947 230.138 C 342.496 236.242,340.988 240.737,337.392 240.737 C 330.224 240.737,332.905 229.631,340.321 228.603 C 340.446 228.586,340.728 229.276,340.947 230.138 M278.343 236.295 C 276.903 236.663,277.021 237.506,279.281 242.994 C 281.792 249.091,281.892 248.845,277.647 247.004 C 273.712 245.297,272.557 245.163,272.105 246.359 C 271.568 247.782,272.242 248.286,277.862 250.669 L 283.322 252.984 286.341 260.584 C 288.001 264.764,289.305 268.237,289.240 268.302 C 288.779 268.763,281.875 265.155,281.644 264.332 C 279.532 256.806,278.994 255.861,277.235 256.590 C 275.901 257.142,275.895 257.252,277.017 260.689 C 277.506 262.186,277.878 263.439,277.843 263.475 C 277.432 263.903,272.451 261.167,272.149 260.348 C 271.947 259.802,271.000 257.198,270.043 254.562 C 268.268 249.673,267.677 248.737,266.600 249.109 C 265.037 249.649,265.051 250.222,266.734 254.969 L 268.354 259.535 266.988 258.954 C 258.837 255.488,258.351 255.366,257.683 256.615 C 256.966 257.953,258.047 258.853,262.731 260.821 C 265.501 261.985,266.827 262.707,266.359 262.797 C 265.954 262.875,264.592 263.418,263.333 264.004 C 262.075 264.590,260.939 265.069,260.810 265.069 C 260.046 265.069,258.490 266.636,258.690 267.202 C 259.389 269.176,259.871 269.242,263.128 267.810 C 265.738 266.663,266.817 266.206,269.031 265.313 L 271.334 264.384 274.077 265.577 L 276.819 266.769 274.354 268.009 C 270.330 270.033,269.740 270.779,270.983 272.276 C 271.671 273.106,272.172 272.962,276.629 270.657 L 280.795 268.504 283.994 269.808 L 287.193 271.113 285.071 271.923 C 283.904 272.369,282.452 272.944,281.843 273.202 C 281.235 273.460,280.654 273.699,280.553 273.734 C 279.981 273.928,278.716 274.443,277.419 275.009 C 276.608 275.363,275.115 275.953,274.101 276.320 C 273.088 276.688,272.100 277.127,271.908 277.296 C 271.076 278.027,269.871 277.550,264.652 274.423 C 262.397 273.072,261.348 272.885,260.662 273.712 C 259.943 274.579,260.364 275.870,261.567 276.485 C 262.175 276.796,262.756 277.134,262.857 277.235 C 262.959 277.336,263.826 277.829,264.786 278.330 C 266.829 279.396,266.820 279.411,263.226 280.736 C 257.462 282.862,256.317 283.868,257.727 285.568 C 258.378 286.351,262.537 285.137,266.896 282.890 C 268.253 282.191,268.250 282.291,266.758 287.558 C 265.767 291.056,265.983 291.801,268.107 292.218 C 268.865 292.367,269.433 291.158,270.385 287.373 C 270.742 285.954,271.119 284.461,271.223 284.055 C 271.326 283.650,271.495 282.867,271.598 282.316 C 271.843 281.005,272.094 280.825,275.576 279.468 C 277.198 278.836,278.899 278.158,279.355 277.961 C 279.811 277.765,280.558 277.460,281.014 277.284 C 281.470 277.109,282.258 276.785,282.765 276.566 C 284.621 275.762,289.112 273.917,289.214 273.917 C 289.272 273.917,288.632 275.576,287.793 277.604 L 286.267 281.291 283.687 282.046 C 278.993 283.420,277.799 284.011,277.678 285.021 C 277.455 286.887,278.543 287.238,281.567 286.275 C 284.518 285.336,284.530 285.345,283.554 287.619 C 281.509 292.385,281.337 292.650,280.109 292.920 C 279.454 293.064,278.664 293.311,278.353 293.470 C 278.042 293.629,276.959 294.045,275.945 294.395 C 270.815 296.163,269.940 296.891,270.757 298.710 C 271.072 299.412,272.976 299.614,273.364 298.986 C 273.489 298.783,273.847 298.618,274.160 298.618 C 274.472 298.618,275.250 298.385,275.889 298.101 C 277.313 297.468,279.447 296.768,279.447 296.935 C 279.447 297.002,278.772 298.679,277.947 300.661 C 276.348 304.504,276.283 305.752,277.664 306.113 C 279.035 306.472,279.566 305.816,281.301 301.618 L 282.980 297.556 284.786 301.259 C 286.710 305.205,287.093 305.584,288.503 304.941 C 289.780 304.359,289.669 303.847,287.142 298.652 C 284.450 293.119,284.534 293.959,286.265 289.869 L 287.677 286.537 288.867 289.021 C 290.160 291.718,291.091 292.339,292.283 291.299 C 293.189 290.507,293.123 290.218,291.097 286.118 L 289.384 282.650 290.735 279.390 C 291.478 277.596,292.211 276.129,292.364 276.129 C 292.662 276.129,298.250 289.892,298.248 290.622 C 298.247 290.863,297.187 293.502,295.892 296.488 L 293.538 301.916 294.418 302.865 C 295.713 304.263,296.685 303.343,298.625 298.883 C 299.488 296.901,300.241 295.326,300.299 295.384 C 300.357 295.441,301.232 297.559,302.244 300.090 C 304.295 305.218,305.035 306.091,306.510 305.125 C 307.599 304.412,307.592 304.380,305.030 298.127 C 303.964 295.525,303.287 293.478,303.527 293.577 C 303.767 293.676,305.406 294.374,307.170 295.128 C 310.646 296.614,311.364 296.604,311.752 295.061 C 312.076 293.768,311.630 293.461,305.856 291.008 L 301.394 289.112 300.706 287.321 C 299.925 285.291,300.046 285.594,297.583 279.539 C 296.572 277.055,295.846 275.023,295.969 275.023 C 296.677 275.023,302.673 277.774,302.673 278.098 C 302.673 278.798,305.027 284.780,305.489 285.253 C 307.264 287.074,308.610 284.817,307.507 281.869 C 307.078 280.724,306.728 279.716,306.728 279.628 C 306.728 279.313,311.346 281.422,311.764 281.929 C 311.999 282.214,312.806 284.053,313.556 286.016 C 316.279 293.140,316.250 293.088,317.437 293.088 C 319.511 293.088,319.543 292.247,317.649 287.449 C 315.915 283.055,315.664 283.238,320.553 285.337 C 325.015 287.253,325.754 287.366,326.494 286.250 C 327.332 284.987,326.303 284.127,321.642 282.197 L 317.356 280.422 318.402 279.855 C 318.977 279.542,320.590 278.757,321.987 278.110 C 325.838 276.326,326.533 275.716,326.015 274.579 C 325.200 272.790,324.987 272.844,316.285 277.031 L 313.122 278.553 310.450 277.445 C 307.810 276.349,307.791 276.331,308.820 275.931 C 311.849 274.754,312.258 274.558,312.258 274.280 C 312.258 274.113,312.351 273.736,312.464 273.442 C 313.060 271.887,310.700 271.296,308.387 272.420 C 307.576 272.814,306.192 273.465,305.311 273.866 L 303.709 274.596 300.702 273.300 C 299.049 272.587,297.281 271.834,296.774 271.626 C 296.115 271.356,296.010 271.201,296.406 271.081 C 297.080 270.877,297.903 270.539,300.180 269.530 C 301.141 269.104,302.014 268.756,302.120 268.756 C 302.226 268.756,303.015 268.447,303.875 268.069 C 304.735 267.691,306.184 267.091,307.097 266.734 C 310.009 265.597,310.585 265.359,311.275 265.004 C 311.787 264.740,313.252 265.209,317.330 266.940 C 323.112 269.395,323.871 269.454,323.871 267.443 C 323.871 266.463,323.616 266.286,319.900 264.687 L 315.929 262.979 317.503 262.507 C 318.370 262.248,319.742 261.740,320.553 261.378 C 321.364 261.016,322.897 260.343,323.958 259.882 C 326.119 258.944,326.667 258.011,325.690 256.932 C 324.907 256.067,324.036 256.036,322.268 256.812 C 321.527 257.137,320.507 257.574,320.000 257.783 C 316.672 259.156,314.773 259.908,314.630 259.908 C 314.564 259.908,314.935 258.954,315.454 257.788 C 317.588 252.992,317.836 250.614,316.244 250.198 C 315.000 249.872,313.733 251.432,313.167 253.989 C 312.975 254.856,311.573 258.812,310.926 260.311 C 310.508 261.281,309.943 261.809,308.818 262.281 C 307.973 262.636,306.721 263.178,306.036 263.485 C 305.351 263.791,304.605 264.083,304.377 264.133 C 303.819 264.255,301.170 265.369,300.374 265.816 C 300.022 266.013,299.557 266.175,299.342 266.175 C 299.127 266.175,298.264 266.507,297.424 266.912 C 296.585 267.318,295.853 267.650,295.798 267.650 C 294.701 267.650,298.378 261.897,299.750 261.467 C 300.648 261.186,301.631 260.858,301.935 260.740 C 302.240 260.621,302.571 260.496,302.673 260.461 C 302.774 260.426,303.106 260.300,303.410 260.182 C 303.714 260.063,304.449 259.819,305.043 259.639 C 307.068 259.024,307.270 257.358,305.421 256.515 C 304.732 256.201,304.284 256.189,303.832 256.471 C 303.485 256.688,302.626 256.988,301.923 257.139 C 301.220 257.289,300.446 257.573,300.202 257.769 C 299.958 257.965,300.372 256.687,301.123 254.927 L 302.488 251.729 306.728 250.107 C 313.022 247.699,314.563 246.369,312.372 245.234 C 311.394 244.727,310.468 244.961,305.486 246.971 C 304.618 247.321,304.463 247.307,304.622 246.893 C 304.728 246.615,305.514 244.705,306.367 242.649 C 307.904 238.946,308.009 237.974,306.920 237.556 C 305.459 236.995,304.679 237.718,303.405 240.819 C 302.716 242.497,301.952 244.261,301.708 244.738 L 301.265 245.606 300.784 244.738 C 300.519 244.261,300.286 243.788,300.266 243.687 C 299.718 240.962,297.365 238.552,295.977 239.295 C 294.789 239.931,294.932 240.397,298.576 247.731 L 299.578 249.748 298.305 252.800 C 296.803 256.403,296.787 256.410,295.699 253.917 C 294.604 251.406,293.389 250.705,292.198 251.897 C 291.566 252.529,293.331 257.998,294.599 259.336 C 295.159 259.927,294.981 260.775,293.664 263.803 L 292.398 266.716 291.690 265.063 C 291.085 263.650,290.485 262.049,290.311 261.382 C 290.284 261.281,289.903 260.396,289.463 259.416 C 289.023 258.436,288.664 257.480,288.664 257.292 C 288.664 257.103,288.512 256.660,288.327 256.308 C 286.209 252.273,286.195 252.403,289.440 245.642 C 291.509 241.331,291.569 240.967,290.347 240.167 C 289.135 239.372,288.250 239.889,287.357 241.913 C 286.972 242.787,286.561 243.585,286.444 243.687 C 286.327 243.788,285.878 244.700,285.446 245.714 L 284.661 247.558 284.247 246.452 C 281.013 237.799,279.906 235.895,278.343 236.295 M194.574 243.234 C 194.867 248.298,191.510 252.410,188.070 251.200 C 184.692 250.012,186.842 244.570,192.232 240.665 C 194.093 239.317,194.364 239.614,194.574 243.234 " stroke="none" fill="#000000" fill-rule="evenodd"></path></g></svg>