<?xml version="1.0" encoding="utf-8"?>
<!-- Generator: Adobe Illustrator 24.1.2, SVG Export Plug-In . SVG Version: 6.00 Build 0)  -->
<svg version="1.1" id="Слой_1" xmlns="http://www.w3.org/2000/svg" xmlns:xlink="http://www.w3.org/1999/xlink" x="0px" y="0px"
	 viewBox="0 0 720 302.81" style="enable-background:new 0 0 720 302.81;" xml:space="preserve">
<style type="text/css">
	.st0{fill:#F80000;}
</style>
<path class="st0" d="M489.05,136.89c-1.49-1.87-2.36-3.25-3.08-4.46c1.41-0.09,2.8-0.3,4.02-0.8c5.41-2.19,10.43-6.21,14.6-10.32
	c11.32-11.17,13.62-23.51,15.78-38.76c3.63-25.71,6.03-51.61,7.21-77.57l1.2-4.99c-6.72,5.06-13.44,10.5-19.38,16.51
	c-4.54,4.6-11.22,10.09-13.54,16.4c-0.68,1.86-0.78,3.89-0.86,5.88c-0.16,3.74-0.33,7.48-0.49,11.23c-3-2.61-6-5.22-8.99-7.83
	c-0.16-0.14-0.34-0.29-0.55-0.3c-0.37-0.03-0.64,0.34-0.83,0.66c-3.98,6.64-8.35,13.08-12.23,19.72
	c-6.98,11.96-11.56,23.54-10.49,37.7c0.81,10.69,5.04,19.88,9.14,29.55c3.39-17.53,10.48-34.04,17.51-50.39
	c4.23-9.82,8.45-19.63,12.68-29.45c-3.08,15.22-7.05,29.44-11.43,43.56c-3.87,10.2-7.49,20.5-10.69,30.94
	c-0.67,2.19-1.28,4.4-1.91,6.6c-0.51,0.32-1.02,0.64-1.56,0.92c-2.49,1.26-5.1,2.26-7.66,3.36c-1,0.43-2.01,0.83-3.04,1.18
	c-0.6,0.21-1.21,0.4-1.83,0.58c-0.26,0.08-1.72,0.67-1.9,0.52c2.18,1.67,4.76,2.82,7.5,3.11c0.78,0.08,1.58,0.1,2.37,0.11
	c-5.62,6.45-13.19,11.3-21.03,14.5c-5.31,2.17-11.41,3.02-16.8,0.6c-6.88-3.1-12-12.8-8.4-19.9c2.26-4.45-3.94-8.09-6.69-3.91
	c-4.76,7.24-12.2,12.92-19.03,18.14c-5.95,4.54-13.4,9.96-20.87,11.47c-11.69,2.36,0.69-15.55,3.52-18.49
	c3.56-3.71,7.53-7.09,11.94-9.75c3.93-2.36,9.47-5.64,13.99-3.25c4.4,2.33,8.32-4.35,3.91-6.69c-9.96-5.27-21,1.52-29.29,8.6
	c-13.77,6.92-27.32,15.04-42.4,18.73c-2.34,0.57-6.01,1.2-10.1,1.52c0.61-1.66,1.19-3.35,1.6-5.18c1.95-8.88,3.71-20.83-4.52-27.08
	c-6.34-4.82-14.68-2.57-20.36,2.13c-5.1,4.22-9.02,10.81-9.52,17.56c-0.5,0.45-0.96,0.93-1.43,1.42
	c-16.21,6.13-31.91,13.39-46.98,21.75c0.82-3.35,1.66-6.7,2.42-10.06c1.37-6.11,5.67-17.07-2.35-20.48c-3.61-1.53-7.69,0-10.85,1.93
	c-5.19,3.16-9.92,7.49-14.75,11.18c-4.26,3.25-8.43,6.58-12.6,9.95c-2.53,2.06-11.05,8.56-14.56,4.92
	c-2.82-2.92,0.81-8.11,2.55-10.59c5.44-7.73,12.97-15.56,22.06-18.76c3.85-1.35,10.27-3.33,13.81-0.35c3.79,3.19,9.3-2.26,5.48-5.48
	c-11.11-9.35-28.7,0.12-37.42,8.47c-0.93,0.89-2.05,2.01-3.24,3.27c-20.29,6.97-41.3,5.96-62.5,5.82
	c-14.34-0.09-28.69,0.27-43.03,0.34c-4.81,0.02-9.62,0-14.5-0.05c-8.23-5.83-16.28-11.91-24.6-17.61c-1.71-1.17-4.46-0.38-5.41,1.42
	c-1.06,2.01-0.41,4.16,1.42,5.41c5.15,3.53,10.21,7.19,15.26,10.87c-3.86,0.01-7.71,0.01-11.67-0.08
	c-8.76-6.2-17.5-12.43-26.35-18.49c-1.76-1.21-4.38-0.33-5.41,1.42c-1.14,1.96-0.35,4.2,1.42,5.41c5.64,3.86,11.2,7.83,16.78,11.77
	c-4.12,0-8.24,0.01-12.36,0.01c-0.05-0.04-0.08-0.09-0.13-0.13c-6.76-4.78-13.61-9.44-20.55-13.95c-1.74-1.13-4.44-0.41-5.41,1.42
	c-1.04,1.97-0.44,4.2,1.42,5.41c3.62,2.35,7.14,4.84,10.71,7.27c-3.35,0-6.7,0.01-10.04,0.01c-4.98,0-4.99,7.75,0,7.75
	c3,0,6-0.01,9-0.01c-3.39,2.46-6.8,4.88-10.17,7.37c-1.66,1.23-2.66,3.48-1.42,5.41c1.06,1.64,3.63,2.73,5.41,1.42
	c6.48-4.81,13.03-9.53,19.6-14.21c4.06,0,8.12-0.01,12.18-0.02c-5.66,3.88-11.33,7.74-17,11.61c-1.76,1.2-2.55,3.47-1.42,5.41
	c1.02,1.74,3.64,2.63,5.41,1.42c8.97-6.13,17.98-12.2,26.86-18.46c3.69,0,7.39-0.01,11.08-0.01c-2.87,1.96-5.73,3.95-8.6,5.91
	c-1.7,1.16-2.63,3.53-1.42,5.41c1.09,1.69,3.58,2.67,5.41,1.42c6.2-4.24,12.42-8.44,18.56-12.75c5.84-0.02,11.67,0.01,17.51-0.02
	c14.91-0.07,29.83-0.48,44.74-0.3c17.27,0.2,34.45,0.54,51.16-3.26c-3.87,6.4-5.79,13.43-0.68,18.56c4.4,4.42,12.18,3.17,17.22,0.75
	c8.34-4,15.62-11.58,22.93-17.17c3.93-3,7.99-7.15,12.51-9.21c3.22-1.47,2.68-0.08,2.16,2.78c-0.55,2.99-1.28,5.96-1.95,8.92
	c-1.23,5.42-2.54,10.83-3.92,16.21c-18.21,10.86-35.37,23.48-51.12,37.96c-15.51,14.26-29.59,30.64-38.65,49.81
	c-5.65,11.95-15.06,34.91,0,44.13c13.06,7.99,29.88-1.84,40.16-9.98c14.21-11.27,24-27.08,31.41-43.41
	c8.68-19.13,15.24-39.34,21.06-59.5c1.34-4.65,2.59-9.34,3.82-14.02c13.85-8.03,28.29-15.03,43.06-21.04
	c-2.02,6.4-1.45,13.23,3.42,18.15c7.34,7.41,17.37,4.37,24.73-1.19c3.37-2.55,6.07-5.41,8.3-8.57c14.9,0.09,29.31-5.86,43-12.68
	c-3.31,5.86-4.94,12.43-1.2,17.76c6.56,9.38,21.02,0.87,27.97-3.4c7.22-4.44,14.86-9.95,21.23-16.3c0.95,4.28,3.09,8.35,6.12,11.71
	c5.59,6.2,14.06,8.33,22.13,7.14c9.9-1.46,19.58-6.79,27.3-14.03c-1.59,7.06-2.97,14.16-4.03,21.32
	c-1.59,10.76-5.44,25.48,4.64,33.16c3.97,3.02,7.83-3.71,3.91-6.69c-4.67-3.56-2.55-12.85-1.97-17.71
	c0.88-7.39,2.1-14.73,3.58-22.02c1.33-6.51,2.88-12.96,4.6-19.38c1.71,1.58,3.56,2.97,5.72,3.88c2.37,0.99,5.02,1.38,7.54,0.89
	C493.38,141.99,490.28,138.44,489.05,136.89z M234.61,183.8c-5.78,20.15-12.21,40.48-20.96,59.56
	c-7.29,15.88-16.85,31.53-31.15,42.03c-6.54,4.8-14.76,9.87-23.2,9.49c-9.39-0.42-11.39-8.27-9.85-16.33
	c3.96-20.74,17.12-39.53,31.25-54.71c16.29-17.5,35.06-32.52,55.33-45.24C235.54,180.34,235.1,182.07,234.61,183.8z M305.94,166.25
	c-7.28,2.45-11.56-3.92-10.15-10.48c0.47-2.21,1.44-4.58,2.76-6.74c2.92,5.11,8.56,8.37,14.45,9.82c1.03,0.25,2.05,0.41,3.08,0.6
	C313.43,162.41,310.15,164.83,305.94,166.25z M320.79,152.28c-7.89-0.45-15.16-2.8-16.35-9.23c1.49-0.83,3.13-1.32,4.9-1.34
	c4.98-0.05,4.99-7.79,0-7.75c-1.12,0.01-2.23,0.18-3.33,0.43c1.56-3.17,3.97-6.01,6.83-7.77c6.43-3.96,12.02-0.03,11.87,7.41
	C324.59,140.19,323.4,146.66,320.79,152.28z"/>
<path class="st0" d="M718.75,140.58c-1.75-1.72-4.4-2.31-6.57-3.29c-3.19-1.45-6.38-2.88-9.57-4.31c-6.28-2.8-12.57-5.58-18.86-8.38
	c-1.91-0.85-4.16-0.55-5.3,1.39c-1.92,3.29,1.19,6.21,3,8.53c0.97,1.25,3.39,3.84,4.66,5.33c-14.07,0-28.14-0.13-42.21-0.17
	c-7.71-0.02-15.41-0.01-23.12,0.05c-7.71,0.06-15.47,0.55-23.17,0.39c-17.53-0.37-35.07,2.51-51.55,8.5
	c-6.33-4.37-13.82-6.48-21.3-8.61c-9.31-2.65,2-7.3,5.67-8.79c6.05-2.46,12.44-4.07,18.92-4.84c4.89-0.58,4.95-8.33,0-7.75
	c-8.33,0.98-16.31,2.99-24,6.37c-5.7,2.51-13.58,6.39-12.16,13.94c1.5,7.93,10.47,8.37,16.66,10.31c1.82,0.57,4.52,1.57,7.29,2.92
	c-6.63,2.91-13.05,6.27-19.16,10.16c-6.8,4.34-15.53,9.58-20.21,16.31c-4.55,6.54-1.52,14.87,6.65,15.76
	c8.61,0.94,18.34-1.98,26.11-5.41c12.1-5.33,33.38-19.84,21.94-34.42c14.54-4.75,29.79-7.03,45.36-6.7
	c7.18,0.15,14.41-0.31,21.59-0.37c7.2-0.07,14.4-0.08,21.59-0.07c15.3,0.03,30.61,0.09,45.88,0.09c-2.64,3.17-3.97,4.6-6.03,6.87
	c-1.64,1.81-4.04,3.61-2.44,6.36c1.15,1.97,3.38,2.24,5.3,1.39c5.78-2.58,11.57-5.14,17.36-7.72c2.89-1.29,5.78-2.58,8.67-3.89
	c1.74-0.79,3.43-1.56,5.15-2.38c2.29-1.09,5.11-1.83,5.08-4.77C719.99,142.39,719.59,141.4,718.75,140.58z M547.97,165.19
	c-0.95,3.48-4.85,6.5-7.49,8.7c-3.35,2.79-7.1,5.14-11.01,7.08c-3.45,1.71-7.07,3.03-10.8,4.01c-3.55,0.93-9.18,2.76-12.79,1.77
	c-6.38-1.75,2.42-7.81,4.44-9.45c3.48-2.82,7.14-5.43,10.9-7.86c6.82-4.4,14.03-8.23,21.53-11.33c0.72-0.3,1.45-0.55,2.18-0.84
	C547.34,159.57,548.78,162.25,547.97,165.19z"/>
<path d="M403.57,112.7c4.11,0,8.02,0.97,11.64,2.88c2.51,1.33,4.39,3.35,5.48,5.72c0.06,0,0.12,0,0.18,0c0.31,0,0.61,0.1,0.92,0.12
	V52.86h-46.88v72.79c0.7-0.36,1.39-0.73,2.09-1.08C386.57,116.58,395.27,112.7,403.57,112.7z"/>
<path d="M447.73,146.41c0.9-0.5,1.88-0.84,2.81-1.28c1.11-0.51,2.23-1.07,3.25-1.76c0.63-0.43,1.27-0.84,1.9-1.27
	c-0.2-0.29-0.59-0.45-0.86-0.68c-0.37-0.32-0.71-0.7-1.05-1.05c-0.71-0.74-1.37-1.53-1.98-2.35c-0.54-0.73-1.05-1.49-1.51-2.27
	c-0.13-0.22-0.6-0.97-1.17-2.25c4.35-0.22,8.63-1.69,12.19-4.21c-2.49-4.1-4.06-8.96-5.52-13.54c-1.56-4.91-2.66-9.98-3.05-15.12
	c-1.34-17.79,5.14-31.59,11.65-42.75c0.99-1.69,2.06-3.35,3.1-5.02h-14.25l-12.67,95.48c1.76-0.1,3.7-0.51,5.72-1.34
	C446.76,146.8,447.27,146.67,447.73,146.41z"/>
<path d="M662.74,82.08c-1.04-5.83-3.64-11.11-7.79-15.87c-4.16-4.75-10.22-8.17-18.2-10.24c-7.98-2.08-23.29-3.12-45.93-3.12h-35.07
	v58.6c3.39,1.94,5.74,5.5,5.99,9.81c0.29,5-2.12,9.39-5.99,11.83v3.44c12.64-3.37,25.64-5.16,38.84-5.16c1.07,0,5.26,0.07,6.3,0.07
	c0.58,0,1.16-0.03,1.74-0.04V83.7c5.12,0,8.61,0.54,10.47,1.61c1.86,1.08,3.04,2.77,3.56,5.07c0.52,2.3,0.78,7.54,0.78,15.7v25
	c1.09-0.02,2.18-0.07,3.27-0.07c5.45-0.04,10.89-0.06,16.34-0.06l6.87,0.01c4.2,0.01,14.11,0.06,20.39,0.09v-14.62
	C664.3,99.36,663.78,87.91,662.74,82.08z"/>
<path d="M210.95,174.28c-4.1,1.96-8.7,3.04-12.95,3.04c-3.14,0-6-0.63-8.57-1.74c0.16,6.14,0.53,11.59,1.11,16.36
	c12.63-10.76,26.26-20.71,40.8-29.6c0.3-1.21,0.6-2.42,0.9-3.64c-1.12,0.92-2.23,1.88-3.36,2.83
	C223.38,166.21,217.7,171.04,210.95,174.28z"/>
<path d="M511.81,155.91c0,0,2.75-1.74,3.39-2.13c-1.93-0.93-3.82-2.15-5.49-3.74l-12.37,2.44c-0.96,0.19-1.96,0.24-2.96,0.29
	c0.54,5.16,1.07,10.1,1.61,14.76C500.9,162.86,506.79,159.1,511.81,155.91z"/>
<path d="M504.57,140.07c-0.45-2.75-0.29-5.22,0.32-7.41c-1.61,1.28-3.22,2.47-4.82,3.49c0.45,0.44,0.87,0.84,1.22,1.14
	L504.57,140.07z"/>
<path d="M488.56,192.61c-2.76-6.06-1.99-13.15,2.06-18.96c1.21-1.74,2.61-3.35,4.11-4.88h-9.95c-0.75,4.37-1.42,8.67-1.91,12.82
	c-0.09,0.71-0.2,1.5-0.32,2.35c-0.27,1.89-0.88,6.14-0.49,7.89c2.69,2.31,4.22,5.5,4.42,8.9h9.64
	C492.81,198.88,490.15,196.1,488.56,192.61z"/>
<path d="M208.12,224.77c1.01,0.7,2.06,1.32,3.12,1.9c3.58-9.04,6.75-18.19,9.54-27.05c-7.43,5.58-14.4,11.46-20.99,17.56
	C202.11,219.97,204.85,222.52,208.12,224.77z"/>
<path d="M530.06,113.94l-2.87-19.28c-1.74,8.77-4.32,16.76-9.39,24.27c1.61-0.84,3.04-1.48,4.04-1.92
	C524.52,115.84,527.27,114.85,530.06,113.94z"/>
<path d="M534.05,196.95c-6.55,2.89-16.42,6.33-26.26,6.33c-1.46,0-2.9-0.08-4.31-0.23c-2.17-0.23-4.2-0.83-6.07-1.69l2.47,31.77
	h47.91l-5.98-40.18C538.27,195.01,535.36,196.37,534.05,196.95z"/>
<path d="M412.55,219.15c4.38-5.83,7.01-11.51,7.91-17.04c0.89-5.53,1.34-15.12,1.34-28.78v-5.02c-2.21-1.43-4.26-3.12-6.04-5.1
	c-0.95-1.06-1.83-2.16-2.65-3.31c-4.13,3.25-8.7,6.42-13.68,9.48c-7.18,4.42-15.65,8.93-24.04,8.93c-0.16,0-0.31-0.05-0.48-0.05
	v7.43c0,8.98-0.43,14.68-1.28,17.09c-0.86,2.41-2.77,3.62-5.74,3.62c-2.6,0-4.32-1.09-5.18-3.28c-0.85-2.19-1.28-7.22-1.28-15.09
	v-15.78c-0.57-0.62-1.19-1.18-1.69-1.89c-1.26-1.8-2.67-4.46-3.33-7.94c-8.47,3.31-17.56,5.87-26.98,6.45
	c-2.19,2.56-4.64,4.85-7.39,6.93c-1.96,1.48-4.45,3.08-7.31,4.41c0.18,8.99,0.48,15.49,0.94,19.34c0.74,6.35,3.15,12.38,7.24,18.09
	c4.08,5.72,10.24,10.35,18.48,13.92c8.24,3.56,17.74,5.34,28.5,5.34c9.72,0,18.17-1.5,25.33-4.51
	C402.4,229.39,408.17,224.98,412.55,219.15z"/>
<path d="M295.42,202.57c1.1-4.04,1.81-10.73,2.13-19.94c-4.37-0.92-8.35-3.09-11.67-6.45c-3.08-3.11-5.17-6.83-6.24-10.94
	c-9.17,4.15-18.06,8.65-26.56,13.45c-0.95,3.57-1.92,7.13-2.94,10.68c-2,6.91-11.41,35.91-14.34,43.51
	c0.65,0.02,1.29,0.07,1.94,0.07c11.32,0.07,22.8-0.01,32.99-3.85l17.08,19.68l26.46-23.99l-19-21.81
	C295.31,202.85,295.38,202.71,295.42,202.57z"/>
<path d="M466.99,211.89c-13.12-9.99-10.37-26.69-8.56-37.74c0.2-1.24,0.71-4.54,0.78-5c-4.47,1.97-9.04,3.32-13.59,3.99
	c-1.84,0.27-3.7,0.41-5.54,0.41c-0.97,0-1.91-0.06-2.85-0.14l-7.92,59.72h48.46l1.73-19.94c-1.59,0.8-3.35,1.26-5.18,1.26
	C471.71,214.44,469.18,213.56,466.99,211.89z"/>
<path d="M331.69,112.94c9.87,7.5,10.25,19.61,9.14,28.27c7-2.08,13.75-5.18,20.61-8.63V52.86h-46.87v55.99
	c1.26-0.2,2.52-0.36,3.78-0.36C323.24,108.48,327.85,110.02,331.69,112.94z"/>
<path d="M619.51,156.2c-0.7,0.01-1.39,0.04-2.09,0.05v19.87c0,12.03-0.78,19.39-2.34,22.1c-1.56,2.71-5.72,4.06-12.47,4.06v-45.71
	c-0.58,0.01-1.17,0.04-1.75,0.04c-1.07,0-5.01-0.06-5.91-0.06c-10.4,0-20.69,1.24-30.69,3.71c0.39,2.72,0.24,5.51-0.46,8.31
	c-1.3,5.2-4.36,9.77-8.06,13.65v50.91h59.13c11.21,0,19.6-0.61,25.16-1.84c5.57-1.22,10.24-3.38,14.03-6.46
	c3.78-3.08,6.44-7.35,7.96-12.8c1.52-5.46,2.28-16.27,2.28-32.46v-23.38c-9.44-0.02-27.18-0.06-27.18-0.06
	C631.25,156.13,625.38,156.14,619.51,156.2z"/>
<path d="M152.44,159.19c-3.82,0-7.66-0.04-11.5-0.09l-1.57-0.02c-2.62-0.03-5.25-0.04-7.87-0.04c-6.51,0-13.03,0.08-19.54,0.17
	c7.71,5.28,12.76,9.22,15.1,11.79c2.89,3.27,4.34,10.21,4.34,20.82c0,4.83-0.76,8.46-2.28,10.91c-1.52,2.45-3.84,3.67-6.96,3.67
	s-5.29-0.96-6.51-2.89c-1.22-1.93-1.84-6.27-1.84-13.03v-21.93H70.28v11.8c0,13.51,1.37,23.94,4.12,31.29
	c2.74,7.35,8.55,13.4,17.43,18.15c8.87,4.75,19.58,7.13,32.12,7.13c11.34,0,21.28-2.04,29.84-6.09c5.72-8.04,12.5-15.99,20.43-23.93
	c1.15-5.34,1.73-11.94,1.73-19.86c0-11.67-1.26-21.08-3.63-28.5C165.35,159.06,158.61,159.19,152.44,159.19z"/>
<path d="M195.9,127.19c7.11-6.81,19.85-14.76,32.35-14.76c2.78,0,5.42,0.46,7.94,1.23V99.18c0-9.28,0.65-14.87,1.95-16.76
	c1.3-1.89,3.17-2.84,5.62-2.84c2.9,0,4.81,1.17,5.74,3.51c0.93,2.34,1.39,7.7,1.39,16.09v24.79c0.23,0.09,0.49,0.13,0.72,0.22
	c10.59,4.5,10.72,14.59,9.42,22.04c9-4.38,18.22-8.41,27.58-12.06c1.42-5.93,4.69-11.59,9.16-16.19v-6.57
	c0-11.65-0.61-20.43-1.84-26.32c-1.22-5.9-3.86-11.6-7.91-17.09c-4.04-5.49-10.17-10.02-18.37-13.58c-8.2-3.56-17.54-5.34-28-5.34
	c-8.69,0-16.59,1.45-23.72,4.34c-7.13,2.9-12.96,7.18-17.48,12.86c-4.53,5.68-7.52,11.73-8.96,18.15c-1.45,6.42-2.17,15.76-2.17,28
	v18.05c1.54-0.39,3.08-0.83,4.6-1.31C194.63,128.44,195.3,127.77,195.9,127.19z"/>
<path d="M75.99,130.21c1.83,1.33,3.66,2.66,5.5,3.97c2.52,0.02,5.03,0.03,7.54,0.03l4.1-0.01c5.66-0.03,11.32-0.1,16.98-0.17
	c7.14-0.09,14.28-0.18,21.41-0.18l4.73,0.01l6.36,0.06c3.28,0.04,6.56,0.07,9.83,0.07c-6.36-4.82-14.27-10.08-24.04-15.88
	c-7.28-4.3-11.69-7.97-13.25-11.02c-1.63-3.04-2.44-7.58-2.44-13.59c0-4.68,0.72-8.17,2.17-10.47c1.45-2.3,3.58-3.45,6.4-3.45
	c2.6,0,4.45,0.85,5.57,2.56c1.11,1.71,1.67,5.68,1.67,11.91v13.36h43.54v-7.13c0-14.33-1.39-24.48-4.18-30.45
	c-2.78-5.98-8.46-10.93-17.04-14.87c-8.57-3.93-18.95-5.9-31.12-5.9c-11.13,0-20.64,1.8-28.5,5.4c-7.87,3.6-13.57,8.59-17.09,14.98
	c-3.53,6.38-5.29,16.48-5.29,30.29c0,9.57,1.24,17.44,3.73,23.61C73.58,125.88,74.74,128.14,75.99,130.21z"/>
<path d="M181.48,55.16c-1.17-0.86-2.35-1.81-3.62-2.51c-0.52-0.28-1.07-0.55-1.62-0.79c-0.23-0.1-0.47-0.19-0.71-0.28
	c-0.52-0.19-1.01-0.23-1.56-0.26c-0.28-0.02-0.56-0.03-0.83-0.04c-1.03-0.04-2.06,0.72-2.52,1.6c-0.52,0.99-0.41,2.08,0.13,3.03
	c0.18,0.31,0.34,0.65,0.53,0.95c0.34,0.51,0.81,0.89,1.27,1.28c0.79,0.67,1.6,1.28,2.44,1.88c-0.27-0.19-0.54-0.38-0.81-0.57
	c1.58,1.12,3.08,2.34,4.67,3.46c-0.27-0.19-0.54-0.38-0.81-0.57c1.56,1.1,3.03,2.33,4.74,3.19c1.26,0.64,3.03,0.44,3.98-0.69
	c0.96-1.15,1.13-2.73,0.34-4.02C185.7,58.56,183.6,56.72,181.48,55.16z"/>
<path d="M192.59,56.5c0,0.01,0.01,0.01,0.01,0.01c1.42,1.56,4.18,0.16,4.13-1.82c0.57-1.85-0.44-4.09-1.14-5.78
	c-0.8-1.92-1.77-3.78-2.74-5.61c-0.85-1.61-1.7-3.24-2.67-4.77c-1.15-1.82-2.49-3.68-4.51-4.58c-1.91-0.85-4,0.38-3.99,2.53
	c0.01,2.2,1.07,4.1,2.11,5.96c0.89,1.59,1.85,3.14,2.73,4.73c0.88,1.59,1.68,3.23,2.57,4.82C189.96,53.58,190.9,55.67,192.59,56.5z"
	/>
<path d="M201.62,49.2c0.11,1.55,1.47,2.99,3.1,2.84c1.76-0.16,2.72-1.43,2.84-3.1c0.17-2.39,0.36-4.78,0.52-7.17
	c0.08-1.15,0.07-2.3,0.09-3.45c0.03-1.76-0.15-3.72-1.63-4.89c-0.93-0.74-2.5-1.13-3.53-0.3c-0.94,0.76-1.6,1.52-1.82,2.72
	c-0.16,0.82-0.21,1.69-0.2,2.52c0.02,1.19,0.01,2.39,0.08,3.57C201.24,44.36,201.44,46.78,201.62,49.2z"/>
<path d="M394.86,246.45c-0.1-1.22-0.91-2.43-2.28-2.41c-2.27,0.03-2.31,2.1-2.51,3.8c-0.26,2.24-0.7,4.46-1.12,6.68
	c-0.27,1.42-0.59,2.83-0.88,4.25c-0.42,2.03-1.02,4.26-0.03,6.2c1,1.97,3.86,2.38,5.4,0.83c1.51-1.51,1.66-3.86,1.75-5.9
	c0.07-1.5,0.07-3.01,0.05-4.51C395.24,252.4,395.1,249.42,394.86,246.45z"/>
<path d="M413.8,262.04c-0.47-0.89-0.93-1.78-1.38-2.68c-0.86-1.73-1.69-3.49-2.46-5.26c-1.58-3.6-3.12-7.22-4.46-10.93
	c-1.02-2.84-6-1.49-5.19,1.49c1.1,4.05,2.31,8.08,3.92,11.96c0.77,1.85,1.58,3.69,2.44,5.5c0.9,1.89,1.76,4.25,3.13,5.84
	c0.93,1.07,2.41,1.48,3.73,0.92c0.23-0.1,0.49-0.28,0.7-0.42c1.24-0.88,1.3-2.43,0.92-3.73
	C414.86,263.78,414.26,262.91,413.8,262.04z"/>
<path d="M422.19,243.11c-2.1-1.63-4.73-4.79-7.75-4.39c-2.67,0.36-3.19,3.91-1.38,5.49c1.86,1.63,3.63,3.36,5.3,5.18
	c0.83,0.9,1.69,1.77,2.5,2.68c1.06,1.18,2.36,2.5,3.93,2.94c1.31,0.37,2.9,0.02,3.65-1.12c1.41-2.16-0.22-4.91-2.28-7.17
	C424.76,245.18,423.16,243.86,422.19,243.11z"/>
<path d="M423.45,254.51c0.28,0.19,0.56,0.38,0.83,0.57c-0.26-0.17-0.51-0.36-0.78-0.53C423.48,254.53,423.46,254.52,423.45,254.51z"
	/>
<path d="M127.79,250.89c0.93-0.13,1.87-0.26,2.8-0.4c1.26-0.19,2.38-0.61,3.58-1.03c1.26-0.45,2.15-1.65,2.09-3.01
	c-0.05-1.24-1.05-2.65-2.35-2.82c-1.2-0.16-2.43-0.4-3.64-0.37c-0.94,0.02-1.88,0.13-2.81,0.2c-1.88,0.13-3.75,0.26-5.62,0.44
	c-2,0.2-4.03,0.32-6.01,0.63c-2.47,0.38-6.15,1.06-6.01,4.35c0.07,1.61,1.45,2.94,2.97,3.28c1.06,0.24,2.29,0.18,3.38,0.12
	c2.01-0.11,4.02-0.42,6.01-0.65C124.06,251.43,125.92,251.16,127.79,250.89z"/>
<path d="M138.44,255.25c-1.21-1.29-3.03-1.37-4.49-0.45c-2.28,1.44-4.55,2.86-6.71,4.48c-1.06,0.79-2.06,1.68-3.06,2.54
	c-1.2,1.03-2.5,2.08-3.41,3.38c-0.88,1.25-1.15,3.03-0.13,4.31c0.97,1.23,2.64,1.82,4.14,1.22c1.49-0.59,2.79-1.51,4.08-2.45
	c1.1-0.8,2.22-1.6,3.27-2.47c2.27-1.91,4.38-3.98,6.5-6.05c0.57-0.56,0.88-1.79,0.76-2.55
	C139.25,256.46,138.96,255.81,138.44,255.25z"/>
<path d="M561.86,35.57c0.21-2.01-0.64-3.57-2.63-4.2c-2.67-0.85-5.14,0.96-7.2,2.46c-1.65,1.19-3.28,2.41-4.87,3.69
	c-1.55,1.24-3.07,2.5-4.59,3.78c-0.92,0.77-1.79,1.56-2.6,2.45c-0.31,0.34-0.62,0.68-0.92,1.02c-0.24,0.28-0.45,0.56-0.67,0.87
	c-0.14,0.2-0.17,0.25-0.21,0.3c-0.03,0.04-0.05,0.06-0.17,0.21c-0.91,1.14-1.03,2.66-0.06,3.81c1,1.19,2.45,1.23,3.77,0.58
	c0.34-0.17,0.67-0.24,1.29-0.55c0.47-0.23,0.92-0.5,1.38-0.74c0.87-0.46,1.72-0.96,2.53-1.51c1.62-1.11,3.26-2.21,4.91-3.28
	c1.6-1.04,3.19-2.11,4.8-3.16C558.73,39.91,561.58,38.3,561.86,35.57z"/>
<path d="M536.58,35.16c0.81,0.57,2.23,0.78,3.06,0.08c0.55-0.46,1.17-0.88,1.67-1.39c0.39-0.39,0.73-0.84,1.1-1.25
	c0.73-0.84,1.51-1.64,2.24-2.48c0.74-0.84,1.43-1.72,2.17-2.56c0.37-0.42,0.75-0.83,1.12-1.25c0.55-0.63,0.99-1.35,1.47-2.03
	c0.12-0.17,0.24-0.34,0.36-0.51c0.53-0.76,0.58-2.25,0.27-3.08c-0.31-0.83-0.79-1.49-1.52-2c-1.67-1.18-3.77-0.86-5.21,0.54
	c-0.42,0.41-0.87,0.83-1.25,1.28c-0.45,0.53-0.83,1.14-1.23,1.71c-0.76,1.08-1.51,2.17-2.23,3.28c-0.62,0.96-1.13,2.01-1.65,3.02
	c-0.64,1.24-1.13,2.46-1.48,3.81C535.19,33.38,535.7,34.54,536.58,35.16z"/>
<path d="M576.99,239.76c-1.53-0.57-3.89-0.01-4.53,1.7c-1.12,3-2.28,5.99-3.27,9.03c-0.45,1.38-1,2.77-1.32,4.18
	c-0.08,0.35-0.17,0.71-0.23,1.07c-0.06,0.45-0.1,0.89-0.13,1.34c-0.01,0.21,0,0.27,0,0.26c-0.13,0.63-0.11,1.25,0.08,1.87
	c0.14,0.5,0.39,0.95,0.62,1.41c0.75,1.52,2.83,1.58,4.11,0.89c1.58-0.85,2.45-2.59,3.1-4.2c0.64-1.58,1.08-3.24,1.58-4.87
	c0.86-2.79,1.57-5.62,2.31-8.44C579.78,242.23,578.65,240.37,576.99,239.76z"/>
<path d="M593.9,253.58c-0.27-1.94-0.59-3.87-0.9-5.8c-0.34-2.13-0.9-4.2-1.34-6.31c-0.28-1.33-1.9-2.09-3.13-1.85
	c-1.44,0.28-2.21,1.41-2.28,2.83c-0.11,2.04-0.31,4.03-0.24,6.07c0.07,1.95,0.2,3.88,0.41,5.82c0.21,1.93,0.4,3.88,0.71,5.8
	c0.4,2.53,1.02,5.04,3.23,6.56c0.91,0.63,2.67,0.32,3.34-0.58c1.48-1.99,1.39-4.39,1.07-6.75
	C594.5,257.44,594.17,255.52,593.9,253.58z"/>
</svg>
