<?xml version="1.0" encoding="utf-8"?>
<!-- Generator: Adobe Illustrator 15.1.0, SVG Export Plug-In . SVG Version: 6.00 Build 0)  -->
<!DOCTYPE svg PUBLIC "-//W3C//DTD SVG 1.1//EN" "http://www.w3.org/Graphics/SVG/1.1/DTD/svg11.dtd">
<svg version="1.1" id="Layer_1" xmlns="http://www.w3.org/2000/svg" xmlns:xlink="http://www.w3.org/1999/xlink" x="0px" y="0px"
	 width="864px" height="864px" viewBox="0 0 864 864" enable-background="new 0 0 864 864" xml:space="preserve">
<g>
	<path d="M67.955,229.769c-4.838-3.875-20.304,1.695-25.551,2.621c-0.207-9.949,1.737-24.138-1.228-32.049
		c-2.014-5.372-10.347-4.275-10.347,1.692c-0.158,7.455-0.196,14.912-0.137,22.368c0.026,3.318,0.072,6.636,0.137,9.953
		c-2.922,0.45-5.843,0.909-8.735,1.529c-3.926,0.786-11.023,0.515-13.759,3.931c-3.73,4.669,2.25,8.89,6.607,8.163
		c5.542-0.924,11.015-2.134,16.543-3.14c0.482,23.125,1.618,46.234,3.126,69.314c0.409,6.259,0.847,12.517,1.31,18.772
		c0.378,5.11-0.582,13.559,1.898,18.105c2.153,3.948,8.542,4.125,10.1-0.545c1.63-4.886-0.704-13.274-1.079-18.389
		c-1.76-24.043-3.178-48.116-3.984-72.21c-0.185-5.524-0.337-11.05-0.452-16.576c4.975-0.888,9.951-1.772,14.933-2.62
		C61.751,239.938,77.054,237.047,67.955,229.769C66.864,228.896,69.048,230.643,67.955,229.769z"/>
	<path d="M91.396,241.166c-1.309-3.572-5.247-8.076-9.609-3.712c-2.294,2.293-1.449,6.433-1.411,9.388
		c0.137,10.702,0.152,21.406,0.217,32.109c0.132,21.561-0.346,43.235,0.515,64.784c0.197,4.937,5.438,8.202,9.414,4.224
		c2.151-2.15,1.451-5.599,1.413-8.353c-0.138-10.203-0.098-20.41-0.101-30.614C91.827,286.417,92.234,263.731,91.396,241.166
		C91.396,241.166,91.615,247.063,91.396,241.166z"/>
	<path d="M85.717,210.374c-7.673,0-9.656,12.122-2.046,14.187C93.639,227.266,96.129,210.374,85.717,210.374
		C83.751,210.374,87.684,210.374,85.717,210.374z"/>
	<path d="M361.103,297.942c-5.34-1.74-6.316,4.757-7.423,8.129c-1.62,4.937-4.188,9.535-7.066,13.84
		c-5.978,8.615-13.905,18.014-24.568,20.61c-21.872,5.325-35.148-22.547-39.795-39.107c15.526-3.935,31.008-8.045,46.501-12.109
		c7.481-1.962,32.931-3.863,29.9-14.716c-3.603-11.101-8.64-22.191-16.785-30.729c-15.718-16.476-44.009-16.411-60.038-0.107
		c-7.583,7.713-11.407,18.64-12.702,29.208c-0.84,6.857-0.514,13.821,0.506,20.64c-5.408,1.39-10.795,2.869-16.213,4.219
		c2.224-14.555,4.934-48.246-15.997-51.234c-20.244-3.066-38.855,22.853-47.172,38c-1.622-15.438-3.34-41.719-21.59-47.057
		c-18.569-5.431-38.444,13.71-46.11,28.711c-1.157-9.836-2.29-19.676-3.412-29.517c-0.546-4.789-2.735-16.974-10.127-9.574
		c-3.941,3.938,0.307,18.946,0.833,23.506c1.551,13.459,3.147,26.915,4.798,40.362c1.617,13.172,3.217,26.354,5.151,39.484
		c0.646,4.386,2.085,23.504,11.083,16.652c4.451-3.39,1.305-12.36,0.66-16.961c-1.589-11.328-3.015-22.679-4.399-34.033
		c-0.437,0.218-1.136-41.159,33.87-48.429c16.992-3.529,17.694,32.79,19.035,43.873c0.605,5.001,0.229,23.865,10.155,20.144
		c4.437-1.664,3.538-7.201,4.633-10.913c1.871-6.336,5.265-12.196,8.806-17.727c6.746-10.534,34.608-42.65,39.481-14.74
		c3.232,18.513-2.085,36.952-6.131,54.872c-1.917,8.053-3.981,16.143-5.335,24.316c-0.614,3.703,2.346,8.03,6.591,6.969
		c3.912-0.979,4.105-5.554,4.761-8.75c1.967-9.597,4.257-19.127,6.411-28.683c0.981-4.354,0.36-7.433,4.689-8.42
		c4.801-1.095,9.547-2.452,14.313-3.687c4.375-1.133,3.13-0.133,4.304,3.466c0.823,2.523,1.732,5.04,2.712,7.505
		c1.922,4.835,4.236,9.526,7.047,13.908c5.537,8.632,13.353,16.553,23.02,20.408c15.047,6,30.397-1.688,40.917-12.559
		C350.501,333.493,375.923,300.809,361.103,297.942C359.606,297.454,362.542,298.22,361.103,297.942z M280.935,267.533
		c3.986-15.583,16.524-25.568,32.823-25.368c17.831,0.219,27.65,16.484,33.05,31.43c-22.292,5.694-44.578,11.415-66.812,17.332
		C279.057,283.151,279.132,275.183,280.935,267.533C284.184,254.832,279.275,274.573,280.935,267.533z"/>
	<path d="M531.805,227.585c-6.435-2.76-8.307,6.515-9.849,10.639c-3.922,10.491-7.722,21.027-11.614,31.529
		c-7.814,21.088-16.85,42.224-23.307,63.751c-8.361-21.625-16.646-43.281-24.862-64.962c-4.23-11.163-8.442-22.333-12.637-33.509
		c-1.316-3.507-3.223-7.924-7.926-6.356c-6.09,2.61-2.569,8.879-0.947,13.206c12.839,34.245,25.694,68.491,39.093,102.522
		c0.943,2.395,1.213,6.046,2.502,8.072c2.446,3.843,7.979,2.361,9.773-1.229c0.551-1.103,0.878-3.154,1.34-4.404
		c2.479-6.712,4.967-13.421,7.45-20.132c5.008-13.532,10.013-27.066,15.015-40.601c3.446-9.325,6.89-18.65,10.333-27.977
		C528.453,251.947,540.2,231.786,531.805,227.585C530.277,226.93,533.114,228.241,531.805,227.585z"/>
	<path d="M551.75,219.621c-7.673,0-9.655,12.122-2.047,14.187C559.671,236.514,562.163,219.621,551.75,219.621
		C549.784,219.621,553.716,219.621,551.75,219.621z"/>
	<path d="M557.428,250.414c-1.307-3.577-5.248-8.074-9.608-3.712c-2.295,2.293-1.449,6.432-1.411,9.388
		c0.138,10.702,0.152,21.406,0.218,32.109c0.132,21.561-0.345,43.235,0.515,64.784c0.197,4.938,5.438,8.201,9.414,4.224
		c2.15-2.149,1.45-5.6,1.413-8.353c-0.138-10.203-0.098-20.41-0.102-30.614C557.859,295.665,558.269,272.979,557.428,250.414
		C557.428,250.414,557.647,256.31,557.428,250.414z"/>
	<path d="M762.704,300.758c-5.458-1.327-5.932,5.23-6.775,8.676c-1.235,5.047-3.441,9.83-5.979,14.343
		c-5.18,8.847-12.076,18.443-22.08,22.149c-21.638,8.017-37.551-19.292-43.516-35.64c15.178-5.116,30.297-10.407,45.431-15.65
		c7.31-2.533,32.532-6.385,28.68-16.974c-4.447-10.79-10.323-21.46-19.102-29.346c-16.939-15.216-45.142-12.976-59.868,4.513
		c-6.967,8.274-9.938,19.462-10.416,30.098c-0.311,6.902,0.551,13.82,2.091,20.54c-5.208,1.775-10.39,3.631-15.608,5.377
		c2.639-18.407-0.92-43.764-18.406-54.252c-18.594-11.153-40.275,3.125-49.883,19.51c-0.25-21.785-0.588-43.569-0.775-65.355
		c-0.039-4.597,1.731-13.4-1.845-16.978c-5.513-6.626-9.62,3.096-9.577,7.477c0.143,14.655,0.292,29.309,0.457,43.964
		c0.268,23.65,0.568,47.3,1.007,70.948c0.171,9.221,0.363,18.441,0.597,27.66c0.103,4.059-0.765,9.832,0.965,13.579
		c2.229,4.828,9.844,4.49,10.888-1.026c20.76,14.263,44.639,1.702,56.563-17.389c2.74-4.388,4.921-9.111,6.612-13.998
		c1.377-3.978,5.259-3.446,9.221-4.808c3.547-1.22,11.787-5.937,13.188-2.227c2.14,5.669,4.803,11.233,7.949,16.412
		c10.577,17.404,30.646,32.847,51.553,23.01c11.191-5.266,19.366-15.457,25.358-25.99
		C762.135,324.791,774.359,302.091,762.704,300.758C761.174,300.386,764.159,300.924,762.704,300.758z M642.088,316.907
		c-5.402,18.111-22.954,39.429-44.041,29.723c-6.446-2.967-8.622-9.004-9.683-15.309c-0.321-10.589-1.593-22.063,0.784-32.476
		c3.496-15.311,18.935-43.382,39.054-36.048C647.686,269.9,646.731,301.116,642.088,316.907
		C638.375,329.354,645.363,305.769,642.088,316.907z M680.434,276.608c2.776-15.843,14.508-26.765,30.773-27.819
		c17.796-1.153,28.835,14.309,35.371,28.793c-21.787,7.393-43.567,14.811-65.28,22.422
		C679.764,292.325,679.225,284.374,680.434,276.608C682.696,263.695,679.321,283.755,680.434,276.608z"/>
	<path d="M831.097,293.397c-7.665-2.601-15.324-5.586-22.978-8.32c-8.848-3.161-20.434-5.304-25.971-13.735
		c-4.811-7.324-3.624-18.906,2.174-25.365c7.867-8.156,21.771-7.933,31.666-4.258c4.709,1.749,9.24,4.314,12.88,7.806
		c2.238,2.147,3.346,6.553,5.487,7.836c4.186,2.508,9.384-1.087,8.73-5.897c-0.631-4.649-7.209-9.714-10.7-12.269
		c-16.602-12.146-45.198-15.379-58.378,3.46c-12.604,18.015-2.753,39.598,15.457,48.122c6.025,2.82,12.523,4.59,18.859,6.555
		c10.159,3.15,22.889,4.967,30.68,12.764c5.979,5.983,12.781,18.426,8.188,26.848c-5.069,9.296-18.882,11.117-28.274,10.399
		c-9.664-0.739-20.349-4.081-26.511-12.062c-3.051-3.953-4.536-8.777-4.361-13.758c0.146-4.161,2.644-13.435-5.25-12.362
		c-7.126,0.969-5.924,14.071-5.031,18.943c1.42,7.753,5.963,14.461,12.056,19.353c13.153,10.561,33.979,13.594,49.708,7.762
		c13.854-5.138,20.993-17.854,19.434-32.441C857.339,307.607,844.291,298.516,831.097,293.397
		C830.635,293.241,850.873,301.069,831.097,293.397z"/>
</g>
<g>
	<path d="M40.139,170.778c-4.315,0-4.277,6.613,0,6.613S44.454,170.778,40.139,170.778C39.255,170.778,41.02,170.778,40.139,170.778
		z"/>
	<path d="M40.8,160.529c-3.063,3.066,1.816,7.78,4.712,4.629C48.469,161.918,43.68,157.649,40.8,160.529
		C40.139,161.19,41.461,159.868,40.8,160.529z"/>
	<path d="M105.272,112.423c-2.803-2.92-6.082-5.339-9.423-7.604c-1.681-1.119-7.25-5.951-9.423-5.951
		c-6.382-3.999-20.52-11.038-18.64-20.457c1.854-9.294,21.288,4.689,24.436,7.03c5.181,3.853,14.028,16.211,18.504,5.822
		c1.586-8.278,4.298-17.546,4.298-25.955c1.41-8.463,7.88-22.231-1.222-27.273c-18.515-10.257-44.178-8.008-62.527,1.436
		c-17.458,8.985-38.421,32.422-29.363,53.685c7.449,17.485,30.071,22.112,45.171,30.343c7.586,4.007,16.861,9.821,16.861,19.507
		c-0.017,9.948-9.027,10.246-16.422,7.494c-3.859-1.436-7.943-4.516-11.476-0.716c-2.844,3.059-3.908,9.515-5.184,13.376
		c-1.534,4.646-8.271,17.205-3.618,21.008c1.618,8.521,27.518,4.852,33.726,3.861c11.101-1.771,22.501-5.482,31.081-13.008
		C133.147,156.519,121.396,129.569,105.272,112.423C105.272,112.423,115.741,123.556,105.272,112.423z"/>
	<path d="M63.943,136.889c6.549,4.698-7.09,2.506-8.596,2.976c-3.43,0-4.498,4.475-1.696,6.2c2.628,1.619,8.29,0.907,11.21,0.376
		c6.5-1.182,10.193-7.122,5.4-12.698c-5.555-6.463-15.131-7.521-22.417-11.16c-13.084-6.534-32.112-18.896-34.542-34.682
		C10.48,69.57,22.621,53.097,36.693,42.741c3.178-2.339,6.53-4.454,10.023-6.289c2.934-1.541,10.415-2.972,12.02-5.943
		c4.926-9.165-14.313-0.338-16.122,0.648C27.479,39.413,13.227,52.973,7.991,69.807C3.114,85.49,8.065,99.224,19.458,110.321
		c6.437,6.271,13.788,11.689,21.631,16.071C48.188,130.357,57.72,131.702,63.943,136.889
		C64.714,137.442,61.96,135.236,63.943,136.889z"/>
	<path d="M49.727,154.247c2.88-2.88-1.392-7.671-4.629-4.711C41.945,152.429,46.662,157.312,49.727,154.247
		C50.388,153.586,49.065,154.908,49.727,154.247z"/>
	<path d="M150.069,166.149c-3.452,0-4.585,5.024-1.343,6.365C153.509,174.493,155.372,166.149,150.069,166.149
		C149.078,166.149,150.95,166.149,150.069,166.149z"/>
	<path d="M278.354,49.438c-9.189,0.001-18.378-0.136-27.567-0.229c-6.695-0.068-20.325-3.326-20.539,6.512
		c4.353,17.458,0.183,48.037-13.474,60.835C196.735,135.334,194.667,90,195.181,79.82c0.523-10.344,1.884-20.663,2.953-30.959
		c0.279-2.686,1.393-6.475,0.413-9.134c-1.65-4.476-8.1-3.192-11.736-3.307c-9.93-0.313-19.831-1.228-29.767-1.351
		c-3.766-0.047-9.871-1.046-11.272,3.624c-4.366,2.917-2.884,14.748-3.145,19.422c-1.025,18.427-1.438,36.914-0.4,55.351
		c1.13,20.065,4.808,42.196,19.342,57.265c15.774,16.356,41.201,16.664,59.833,4.966c5.063-3.178,9.532-7.235,13.309-11.861
		c-0.016,8.231,0.184,16.462,1.045,24.654c1.146,10.899,14.955,6.539,22.823,6.122c5.402-0.286,19.152,1.616,21.056-5.236
		c2.047-7.364,0.302-17.616,0.429-25.255c0.366-21.967,1.176-43.914,1.864-65.871c0.315-10.048,0.618-20.097,0.886-30.146
		C282.931,63.681,285.921,49.438,278.354,49.438C278.354,49.438,279.676,49.438,278.354,49.438z"/>
	<path d="M146.268,155.9c-3.085-3.087-7.56,1.514-4.712,4.628C144.286,163.503,149.432,159.065,146.268,155.9
		C145.606,155.239,146.929,156.562,146.268,155.9z"/>
	<path d="M142.3,145.32c0-4.252-6.612-4.253-6.612,0C135.688,149.573,142.3,149.572,142.3,145.32
		C142.3,144.439,142.3,146.204,142.3,145.32z"/>
	<path d="M137.093,135.732c2.758-3.675-0.755-15.426-0.983-19.824c-0.406-7.855-0.422-15.715-0.422-23.579
		c0-8.28,0.422-16.571,0.992-24.83c0.28-4.055,5.092-24.839-1.323-24.839c-7.324,0-6.281,44.211-6.281,50.917
		c0,8.486,0.076,16.97,0.624,25.442C129.805,120.67,131.121,143.69,137.093,135.732
		C137.589,135.071,136.597,136.393,137.093,135.732z"/>
	<path d="M304.637,173.093c4.253,0,4.253-6.612,0-6.612C300.384,166.48,300.384,173.093,304.637,173.093
		C305.518,173.093,303.754,173.093,304.637,173.093z"/>
	<path d="M305.464,178.383c-4.315,0-4.277,6.613,0,6.613C309.741,184.996,309.778,178.383,305.464,178.383
		C304.58,178.383,306.345,178.383,305.464,178.383z"/>
	<path d="M443.005,41.999c0-9.503-32.508-6.326-40.461-6.158C392.447,36.055,392.31,43.625,390.27,52
		c-2.307,9.435-4.461,18.987-7.604,28.186c-4.102-11.256-7.761-22.738-13.134-33.485c-3.617-7.234-6.651-7.932-14.521-7.789
		c-8.286,0.151-16.577,0.61-24.806,1.612c-5.173,0.629-12.76,0.735-17.385,3.335c-5.173,2.909-3.237,12.266-3.265,17.234
		c-0.087,15.559-0.254,31.116-0.285,46.675c-0.031,15.855,0.232,31.716,1.207,47.545c0.404,6.567,0.93,13.127,1.635,19.669
		c0.791,7.333,0.793,12.682,9.202,13.226c8.239,0.533,16.52,0.601,24.757,0c8.531-0.622,8.513-5.112,9.022-12.53
		c1.104-16.077,3.619-32.052,6.577-47.881c1.69,6.255,2.97,12.623,4.625,18.894c2.694,10.211,5.255,10.444,15.213,11.028
		c8.617,0.419,12.021,0.887,15.772-7.522c3.583-8.034,7.14-16.093,10.513-24.218c1.442,18.784,3.273,37.57,4.363,56.376
		c0.566,9.773,8.466,6.639,15.203,5.146c4.585-1.016,22.258-2.013,22.258-8.457c1.187-3.565,0.109-9.537,0.134-13.322
		c0.042-6.306,0.044-12.611-0.009-18.917c-0.111-13.435-0.457-26.868-1.101-40.288C447.608,84.971,443.859,63.468,443.005,41.999
		C443.005,41.007,443.005,41.999,443.005,41.999z"/>
	<path d="M305.629,161.19c3.007-3.009-1.621-7.637-4.629-4.629S302.621,164.198,305.629,161.19
		C306.29,160.529,304.968,161.852,305.629,161.19z"/>
	<path d="M300.256,150.445c3.582,3.917,5.701-1.9,5.762-4.608c0.14-6.197,0.13-12.397,0.046-18.595
		c-0.104-7.668-0.271-15.338-0.271-23.007c0-18.596-0.063-37.199,0.496-55.789c0-5.836-6.542-2.842-6.666,1.727
		c-0.138,5.1-0.226,10.201-0.29,15.302c-0.13,10.361-0.153,20.723-0.153,31.085c0,6.476,0.038,12.943,0.123,19.418
		c0.075,5.667,0.173,11.336,0.2,17.004C299.523,136.816,297.516,147.458,300.256,150.445
		C300.86,151.106,299.649,149.784,300.256,150.445z"/>
	<path d="M472.265,161.19c3.007-3.009-1.62-7.637-4.629-4.629S469.257,164.198,472.265,161.19
		C472.926,160.529,471.604,161.852,472.265,161.19z"/>
	<path d="M472.1,178.383c-4.315,0-4.277,6.613,0,6.613C476.376,184.996,476.414,178.383,472.1,178.383
		C471.216,178.383,472.98,178.383,472.1,178.383z"/>
	<path d="M466.892,150.445c3.582,3.917,5.701-1.9,5.763-4.608c0.14-6.197,0.13-12.397,0.046-18.595
		c-0.104-7.668-0.271-15.338-0.271-23.007c0-18.596-0.063-37.199,0.496-55.789c0-5.836-6.543-2.842-6.666,1.727
		c-0.138,5.1-0.226,10.201-0.289,15.302c-0.13,10.361-0.153,20.723-0.153,31.085c0,6.476,0.037,12.943,0.123,19.418
		c0.075,5.667,0.173,11.336,0.2,17.004C466.159,136.816,464.152,147.458,466.892,150.445
		C467.496,151.106,466.285,149.784,466.892,150.445z"/>
	<path d="M609.641,41.999c0-9.503-32.509-6.326-40.461-6.158c-10.098,0.214-10.234,7.783-12.274,16.159
		c-2.308,9.435-4.462,18.987-7.604,28.186c-4.102-11.256-7.761-22.738-13.134-33.485c-3.616-7.234-6.651-7.932-14.521-7.789
		c-8.286,0.151-16.577,0.61-24.807,1.612c-5.173,0.629-12.76,0.735-17.385,3.335c-5.174,2.909-3.237,12.266-3.265,17.234
		c-0.088,15.559-0.254,31.116-0.285,46.675c-0.031,15.855,0.231,31.716,1.206,47.545c0.404,6.567,0.931,13.127,1.636,19.669
		c0.79,7.333,0.793,12.682,9.202,13.226c8.239,0.533,16.52,0.601,24.758,0c8.531-0.622,8.513-5.112,9.022-12.53
		c1.104-16.077,3.618-32.052,6.576-47.881c1.689,6.255,2.971,12.623,4.625,18.894c2.694,10.211,5.256,10.444,15.213,11.028
		c8.617,0.419,12.021,0.887,15.771-7.522c3.584-8.034,7.141-16.093,10.514-24.218c1.442,18.784,3.273,37.57,4.363,56.376
		c0.566,9.773,8.467,6.639,15.202,5.146c4.586-1.016,22.259-2.013,22.259-8.457c1.187-3.565,0.109-9.537,0.134-13.322
		c0.042-6.306,0.043-12.611-0.009-18.917c-0.111-13.435-0.458-26.868-1.101-40.288C614.244,84.971,610.495,63.468,609.641,41.999
		C609.641,41.007,609.641,41.999,609.641,41.999z"/>
	<path d="M471.272,173.093c4.253,0,4.253-6.612,0-6.612C467.021,166.48,467.021,173.093,471.272,173.093
		C472.153,173.093,470.39,173.093,471.272,173.093z"/>
	<path d="M639.892,171.936c-3.472,0-4.838,4.975-1.363,6.365C643.224,180.179,644.854,171.936,639.892,171.936
		C638.9,171.936,640.775,171.936,639.892,171.936z"/>
	<path d="M727.343,49.934c-3.045-4.775-16.878-4.458-22.019-5.228c-9.678-1.45-19.37-2.801-29.072-4.079
		c-9.451-1.245-19.558-3.588-29.086-3.588c-6.495,0-6.081,7.38-5.99,11.837c0.695,34.184,0.275,68.353,2.593,102.488
		c0.627,9.236,1.485,18.458,2.656,27.641c0.82,6.442-0.256,18.389,8.676,18.389c6.767,0.49,14.751-1.857,21.491-2.645
		c6.37-1.286,13.105-1.563,19.543-2.371c4.329-0.543,17.089-0.171,19.802-4.242c2.661-3.991-0.501-10.667-1.003-14.802
		c-0.595-4.903,2.125-21.236-5.609-21.236c-9.269,0-18.538,0.584-27.773,1.322c0.523-9.034,1.234-18.064,1.488-27.111
		c8.5,0.475,17.088,0.165,25.597,0.165c2.764,0,6.981,0.795,9.655-0.33c4.659-1.96,3.432-12.257,3.432-16.006
		c0-3.443,0.295-7.016,0-10.445c3.052-6.173-8.074-6.767-11.206-7.186c-8.808-1.176-17.667-2.026-26.528-2.678
		c-4.187-0.308-3.264-1.424-3.264-4.768c0-1.846,0-3.691,0-5.537c13.7,3.068,28.357,4.406,42.32,5.455
		c7.082-1.115,5.554-9.946,5.785-15.557C729.021,64.783,731.306,53.177,727.343,49.934C726.57,48.723,728.555,50.926,727.343,49.934
		z"/>
	<path d="M636.09,144.824c6.109,0,3.104-42.509,3.045-48.158c-0.098-9.469-0.216-18.937-0.348-28.405
		c-0.063-4.526,2.538-28.412-3.689-28.412c-5.979,0-3.027,21.12-2.966,25.389c0.149,10.476,0.282,20.951,0.39,31.427
		C632.58,102.334,630.18,144.824,636.09,144.824C636.974,144.824,635.209,144.824,636.09,144.824z"/>
	<path d="M640.884,165.984c3.009-3.008-1.621-7.637-4.629-4.629S637.876,168.993,640.884,165.984
		C641.545,165.323,640.223,166.646,640.884,165.984z"/>
	<path d="M639.396,155.239c3.164-3.165-1.981-7.603-4.712-4.628C631.837,153.725,636.312,158.326,639.396,155.239
		C640.058,154.578,638.735,155.9,639.396,155.239z"/>
	<path d="M755.941,181.358c-3.472,0-4.84,4.974-1.364,6.365C759.272,189.602,760.901,181.358,755.941,181.358
		C754.949,181.358,756.822,181.358,755.941,181.358z"/>
	<path d="M853.807,174.084c-12.307-16.44-25.547-32.197-39.84-46.949c14.753-7.949,30.825-18.946,36.864-35.377
		c7.141-19.234-5.678-36.812-21.686-46.437c-17.741-10.667-40.334-14.552-60.734-12.031c-4.364,0.539-23.652,1.805-20.405,9.866
		c1.765,5.382,1.569,12.087,2.172,17.724c4.014,37.573,7.851,75.168,11.563,112.772c0.406,4.115,1.144,8.361,1.144,12.5
		c0,8.147,16.709,6.69,22.39,7.42c5.858,0.753,12.746,3.065,13.483-5.106c-0.809-9.954-1.208-19.94-1.488-29.921
		c3.403,6.807,21.263,44.714,30.418,39.014c5.646-3.325,11.084-6.924,16.743-10.226C848.621,184.889,858.79,180.746,853.807,174.084
		C841.021,157.003,854.468,174.968,853.807,174.084z M785.367,73.243c4.951-1.301,13.244-1.585,15.817,4.113
		c3.28,7.261-4.517,12.801-10.527,14.568C788.795,85.733,787.043,79.488,785.367,73.243
		C787.459,72.693,786.137,76.11,785.367,73.243z"/>
	<path d="M754.288,165.902c2.979-2.724-1.465-7.878-4.629-4.711C746.573,164.276,751.179,168.756,754.288,165.902
		C754.949,165.297,753.627,166.509,754.288,165.902z"/>
	<path d="M755.941,175.903c3.007-3.009-1.621-7.637-4.629-4.629C748.304,174.283,752.934,178.911,755.941,175.903
		C756.603,175.242,755.28,176.564,755.941,175.903z"/>
	<path d="M751.478,156.065c6.197-0.268,2.195-17.138,1.868-20.957c-0.929-10.851-2.021-21.694-2.981-32.535
		c-1.014-11.452-2.027-22.904-3.037-34.357c-0.414-4.693-0.827-9.386-1.24-14.079c-0.271-3.074,0.412-10.128-2.048-12.387
		c-7.3-6.665-4.164,17.523-3.968,19.755c0.946,10.787,1.897,21.574,2.852,32.36C743.528,100.704,745.467,156.065,751.478,156.065
		C751.478,156.065,750.705,156.065,751.478,156.065z"/>
</g>
<g>
	<path fill="#BE1E2D" d="M101.462,78.848c1.813-10.168,3.291-20.382,5.07-30.556c0.514-2.94,1.699-3.667-1.436-4.936
		c-3.056-1.236-6.247-2.123-9.485-2.728c-5.962-1.112-12.153-1.407-18.193-0.868c-12.606,1.124-25.105,6.278-34.56,14.755
		c-7.643,6.854-15.755,18.91-13.731,29.736c1.993,10.66,14.738,15.954,23.459,20.051c10.039,4.716,20.527,8.665,29.37,15.543
		c9.052,7.297,14.47,19.697,8.864,30.857c-5.617,11.185-19.024,10.513-29.033,6.504c-2.384,6.359-4.493,12.838-6.447,19.342
		c17.932,2.176,44.116-0.009,54.493-17.304c9.618-16.029-5.281-37.726-18.435-46.725c-12.363-8.458-36.406-17.99-34.605-36.2
		C59.328,50.683,91.412,70.427,101.462,78.848C102.012,75.764,93.966,72.566,101.462,78.848z"/>
	<path fill="#F7941E" d="M244.125,140.676c-0.233,7.367-0.45,14.738-0.491,22.109c-0.024,4.273,0.046,8.547,0.265,12.815
		c0.087,1.706,0.199,3.411,0.338,5.114c0.334,4.098,3.021,2.353,6.456,2.217c3.702-0.146,7.403-0.31,11.103-0.505
		c4.841-0.256,7.108,1.016,7.156-4.219c0.066-7.35,0.187-14.699,0.333-22.048c0.658-32.938,1.708-65.881,2.944-98.803
		c-10.787-0.324-21.61-0.331-32.401-0.331c2.486,21.594-4.274,77.293-37.325,71.32c-15.275-2.761-17.766-26.346-18.28-38.64
		c-0.632-15.125,1.686-30.232,3.201-45.244c-9.618-0.382-19.224-1.084-28.848-1.281c-6.334-0.129-6.184-0.567-6.664,6.318
		c-0.469,6.735-0.864,13.478-1.139,20.224c-0.918,22.547-1.664,47.071,4.553,68.98c6.345,22.365,23.195,37.166,47.131,32.003
		c11.792-2.543,22.171-11,27.93-21.557c2.035-3.731,2.985-13.6,8.449-13.6C241.924,135.333,244.274,137.576,244.125,140.676
		C243.794,151.146,244.125,140.676,244.125,140.676z"/>
	<path fill="#FFF200" d="M364.969,102.322c2.179,7.813,3.782,15.765,5.868,23.599c0.955,3.584,1.68,7.226,2.599,10.823
		c0.586,2.297,1.174,4.593,1.764,6.889c0.809,3.149,2.597,2.018,5.64,2.167c3.36,0.113,5.158,1.214,6.626-2.039
		c1.988-4.406,3.704-8.948,5.753-13.322c3.467-7.402,6.514-15.014,9.717-22.532c1.567-3.679,5.765-16.756,11.793-9.592
		c4.05,4.813,1.756,17.406,1.99,22.936c0.784,18.472,2.922,36.854,4.127,55.299c4.024-0.864,8.006-1.875,12.027-2.757
		c1.989-0.437,3.984-0.862,5.991-1.212c0.054-2.837,0.096-5.675,0.124-8.512c0.134-13.45-0.02-26.907-0.416-40.352
		c-0.706-23.886-2.246-47.769-5.152-71.492c-0.317-2.59-0.651-5.177-1.003-7.762c-2.332-0.307-4.679-0.495-7.026-0.62
		c-3.609-0.192-7.221-0.207-10.834-0.207c-2.707,0-5.415,0-8.123,0c-5.567,0-5.275,0.208-6.768,5.53
		c-2.093,7.466-9.478,51.865-20.479,46.709c-6.659-3.021-4.555-15.674-9.093-20.334c-1.919-9.561-7.2-20.219-11.737-28.764
		c-11.027,0.078-22.095,0.632-33.009,2.274c-5.924,0.892-6.818,0.487-6.843,6.443c-0.025,5.993-0.073,11.986-0.125,17.979
		c-0.2,23.291-0.536,46.61,0.5,69.886c0.458,10.271,1.165,20.539,2.343,30.755c0.492,4.26,10.688,2.635,14.63,2.577
		c2.709-0.04,5.418-0.139,8.122-0.31c0.191-3.293,0.441-6.583,0.739-9.868c1.265-13.936,3.385-27.788,5.979-41.534
		c1.213-6.428,1.449-16.449,4.523-22.162C356.256,97.861,363.671,97.138,364.969,102.322
		C366.291,107.063,364.638,101,364.969,102.322z"/>
	<path fill="#00A651" d="M531.604,102.322c2.179,7.813,3.781,15.765,5.868,23.599c0.954,3.584,1.68,7.226,2.599,10.823
		c0.587,2.297,1.175,4.593,1.764,6.889c0.809,3.149,2.597,2.018,5.64,2.167c3.359,0.113,5.158,1.214,6.626-2.039
		c1.987-4.406,3.704-8.948,5.753-13.322c3.467-7.402,6.514-15.014,9.717-22.532c1.567-3.679,5.765-16.756,11.793-9.592
		c4.05,4.813,1.756,17.406,1.99,22.936c0.784,18.472,2.922,36.854,4.127,55.299c4.024-0.864,8.006-1.875,12.027-2.757
		c1.989-0.437,3.984-0.862,5.991-1.212c0.054-2.837,0.096-5.675,0.124-8.512c0.134-13.45-0.02-26.907-0.416-40.352
		c-0.706-23.886-2.246-47.769-5.152-71.492c-0.317-2.59-0.651-5.177-1.003-7.762c-2.332-0.307-4.679-0.495-7.026-0.62
		c-3.609-0.192-7.221-0.207-10.834-0.207c-2.707,0-5.415,0-8.123,0c-5.567,0-5.275,0.208-6.768,5.53
		c-2.093,7.466-9.478,51.865-20.479,46.709c-6.659-3.021-4.555-15.674-9.093-20.334c-1.919-9.561-7.199-20.219-11.737-28.764
		c-11.027,0.078-22.095,0.632-33.01,2.274c-5.924,0.892-6.817,0.487-6.843,6.443c-0.025,5.993-0.073,11.986-0.125,17.979
		c-0.2,23.291-0.536,46.61,0.501,69.886c0.457,10.271,1.164,20.539,2.343,30.755c0.491,4.26,10.688,2.635,14.63,2.577
		c2.709-0.04,5.418-0.139,8.122-0.31c0.191-3.293,0.44-6.583,0.739-9.868c1.266-13.936,3.386-27.788,5.979-41.534
		c1.212-6.428,1.448-16.449,4.522-22.162C522.892,97.861,530.307,97.138,531.604,102.322
		C532.927,107.063,531.273,101,531.604,102.322z"/>
	<path fill="#00AEEF" d="M677.741,114.06c6.362,0.579,12.791,0.496,19.173,0.496c2.626,0,11.542,1.544,13.559,0
		c0.258-3.939,2.389-13.632-2.094-14.213c-9.301-1.204-18.664-1.993-28.005-2.82c-9.702-0.858-10.568-4.167-10.568-13.544
		c0-4.711-0.739-10.183,1.528-14.511c2.745-5.24,13.81-1.104,18.145-0.539c9.356,1.223,18.69,2.723,28.103,3.638
		c0.542-4.508,0.393-9.03,0.496-13.557c0.294-4.784-0.253-4.208-4.88-4.931c-4.372-0.683-8.748-1.343-13.127-1.984
		c-16.669-2.442-33.377-4.621-50.103-6.64c0.976,30.827,0.278,61.682,1.902,92.493c0.471,8.929,1.18,17.847,2.106,26.739
		c0.415,3.979,0.879,7.955,1.397,11.923c0.25,1.911,0.513,3.821,0.789,5.729c0.589,4.058,1.226,2.682,4.695,2.212
		c14.754-1.995,29.612-3.229,44.324-5.523c-0.834-4.334-1.368-8.723-1.687-13.123c-0.297-4.088,1.383-5.785-3.454-5.639
		c-3.004,0.092-6.006,0.214-9.007,0.375c-5.89,0.316-20.568,5.058-20.568-4.426c0-8.444,0.936-16.909,1.33-25.34
		C671.924,128.174,670.57,110.568,677.741,114.06C681.378,114.391,677.519,113.951,677.741,114.06z"/>
	<path fill="#EC008C" d="M795.277,134.724c6.803,11.713,12.96,23.758,19.97,35.349c1.783,2.948,3.643,5.852,5.57,8.708
		c0.959,1.423,1.938,2.83,2.939,4.225c2.148,2.989,2.435,1.269,5.245-0.341c3.398-3.384,9.011-5.815,13.225-8.1
		c-12.018-15.661-24.813-30.749-38.618-44.868c-7.021-7.181-0.827-10.27,5.812-13.923c7.609-4.186,15.034-9.007,21.255-15.113
		c10.842-10.643,15.692-25.404,5.059-38.168c-10.949-13.143-28.633-19.108-45.102-21.129c-8.987-1.104-18.122-0.908-27.044,0.646
		c-5.723,0.997-6.227,0.719-5.615,6.148c0.346,3.076,0.687,6.153,1.022,9.23c1.752,16.026,3.417,32.063,5.062,48.101
		c1.784,17.403,3.551,34.809,5.271,52.218c0.572,5.791,1.14,11.581,1.686,17.374c0.343,3.623-0.648,4.807,3.476,5.27
		c4.347,0.487,8.69,1.02,13.019,1.653c-0.585-8.782-0.936-17.581-1.25-26.376c-0.215-6.03-0.4-12.062-0.568-18.094
		C785.689,132.486,792.645,130.34,795.277,134.724C797.262,138.141,794.616,133.623,795.277,134.724z M777.92,62.813
		c9.538-3.34,21.874-3.723,28.971,4.795c7.711,9.255,3.127,22.376-6.342,28.292c-3.723,2.325-9.805,4.935-14.198,4.935
		c-5.655,0-6.05-7.792-7.273-11.736C779.077,82.84,767.255,65.887,777.92,62.813C782.326,61.27,777.147,63.035,777.92,62.813z"/>
</g>
</svg>
