<?xml version="1.0" encoding="utf-8"?>
<!-- Generator: Adobe Illustrator 15.1.0, SVG Export Plug-In . SVG Version: 6.00 Build 0)  -->
<!DOCTYPE svg PUBLIC "-//W3C//DTD SVG 1.1//EN" "http://www.w3.org/Graphics/SVG/1.1/DTD/svg11.dtd">
<svg version="1.1" id="Layer_1" xmlns="http://www.w3.org/2000/svg" xmlns:xlink="http://www.w3.org/1999/xlink" x="0px" y="0px"
	 width="864px" height="864px" viewBox="0 0 864 864" enable-background="new 0 0 864 864" xml:space="preserve">
<g>
	<path fill="#662D91" d="M48.191,214.711c-0.307,3.223-0.46,6.446-0.614,9.669c-0.614,7.521-0.614,15.041-1.074,22.407
		c-0.46,8.441-1.075,16.882-1.381,25.323c0,1.995-0.46,3.991-0.46,5.986c0.153,1.228-0.46,1.841-1.688,1.841
		c-2.916-0.153-5.678-0.307-8.441-0.46c-1.074-0.153-1.228-1.074-1.228-1.841c0.153-4.758,0.153-9.516,0.614-14.273
		c0.46-3.53,0.307-7.213,0.614-10.897c0.614-7.367,0.614-14.733,1.074-22.1c0.46-9.976,1.075-19.951,1.688-29.773
		c0.153-4.451,0.307-8.901,0.46-13.352c0.153-6.753,0-6.753,6.599-6.753c4.758,0,4.758,0,6.292,4.604
		c7.213,21.793,14.58,43.74,21.793,65.533c0.154,0.307,0.307,0.614,0.614,1.381c-0.46-5.371,0.307-10.129,0.46-14.887
		c0.46-11.664,1.074-23.481,1.688-35.145c0.153-4.911,0.46-9.822,0.46-14.733c0-2.149,0.614-4.144,0.307-6.446
		c-0.154-0.92,0.767-1.074,1.535-1.074c2.762,0,5.525,0,8.288,0c1.228,0,1.841,0.614,1.841,1.995
		c-0.307,5.372-0.46,10.897-0.767,16.422c-0.307,3.683-0.154,7.52-0.46,11.357c-0.46,5.218-0.307,10.589-0.614,15.961
		c-0.46,10.437-0.921,21.026-1.381,31.616c-0.307,5.985-0.768,11.971-0.768,17.956c-0.153,4.144-0.46,4.451-4.451,4.451
		c-2.148,0-4.297,0.154-6.446,0.46c-2.148,0.307-3.069-0.614-3.684-2.609c-6.292-19.337-12.892-38.675-19.184-58.013
		C49.266,217.781,48.805,216.246,48.191,214.711z"/>
	<path fill="#662D91" d="M111.423,280.091c-5.065,0-9.055,0-12.892,0c-2.456,0-3.07-0.614-3.223-3.07
		c-0.307-9.668-0.46-19.491-0.921-29.313c-0.46-13.045-0.921-25.937-1.381-38.982c-0.307-8.901-0.767-17.649-0.767-26.551
		c0-2.762,0.307-2.916,3.069-3.069c9.669-0.921,19.337,0,29.006-0.768c1.842-0.153,2.916,0.46,2.916,2.609c0,2.302,0,4.604,0,6.906
		c0,1.842-0.921,2.609-2.609,2.456c-5.986-0.307-11.971,0.614-18.11,0.46c-1.842,0-2.609,0.614-2.609,2.609
		c0.614,9.976,1.075,20.105,0.921,30.234c0,2.148,1.535,1.841,2.916,1.688c3.684-0.153,7.367-0.46,11.05-0.768
		c1.841-0.153,2.609,0.46,2.609,2.456c0,2.148,0.307,4.297,0.46,6.446c0.153,1.688-0.46,2.456-2.302,2.609
		c-3.99,0.153-7.98,0.614-11.971,0.768c-1.688,0-2.302,0.614-2.148,2.455c0.46,8.748,0.767,17.496,0.767,26.244
		c0,1.995,0.46,2.916,2.763,2.763c6.139-0.154,12.124,0,18.263,0c2.148-0.154,2.763,0.614,2.609,2.609
		c0,2.148,0.154,4.297,0.307,6.446c0,1.688-0.614,2.302-2.302,2.302C122.012,279.937,116.18,280.244,111.423,280.091z"/>
	<path fill="#662D91" d="M153.936,280.091c-5.065,0-9.055,0-12.892,0c-2.456,0-3.07-0.614-3.223-3.07
		c-0.307-9.668-0.46-19.491-0.921-29.313c-0.46-13.045-0.921-25.937-1.381-38.982c-0.307-8.901-0.767-17.649-0.767-26.551
		c0-2.762,0.307-2.916,3.069-3.069c9.669-0.921,19.337,0,29.006-0.768c1.842-0.153,2.916,0.46,2.916,2.609c0,2.302,0,4.604,0,6.906
		c0,1.842-0.921,2.609-2.609,2.456c-5.986-0.307-11.971,0.614-18.11,0.46c-1.842,0-2.609,0.614-2.609,2.609
		c0.614,9.976,1.075,20.105,0.921,30.234c0,2.148,1.535,1.841,2.916,1.688c3.684-0.153,7.367-0.46,11.05-0.768
		c1.841-0.153,2.609,0.46,2.609,2.456c0,2.148,0.307,4.297,0.46,6.446c0.153,1.688-0.46,2.456-2.302,2.609
		c-3.99,0.153-7.98,0.614-11.971,0.768c-1.688,0-2.302,0.614-2.148,2.455c0.46,8.748,0.767,17.496,0.767,26.244
		c0,1.995,0.46,2.916,2.763,2.763c6.139-0.154,12.124,0,18.263,0c2.148-0.154,2.763,0.614,2.609,2.609
		c0,2.148,0.154,4.297,0.307,6.446c0,1.688-0.614,2.302-2.302,2.302C164.525,279.937,158.693,280.244,153.936,280.091z"/>
	<path fill="#662D91" d="M178.799,270.269c-0.153-8.288-0.307-16.729-0.46-25.17c-0.307-12.278-0.46-24.556-1.074-36.68
		c-0.307-9.208,0.614-18.264,0.153-27.472c-0.153-1.995,0.921-2.456,2.609-2.456c10.437-0.154,19.491,3.223,27.472,9.822
		c10.743,9.362,16.422,21.333,17.957,35.452c1.842,15.194-1.688,29.006-10.896,41.284c-7.06,9.362-16.729,15.041-28.546,16.729
		c-0.92,0.153-1.995,0.153-3.069,0.153c-3.376,0-3.683-0.46-3.99-3.836c-0.153-0.154-0.153-0.46-0.153-0.614
		C178.799,275.026,178.799,272.724,178.799,270.269z M189.082,191.537c-0.46,1.535,0.153,3.07,0.153,4.451
		c0,12.585,0.46,25.016,0.921,37.448c0.307,10.436,0.307,21.025,0.46,31.462c0,1.228-0.153,2.456,0.767,3.53
		c5.986-2.302,10.897-6.139,14.733-11.511c6.292-9.055,8.748-19.03,7.981-30.081c-1.074-11.971-5.525-22.1-14.733-29.927
		C196.294,194.299,193.072,192.304,189.082,191.537z"/>
	<path fill="#662D91" d="M254.921,174.962c13.659-0.154,23.175,11.203,24.863,23.021c0.307,1.535,0.46,3.07,0.614,4.604
		c0.154,0.921-0.307,1.381-1.228,1.381c-2.609,0.307-5.372,0.614-7.98,1.074c-1.535,0.153-2.302-0.307-2.456-1.995
		c-0.46-3.99-1.535-7.827-3.99-11.357c-5.372-7.367-16.268-6.6-20.258,1.688c-2.456,5.218-1.688,10.129,1.074,15.041
		c2.456,4.604,5.832,8.441,9.208,12.278c6.292,7.213,11.817,14.887,15.808,23.635c3.837,8.594,4.604,17.189-0.46,25.63
		c-5.525,9.208-15.808,12.431-25.937,8.594c-7.06-2.762-10.896-8.134-13.505-14.887c-0.46-1.228-0.153-2.148,1.074-2.762
		c2.609-1.075,5.218-1.996,7.674-3.07c1.074-0.46,1.688,0.154,2.148,1.074c0.614,1.381,1.228,2.763,1.995,4.144
		c1.842,3.683,6.446,5.985,10.436,5.525c2.916-0.46,6.753-4.911,7.367-8.594c0.767-4.297-0.46-8.134-2.302-11.971
		c-3.223-7.06-7.674-13.199-12.738-19.03c-4.911-5.525-9.515-11.204-12.738-17.803c-6.753-14.119,0.307-31.001,14.733-35.452
		C250.47,175.115,252.465,174.808,254.921,174.962z"/>
	<path fill="#662D91" d="M331.813,234.202c0,4.451,0.153,8.901,0,13.199c-0.153,7.674,0.768,15.194,1.381,22.868
		c0.153,1.841-0.307,2.916-2.456,2.916c-1.995,0.153-4.144,0.46-6.292,0.767c-1.842,0.46-2.456-0.614-2.609-1.995
		c-0.307-2.456-0.768-4.758-0.921-7.06c-0.768-9.362-1.381-18.57-0.921-27.932c0.768-14.273,2.148-28.393,6.753-42.205
		c2.148-6.753,4.911-13.199,10.283-18.263c5.832-5.525,14.273-5.525,20.258,0c5.985,5.832,9.055,13.352,11.664,21.026
		c3.069,9.515,4.757,19.337,5.832,29.313c1.228,10.283,1.535,20.565,1.228,31.001c-0.153,6.753-0.921,13.353-1.842,20.105
		c-0.153,1.381-0.767,1.995-2.148,1.842c-2.609-0.307-5.372-0.614-7.98-1.074c-1.074-0.154-1.842-0.921-1.535-2.149
		c1.995-12.124,1.688-24.095,1.535-36.219c0-1.688-0.154-3.223-0.307-4.911c-0.153-1.535-1.381-1.228-2.302-1.228
		c-7.98,0-16.114,0-24.095,0C335.649,234.202,333.961,234.202,331.813,234.202z M332.887,222.385c2.763,0,5.065,0,7.367,0
		c6.6,0,13.352,0,19.952,0c1.074,0,2.302,0.307,1.995-1.535c-1.381-8.748-3.223-17.342-6.6-25.63
		c-1.535-3.376-3.069-6.906-5.832-9.516c-2.149-2.148-3.223-2.148-5.218-0.153c-1.228,1.074-1.995,2.302-2.763,3.684
		C336.263,199.364,334.421,210.567,332.887,222.385z"/>
	<path fill="#662D91" d="M395.658,214.711c-0.307,3.223-0.46,6.446-0.614,9.669c-0.614,7.521-0.614,15.041-1.074,22.407
		c-0.46,8.441-1.075,16.882-1.381,25.323c0,1.995-0.46,3.991-0.46,5.986c0.153,1.228-0.46,1.841-1.688,1.841
		c-2.916-0.153-5.678-0.307-8.441-0.46c-1.074-0.153-1.228-1.074-1.228-1.841c0.153-4.758,0.153-9.516,0.614-14.273
		c0.46-3.53,0.307-7.213,0.614-10.897c0.614-7.367,0.614-14.733,1.074-22.1c0.46-9.976,1.075-19.951,1.688-29.773
		c0.153-4.451,0.307-8.901,0.46-13.352c0.153-6.753,0-6.753,6.599-6.753c4.758,0,4.758,0,6.292,4.604
		c7.213,21.793,14.58,43.74,21.793,65.533c0.154,0.307,0.307,0.614,0.614,1.381c-0.46-5.371,0.307-10.129,0.46-14.887
		c0.46-11.664,1.074-23.481,1.688-35.145c0.153-4.911,0.46-9.822,0.46-14.733c0-2.149,0.614-4.144,0.307-6.446
		c-0.154-0.92,0.767-1.074,1.535-1.074c2.762,0,5.525,0,8.288,0c1.228,0,1.842,0.614,1.842,1.995
		c-0.307,5.372-0.461,10.897-0.768,16.422c-0.307,3.683-0.153,7.52-0.46,11.357c-0.461,5.218-0.308,10.589-0.614,15.961
		c-0.46,10.437-0.921,21.026-1.381,31.616c-0.307,5.985-0.768,11.971-0.768,17.956c-0.153,4.144-0.46,4.451-4.451,4.451
		c-2.148,0-4.297,0.154-6.446,0.46c-2.148,0.307-3.069-0.614-3.683-2.609c-6.292-19.337-12.892-38.675-19.185-58.013
		C396.732,217.781,396.271,216.246,395.658,214.711z"/>
</g>
<path d="M847.621,104.845c-10.147-26.788-26.313-48.842-48.46-66.853c9.347-7.935,3.786-26.033-9.718-18.533
	c-8.472,4.705-6.141,11.14-17.039,9.832c-10.586-1.27-21.291-1.561-31.93-0.841c-19.104,1.292-38.101,5.81-55.506,13.855
	c-9.407,4.348-48.318,23.885-46.746,35.658c2.619,2.321,9.291,1.524,12.519,2.818c5.76,2.31,11.543,5.884,16.014,10.204
	c4.669,4.511,7.608,10.275,8.606,16.69c1.471,9.443,2.098,8.683,11.372,6.589c12.241-2.763,27.458-4.441,38.742,2.596
	c6.687,4.17,4.562,10.152,7.896,16.283c5.395-0.365,10.377-3.041,15.785-3.321c-4.161,8.967-10.893,23.124-14.909,32.155
	c0,0-14.27-2.357-23.075-3.904c-22.629-3.977-44.701-6.25-67.645-6.891c-21.885-0.609-43.819,0.494-65.568,2.956
	c-9.316,1.055-21.626,3.529-21.626,3.529c-3.609-9.047-11.928-22.107-13.261-31.245c-1.857-12.843-21.412-14.118-29.712-12.381
	c-19.692-2.352-34.518-2.943-54.274-4.473c-6.679-0.518-14.08-1.3-16.943,5.536c-2.719,6.482-1.52,15.081,5.244,19.283
	c22.986-0.537,70.28,5.947,72.267,11.014c4.68,11.6,9.673,19.93,9.673,19.93c-12.175,3.687-32.078,6.088-41.491,15.411
	c-9.658,9.566-0.482,28.251,0.114,40.317c1.722,34.787,7.835,70.859,21.234,103.313c25.907,62.745,77.974,100.125,146.121,95.955
	c67.549-4.133,114.541-46.397,137.575-108.565c12.286-33.16,14.656-67.046,11.25-101.917c-0.92-9.426-0.209-19.608-7.798-26.472
	c-11.885-10.75-29.643-13.384-44.214-18.747c3.059-6.924,5.495-14.098,8.386-21.09c1.389-3.43,2.955-6.775,4.701-10.037
	c5.17,1.907,9.963,4.765,14.054,8.46c4.086,3.689,7.433,12.417,12.475,14.531c7.546-1.069,13.553-6.583,21.948-7.126
	c6.7-0.433,13.731,0.164,20.073,2.489c4.092,1.5,12.42,11.745,16.201,5.821C859.54,142.659,853.362,120.003,847.621,104.845
	C844.066,95.461,852.382,117.415,847.621,104.845z"/>
<g>
	<g>
		<path fill="#27AAE1" d="M35.417,544.279c-0.177-9.535-0.354-19.247-0.53-28.959c-0.354-14.126-0.53-28.252-1.236-42.201
			c-0.353-10.595,0.707-21.012,0.177-31.606c-0.177-2.296,1.06-2.825,3.002-2.825c12.007-0.177,22.425,3.708,31.606,11.301
			c12.36,10.771,18.894,24.544,20.66,40.788c2.119,17.481-1.942,33.373-12.537,47.499c-8.123,10.771-19.247,17.305-32.843,19.247
			c-1.06,0.176-2.295,0.176-3.532,0.176c-3.884,0-4.237-0.529-4.591-4.414c-0.176-0.177-0.176-0.529-0.176-0.706
			C35.417,549.753,35.417,547.104,35.417,544.279z M47.247,453.696c-0.53,1.766,0.176,3.531,0.176,5.121
			c0,14.479,0.53,28.781,1.06,43.084c0.353,12.007,0.353,24.19,0.53,36.197c0,1.413-0.177,2.825,0.883,4.062
			c6.886-2.648,12.537-7.063,16.951-13.243c7.239-10.418,10.064-21.896,9.182-34.608c-1.236-13.773-6.356-25.427-16.951-34.433
			C55.546,456.875,51.838,454.579,47.247,453.696z"/>
		<path fill="#27AAE1" d="M122.644,504.902c4.768,4.592,9.182,8.652,13.597,12.891c5.827,5.474,11.83,10.947,17.657,16.244
			c1.589,1.413,1.589,2.473,0.177,3.885c-2.119,1.942-4.238,3.885-5.827,6.181c-1.06,1.235-2.119,1.235-3.355,0
			c-5.474-5.121-11.124-10.418-16.774-15.716c-5.65-5.297-11.478-10.594-17.481-16.244c-0.353,2.119,0.353,3.885,0.353,5.474
			c0.177,10.771,0.353,21.365,0.53,32.137c0,3.354-0.177,3.531-3.708,3.531c-2.472,0-4.944,0-7.416,0
			c-1.766,0.177-2.472-0.706-2.825-2.296c0-0.529-0.177-1.235,0-1.766c0.176-9.005-0.53-18.01-0.53-26.839
			c0-10.418-0.53-20.836-0.707-31.254c-0.353-14.303-0.883-28.605-0.883-42.907c0-1.766-0.53-3.708-0.53-5.65
			c-0.176-3.885,1.236-5.474,5.297-6.004c11.124-1.235,22.072-0.529,32.667,3.179c8.829,3.002,16.421,7.77,20.835,16.421
			c4.944,9.712,3.002,19.07-2.825,27.723c-6.003,9.005-14.832,14.832-24.543,19.246
			C125.292,503.667,124.233,504.196,122.644,504.902z M109.931,483.184c0,3.002,0,6.004,0,9.006c0,1.942,0.706,2.825,2.825,1.942
			c1.412-0.53,3.001-1.06,4.414-1.589c8.652-3.532,16.598-7.946,22.249-15.539c4.238-5.65,4.944-10.947,1.589-15.892
			c-1.589-2.648-3.885-4.591-6.534-6.003c-7.416-4.062-15.362-5.475-23.661-5.475c-1.413,0-1.942,0.707-1.766,2.119
			C109.931,462.172,109.224,472.767,109.931,483.184z"/>
		<path fill="#27AAE1" d="M164.495,543.396c-0.353-8.476-0.353-18.011-0.707-27.546c-0.353-13.949-0.53-27.899-1.06-41.849
			c-0.353-8.828,0.354-17.834-0.883-26.839c0-1.06,0-2.119,0-3.002c0.177-1.412,0.883-2.119,2.119-2.119
			c3.002-0.176,6.003-0.706,9.005-0.529c2.119,0,3.001,0.706,3.001,2.825c0,4.768,0.177,9.535,0.354,14.303
			c0.353,11.477,0.353,22.954,0.706,34.432c0.353,15.186,0.707,30.548,1.06,45.909c0,4.768,0.353,9.712,0.353,14.479
			c0.177,2.295-0.706,3.354-3.001,3.354c-2.649-0.177-5.121-0.177-7.77,0c-2.295,0-3.178-1.06-3.178-3.178
			C164.495,550.636,164.495,547.634,164.495,543.396z"/>
		<path fill="#27AAE1" d="M201.046,480.359c-0.353,3.708-0.53,7.416-0.706,11.124c-0.707,8.651-0.707,17.304-1.236,25.779
			c-0.53,9.712-1.236,19.424-1.589,29.135c0,2.296-0.53,4.591-0.53,6.887c0.176,1.413-0.53,2.119-1.942,2.119
			c-3.355-0.177-6.533-0.354-9.712-0.53c-1.236-0.176-1.413-1.235-1.413-2.118c0.177-5.475,0.177-10.948,0.707-16.422
			c0.53-4.062,0.353-8.299,0.706-12.537c0.707-8.476,0.707-16.951,1.236-25.427c0.53-11.477,1.236-22.954,1.942-34.255
			c0.176-5.121,0.353-10.241,0.53-15.362c0.176-7.769,0-7.769,7.592-7.769c5.474,0,5.474,0,7.24,5.297
			c8.299,25.073,16.774,50.323,25.074,75.397c0.176,0.353,0.353,0.706,0.706,1.589c-0.53-6.181,0.353-11.654,0.53-17.128
			c0.53-13.42,1.236-27.016,1.942-40.436c0.177-5.65,0.53-11.301,0.53-16.951c0-2.472,0.706-4.768,0.353-7.416
			c-0.177-1.06,0.883-1.236,1.766-1.236c3.179,0,6.357,0,9.535,0c1.413,0,2.119,0.707,2.119,2.296
			c-0.354,6.18-0.53,12.537-0.883,18.894c-0.354,4.237-0.177,8.652-0.53,13.066c-0.53,6.004-0.354,12.184-0.707,18.363
			c-0.53,12.008-1.06,24.191-1.589,36.375c-0.354,6.886-0.883,13.772-0.883,20.659c-0.176,4.768-0.53,5.12-5.121,5.12
			c-2.472,0-4.944,0.177-7.416,0.53c-2.472,0.353-3.531-0.706-4.238-3.002c-7.24-22.248-14.833-44.497-22.072-66.745
			C202.282,483.891,201.752,482.125,201.046,480.359z"/>
		<path fill="#27AAE1" d="M267.438,507.728c-0.177,4.415,0.177,8.123,0.177,12.008c0.529,10.947,0.529,21.719,0.706,32.666
			c0.177,2.296-0.706,3.354-3.178,3.354c-2.649-0.176-5.121-0.176-7.77,0c-1.942,0-2.825-0.883-3.001-2.648
			c0-0.529-0.177-1.06,0-1.589c0.176-9.358-0.707-18.894-0.707-28.252c0.177-9.889-0.353-19.953-0.53-30.018
			c-0.353-14.126-0.883-28.252-0.883-42.555c0-2.472-0.353-4.944-0.53-7.416c0-1.236,0.53-2.119,2.119-2.295
			c2.825-0.177,5.65-0.53,8.652-0.53c2.296,0,3.355,0.706,3.355,3.002c-0.353,9.535,0.707,19.069,0.53,28.604
			c-0.176,2.296,0.354,4.768,0.53,7.24c0.707,0,0.883-0.354,1.236-0.53c10.065-10.064,20.306-19.952,30.371-30.018
			c1.413-1.412,2.472-1.942,4.061-0.177c1.942,2.119,4.062,3.885,6.004,5.65c1.413,1.06,1.236,2.296,0,3.532
			c-7.593,7.416-15.009,15.361-22.955,22.602c-4.414,4.061-8.652,8.299-12.537,13.066c1.589,1.766,3.002,3.708,4.768,5.474
			c10.948,11.653,21.895,23.308,33.02,35.138c1.766,1.767,3.355,3.709,5.121,5.65c1.06,1.06,1.06,2.119-0.177,3.179
			c-2.119,2.119-4.238,4.414-6.709,6.356c-1.06,0.883-1.766,0.883-2.825-0.176c-3.885-4.238-8.123-8.3-11.831-12.714
			c-2.649-3.002-5.65-5.827-8.299-8.829c-5.474-6.356-11.477-12.359-17.304-18.54C268.498,508.611,268.145,508.258,267.438,507.728z
			"/>
		<path fill="#27AAE1" d="M401.814,546.574c-2.472,2.296-4.414,4.768-7.063,6.356c-7.77,4.592-16.775,2.296-22.425-6.003
			c-3.355-4.768-5.121-10.418-5.827-16.422c-1.589-13.949,1.766-26.839,8.299-39.022c0.53-1.06,0.53-2.119,0.177-3.179
			c-2.119-7.239-3.532-14.832-3.532-22.425c-0.353-10.595,1.942-20.659,10.065-28.429c4.591-4.414,9.711-6.356,15.892-4.591
			s9.182,6.71,10.594,12.714c1.942,8.651-0.706,16.598-4.414,24.19c-3.355,6.71-7.417,13.066-11.654,19.246
			c-1.413,2.119-1.589,3.885-0.707,6.181c2.825,7.239,5.297,14.479,9.182,21.895c1.589-4.767,2.648-9.182,3.708-13.596
			c0.529-2.825,1.059-5.827,1.589-8.829c0.354-2.118,1.236-3.001,3.708-2.295c2.472,0.529,5.121,0.883,7.77,1.235
			c2.119,0.177,2.295,1.413,1.942,3.002c-2.119,11.831-4.944,23.661-9.182,34.962c-0.353,1.06-0.353,2.119,0.177,3.002
			c1.589,2.296,2.825,4.768,4.415,6.887c1.412,1.942,0.883,3.001-0.707,4.061c-2.119,1.59-4.415,3.002-6.357,4.768
			c-1.412,1.06-2.295,0.883-3.178-0.529C403.581,548.693,402.698,547.811,401.814,546.574z M382.038,508.964
			c-2.295,7.946-3.178,15.539-1.412,23.308c0.706,3.002,1.589,6.004,3.884,8.123c1.413,1.412,2.825,1.589,4.238,0.177
			c1.589-1.59,3.002-3.179,4.238-5.121c0.883-1.236,0.883-2.119,0.177-3.179C388.925,524.855,385.393,517.263,382.038,508.964z
			 M385.57,474.002c3.885-6.356,7.416-12.184,9.182-18.893c0.529-2.473,0.706-5.121-0.177-7.593
			c-0.883-1.767-1.766-2.119-3.178-0.883c-1.413,1.235-2.649,2.648-3.532,4.414C383.98,458.287,384.51,465.703,385.57,474.002z"/>
		<path fill="#27AAE1" d="M484.453,502.784c0,5.12,0.176,10.241,0,15.186c-0.177,8.828,0.883,17.48,1.589,26.31
			c0.177,2.118-0.354,3.354-2.825,3.354c-2.296,0.177-4.768,0.53-7.239,0.883c-2.119,0.53-2.825-0.706-3.002-2.295
			c-0.354-2.825-0.883-5.475-1.06-8.123c-0.883-10.771-1.589-21.365-1.06-32.137c0.883-16.421,2.472-32.666,7.77-48.558
			c2.472-7.77,5.65-15.186,11.83-21.013c6.71-6.356,16.422-6.356,23.308,0c6.887,6.71,10.418,15.362,13.42,24.191
			c3.531,10.947,5.474,22.248,6.71,33.726c1.413,11.83,1.766,23.661,1.413,35.668c-0.177,7.77-1.06,15.361-2.119,23.131
			c-0.177,1.59-0.883,2.296-2.473,2.119c-3.001-0.354-6.18-0.706-9.182-1.236c-1.236-0.176-2.119-1.06-1.766-2.472
			c2.296-13.949,1.942-27.723,1.766-41.672c0-1.942-0.177-3.708-0.353-5.65c-0.177-1.766-1.59-1.412-2.649-1.412
			c-9.182,0-18.54,0-27.722,0C488.867,502.784,486.925,502.784,484.453,502.784z M485.688,489.188c3.179,0,5.827,0,8.476,0
			c7.593,0,15.362,0,22.955,0c1.236,0,2.648,0.354,2.295-1.766c-1.589-10.064-3.708-19.953-7.592-29.487
			c-1.767-3.885-3.532-7.946-6.71-10.948c-2.473-2.472-3.708-2.472-6.004-0.177c-1.413,1.236-2.296,2.649-3.179,4.238
			C489.573,462.701,487.454,475.592,485.688,489.188z"/>
		<path fill="#27AAE1" d="M583.16,543.043c-0.707-32.313-1.413-64.626-2.473-96.763c0-2.648,0-6.356,2.648-7.77
			c2.473-1.412,7.946-0.883,10.771-1.06c8.299,0,16.774,1.06,24.721,3.885c7.063,2.473,13.419,6.181,18.011,12.184
			c6.886,9.358,6.886,20.659,0.353,30.9c-8.299,12.891-23.484,21.189-37.963,24.897c-1.06,0.177-2.119,0.529-2.649,1.412
			c-0.353,0.53-0.353,1.413-0.353,2.119c0.353,10.595,0.706,21.365,1.06,31.96c0,2.648,0.176,5.297-0.354,7.77
			c-0.177,0.706-0.354,1.412-0.883,1.942c-0.53,0.353-1.236,0.353-1.766,0.353c-2.648,0-5.298,0-7.946,0
			c-0.706,0-1.589,0-2.119-0.529c-0.883-0.529-1.059-1.766-1.059-2.825C583.16,548.693,583.16,545.868,583.16,543.043z
			 M595.52,485.126c0,1.767,0,3.355,0,4.944c0.177,2.119-0.883,7.416,2.825,5.65c1.413-0.706,3.002-1.06,4.592-1.766
			c8.476-3.354,16.244-7.945,22.071-15.362c5.827-7.769,4.591-15.715-3.531-21.012c-4.591-3.002-9.712-4.768-15.186-5.65
			c-2.648-0.53-5.474-0.706-8.122-0.706c-4.062-0.177-3.532,1.06-3.355,4.768c0.177,7.592,0.354,15.185,0.53,22.777
			C595.344,480.889,595.344,483.008,595.52,485.126z"/>
		<path fill="#27AAE1" d="M706.763,493.072c-0.529,14.126-1.942,27.546-7.239,40.259c-2.473,5.827-5.474,11.124-9.889,15.716
			c-9.182,9.182-22.602,8.299-30.9-2.296c-6.533-8.476-9.358-18.364-11.478-28.781c-1.412-6.71-1.766-13.597-1.766-20.483
			c0-15.186,2.119-30.018,8.652-43.79c2.472-5.297,5.65-9.888,10.241-13.772c9.535-7.77,21.189-5.475,28.782,3.885
			c6.533,8.122,9.534,17.834,11.477,27.898C706.057,478.946,706.41,486.186,706.763,493.072z M692.99,493.602
			c0.177-7.063-0.53-14.126-2.119-21.012c-1.589-7.416-3.708-14.655-8.652-20.659c-3.002-3.708-6.533-4.062-10.064-0.706
			c-2.119,1.942-3.708,4.237-4.944,6.71c-5.65,10.947-7.416,22.601-8.122,34.608c-0.53,8.476,0.177,16.951,1.942,25.25
			c1.589,7.416,3.885,14.655,8.651,20.836c3.179,4.061,6.71,4.237,10.418,0.706c1.942-1.942,3.532-4.062,4.768-6.533
			C691.048,520.441,692.813,507.198,692.99,493.602z"/>
		<path fill="#27AAE1" d="M773.334,493.072c-0.529,14.126-1.942,27.546-7.239,40.259c-2.473,5.827-5.474,11.124-9.889,15.716
			c-9.182,9.182-22.602,8.299-30.9-2.296c-6.533-8.476-9.358-18.364-11.478-28.781c-1.412-6.71-1.766-13.597-1.766-20.483
			c0-15.186,2.119-30.018,8.652-43.79c2.472-5.297,5.65-9.888,10.241-13.772c9.535-7.77,21.189-5.475,28.782,3.885
			c6.533,8.122,9.534,17.834,11.477,27.898C772.628,478.946,772.98,486.186,773.334,493.072z M759.562,493.602
			c0.177-7.063-0.53-14.126-2.119-21.012c-1.589-7.416-3.708-14.655-8.652-20.659c-3.002-3.708-6.533-4.062-10.064-0.706
			c-2.119,1.942-3.708,4.237-4.944,6.71c-5.65,10.947-7.416,22.601-8.122,34.608c-0.53,8.476,0.177,16.951,1.942,25.25
			c1.589,7.416,3.885,14.655,8.652,20.836c3.178,4.061,6.709,4.237,10.417,0.706c1.942-1.942,3.532-4.062,4.768-6.533
			C757.619,520.441,759.385,507.198,759.562,493.602z"/>
		<path fill="#27AAE1" d="M793.112,462.878c0.353,16.245,0.883,33.02,1.235,49.794c0.177,7.063,0.354,14.126,0.354,21.189
			c0.177,6.18,0.177,6.18,6.004,6.18c4.943-0.177,9.888-0.706,14.832-0.529c2.119,0,3.002,0.706,3.002,2.825
			c-0.177,2.472-0.177,5.12,0,7.593c0,1.942-0.706,2.648-2.648,2.825c-9.006,0.353-18.011,0.883-27.017,0.883
			c-0.706,0-1.235,0.177-1.766,0.177c-4.591,0.706-5.474,0.176-5.827-4.592c0-0.353,0-0.706,0-0.883
			c-0.176-11.477-0.353-22.954-0.706-34.432c-0.353-15.009-0.529-30.018-1.06-45.026c-0.177-6.71-0.177-13.42-0.353-20.13
			c-0.177-2.648-0.354-5.297-0.53-8.122c0-1.766,0.53-2.648,2.473-2.825c2.825,0,5.65-0.53,8.476-0.53
			c2.118,0,3.178,0.884,3.178,3.002C792.406,447.692,793.465,455.109,793.112,462.878z"/>
	</g>
	<path fill="#27AAE1" d="M574.077,206.068c49.979,3.993,102.03,0.699,146.084-5.305c1.44-2.451,2.396-5.386,3.183-8.49
		c-9.94-2.476-18.7-6.576-29.711-5.659c-5.877,0.489-11.758,2.386-17.686,3.537c-13.589,2.642-29.004,5.739-43.86,0.706
		c-2.764-0.936-4.659-2.717-7.074-3.536c-11.108-3.763-23.152,1.769-35.372,1.769c-8.191,0-16.722-2.932-23.699,1.062
		c0.996,2.775,2.611,5.392,3.891,8.136C571.082,200.963,572.01,204.015,574.077,206.068z"/>
	<path fill="#27AAE1" d="M549.671,203.946c-1.797-3.509-2.883-7.729-5.659-10.259c-2.005,0.654-4.549,1.411-4.952,3.538
		c-0.376,1.986,1.082,2.857,1.415,4.952C543.561,202.747,546.298,203.665,549.671,203.946z"/>
</g>
<g>
	<path fill="#D1D3D4" d="M729.358,178.125c-20.178-3.148-42.359-6.159-65.438-8.136c-11.556-0.989-23.531-0.679-35.725-1.061
		c-25.629-0.805-49.19-0.63-69.328,4.598c1.341,4.907,3.847,8.651,5.305,13.44c7.048-4.293,17.557-0.696,27.236-1.061
		c9.754-0.365,18.208-4.002,27.59-3.184c6.214,0.543,10.295,3.465,14.855,4.953c13.728,4.478,28.69,1.821,41.385-0.709
		c5.724-1.14,11.617-3.076,17.686-3.535c11.362-0.863,21.646,2.662,31.835,6.012C726.104,185.482,727.608,181.681,729.358,178.125z"
		/>
	<path fill="#D1D3D4" d="M762.607,189.09c-3.531-5.901-9.941-8.924-18.747-9.55c-3.561,5.401-5.448,12.474-8.136,18.747
		C745.985,196.521,757.141,195.65,762.607,189.09z"/>
	<path fill="#D1D3D4" d="M542.95,190.506c-1.46-4.082-3.257-7.828-5.306-11.32c-3.438,1.339-6.613,1.926-8.488,4.6
		c-4.393,6.257,0.819,14.855,6.721,16.624C532.953,195.158,538.17,191.313,542.95,190.506z"/>
</g>
<g>
	<g>
		<path fill="#B1D23A" d="M58.627,55.772c5.832,0,11.664,0.154,17.343,0c4.604,0,3.069,5.985,3.069,8.901
			c-0.154,0.921-0.154,1.995-0.921,2.456c-0.46,0.46-1.228,0.46-1.842,0.46c-4.604-0.153-9.055-0.153-13.505-0.307
			c-0.46,0-0.768,0-1.074,0.307c-0.46,0.307-0.614,0.921-0.614,1.535c0.614,28.699,0.921,57.552,1.381,86.251
			c0,0.921,0,2.149-0.767,2.763c-0.46,0.614-1.381,0.614-2.149,0.767c-2.456,0-4.758,0-7.06-0.307c-0.768,0-1.535-0.154-1.995-0.768
			c-0.307-0.46-0.307-1.074-0.307-1.535c-0.46-14.273-0.307-28.699-0.46-42.972c-0.307-14.733-0.46-29.313-0.614-43.894
			c0-0.614,0-1.228-0.46-1.535c-0.307-0.307-0.921-0.307-1.381-0.307c-3.683,0-7.213,0-10.896,0c-0.768,0-1.688,0-2.302-0.614
			c-0.46-0.614-0.614-1.535-0.614-2.302c0.153-2.456-1.228-8.901,2.456-8.901C43.434,55.159,51.107,55.926,58.627,55.772z"/>
		<path fill="#B1D23A" d="M109.888,115.013c-3.376,0-6.753,0-10.283,0c-1.381,0-2.149,0.46-2.149,1.995
			c0.307,9.515,0.614,19.184,0.768,28.699c0.153,3.684,0.153,7.367,0.153,10.897c0,1.535-0.768,2.148-2.148,2.148
			c-2.456,0-5.065-0.153-7.521,0c-1.535,0-2.148-0.768-2.302-2.148c-0.154-0.46-0.154-0.921-0.154-1.535
			c0.154-7.98-0.46-15.808-0.46-23.788c0-8.901-0.46-17.803-0.614-26.704c-0.307-12.432-0.767-24.709-0.767-36.987
			c0-2.148-0.307-4.144-0.46-6.292c-0.154-1.535,0.614-2.302,2.302-2.302c2.456-0.153,4.911-0.46,7.521-0.46
			c1.688,0,2.456,0.768,2.456,2.456c-0.154,4.604,0.307,9.208,0.307,13.813c0,8.748,0.768,17.342,0.46,26.09
			c0,1.535,0.307,2.302,2.149,2.302c6.752,0,13.505-0.153,20.258,0.46c1.995,0.153,2.609-0.614,2.456-2.609
			c-0.153-11.05-0.307-22.1-0.46-33.15c0-1.995-0.307-3.837-0.46-5.832c0-1.228,0.46-1.995,1.842-2.148
			c2.609-0.154,5.218-0.614,7.98-0.46c1.842,0,2.456,0.921,2.456,2.609c0,4.144,0.153,8.288,0.307,12.431
			c0.46,10.283,0.307,20.565,0.614,30.695c0.46,13.045,0.614,25.937,0.921,38.829c0.153,4.297,0.307,8.595,0.46,12.892
			c0,1.842-0.768,2.763-2.609,2.763c-2.302-0.153-4.604-0.153-6.906,0c-1.841,0-2.456-0.768-2.609-2.302
			c-0.153-0.46-0.153-0.921-0.153-1.381c0.307-9.055-0.614-17.956-0.46-27.011c0.153-4.144-0.614-8.134-0.46-12.278
			c0-1.381-0.614-1.688-1.995-1.688C116.947,115.013,113.417,115.013,109.888,115.013z"/>
		<path fill="#B1D23A" d="M142.425,148.47c-0.307-7.367-0.307-15.654-0.614-23.942c-0.307-12.124-0.46-24.249-0.921-36.373
			c-0.307-7.673,0.307-15.5-0.767-23.328c0-0.921,0-1.842,0-2.609c0.153-1.228,0.767-1.841,1.841-1.841
			c2.609-0.154,5.218-0.614,7.827-0.46c1.842,0,2.609,0.614,2.609,2.456c0,4.144,0.153,8.288,0.307,12.431
			c0.307,9.976,0.307,19.952,0.614,29.927c0.307,13.199,0.614,26.551,0.92,39.903c0,4.144,0.307,8.441,0.307,12.585
			c0.153,1.995-0.614,2.916-2.609,2.916c-2.302-0.154-4.451-0.154-6.753,0c-1.995,0-2.763-0.921-2.763-2.763
			C142.425,154.763,142.425,152.154,142.425,148.47z"/>
		<path fill="#B1D23A" d="M183.71,53.931c13.659-0.154,23.175,11.203,24.863,23.021c0.307,1.535,0.46,3.07,0.614,4.604
			c0.154,0.921-0.307,1.381-1.228,1.381c-2.609,0.307-5.372,0.614-7.981,1.074c-1.535,0.153-2.302-0.307-2.455-1.995
			c-0.46-3.99-1.535-7.827-3.991-11.357c-5.372-7.367-16.268-6.6-20.258,1.688c-2.456,5.218-1.688,10.129,1.074,15.041
			c2.456,4.604,5.832,8.441,9.208,12.278c6.292,7.213,11.817,14.887,15.808,23.635c3.837,8.594,4.604,17.189-0.46,25.63
			c-5.525,9.208-15.808,12.431-25.937,8.595c-7.06-2.763-10.897-8.134-13.506-14.887c-0.46-1.228-0.153-2.148,1.074-2.762
			c2.609-1.075,5.218-1.995,7.674-3.07c1.074-0.46,1.688,0.154,2.148,1.075c0.614,1.381,1.228,2.762,1.995,4.144
			c1.842,3.683,6.446,5.985,10.437,5.525c2.916-0.46,6.752-4.911,7.366-8.594c0.768-4.297-0.46-8.134-2.302-11.971
			c-3.223-7.06-7.674-13.199-12.738-19.03c-4.911-5.525-9.516-11.204-12.738-17.803c-6.753-14.119,0.307-31.001,14.733-35.452
			C179.26,54.084,181.255,53.777,183.71,53.931z"/>
		<path fill="#B1D23A" d="M287.306,132.202c-3.376,0-6.139-0.153-9.055,0c-1.688,0-2.456-0.614-2.302-2.302c0-1.688,0-3.53,0-5.372
			c-0.153-1.535,0.614-1.995,2.149-1.995c6.139-0.307,12.278-0.614,18.417-0.921c2.763-0.153,3.069,0.154,2.916,2.916
			c-0.46,9.516-1.995,18.724-8.594,26.551c-6.6,7.827-16.422,10.283-25.323,3.07c-5.985-5.065-9.362-11.664-11.817-18.724
			c-3.99-10.896-5.218-22.1-5.064-33.457c0.153-9.976,1.381-19.491,5.064-28.699c1.995-5.372,4.758-10.436,9.362-14.12
			c7.367-5.832,16.115-5.372,23.021,1.228c4.911,4.604,7.98,10.436,10.283,16.575c0.614,1.688,0.307,2.763-1.381,3.376
			c-2.148,0.614-4.451,1.381-6.599,2.302c-1.381,0.46-2.149,0.153-2.609-1.228c-1.381-3.53-2.916-6.906-5.372-9.822
			c-0.614-0.92-1.381-1.841-2.148-2.609c-3.223-2.916-6.139-2.762-9.055,0.46c-3.223,3.837-5.065,8.441-6.292,13.199
			c-2.302,8.288-3.223,16.729-2.609,25.323c0.46,9.515,2.149,19.03,6.139,27.778c1.535,3.53,3.53,6.906,6.599,9.362
			c2.609,1.995,5.065,2.149,7.521-0.153C284.083,141.411,285.771,137.113,287.306,132.202z"/>
		<path fill="#B1D23A" d="M316.162,113.171c0,4.451,0.153,8.901,0,13.199c-0.153,7.674,0.768,15.194,1.381,22.868
			c0.153,1.841-0.307,2.916-2.456,2.916c-1.995,0.153-4.144,0.46-6.292,0.767c-1.842,0.46-2.456-0.614-2.609-1.995
			c-0.307-2.456-0.768-4.758-0.921-7.06c-0.768-9.362-1.381-18.57-0.921-27.932c0.768-14.273,2.148-28.393,6.753-42.205
			c2.148-6.753,4.911-13.199,10.283-18.263c5.832-5.525,14.273-5.525,20.258,0c5.985,5.832,9.055,13.352,11.664,21.025
			c3.069,9.516,4.757,19.338,5.832,29.313c1.228,10.283,1.535,20.565,1.228,31.001c-0.153,6.753-0.921,13.352-1.842,20.105
			c-0.153,1.381-0.767,1.995-2.148,1.842c-2.609-0.307-5.372-0.614-7.98-1.074c-1.075-0.153-1.842-0.921-1.535-2.149
			c1.995-12.124,1.688-24.095,1.535-36.219c0-1.688-0.154-3.223-0.307-4.911c-0.153-1.535-1.381-1.228-2.302-1.228
			c-7.98,0-16.114,0-24.095,0C319.999,113.171,318.31,113.171,316.162,113.171z M317.236,101.354c2.763,0,5.065,0,7.367,0
			c6.6,0,13.352,0,19.952,0c1.074,0,2.302,0.307,1.995-1.535c-1.381-8.748-3.223-17.342-6.599-25.63
			c-1.535-3.376-3.07-6.906-5.832-9.516c-2.149-2.148-3.223-2.148-5.218-0.153c-1.228,1.074-1.995,2.302-2.763,3.684
			C320.612,78.333,318.771,89.537,317.236,101.354z"/>
		<path fill="#B1D23A" d="M377.705,78.487c0.307,14.119,0.768,28.699,1.075,43.279c0.153,6.139,0.307,12.278,0.307,18.417
			c0.153,5.372,0.153,5.372,5.218,5.372c4.297-0.153,8.594-0.614,12.892-0.46c1.842,0,2.609,0.614,2.609,2.456
			c-0.153,2.149-0.153,4.451,0,6.6c0,1.688-0.614,2.302-2.302,2.456c-7.827,0.307-15.654,0.767-23.481,0.767
			c-0.614,0-1.074,0.154-1.535,0.154c-3.99,0.614-4.758,0.153-5.065-3.991c0-0.307,0-0.614,0-0.767
			c-0.153-9.976-0.307-19.952-0.614-29.927c-0.307-13.045-0.46-26.09-0.921-39.136c-0.153-5.832-0.153-11.664-0.307-17.496
			c-0.154-2.302-0.307-4.604-0.46-7.06c0-1.535,0.46-2.302,2.148-2.456c2.456,0,4.911-0.46,7.367-0.46
			c1.842,0,2.763,0.768,2.763,2.609C377.091,65.288,378.012,71.734,377.705,78.487z"/>
	</g>
	<path fill="#B1D23A" d="M569.479,205.715c-11.845-22.82-20.091-49.238-31.48-72.512c-3.668,3.879-8.372,6.721-12.733,9.904
		c8.633,21.313,19.017,40.879,28.296,61.547C559.031,204.844,563.931,205.604,569.479,205.715z"/>
	<path fill="#B1D23A" d="M524.203,139.924c3.667-3.02,9.283-6.494,12.734-9.904c1.243-1.228,3.104-2.959,1.062-4.598
		c-4.146,2.457-5.229,7.977-10.259,9.551c-0.352-0.474-0.955-0.695-1.061-1.416c1.93-4.674,6.583-6.622,8.489-11.318
		c-2.174-1.127-4.454-2.148-7.075-2.83c0.271,2.401-0.633,4.795-1.061,7.074c-0.411,2.184,0.025,5.138-2.122,6.014
		c-3.183-0.537-1.45-4.192-1.061-6.367c0.465-2.602,1.225-5.371,1.061-7.781c-1.255-0.207-3.38-0.873-4.244-0.354
		c0.856,6.752,1.406,14.132,0,20.515C522.883,137.943,523.01,139.469,524.203,139.924z"/>
	<path fill="#B1D23A" d="M517.482,119.408c-22.924-2.071-44.56-5.432-69.681-5.305c-2.313,3.535-2.272,11.656-0.354,15.563
		c25.373-1.026,47.093,4.507,70.035,7.074C518.764,131.819,518.195,124.48,517.482,119.408z"/>
</g>
<path fill="#754C29" d="M794.796,208.898c-4.131,3.496-9.451,6.496-15.211,9.196c-15.409,7.224-34.545,10.177-54.825,12.733
	c-6.502,0.819-13.132,1.629-19.808,2.477c-6.892,0.875-13.9,1.094-20.87,1.768c-27.195,2.633-56.383,5.815-85.244,3.185
	c-13.485-1.229-26.767-3.194-39.263-5.66c-12.957-2.556-25.22-4.923-36.433-8.489c-10.101-3.213-18.323-8.27-26.529-12.733
	c-0.868-0.474-2.687-2.735-3.183-1.061c0.871,23.962,3.121,45.883,8.135,65.79c7.384,29.311,18.061,56.093,33.604,77.109
	c15.479,20.93,34.966,40.834,60.839,50.229c11.871,4.311,26.577,6.48,40.677,7.074c40.583,1.71,71.144-10.34,93.734-26.529
	c4.695-3.363,8.501-7.463,12.734-11.318c25.225-22.971,43.712-52.594,49.873-94.441c3.238-21.992,5.835-46.49,2.122-68.975
	C795.129,209.037,795.097,208.832,794.796,208.898z M589.649,257.955c2.293-2.652,4.518-5.529,7.074-7.781
	c0.88-0.055,1.095,0.556,1.769,0.707c-0.622,5.156-5.081,6.475-7.075,10.258c0.882-0.297,1.896-0.463,3.186-0.354
	c1.728,1.293,3.065,3.789,4.243,6.013c1.058,1.997,3.139,4.542,1.769,6.722c-4.931-0.611-4.053-7.03-7.428-9.197
	c-3.159,0.213-5.815,4.316-8.489,1.77C584.742,262.623,587.654,260.266,589.649,257.955z M560.99,292.374
	c-3.529,2.714-7.423,7.399-13.088,7.075c-1.828-4.969,2.693-9.191,4.245-13.088c-3.653-1.594-12.893,0.984-13.088-3.184
	c-0.154-3.283,7.181-3.506,11.673-3.891c3.217-0.275,7.181-0.977,8.843,0.707c0,0.59,0,1.18,0,1.769
	c-1.916,1.089-3.956,0.458-7.075,0.708c0.978,0.557,2.549,0.518,3.186,1.415c0.278,5.351-2.995,7.146-4.246,10.966
	c4.44-0.117,7.354-8.344,12.733-6.368C564.793,290.672,562.18,291.459,560.99,292.374z M607.767,370.617
	c-0.569,0.149-1.209,0.135-1.711,0.445c-3.261-2.071-4.346-5.051-6.896-7.419c-1.35,1.53-1.971,4.802-4.113,4.431
	c-2.835-2.249-2.758-5.716-5.05-8.191c-3.277-0.223-6.159,3.06-9.466,0.705c-0.486-3.48,3.901-5.766,6.378-8.088
	c2.302-2.16,4.946-7.473,8.19-5.051c-1.29,4.088-5.296,6.6-8.031,9.321c4.666-2.278,7.278,3.122,8.549,6.185
	c0.734-2.352,1.854-3.781,3.518-3.909c2.893,1.683,3.615,4.271,5.856,6.227c0.305-4.556-1.919-8.054-1.266-12.755
	c0.546,0.01,1.008-0.182,1.384-0.578c2.542,2.099,2.437,5.934,2.877,8.827C608.44,363.754,609.104,367.22,607.767,370.617z
	 M651.54,301.925c-0.483,3.308-0.617,9.099-3.536,9.196c-3.311,0.111-3.744-6.13-5.659-8.135c-3.932,1.51-5.736,6.976-11.319,5.659
	c-0.408-4.131,3.076-8.045,5.307-11.319c1.164-1.711,2.364-3.396,3.536-5.305c0.914-1.49,1.976-4.32,4.245-4.244
	c2.014,2.5-0.706,5.239-2.123,7.426c-1.524,2.355-3.219,4.882-4.598,6.722c-0.067,0.287-0.355,0.353-0.354,0.708
	c2.201-0.968,3.141-3.614,5.307-3.537c2.976,0.105,3.298,3.936,4.951,6.366c0.965-1.904,1.092-5.375,1.415-7.782
	c0.262-1.954,0.241-6.646,2.476-6.366C653.714,291.631,651.941,299.184,651.54,301.925z M692.925,362.41
	c-4.152,0.145-6.172-1.846-9.903-2.123c-0.984,1.139,0.377,4.623-1.061,5.307c-0.411-0.058-0.631,0.078-0.708,0.354
	c-3.114-0.541-4.333-2.979-7.075-3.891c-3.485,1.348-2.53,7.137-7.427,7.074c-1.714-2.733,0.198-6.908,1.414-10.965
	c0.814-2.715,1.771-9.902,4.246-9.551c3.395,0.482-0.817,8.181-1.063,10.611c1.963-1.381,5.931,0.048,7.782,1.769
	c0.848-0.803-0.16-3.461,1.061-3.891c2.936-1.1,5.934,0.62,8.49,1.062c-0.329-1.749-2.875-3.066-4.952-4.953
	c-1.21-1.097-7.713-6.509-3.538-7.074c1.963-0.266,4.807,3.187,6.721,4.952c3.377,3.118,6.454,5.487,7.074,10.259
	C693.478,361.547,693.123,361.9,692.925,362.41z M694.693,259.479c-3.165,2.378-7.064-1.894-10.257-2.83
	c-2.526,2.661,0.045,10.422-4.952,10.612c-1.188-4.039,0.903-10.551,2.829-13.796c2.629-0.821,4.702,0.917,6.721,1.769
	c-1.656-3.768-4.536-6.311-6.013-10.257c2.903-3.474,5.529,3.081,7.429,6.013C692.574,254.272,694.924,256.601,694.693,259.479z
	 M748.459,339.064c-0.867,1.491-3.179,1.539-5.659,1.415c0.597,3.325,3.315,6.311,2.121,10.259c-1.925,1.04-3.077-0.641-4.599-1.063
	c-0.856,1.736-0.18,5.008-2.122,5.66c-3.653-0.4-4.6-5.045-6.012-7.781c-1.486-2.877-4.312-6.151-3.538-9.551
	c3.405-0.566,3.663,3.211,4.6,4.951c1.146,2.133,2.723,3.793,3.183,6.014c0.66-0.872,0.548-2.517,1.415-3.184
	c1.324-0.258,1.978-0.202,3.183,0.354c-0.464-2.719-1.924-4.442-2.122-7.428c0.642-0.773,1.189-1.64,2.83-1.414
	c-4.163-3.147-9.92-4.701-14.503-7.428c0-0.709,0-1.416,0-2.123c0.285-0.188,0.574-0.369,1.061-0.354
	c5.818,1.842,11.472,4.41,16.625,7.428C746.443,335.711,748.749,336.8,748.459,339.064z M754.825,264.785
	c-0.313,2.72,3.114,4.631,2.829,8.488c-0.508,0.199-0.862,0.553-1.061,1.063c-2.821,0.18-5.404-1.65-8.135-2.477
	c-2.227-0.674-6.639-0.292-6.367-3.891c3.298-1.557,7.676,1.369,10.965,2.122c-0.645-2.392-3.434-5.545-1.061-7.781
	c-3.204-1.395-9.067-0.13-11.32-2.477c0.051-1.03,0.949-2.337,2.124-2.123c5.205,0.948,16.674,1.229,20.515,3.892
	C763.844,266.021,757.694,263.764,754.825,264.785z"/>
<g>
	<path fill="#FFFFFF" d="M645.527,165.745c29.972,0.834,59.032,5.564,85.245,9.196c0.262-1.049,1.23-2.283,1.769-3.537
		c0.521-1.211,1.645-3.098,0.709-3.537c-15.16-3.268-31.748-5.717-49.168-7.781c-17.266-2.047-35.455-4.049-53.765-3.184
		c-26.416,1.248-51.927,3.482-74.987,8.135c0.614,1.862,1.336,3.617,2.123,5.307C583.742,163.982,614.599,164.885,645.527,165.745z"
		/>
	<path fill="#FFFFFF" d="M541.536,225.522c6.211,1.17,12.535,2.596,19.1,3.892c12.198,2.406,25.862,4.48,39.616,5.658
		c29.044,2.488,59.143-0.846,86.306-3.183c13.704-1.179,27.253-3.265,40.678-4.952c19.952-2.507,39.599-5.34,54.472-13.441
		c4.991-2.719,11.394-6.277,13.089-9.903c4.02-8.601-2.457-14.149-7.783-17.687c-4.055-2.691-8.635-4.528-12.38-6.366
		c-6.097-2.993-13.482-6.157-20.515-7.429c-3.061-0.553-6.291-1.089-6.291-1.089c-0.308,1.462-2.245,3.519-2.552,4.98
		c2.553,0.758,6.905,1.155,9.904,2.477c3.561,1.568,10.791,5.95,10.61,10.611c-0.247,6.42-13.771,9.889-21.222,11.319
		c-27.7,5.319-59.108,7.17-87.723,9.904c-22.347,2.136-43.06,0.796-62.96,0c-9.666-0.387-20.491-0.989-30.774-1.769
		c-17.155-1.303-33.129-2.123-37.846-14.148c-3.07-7.824,1.158-13.343,5.658-15.918c1.8-1.029,3.896-1.652,5.306-3.184
		c-1.303-2.875-1.806-4.842-5.306-3.891c-6.426,1.746-16.212,3.4-24.405,7.428c-7.391,3.633-15.011,8.875-15.211,16.625
		c-0.091,3.559,1.744,5.82,2.477,9.904C506.686,214.643,523.184,222.067,541.536,225.522z"/>
</g>
<g>
	<g>
		<path fill="#EC008C" d="M47.424,327.677c-0.335,10.387,0,19.77,1.005,28.984c1.34,13.068,3.184,26.137,7.707,38.702
			c1.005,2.848,2.346,5.529,4.021,8.042c1.843,2.346,2.346,2.346,4.188,0.167c2.681-3.351,4.356-7.204,5.696-11.058
			c3.351-10.052,5.361-20.272,6.87-30.66c1.508-11.225,2.178-22.618,2.513-33.843c0-4.356,0.335-8.712,0-12.901
			c-0.168-2.681,0.502-3.183,3.016-3.183s4.858,0,7.372,0c1.843-0.167,2.513,0.67,2.513,2.513c-0.167,10.22,0,20.607-1.005,30.995
			c-0.67,7.707-1.172,15.414-2.513,23.121c-2.178,13.571-4.858,26.974-11.728,39.037c-2.681,4.859-6.199,9.047-12.23,10.388
			c-4.356,1.005-8.042-0.335-11.393-3.183c-5.026-4.356-7.54-10.053-9.717-16.084c-3.686-10.053-5.529-20.608-6.869-31.331
			c-2.011-15.414-2.513-30.828-2.513-46.241c0-2.848,0.502-5.696,0.502-8.545c0.167-1.675,1.173-2.345,2.681-2.178
			c2.681,0.502,5.361,0.502,8.042,0.502c1.676,0,1.843,1.173,1.843,2.513C47.424,318.462,47.424,323.656,47.424,327.677z"/>
		<path fill="#EC008C" d="M136.053,377.437c1.675-9.718,3.183-19.435,5.026-28.985c1.843-11.225,4.021-22.451,6.032-33.843
			c0.335-1.675,0.502-3.686,0.838-5.529c0-1.508,0.837-2.178,2.513-2.178c3.183,0,6.366,0.167,9.717-0.67
			c1.508-0.335,2.345,0.335,2.513,2.01c0.502,5.864,1.508,11.896,2.01,17.759c0.502,7.372,1.508,14.744,2.178,21.948
			c0.67,5.696,1.173,11.225,1.675,16.754c0.502,5.026,0.838,10.22,1.675,15.247c0.335,2.681,0.335,5.194,0.67,7.875
			c0.837,8.377,1.508,16.754,2.345,25.131c0,1.173-0.167,1.843-1.34,1.843c-3.184,0-6.199,1.005-9.383,1.005
			c-1.34,0-1.843-0.167-2.178-1.675c-1.34-9.885-2.011-19.938-3.016-29.822c-0.838-7.875-1.843-15.582-2.178-23.456
			c-0.167-3.016-0.67-5.864-1.005-8.879c-0.167,0-0.335,0-0.502,0c-0.67,4.188-1.508,8.377-2.178,12.565
			c-2.346,13.738-4.858,27.477-7.204,41.383c-0.503,2.178-1.34,3.351-3.686,3.351c-1.843-0.168-3.854,0.167-5.864,0.167
			c-4.021,0-4.021,0-5.194-4.021c-4.691-17.089-9.382-34.011-13.906-51.101c-0.67-2.513-1.508-4.858-2.346-7.372
			c-1.173,2.848-0.67,5.696-0.67,8.544c-0.502,9.215-0.67,18.262-1.173,27.477c-0.335,9.885-0.837,19.77-1.34,29.655
			c-0.167,3.183-0.67,3.519-3.854,3.519c-2.345,0-4.858-0.335-7.204-0.335c-1.173-0.167-1.508-0.837-1.675-2.01
			c-0.167-9.885,0.67-19.603,1.005-29.32c0.335-10.723,0.837-21.445,1.34-32c0.335-8.88,1.005-17.592,1.005-26.472
			c0-5.026,0.67-10.052,0.503-15.079c0-3.686,0.837-4.356,4.523-4.523c2.178,0,4.356-0.335,6.534-0.503
			c2.346-0.167,3.519,0.838,4.188,3.184c5.864,21.445,11.728,42.723,17.759,64.168c0.335,1.34,0.838,2.681,1.34,4.188
			C135.718,377.437,135.886,377.437,136.053,377.437z"/>
		<path fill="#EC008C" d="M207.089,362.86c5.026,2.346,9.55,4.858,13.236,8.544c9.718,9.885,9.718,24.461,0,34.179
			c-7.037,7.037-15.749,10.555-25.299,11.896c-3.518,0.335-6.869,0.335-10.22,0.335c-1.843,0-3.016-0.502-3.184-2.681
			c-0.335-3.183-0.837-6.367-0.837-9.717c0.167-9.55-0.335-19.1-0.503-28.65c-0.335-13.236-0.502-26.639-1.005-39.875
			c-0.503-9.718,0-19.603-1.005-29.32c-0.167-2.178,0.167-3.351,2.848-3.686c15.246-2.011,32.335,6.869,36.356,24.461
			c3.016,12.733-0.335,23.791-9.215,33.173C207.927,361.855,207.592,362.19,207.089,362.86z M192.849,356.829
			c7.372-1.675,13.236-12.398,12.733-22.786c-0.335-6.702-6.199-14.911-13.738-16.251
			C192.178,330.86,192.514,343.761,192.849,356.829z M194.189,404.243c5.026,0,12.398-3.016,16.084-6.702
			c6.199-6.032,6.199-12.063-0.167-17.927c-2.849-2.848-6.534-4.356-10.22-5.529c-2.178-0.67-4.188-1.675-7.037-0.837
			C194.356,383.635,193.016,393.855,194.189,404.243z"/>
		<path fill="#EC008C" d="M259.027,368.892c4.524,4.356,8.712,8.21,12.901,12.23c5.529,5.194,11.225,10.388,16.754,15.414
			c1.508,1.34,1.508,2.346,0.167,3.686c-2.011,1.843-4.021,3.686-5.529,5.864c-1.005,1.173-2.011,1.173-3.184,0
			c-5.194-4.858-10.555-9.885-15.917-14.911s-10.89-10.053-16.586-15.414c-0.335,2.011,0.335,3.686,0.335,5.194
			c0.167,10.22,0.335,20.273,0.503,30.493c0,3.184-0.168,3.351-3.519,3.351c-2.346,0-4.691,0-7.037,0
			c-1.675,0.167-2.346-0.67-2.681-2.178c0-0.502-0.167-1.173,0-1.675c0.167-8.545-0.503-17.089-0.503-25.466
			c0-9.885-0.502-19.77-0.67-29.655c-0.335-13.571-0.838-27.142-0.838-40.713c0-1.675-0.502-3.518-0.502-5.361
			c-0.167-3.686,1.173-5.194,5.026-5.696c10.555-1.173,20.942-0.502,30.995,3.016c8.377,2.848,15.581,7.372,19.77,15.582
			c4.691,9.215,2.849,18.094-2.681,26.304c-5.696,8.545-14.073,14.074-23.288,18.262
			C261.541,367.719,260.536,368.222,259.027,368.892z M246.965,348.284c0,2.848,0,5.696,0,8.544c0,1.843,0.67,2.681,2.681,1.843
			c1.34-0.503,2.848-1.005,4.188-1.508c8.209-3.351,15.749-7.54,21.11-14.744c4.021-5.361,4.691-10.388,1.508-15.079
			c-1.508-2.513-3.686-4.356-6.199-5.696c-7.037-3.854-14.576-5.194-22.451-5.194c-1.34,0-1.843,0.67-1.675,2.011
			C246.965,328.347,246.294,338.399,246.965,348.284z"/>
		<path fill="#EC008C" d="M317.165,416.976c-5.529,0-9.885,0-14.074,0c-2.681,0-3.351-0.67-3.519-3.351
			c-0.335-10.555-0.502-21.278-1.005-32c-0.503-14.241-1.005-28.314-1.508-42.556c-0.335-9.717-0.837-19.267-0.837-28.984
			c0-3.016,0.335-3.184,3.351-3.351c10.555-1.005,21.11,0,31.666-0.838c2.011-0.167,3.183,0.503,3.183,2.848c0,2.513,0,5.026,0,7.54
			c0,2.011-1.005,2.848-2.848,2.681c-6.534-0.335-13.068,0.67-19.77,0.502c-2.011,0-2.849,0.67-2.849,2.849
			c0.67,10.89,1.173,21.948,1.005,33.005c0,2.346,1.675,2.011,3.183,1.843c4.021-0.168,8.042-0.503,12.063-0.838
			c2.01-0.167,2.848,0.502,2.848,2.681c0,2.346,0.335,4.691,0.502,7.037c0.167,1.843-0.502,2.681-2.513,2.848
			c-4.356,0.168-8.712,0.67-13.068,0.838c-1.843,0-2.513,0.67-2.345,2.681c0.502,9.55,0.837,19.1,0.837,28.649
			c0,2.178,0.503,3.184,3.016,3.016c6.701-0.167,13.235,0,19.937,0c2.346-0.167,3.016,0.67,2.848,2.848
			c0,2.346,0.168,4.691,0.335,7.037c0,1.843-0.67,2.513-2.513,2.513C328.725,416.809,322.358,417.144,317.165,416.976z"/>
		<path fill="#EC008C" d="M356.369,329.017c0.335,15.414,0.838,31.33,1.173,47.247c0.167,6.702,0.335,13.403,0.335,20.105
			c0.167,5.864,0.167,5.864,5.696,5.864c4.691-0.167,9.383-0.67,14.074-0.502c2.01,0,2.848,0.67,2.848,2.681
			c-0.167,2.346-0.167,4.859,0,7.204c0,1.843-0.67,2.513-2.513,2.681c-8.544,0.335-17.089,0.838-25.634,0.838
			c-0.67,0-1.173,0.167-1.675,0.167c-4.356,0.67-5.194,0.167-5.529-4.356c0-0.335,0-0.67,0-0.838
			c-0.167-10.89-0.335-21.78-0.67-32.67c-0.335-14.241-0.502-28.482-1.005-42.723c-0.168-6.367-0.168-12.733-0.335-19.1
			c-0.167-2.513-0.335-5.026-0.502-7.707c0-1.675,0.502-2.513,2.346-2.681c2.681,0,5.361-0.502,8.042-0.502
			c2.01,0,3.016,0.837,3.016,2.848C355.699,314.608,356.704,321.645,356.369,329.017z"/>
		<path fill="#EC008C" d="M399.26,329.017c0.335,15.414,0.838,31.33,1.173,47.247c0.167,6.702,0.335,13.403,0.335,20.105
			c0.167,5.864,0.167,5.864,5.696,5.864c4.691-0.167,9.383-0.67,14.074-0.502c2.01,0,2.848,0.67,2.848,2.681
			c-0.167,2.346-0.167,4.859,0,7.204c0,1.843-0.67,2.513-2.513,2.681c-8.544,0.335-17.089,0.838-25.634,0.838
			c-0.67,0-1.173,0.167-1.675,0.167c-4.356,0.67-5.194,0.167-5.529-4.356c0-0.335,0-0.67,0-0.838
			c-0.167-10.89-0.335-21.78-0.67-32.67c-0.335-14.241-0.502-28.482-1.005-42.723c-0.168-6.367-0.168-12.733-0.335-19.1
			c-0.167-2.513-0.335-5.026-0.502-7.707c0-1.675,0.502-2.513,2.346-2.681c2.681,0,5.361-0.502,8.042-0.502
			c2.01,0,3.016,0.837,3.016,2.848C398.59,314.608,399.595,321.645,399.26,329.017z"/>
		<path fill="#EC008C" d="M441.48,366.881c0,4.859,0.168,9.717,0,14.409c-0.168,8.377,0.838,16.586,1.508,24.963
			c0.168,2.011-0.335,3.184-2.681,3.184c-2.178,0.167-4.523,0.502-6.869,0.837c-2.011,0.503-2.681-0.67-2.849-2.178
			c-0.335-2.681-0.837-5.194-1.005-7.707c-0.838-10.22-1.508-20.272-1.005-30.493c0.838-15.582,2.346-30.995,7.372-46.074
			c2.346-7.372,5.361-14.409,11.226-19.938c6.366-6.032,15.581-6.032,22.115,0c6.534,6.367,9.885,14.576,12.733,22.953
			c3.351,10.388,5.193,21.11,6.366,32c1.341,11.225,1.676,22.451,1.341,33.843c-0.168,7.372-1.006,14.576-2.011,21.948
			c-0.167,1.508-0.838,2.178-2.346,2.01c-2.848-0.335-5.864-0.67-8.712-1.173c-1.173-0.167-2.011-1.005-1.676-2.346
			c2.179-13.236,1.844-26.304,1.676-39.54c0-1.843-0.168-3.519-0.335-5.361c-0.168-1.675-1.508-1.34-2.514-1.34
			c-8.712,0-17.592,0-26.304,0C445.669,366.881,443.826,366.881,441.48,366.881z M442.653,353.98c3.016,0,5.528,0,8.042,0
			c7.204,0,14.576,0,21.78,0c1.173,0,2.513,0.335,2.178-1.675c-1.508-9.55-3.519-18.932-7.204-27.979
			c-1.676-3.686-3.351-7.54-6.366-10.388c-2.346-2.345-3.519-2.345-5.696-0.167c-1.341,1.173-2.179,2.513-3.017,4.021
			C446.339,328.85,444.329,341.08,442.653,353.98z"/>
	</g>
	<path fill="#EC008C" d="M812.128,55.74c-12.237-13.257-23.746-22.445-42.446-23.699c-21.391-1.434-48.148,1.975-68.204,9.569
		c-23.658,8.958-49.11,26.318-56.152,32.063c0,0,11.603-0.895,19.609,4.133c8.318,5.224,14.379,13.139,18.795,21.795
		c7.909-13.443,19.764-23.983,31.834-33.603c5.033-4.013,35.023-27.931,41.03-22.992c1.09,5.565-28.448,21.099-33.193,24.687
		c-14.244,10.768-27.236,23.858-36.843,38.982c14.626-6.291,43.101-5.671,50.936,11.319c3.714-7.568,38.588-69.198,48.105-64.73
		c1.103,0.806-14.661,23.15-18.169,28.581c-8.787,13.604-17.358,27.357-25.338,41.454c19.408-3.781,40.029,4.581,51.288,20.869
		c4.95-11.47,6.567-24.399,7.326-36.762c0.395-6.429,2.608-35.229,0.81-40.348c7.501,3.799,6.513,27.983,6.55,34.855
		c0.076,13.837-5.772,27.224-5.843,40.487c5.386-3.232,31.992-3.605,46.445,9.52C852.231,117.929,834.805,80.313,812.128,55.74
		C809.189,52.557,820.826,65.166,812.128,55.74z"/>
</g>
<g>
	<path fill="#FFF200" d="M753.764,130.373c-4.498,12.023-9.776,23.353-14.855,34.664c-5.103,11.367-10.771,22.488-14.503,35.018
		c2.717-0.113,5.071-0.588,7.429-1.061c9.223-23.201,19.489-45.357,28.651-68.621C758.85,130.109,754.468,128.182,753.764,130.373z"
		/>
	<path fill="#FFF200" d="M784.373,31.148c0,0,8.639,2.659,11.463,6.646c0,0,10.134-14.62,1.827-15.949
		S785.037,30.151,784.373,31.148z"/>
</g>
</svg>
