<?xml version="1.0" encoding="utf-8"?>
<!-- Generator: Adobe Illustrator 23.1.0, SVG Export Plug-In . SVG Version: 6.00 Build 0)  -->
<svg version="1.1" id="Слой_1" xmlns="http://www.w3.org/2000/svg" xmlns:xlink="http://www.w3.org/1999/xlink" x="0px" y="0px"
	 viewBox="0 0 499.7 720" style="enable-background:new 0 0 499.7 720;" xml:space="preserve">
<style type="text/css">
	.st0{fill:#BA5798;}
	.st1{fill:#E6ED57;}
</style>
<g>
	<polygon class="st0" points="93,356.5 130.2,435.3 166.7,272.2 134.5,276.3 123.5,355.5 92.8,286.2 68.5,345.1 54.9,301.6 
		19.8,303.1 68.2,430.5 	"/>
	<polygon class="st0" points="303.5,312.9 281.8,317.8 280.9,270.8 257,275.6 257.1,324.2 231.4,330.4 227.1,353.9 258.1,347.5 
		257.8,423.1 279,419.7 279.2,343.4 302,337 	"/>
	<path class="st0" d="M340.3,393.2c-8.3,0.7-23.3-4.5-18-21.7c6.3-20.6,32.5-19.9,32.5-19.9l6.4-18c0,0-42.4-8.2-59.2,26.9
		c-16.2,33.8,13.4,57.4,40.3,54.4c17.3-1.3,33.1-19.8,33.1-19.8l-13.6-16.8C361.8,378.2,351.4,392.3,340.3,393.2z"/>
	<path class="st0" d="M450.8,312.6c-0.4-28.8-14.4-31.9-21.6-31.9c-19.1,0-30.4,17.6-30.4,17.6l-2.4-64.6l-21.7,5.1l8,128.4
		l20.4-0.5c0,0-2.8-56.7,15.3-59.6c18-3,11.5,38.5-3.1,70.6l19.3,6C434.6,383.7,451.2,341.4,450.8,312.6z"/>
	<path class="st0" d="M205.9,614.8c3.6-5.5,7.2-11,10.9-16.5c-4,4.8-9,8.9-14.5,11.9c0.8-4.1,1.7-8.2,2.5-12.3
		c-2.7,6.2-6.7,11.9-11.7,16.5c-1.5,1.4-5.2,5.5-7.4,5.5c-2.1,0-6.4-3.8-8.5-4.7c-28.6-12.6-64.3,3.3-88.5,18.9
		c3.1-1.4,6.7-1.8,10.1-1.1c-5.9,5.2-12.1,10.1-18.5,14.6c-2.9,2.1-6,4.8-9.3,6.2c-1.5,0.6-6.5,3.2-7.7,3c7.1,1.2,14.3-0.5,20.1-4.7
		c-5.2,5.9-10.5,11.1-17.4,15c-5.9,3.4-12.5,5.7-19.2,6.7c5.3,1.6,11.4,2,16.8,0.4c4.5-1.3,12.4-3.3,15.7-6.7
		c-9.3,9.5-20.2,17.3-32.2,23c0.9-0.4,3.1,0.1,4.2,0c1.5-0.2,3-0.5,4.5-0.9c-4.1,3.4-8.7,6.3-13.4,8.8c14.5-0.3,28.9-5,40.8-13.4
		c-2.4,5.4-5.7,11.8-10,15.9c-1.8,1.7-4.3,3-6.5,4.3c-1.9,1.1-6.1,4.1-8.3,4c6.4,0.2,13,0.1,19.3-1c5.4-1,10.6-3.1,15.4-5.8
		c8.6-4.9,18.5-11.9,24.9-19.5c-9.2,11-17.5,23.1-20.9,37.3c1-4.1,5.9-9.1,8.6-12.2c4-4.5,8.9-9.1,14.1-12.3c2.9-1.9,5.9-2.8,9-4
		c1.8-0.7,3.5-1.8,5.2-2.6c1-0.5,3.8-1.2,4.4-2c-2.7,3.9-4.1,8.6-4,13.4c4.6-7.5,10.7-14.2,17.8-19.5c7.3-5.5,14.9-10.2,21.6-16.5
		c4.2-3.9,8-8.2,11.1-13c0.6-0.9,7.5-14.1,6.2-14c0.4,0,0.9,0,1.3-0.1c8.4-0.5,16.8-0.9,25.2-1.4c-4.3-0.4-8.4-2.5-11.2-5.7
		c4.3-1.6,8.8-2.5,13.3-2.9c-3.5,0.1-7-0.4-10.4-1.6c6.3-3.2,12.4-6.8,18.2-10.9C220.4,615.9,213.1,615.9,205.9,614.8z"/>
	<path class="st0" d="M272,195.8c13.2-17.8,12.4-24.9,12.4-25.3c0-0.1-0.5-1-1.2-1.5c-0.3-0.2-0.5-0.2-0.6-0.2c-0.1,0-0.3,0-0.5,0.1
		c-1.6,0.4-2.3,1.5-2.5,2.2c-1,5.8-5.1,10.2-10.7,11.5c-1.1,0.3-2.2,0.4-3.4,0.4c-4.5,0-8.6-2.1-11.4-5.7c-0.4-0.3-1.1-0.9-2.3-0.9
		c-0.3,0-0.6,0-1,0.1c-0.6,0.1-0.7,0.3-0.9,0.7c-0.4,0.8-0.4,1.8-0.4,2C249.8,179.7,252.6,186.3,272,195.8z"/>
	<path class="st0" d="M301.3,168.8c0.8,6.4-1.3,14.2-6.4,23.4c26.4-12.4,26.8-23.1,26.8-23.1l-11-23c0,0-4.3,4.7-15.9,10.9
		C298.4,160.2,300.7,164.5,301.3,168.8z"/>
	<path class="st0" d="M233.6,210.6c7.6-1.5,14.6-3.1,20.9-4.8c-11.3-6.7-18.3-13.7-20.8-20.8c-0.8-2.3-1.1-4.9-1-7.4
		c-2.5,0.5-5,1-7.6,1.5c-68.2,12.9-85.8,3.4-85.8,3.4l-4.7,22.2C134.7,204.8,155.1,226.5,233.6,210.6z"/>
	<path class="st0" d="M191.8,313.4c-0.3,1.3-0.7,2.8-0.6,4.2c0.1,2.3,1.8,4.3,4,3.6L198,372c0.1,1.6,1.1,2.8,2.6,3.1l12.4,2.2
		c1.8,0.3,3.5-1.2,3.5-3.3l0.2-35.1c1,1.1,2.5,0.7,3.2-0.5c0.8-1.2,0.8-3,0.6-4.4c-0.4-3.4-1.9-6.5-2.8-9.7
		c-0.2-0.9-0.4-1.7-0.6-2.6c0.5-0.1,0.9-0.4,1.2-0.8c1.1-1.3,0.7-3.8,0.4-5.4c-0.4-2.9-1.4-5.7-1.9-8.6l0.1-9.1c0-1.8-1-3.3-2.6-3.9
		l-15.9-5.8c-2.5-0.9-5.1,1.2-4.9,4.1l0.7,12.4c-0.3,1.7-0.8,3.3-1.3,4.9C192.6,310.8,192.2,312.1,191.8,313.4z"/>
</g>
<g>
	<path d="M477.6,508c-0.4,0.1-1.3,0.7-2.5,1.8c-2.4,2.1-4.8,4.2-7.2,6.4c-2.4,2.2-4.9,4.2-7.5,6.2c-4.6,3.5-9.2,7.1-13.7,10.7
		c-4.6,3.6-9.5,6.7-14.9,9.4c-3,1.6-6,3.1-9,4.4c-3,1.4-6.3,2.3-9.7,2.7c-1.8,0.2-3.1,0.1-3.8-0.3c-0.7-0.5-1.3-1.6-1.7-3.3
		c-1.4-6.6,0.1-15.1,2.8-23.3c1.8-5,3.8-10.1,5.9-15.2c0.8-1.7,1.6-3,2.6-3.9c1-0.9,2.6-1.3,4.8-0.9c0.5,0.1,1.2-0.1,2.1-0.4
		c11.7-2,22.3-6.4,31.7-13.3c4.6-3,7.7-6.9,9.3-11.8c0.8-2.3,1.1-4.5,0.8-6.7c-0.2-2.2-1.4-4.3-3.6-6.2c-2.2-1.9-4.5-3.3-7.1-4.1
		c-2.6-0.8-5.4-0.8-8.4,0c-3,0.8-5.8,1.9-8.3,3.1c-2.5,1.2-5,2.7-7.4,4.4c-11.6,8.4-20.5,19-27.1,31.4c-1.5,0.6-3.1,1.2-4.7,1.7
		c-2.5,0.8-4.9,1.9-7.1,3.1c-4.2,2.6-8.2,5.3-12.3,8c-4,2.7-8,5.6-11.8,8.6c-2.4,1.7-4.6,3.5-6.7,5.4c-2.1,1.9-4.2,3.9-6.5,6
		c-0.2-0.4-0.4-0.7-0.5-0.9c-0.1-0.2-0.2-0.5-0.3-0.7c-2.2-6.6-3.4-10-5.7-16.6c-1.8-6.1-3.9-13.3-3.8-21.7c0-3.1,0.4-6.1,1.4-8.9
		c0.9-2.8,2.4-5.7,4.5-8.1c2.2-2.5,5.1-4.4,8.1-5.7c3-1.3,6.5-1.6,10.5-0.9c0.5,0.2,1.1,0.3,1.6,0.3c0.5,0,1.1,0,1.6,0.1
		c-0.6-1.2-0.9-1.8-1.5-3c-0.1-0.2-0.2-0.2-0.4-0.4c-2.8-2-6-3.5-9.7-4.5c-3.7-1.1-7.4-0.8-11.2,0.8c-5.6,2.2-9.8,5.3-12.7,9.2
		c-2.9,3.9-4.9,8.5-5.9,13.7c-0.7,4.2-0.8,8.4-0.4,12.5c-3.1,6.3-6.5,12.3-10.1,18.2c-4.1,6.5-8.4,13-13,19.4
		c-0.7,1.1-1.5,2.2-2.5,3.1c-1,1-1.8,1.9-2.7,3c-0.3,0-0.4-0.1-0.5-0.1c-0.1-0.1-0.2-0.1-0.5-0.1c-0.3-2-0.3-4-0.2-5.9
		c1.4-17.6,9.5-36.3,17.9-53.9c2.4-4.9,4.8-9.9,7.4-15c0.6-1.4,0.8-2.4,0.4-3.2c-0.2-0.7-3.2-2.9-5.5-3c-0.4,0.2-1.1,1-2.2,2.4
		c-0.2,0.2-0.3,0.4-0.4,0.5c-0.1,0.1-0.2,0.3-0.2,0.5c-0.6,1-1.4,1.1-2.4,0.2c-3.4-3-7.2-4.8-11.2-5.6c-4-0.8-8.2-0.6-12.6,0.5
		c-5.7,1.5-10.6,3.9-14.6,7c-4,3.2-7.5,7-10.4,11.4c-2,3-3.4,6.2-4.2,9.4c-0.3,1.1-0.5,2.2-0.6,3.3c-1.8,2.2-3.6,4.3-5.4,6.5
		c-2,2.5-4.2,4.9-6.4,7.2c-4,4.2-8,8.4-12,12.6c-4,4.2-8.4,8.1-13.3,11.5c-2.7,2-5.4,3.9-8.2,5.7c-2.8,1.8-5.8,3.2-9.1,4.2
		c-1.8,0.5-3,0.6-3.8,0.2c-0.8-0.3-1.5-1.3-2.1-3c-2.4-6.3-2.1-15-0.7-23.5c1-5.2,2.2-10.5,3.6-15.9c0.5-1.8,1.2-3.2,2-4.3
		c0.8-1.1,2.4-1.6,4.6-1.7c0.5,0,1.2-0.2,2-0.7c11.3-3.8,21-9.7,29.3-17.9c4-3.6,6.5-8,7.4-13c0.4-2.4,0.4-4.6-0.2-6.8
		c-0.6-2.1-2.1-4-4.5-5.6c-2.4-1.6-5-2.6-7.6-3c-2.6-0.4-5.4,0-8.3,1.3c-2.9,1.3-5.4,2.7-7.7,4.3c-2.3,1.6-4.5,3.4-6.7,5.5
		c-10.2,10.1-17.5,22-22.1,35.3c-1.2,3.7-2.3,7.4-3.2,11.1c-0.7,2-1.4,4.1-2.3,6.6c-3.8,9.4-5.7,14.1-9.3,23.6
		c-2.5,6.7-4.8,13.4-7.1,20.1c-2.3,6.7-4.7,13.3-7.2,20c-1.2,3.1-2.7,6.2-4.3,9.1c-1.6,2.9-3.2,5.9-4.8,8.8c-0.5,1.2-1,1.8-1.5,1.8
		c-0.4,0-1-0.6-1.7-1.8c-0.7-1.2-1.4-2.6-2.1-3.9c-0.7-1.3-1.3-2.7-1.7-4.1c-1.6-4.1-2.8-8.2-3.5-12.5c-0.8-4.3-1.2-8.6-1.4-13
		c-0.4-13.9-0.7-28.9,1.3-44.9c0.6-4.1,1.1-8.3,1.5-12.5c0-1.4,0.8-2.4,2.4-3c3.6-1.5,6.9-3.4,9.9-5.7c3-2.3,5.8-4.7,8.5-7.1
		c7.2-6.7,13.7-13.7,19.6-20.9c5.9-7.3,11.1-15.1,15.5-23.4c2.9-5.4,5.2-10.9,6.9-16.5c1.7-5.6,2.1-11.5,1.4-17.5
		c-0.5-3.7-1.9-6.8-4.2-9.5c-2.4-2.6-5.3-4.4-8.9-5.3c-3.8-0.9-7.4-0.8-10.6,0.2c-3.2,1-6.2,2.6-9,4.7c-3.4,2.6-6.4,5.4-9,8.4
		c-2.6,3-4.9,6.2-7.2,9.5c-14.9,22.5-24,49.4-29.6,77c-0.2,0.9-0.3,1.8-0.5,2.6c-0.2,0.1-0.5,0.3-0.7,0.5c-1.5,1-3.7,2.4-6.4,4.4
		c-2.8,1.9-6.4,4.5-10.8,7.9c-0.5,0.4-1.1,0.7-1.7,0.9c0-2.3,0.1-3.4,0.1-5.7c0-3.2-0.2-6.4-0.6-9.6c-0.4-3.2-1.4-6.3-2.8-9.2
		c-1-2.1-2.5-4.1-4.6-5.7c-2.1-1.6-4.4-2.7-6.8-3.3c-2.5-0.6-5.1-0.6-7.8-0.1c-2.7,0.6-5.2,1.8-7.4,3.9c-1.4,1.2-2.7,2.5-4,4
		c-1.3,1.5-2.4,2.9-3.4,4.5c-1.6,3-3,6.1-4.2,9.3c-1.2,3.2-2.5,6.3-3.7,9.5c-0.2,0.5-0.4,1-0.4,1.4c-0.1,0.4-0.2,0.9-0.4,1.4
		c-0.2,0-0.4,0-0.6,0.1c-1.1-9.4-1.6-14.1-2.7-23.5c-0.3-1.7-0.9-3-1.5-3.8c-0.7-0.8-2.5-1.4-5.4-2c-0.7-0.2-1.3-0.2-1.9-0.1
		c-0.6,0.1-1.2,0-1.9-0.1c-1.5,0-2.9-1-3.2,2.4c0.1,3.9,0.1,5.8,0.2,9.7c0,23.3,0.4,48.2,2.5,73.1c1.3,20.9,3.8,42.7,7.1,65.1
		c0.3,2.3,0.8,4.6,1.4,6.6c0.5,1.6,0.9,2.6,1.3,2.9c0.4,0.3,1.4,0.2,2.9-0.2c0.6-0.1,1.3-0.2,2.2-0.3c0.9-0.1,1.2-0.8,0.9-1.9
		c0.3,0.2,0.6,0.4,1,0.6c0.4,0.2,0.7,0.1,0.9,0.1c0.5-0.2,1.1-0.7,1.2-1.6c0.2-1.2,0.5-2.2,0.4-2.9c-0.2-3.6-0.4-7.1-0.6-10.6
		c-0.2-3.5-0.4-7-0.7-10.6c-2.3-32.5-2.4-67,5.4-100.8c1.3-5.5,3.1-10.9,5.5-16.3c1.2-2.7,2.6-5.3,4.3-7.7c1.7-2.4,3.8-4.5,6.3-6.4
		c1.8-1.2,3.1-1.8,4-1.6c0.9,0.2,1.7,1.2,2.4,3c2.2,6.7,3.7,14.8,2.5,23.6c-0.5,3.7-0.9,7.4-1.3,11.1c-0.5,4.1-2.4,7.7-5.6,10.9
		c-3.4,3.4-6.6,7-9.6,10.6c-3,3.6-5.5,7.6-7.6,11.9c-1.3,3-5.6,12.5,1.9,15.4c3.5,0.8,7.1,0.2,10.7-1.3c2.7-1.2,5-2.7,6.7-4.7
		c1.6-2,3.1-4.1,4.2-6.4c2.5-4.8,4.6-9.6,6.4-14.4c3.5-6.8,1.9-18.6,10-24.8c6.1-4.6,10.2-7.7,15-11.2c-2.1,15.1-1.9,32.4-1.8,49.6
		c0.2,4.5,1.3,9.6,2,14.3c0.7,4.7,1.8,9.4,3.2,13.9c1.1,3.2,2.4,6.3,3.8,9.3c1.4,2.9,3.4,5.6,6,7.9c1.2,1.2,2.6,2,4.4,2.2
		c3.1,0.4,6-0.1,8.7-1.6c2.7-1.4,4.8-3.6,6.3-6.4c1.1-2.2,2.2-4.4,3.1-6.6c0.9-2.2,1.9-4.6,2.8-7c2-5.4,4-10.9,5.9-16.3
		c1.9-5.5,3.9-11,5.9-16.5c3-7.9,5.3-14.1,7.6-20c0.1,4,1.5,11.5,4.7,14.9c2.2,2.4,5.4,4.2,9.6,5.3c5.2,1.4,11,0.5,17.9-3.6
		c4.1-2.5,7.9-5.3,11.6-8.3c3.7-3,7.1-6.2,10.4-9.6c3.7-3.8,7.2-7.8,10.6-11.7c3.3-3.8,6.6-7.6,9.9-11.5c0,0.1,0,0.1,0,0.2
		c0.4,2.5,1.3,4.7,2.9,6.5c1.6,1.8,3.4,3.2,5.5,4.1c2.1,0.9,4.3,1.3,6.7,1.3c2.3,0,4.4-0.6,6.3-1.7c4.5-2.8,8.7-5.9,12.6-9.4
		c1.9-1.8,2.9-2.7,4.8-4.6c0.2,1,0.1,1.7-0.3,2.3c-1.8,4.3-3.4,8.7-4.8,13.1c-2.4,9.1-6,19.8-3,31.5c0.5,1.7,1.4,3,2.6,4
		c1.2,1,2.4,1.6,3.8,1.9c1.4,0.3,2.8,0.3,4.2-0.1c1.4-0.4,2.7-1.2,4-2.4c0.9-0.9,1.8-1.8,2.7-2.8c0.8-1,1.6-1.9,2.3-3
		c3-4.8,5.9-9.6,8.9-14.3c2.9-4.7,5.8-9.5,8.6-14.2c0.6-1,1.1-2,1.7-3c0.5,2.5,1.1,5.1,1.9,7.6c2.5,8.8,5.6,18.9,8.7,29.6
		c0.6,1.7,0.3,3.4-1,5.1c-4.2,5-8.1,10.1-11.5,15.5c-2.9,4.5-5.4,9.6-7.6,15.1c3.5-0.7,6.9-1.4,10.4-2c0.6-1.2,1.1-2.5,1.7-3.7
		c2.7-5.3,5.9-10.4,9.6-15.3c0.5-0.5,0.8-0.8,1.3-1.3c1.3,8.1,2.2,16.4,1.2,26.2c-0.6,5.1-1.9,10.1-3.8,15.2
		c-0.9,2.3-2.1,4.5-3.4,6.5c-1.3,2-3,3.8-5.1,5.3c-4.4,3.2-7,2.2-7.9-3.1c-0.5-2.9-0.6-5.7-0.2-8.5c0-0.1,0-0.2,0.1-0.3
		c-3.3,0.6-6.5,1.3-9.8,1.9c-0.1,1.9-0.2,3.8-0.1,5.7c0.2,3,0.8,5.3,2,6.9c1.1,1.6,3.1,2.8,6,3.5c1.4,0.3,2.9,0.6,4.4,0.7
		c1.5,0.1,2.9,0.2,4.2,0.2c10.3-0.3,17.8-4.9,22.6-13.8c2.7-4.9,4.6-9.8,5.6-14.9c2.8-13,0.6-29.2-3.1-43.8
		c-0.5-1.7-0.1-3.3,1.2-4.7c3.7-3.9,7.6-7.7,11.6-11.3c4-3.6,8.3-7.1,12.9-10.4c4.1-3,8.4-5.8,12.6-8.4c1.4-0.9,3-1.7,4.5-2.4
		c-1.5,3.3-2.8,6.7-4,10.1c-2.3,7.3-5.5,21.1-0.5,29.5c1.8,2.7,4.8,5,8.7,6.7c5,2.1,10.8,2.1,18.2-0.8c4.4-1.9,8.6-4,12.7-6.4
		c7.7-4.5,15.8-10.9,24-17.9c4-3.4,8-6.8,12.1-10.3c1.3-1.1,2.5-2.3,3.6-3.5c1.2-1.2,2.4-2.5,3.7-3.8
		C479.2,508.4,478,507.9,477.6,508z M424.8,492.4c0.9-1.5,2-3,3.2-4.5c2.7-3.6,5.6-6.9,8.8-9.9c5.2-5,12.2-10.3,20.8-12.7
		c3-0.8,4.8,0.4,5,3.3c0.2,2.4-0.3,4.6-1.2,6.6c-0.9,2-2.3,3.9-4.1,5.6c-1,0.9-1.9,1.8-2.9,2.6c-0.9,0.8-2,1.6-3.2,2.4
		c-7.5,4.3-16.4,8.4-26.5,11.3c-1.1,0.1-1.8,0.2-2.3,0.4c-0.2-0.2-0.3-0.4-0.5-0.6C422.9,495.4,423.9,493.9,424.8,492.4z
		 M212.8,478.5c0.7-1.6,1.5-3.2,2.4-4.9c2.1-3.9,4.5-7.6,7.2-11.2c2.7-3.5,5.8-6.9,9.3-9.9c2.9-2.4,6.1-4.3,9.4-5.8
		c2.8-1.3,4.8-0.4,5.5,2.6c0.5,2.3,0.4,4.6-0.2,6.8c-0.6,2.1-1.7,4.2-3.2,6.2c-0.8,1.1-1.6,2.1-2.4,3c-0.8,0.9-1.8,1.9-2.8,2.8
		c-3.8,3.1-7.7,5.8-11.7,8.3c-4,2.5-8.3,4.8-12.8,6.8c-1.1,0.2-1.8,0.5-2.2,0.7c-0.2-0.2-0.4-0.3-0.6-0.5
		C211.4,481.7,212.1,480.1,212.8,478.5z M152.4,475.6c0.8-2.9,1.6-5.8,2.6-8.7c2.6-8.7,5.8-17.2,9.4-25.4
		c3.6-8.3,7.7-16.4,12.3-24.4c2.1-3.6,4.4-7.1,7-10.4c2.5-3.3,5.5-6.5,8.8-9.4c1-0.7,2-1.4,3-2c1-0.6,2.2-1.2,3.2-1.8
		c1.4-0.8,2.4-0.6,3,0.8c0.5,1.3,1.1,2.6,1.6,4c0.5,1.4,1,2.8,1.2,4.2c0.8,4.5,0.3,9.4-0.8,13.9c-1.2,4.5-3,8.9-5.4,13.1
		c-5,9.2-10.8,17.9-17.2,26c-6.4,8.2-13.7,15.8-21.9,22.9c-1.1,1-2.4,2-3.6,2.9c-1.3,1-2.6,1.9-3.8,3c-0.4,0.2-0.6,0.4-1,0.6
		c-0.3-0.2-0.5-0.3-0.8-0.3C150.8,481.5,151.7,478.5,152.4,475.6z M90.5,543.6c-1.4,4-3.8,7.6-7.1,10.8c0.1-4.5,1.4-8.6,3.7-12.3
		c2.3-3.6,4.9-7.1,7.6-10.5C93.3,535.6,91.9,539.6,90.5,543.6z M296.1,489.5c-2.4,2.4-4.8,4.6-7.3,6.7c-2.5,2.1-5.3,3.9-8.4,5.4
		c-3.3,1.7-5.4,2.2-6.1,1.7c-0.8-0.5-1.4-2.3-2-5.4c-0.6-3.6,0-7.3,1.7-11c1.6-3.3,3.4-6.6,5.6-9.5c2.2-2.9,4.9-5.6,8-8
		c2.9-2.2,6.1-3.9,9.5-5.1c3.4-1.1,8.4-2.3,12.2-1.5c0.6,0.1,1.5,0.6,2.7,0.9c1.2,0.8,5.9,0.7,4.1,4.5
		C310,474.9,303.7,481.5,296.1,489.5z"/>
	<path d="M53.2,92.5c11.3,0.5,22.8-3.6,31.1-11.4C90.9,75,95.6,66.8,103,61.5c31.6-22.6,42.8,42.7,42.9,61.1
		c0,5.7-0.4,11.5-1.2,17.1l-5.8,39.6c2.2,0.7,8.2,3.3,26,3.3c15.9,0,36-2.3,59.6-6.7c3-0.6,5.9-1.2,8.8-1.8c0.4-1.7,1-3.4,1.9-5
		c2.6-4.8,6.8-8,12.2-9.3c1.7-0.4,3.4-0.6,5.1-0.6c5,0,8.9,1.8,11.6,3.6c2-3.7,6-8.5,13.5-10.3c1.5-0.4,3.1-0.6,4.6-0.6
		c3.5,0,6.7,1,9.5,2.7c12.8-6.6,17.9-11.8,18.1-12.1l-7.4-11.8c-13.7-22.1-30.1-42.4-48.9-60.4c-14.3-13.8-30-26.2-46.7-37
		c-8.4-5.4-17-10.5-25.9-15.1c-8.9-4.6-17.4-9.5-27.5-10.4c-21.8-1.9-43.2,9.4-59.4,23.4c-14.1,12.1-21.5,27-30.2,43
		c-3.7,7-10.6,13.9-18.4,12.4C44.7,90.3,49.5,92.4,53.2,92.5z"/>
	<path d="M76.5,282.5c4.7,0.4,9.6,0.7,14.8,0.8c0.5-0.3,1-0.4,1.6-0.4c0.7,0,1.3,0.2,1.8,0.5c11,0.3,22.9,0,35.6-0.7l1-6.9
		c0.2-1.5,1.4-2.7,2.9-2.9l32.2-4.1c0.1,0,0.3,0,0.4,0c0.9,0,1.8,0.4,2.5,1.1c0.7,0.8,1,1.9,0.8,3l-1.4,6.3c7.1-0.9,14.4-1.8,21.9-3
		c-0.2-0.3-0.3-0.6-0.5-1c-1.4-2.8-2.8-4.7-2.8-8c0-2.9,1-5.9,2.6-8.4c1.5-2.3,3-4.3,3.7-7c0.3-1.1,0.5-1.6,0-2.7
		c-0.2-0.5-1.7-2.5-2.4-2.3c3.3-0.9,6.8,0.4,9.2,2.7c-0.9-5.6-0.5-10.9,2.4-15.8c2.6-4.5,6.9-8.4,12.2-9.2c-1,2.4-1.6,5.1-2.4,7.6
		c-2.1,6.8,0.2,13.5,4.3,19.1c4.4,5.9,5.7,12.7,3.7,19.9c8.3-1.6,16.7-3.3,25.2-5.1c35.3-7.8,68.2-17.3,96.7-27.7l-13.5-20.1
		l25.2,15.7c59.6-23.1,97-49.5,92.6-69.2c-4.8-21.9-58.5-29.7-133.8-22.1c0.3,0.6,11.9,25,11.9,25c0.2,0.5,0.3,1,0.3,1.5
		c-0.1,1.9-1.7,14.5-33.1,28c-2.4,3.8-5.2,7.7-8.4,11.9c-2.5,3.2-6.2,5-10.3,5c-1.9,0-3.7-0.4-5.4-1.2c-3.3-1.5-6.3-3-9.1-4.6
		c-7.3,1.9-15.4,3.8-24.4,5.7c-19.3,3.9-36.8,5.9-52,5.9c-37.7,0-49.5-12.2-50-12.7c-0.8-0.8-1.1-1.9-0.8-3c0,0,4.8-22.8,5-23.1
		C63.5,206,15.7,236.5,20.5,258.7c1.9,8.5,11.2,14.8,26.4,19l56.1-24.9L76.5,282.5z"/>
	<path d="M348,77.3c23.1-3.9,39.1,27.3,41,30.9c4.5-3.9,25.5-29.4,40.6-13.2c17.3-21.3,39.9-14.7,56.8-7.5
		c-12.6-18.5-34.9-41.5-53.3-51.5c6.9,15.6-9.8,28.9-24.3,30.3c1.1-4.6,2.4-10.5,3.5-15.3c-12.3,6.9-22.4,2.5-33-3.5
		c0.3,5.1,1,12.2,1.3,17c-0.6,0.4-33.3-16.5-17.7-35.3c-22.8,4.5-42.2,12.9-61.4,26.4C306.4,56,346.8,52.4,348,77.3z"/>
	<path d="M40,182c13.5-12.6,37.6,0.9,40.4,2.4c1.3-4.5,4-30.4,20.9-26.3c2.1-21.5,19.8-27,34.1-29.6c-16.3-6.7-41-12.1-57.5-10.7
		c11.3,7.2,6.1,23.2-2.8,30.4c-1.3-3.5-3-7.9-4.4-11.6c-5.1,9.8-13.7,11.4-23.2,12c2.4,3.2,6,7.6,8.3,10.6c-0.2,0.5-29,3.6-27-15.5
		C15.9,156.7,6.7,170.7,0,188C3.4,186.2,28.4,166.2,40,182z"/>
	<path d="M461.3,396.3c5.2,10.6-6,20.3-16.1,21.7c0.6-3.2,1.4-7.4,2-10.7c-8.3,5.1-15.5,2.3-23-1.6c0.4,3.5,1,8.4,1.4,11.8
		c-0.4,0.3-23.5-10.6-13.2-24c-15.7,3.7-29,10.1-42,20c3.4,0.2,31.4-3.4,32.9,13.9c15.9-3.3,27.9,17.9,29.3,20.3
		c3-2.8,16.9-21.1,27.8-10.2c11.4-15.2,27.3-11.3,39.3-6.7C490.5,418.1,474.3,402.8,461.3,396.3z"/>
</g>
<g>
	<path class="st1" d="M305.2,129l6.4,10.4c16.9-1.7,32.9-2.6,47.7-2.8c10.6-8,19.1-18.7,24.4-31.1c-9.6-16.1-21-25.2-31.7-25.2
		c-1.1,0-2.3,0.1-3.4,0.3c-0.2,0-0.4,0-0.6,0c-0.8,0-1.5-0.3-2.1-0.7c-0.7-0.6-1.2-1.5-1.2-2.4C344.1,65,331.4,58.9,306,58.9l-2,0
		c-1.3,0-2.3,0-2.8-0.1c-1.4-0.1-2.5-1.1-2.9-2.5c-0.4-1.3,0.2-2.8,1.3-3.6c19.7-13.9,39.6-22.4,62.7-27c0.2,0,0.4-0.1,0.6-0.1
		c1.2,0,2.3,0.6,2.9,1.6c0.7,1.2,0.6,2.8-0.3,3.8c-3.1,3.8-4.1,7.5-3,11.5c1.9,6.7,9.2,12.7,14.3,16c-0.1-0.8-0.1-1.5-0.2-2.3
		c-0.3-3.1-0.5-6.2-0.7-8.8c-0.1-1.2,0.5-2.4,1.6-3.1c0.5-0.3,1.2-0.5,1.8-0.5c0.6,0,1.1,0.1,1.6,0.4c0.9,0.5,1.7,1,2.6,1.4
		C371.9,18.9,345.1,0,313.8,0c-34.5,0-63.6,23-72.8,54.5c5.1,4.3,10,8.7,14.8,13.3C274.8,86.1,291.4,106.7,305.2,129z"/>
	<path class="st1" d="M217.1,270.6c1.4-4.8,1.3-10.2-1-14.3c-1.1-2-2.7-3.8-4-5.7c-3.7-5.6-4.8-12.9-2.8-19.4
		c-4.7,3.6-7.1,9.8-6.1,15.6c0.9,4.8,3.9,9.5,2.6,14.2c-0.6,2-2.8,4-4.6,2.8c1.8-4.6,0.1-10.3-4-13.1c2.2,2.7,0.8,6.8-1.1,9.8
		c-1.9,2.9-4.5,5.9-4.3,9.4c0.1,2,1,3.8,2,5.5c3.8,6.7,12.7,9.3,18.6,3.5C214.5,276.7,216.1,273.8,217.1,270.6z"/>
	<path class="st1" d="M212.1,611.5l-0.4,0.6c1.7,0.1,3.4,0.2,5,0.2c3.5,0,6.9-0.3,10.3-0.7c0.2,0,0.3,0,0.5,0c1.4,0,2.6,0.8,3.1,2.1
		c0.6,1.4,0.1,3.1-1.2,4c-0.4,0.3-0.9,0.6-1.3,0.9c20.5-6.4,41.2-12.2,62.2-17.1c17.5-4.1,35.1-7.7,52.7-10.8
		c0.9-3.1,1.5-6.1,1.9-9.2c0.1-1.4,0.2-2.7,0.3-4c-36.9,6.4-72.6,15.6-108.7,26.4C228.4,606.2,220.2,608.8,212.1,611.5z"/>
	<path class="st1" d="M480.4,562.9c-36.7,0.9-76.2,5.4-113.1,10.9c0,4.7-0.4,9-1.1,13c14.5-2.2,29-4,43.6-5.4
		c22.6-2.2,45.4-3.6,68.1-4.1C485.4,577,487.9,562.7,480.4,562.9z"/>
	<path class="st1" d="M278.3,155.7c-10.8,2.6-12.9,12.6-12.9,12.6s-6.5-7.9-17.3-5.3c-10.8,2.6-13.8,14.1-11.3,21
		c2.3,6.3,9.9,15.4,32.4,25.8c4.1,1.9,8.9,0.7,11.6-2.8c15.3-19.5,17.9-31.1,17-37.8C297,161.9,289.1,153.1,278.3,155.7z M273.1,200
		c-21.7-10.1-25.9-17.6-26.7-19.9c-0.3-0.8-0.3-2.9,0.6-4.6c0.7-1.3,1.6-2,3.1-2.3c3.5-0.8,5.8,1,6.5,1.8c2.7,3.6,7.1,5.4,11.5,4.3
		c4.4-1.1,7.5-4.6,8.2-9.1c0.3-1,1.5-3.7,5-4.6c1.5-0.4,2.6-0.2,3.8,0.7c1.6,1.1,2.5,2.9,2.6,3.8C288,171.8,288.2,180.4,273.1,200z"
		/>
	<path class="st1" d="M245.7,81c6.7,5.8,12.9,12.2,20.3,17.1c-1.9-1.2-3.4-4-4.8-5.8c-1.6-2-3.3-4-4.9-5.9c-0.3-0.4-0.7-0.8-1-1.2
		c-4.2-4.7-8.6-9.1-13.2-13.3c-9.2-8.5-19-16.3-29.1-23.7c-7.8-5.8-15.9-11.1-24.3-16c-8.1-4.8-16.5-9.6-25.4-12.9
		c-16.2-6.1-35.7-2-49.5,8.3c4.6-3.4,14.1-4.3,19.6-4.8c7.8-0.7,15.6,0,23.1,2.1c2.8,0.8,5.8,2.2,8.5,3.3
		c12.3,4.9,23.7,11.8,34.7,19.2C215.5,57.8,231.6,68.7,245.7,81z"/>
	<path class="st1" d="M415.1,155.7c4.6,1.4,9.1,3.2,12,7.3c7.3,10.3-7.6,24.9-15.1,30.7c1.3-1,3.1-1.3,4.4-2.2
		c1.7-1.2,3.4-2.6,5.1-3.8c3.7-2.6,7.4-5.1,10.6-8.2c2.9-2.7,5.7-5.9,6.3-10c1-7.6-6.2-12.4-12.3-14.9c-16.9-7.1-35.6-9.5-53.8-9.4
		c-7.2,0-14.5,0-21.7,0.4c-7.5,0.4-14.5,0-22,1.3c2.2-0.4,5.2,0.2,7.4,0.3c3.1,0.1,6.1,0.4,9.2,0.7c6,0.6,12.2,0.5,18.3,0.5
		c6.1,0.4,12.3,0.6,18.3,1.3C393.3,150.8,404.2,152.2,415.1,155.7z"/>
</g>
</svg>
